<svg width="56" height="58" viewBox="0 0 56 58" fill="none" xmlns="http://www.w3.org/2000/svg">
<path d="M21.6146 49.9203L21.6144 49.9202C18.0369 48.0253 12.8639 45.0856 8.6706 41.1928C6.43595 39.1183 4.72114 36.9903 3.55236 34.8746C2.21689 32.4572 1.5531 29.9784 1.5531 27.5C1.5531 23.9197 2.25367 20.4509 3.63479 17.1856C4.96938 14.0303 6.87954 11.1969 9.31478 8.76167C11.75 6.32644 14.5834 4.41628 17.7387 3.08168L17.3492 2.16068L17.7387 3.08168C21.004 1.70057 24.4728 1 28.0531 1C31.6334 1 35.1022 1.70057 38.3675 3.08168C41.5228 4.41628 44.3562 6.32644 46.7914 8.76167C49.2267 11.1969 51.1368 14.0303 52.4714 17.1856C53.8525 20.4509 54.5531 23.9197 54.5531 27.5C54.5531 29.9778 53.953 32.4292 52.7551 34.7922C51.6934 36.8863 50.1288 38.9786 48.086 41.005C45.0086 44.0575 40.858 46.9779 35.3585 49.9246L35.3583 49.9247C34.1184 50.5894 33.1654 51.8636 32.3389 52.9685C32.3133 53.0027 32.2879 53.0367 32.2625 53.0706C31.5894 53.9697 30.9785 54.7797 30.3153 55.3768C29.6666 55.9609 29.066 56.25 28.4281 56.25C27.8177 56.25 27.2852 55.9977 26.7199 55.4841C26.1292 54.9474 25.5872 54.205 24.9504 53.3244C24.9288 53.2945 24.907 53.2644 24.8851 53.2341C24.0576 52.0888 23.0344 50.6728 21.6146 49.9203Z" fill="#34EAB2" stroke="white" stroke-width="2"/>
</svg>
