<svg width="24" height="24" viewBox="0 0 24 24" fill="none" xmlns="http://www.w3.org/2000/svg">
<path d="M19.3036 2H4.69642C3.20452 2 2 3.20489 2 4.69725V19.3089C2 20.7951 3.20452 22 4.69642 22H11.8991L11.9113 14.8502H10.0526C9.81412 14.8502 9.61846 14.6544 9.61235 14.4159L9.60624 12.1101C9.60624 11.8654 9.8019 11.6697 10.0465 11.6697H11.8991V9.44343C11.8991 6.86239 13.4766 5.45566 15.7817 5.45566H17.671C17.9156 5.45566 18.1113 5.65138 18.1113 5.89602V7.84098C18.1113 8.08563 17.9156 8.28135 17.671 8.28135H16.5093C15.2559 8.28135 15.0113 8.87462 15.0113 9.74924V11.6758H17.7628C18.0257 11.6758 18.2275 11.9021 18.1969 12.1651L17.9217 14.4709C17.8973 14.6911 17.7077 14.8563 17.4876 14.8563H15.0174V22H19.3036C20.7894 22 22 20.7951 22 19.3028V4.69725C21.9939 3.20489 20.7894 2 19.3036 2Z" fill="#4267B2"/>
</svg>
