<svg width="22" height="29" viewBox="0 0 22 29" fill="none" xmlns="http://www.w3.org/2000/svg">
<path d="M20.34 10.398C19.4418 8.51061 18.2762 6.76262 16.879 5.20798C16.807 5.12603 16.7193 5.05933 16.6211 5.01182C16.5229 4.9643 16.4161 4.93694 16.3072 4.93135C16.1982 4.92576 16.0892 4.94205 15.9867 4.97925C15.8841 5.01646 15.79 5.07383 15.71 5.14798L11.858 8.74798V1.22099C11.8517 1.06861 11.8069 0.920326 11.7276 0.790049C11.6483 0.659773 11.5372 0.551777 11.4048 0.476201C11.2723 0.400625 11.1228 0.359947 10.9703 0.357985C10.8178 0.356023 10.6674 0.392842 10.533 0.464985C6.76726 2.86678 3.70695 6.2256 1.665 10.198C0.582259 12.4044 0.0130329 14.8273 1.86815e-07 17.285C-0.000535965 20.1937 1.15299 22.9838 3.20742 25.0429C5.26184 27.102 8.0493 28.2619 10.958 28.268C18.546 28.268 25.007 20.42 20.34 10.398ZM8.428 24.094C8.428 21.978 10.128 20.425 10.957 19.794C11.778 20.461 13.483 22.087 13.483 24.094C13.483 24.7643 13.2167 25.4072 12.7427 25.8812C12.2687 26.3552 11.6258 26.6215 10.9555 26.6215C10.2852 26.6215 9.64229 26.3552 9.16829 25.8812C8.69429 25.4072 8.428 24.7643 8.428 24.094ZM14.745 25.82C15.996 23.072 13.926 19.75 11.425 18.101C11.2967 18.0163 11.147 17.9695 10.9932 17.9661C10.8395 17.9628 10.6879 18.0029 10.556 18.082C7.95 19.641 5.913 23.066 7.166 25.82C5.51952 25.0822 4.12149 23.884 3.14034 22.3699C2.15919 20.8558 1.63676 19.0902 1.636 17.286C1.636 11.34 5.508 6.16198 10.225 2.66498V10.628C10.2248 10.7873 10.2712 10.9432 10.3584 11.0766C10.4456 11.2099 10.5698 11.3149 10.7158 11.3787C10.8619 11.4424 11.0233 11.4621 11.1804 11.4353C11.3375 11.4085 11.4833 11.3365 11.6 11.228L16.2 6.93398C18.742 9.79272 20.1859 13.4615 20.274 17.286C20.2733 19.0901 19.751 20.8556 18.7701 22.3697C17.7891 23.8838 16.3913 25.082 14.745 25.82Z" fill="#8F01DF"/>
</svg>
