<svg width="23" height="22" viewBox="0 0 23 22" fill="none" xmlns="http://www.w3.org/2000/svg">
<path d="M10.8051 10.845H1.57906C1.4027 10.8455 1.23019 10.7934 1.08356 10.6955C0.936927 10.5975 0.822837 10.458 0.755861 10.2948C0.688885 10.1317 0.672063 9.95228 0.707545 9.77953C0.743026 9.60677 0.8292 9.44852 0.955058 9.32498L8.63406 1.77698H1.57906C1.46244 1.77698 1.34697 1.75401 1.23924 1.70938C1.1315 1.66476 1.03361 1.59935 0.951147 1.51689C0.868689 1.43443 0.80328 1.33654 0.758653 1.2288C0.714027 1.12106 0.691058 1.00559 0.691058 0.888977C0.691058 0.772363 0.714027 0.656891 0.758653 0.549154C0.80328 0.441417 0.868689 0.343524 0.951147 0.261066C1.03361 0.178607 1.1315 0.113198 1.23924 0.0685715C1.34697 0.0239454 1.46244 0.000976561 1.57906 0.000976563L10.8051 0.000976563C10.9811 0.00113408 11.1532 0.0536214 11.2993 0.15177C11.4455 0.249919 11.5592 0.389299 11.6259 0.552203C11.6927 0.715107 11.7095 0.894182 11.6743 1.06668C11.6391 1.23917 11.5534 1.3973 11.4281 1.52098L3.74706 9.06898H10.8041C10.9231 9.06498 11.0418 9.08498 11.1529 9.12778C11.2641 9.17058 11.3655 9.23531 11.4511 9.31812C11.5368 9.40092 11.6049 9.50011 11.6514 9.60978C11.6979 9.71945 11.7219 9.83735 11.7219 9.95648C11.7219 10.0756 11.6979 10.1935 11.6514 10.3032C11.6049 10.4128 11.5368 10.512 11.4511 10.5948C11.3655 10.6776 11.2641 10.7424 11.1529 10.7852C11.0418 10.828 10.9231 10.848 10.8041 10.844L10.8051 10.845ZM21.1421 12.669H16.7951L21.7681 7.78098C21.8936 7.65748 21.9796 7.49944 22.0151 7.32696C22.0505 7.15449 22.034 6.97535 21.9674 6.81232C21.9008 6.64929 21.7873 6.50973 21.6412 6.41138C21.4952 6.31303 21.3232 6.26033 21.1471 6.25998H14.6231C14.3875 6.25998 14.1617 6.35353 13.9951 6.52007C13.8286 6.6866 13.7351 6.91246 13.7351 7.14798C13.7351 7.38349 13.8286 7.60935 13.9951 7.77589C14.1617 7.94242 14.3875 8.03598 14.6231 8.03598H18.9721L13.9991 12.922C13.8736 13.0459 13.7879 13.2043 13.7526 13.3771C13.7174 13.5499 13.7343 13.7292 13.8011 13.8924C13.868 14.0556 13.9818 14.1952 14.1281 14.2936C14.2745 14.392 14.4467 14.4447 14.6231 14.445H21.1421C21.3776 14.445 21.6034 14.3514 21.77 14.1849C21.9365 14.0184 22.0301 13.7925 22.0301 13.557C22.0301 13.3215 21.9365 13.0956 21.77 12.9291C21.6034 12.7625 21.3776 12.669 21.1421 12.669ZM11.1171 20.225H8.08606L11.7411 16.635C11.8669 16.5113 11.9531 16.3529 11.9886 16.1801C12.0242 16.0072 12.0075 15.8277 11.9407 15.6644C11.8739 15.5011 11.76 15.3613 11.6135 15.2629C11.467 15.1646 11.2945 15.112 11.1181 15.112H5.91806C5.68255 15.112 5.45668 15.2055 5.29015 15.3721C5.12361 15.5386 5.03006 15.7645 5.03006 16C5.03006 16.2355 5.12361 16.4614 5.29015 16.6279C5.45668 16.7944 5.68255 16.888 5.91806 16.888H8.94706L5.29206 20.478C5.16664 20.6019 5.08088 20.7603 5.04564 20.9331C5.0104 21.1059 5.02728 21.2852 5.09413 21.4484C5.16098 21.6116 5.2748 21.7512 5.42113 21.8496C5.56747 21.948 5.73973 22.0007 5.91606 22.001H11.1161C11.3516 22.001 11.5774 21.9074 11.744 21.7409C11.9105 21.5744 12.0041 21.3485 12.0041 21.113C12.0041 20.8775 11.9105 20.6516 11.744 20.4851C11.5774 20.3185 11.3516 20.225 11.1161 20.225H11.1171Z" fill="#8F01DF"/>
</svg>
