<svg width="22" height="30" viewBox="0 0 22 30" fill="none" xmlns="http://www.w3.org/2000/svg">
<path fill-rule="evenodd" clip-rule="evenodd" d="M12.9999 0.779297C12.9999 0.779297 13.9866 4.31263 13.9866 7.1793C13.9866 9.92596 12.1866 12.1526 9.43992 12.1526C6.67992 12.1526 4.59992 9.92596 4.59992 7.1793L4.63992 6.6993C1.94659 9.8993 0.333252 14.046 0.333252 18.5526C0.333252 24.446 5.10659 29.2193 10.9999 29.2193C16.8933 29.2193 21.6666 24.446 21.6666 18.5526C21.6666 11.366 18.2133 4.95263 12.9999 0.779297ZM10.4266 17.4326C8.61325 17.806 7.53325 18.9793 7.53325 20.646C7.53325 22.4326 9.01325 23.8726 10.8533 23.8726C13.5866 23.8726 15.7999 21.6593 15.7999 18.926C15.7999 17.4993 15.5999 16.0993 15.1866 14.766C14.1333 16.1926 12.2533 17.0593 10.4266 17.4326ZM2.99992 18.5526C2.99992 22.966 6.58659 26.5526 10.9999 26.5526C15.4133 26.5526 18.9999 22.966 18.9999 18.5526C18.9999 15.1393 18.1199 11.846 16.4799 8.91263C15.7733 12.3793 12.9866 14.8193 9.43992 14.8193C7.35992 14.8193 5.49325 13.9926 4.14659 12.646C3.39992 14.4993 2.99992 16.5126 2.99992 18.5526Z" fill="#505050"/>
</svg>
