<svg width="37" height="36" viewBox="0 0 37 36" fill="none" xmlns="http://www.w3.org/2000/svg">
<path d="M4.09819 19.0467C4.02329 18.4059 3.98584 18.0854 4.0016 17.8213C4.08423 16.4366 5.10539 15.2891 6.47112 15.0463C6.73166 15 7.05425 15 7.69943 15H23.551C24.1962 15 24.5187 15 24.7793 15.0463C26.145 15.2891 27.1662 16.4366 27.2488 17.8213C27.2646 18.0854 27.2271 18.4059 27.1522 19.0467L26.5512 24.1888C26.2799 26.5094 25.0399 28.6071 23.1374 29.9635C21.7357 30.9629 20.0571 31.5 18.3356 31.5H12.9148C11.1933 31.5 9.51469 30.9629 8.11298 29.9635C6.21053 28.6071 4.97046 26.5094 4.69921 24.1888L4.09819 19.0467Z" stroke="#8F01DF" stroke-width="1.5"/>
<path opacity="0.5" d="M26.125 25.5H29.125C31.6103 25.5 33.625 23.4853 33.625 21C33.625 18.5147 31.6103 16.5 29.125 16.5H26.875" stroke="#34EAB2" stroke-width="1.5"/>
</svg>
