<svg width="36" height="36" viewBox="0 0 36 36" fill="none" xmlns="http://www.w3.org/2000/svg">
<circle cx="18" cy="18" r="18" fill="#34EAB2" fill-opacity="0.2"/>
<path fill-rule="evenodd" clip-rule="evenodd" d="M18.0002 7.25C16.1724 7.25 14.6613 7.41099 13.4984 7.60719L13.3635 7.62983C12.3533 7.79893 11.5137 7.93949 10.8571 8.74808C10.4361 9.26664 10.3002 9.82706 10.2689 10.4531L9.77686 10.6171C9.31373 10.7715 8.90781 10.9067 8.58577 11.0566C8.23762 11.2185 7.91857 11.4271 7.67466 11.7656C7.43076 12.104 7.33375 12.4726 7.2902 12.8541C7.24992 13.207 7.24996 13.6349 7.25 14.123L7.25001 14.2683C7.25 14.6701 7.24999 15.025 7.27965 15.3218C7.3118 15.6435 7.38299 15.9562 7.56083 16.2584C7.73867 16.5607 7.97748 16.7748 8.24307 16.9591C8.48813 17.1292 8.79836 17.3015 9.14962 17.4966L11.7908 18.964C12.3302 20.0252 13.0712 20.9713 14.0902 21.6548C14.9772 22.2497 16.0418 22.6232 17.3028 22.723C17.2687 22.8087 17.25 22.9022 17.25 23V24.75H15.8198C14.9856 24.75 14.2674 25.3388 14.1038 26.1568L13.8852 27.25H12C11.5858 27.25 11.25 27.5858 11.25 28C11.25 28.4142 11.5858 28.75 12 28.75H24C24.4142 28.75 24.75 28.4142 24.75 28C24.75 27.5858 24.4142 27.25 24 27.25H22.1149L21.8962 26.1568C21.7326 25.3388 21.0144 24.75 20.1802 24.75H18.75V23C18.75 22.9022 18.7313 22.8087 18.6972 22.723C19.9583 22.6233 21.023 22.2498 21.9101 21.6548C22.9292 20.9713 23.6703 20.025 24.2097 18.9637L26.8503 17.4966C27.2016 17.3015 27.5118 17.1292 27.7569 16.9591C28.0225 16.7748 28.2613 16.5607 28.4391 16.2584C28.617 15.9562 28.6882 15.6435 28.7203 15.3218C28.75 15.025 28.75 14.6701 28.75 14.2683L28.75 14.1231C28.75 13.6349 28.75 13.207 28.7098 12.8541C28.6662 12.4726 28.5692 12.104 28.3253 11.7656C28.0814 11.4271 27.7623 11.2185 27.4142 11.0566C27.0921 10.9067 26.6862 10.7715 26.2231 10.6171L25.7314 10.4532C25.7001 9.82713 25.5643 9.26668 25.1432 8.74808C24.4866 7.93949 23.647 7.79893 22.6368 7.62983L22.5019 7.60719C21.339 7.41099 19.8279 7.25 18.0002 7.25ZM20.5852 27.25L20.4253 26.451C20.402 26.3341 20.2994 26.25 20.1802 26.25H15.8198C15.7006 26.25 15.598 26.3341 15.5747 26.451L15.4149 27.25H20.5852ZM10.2885 12.0277L10.3021 12.0232C10.3737 13.5435 10.5454 15.2238 10.973 16.7937L9.90729 16.2016C9.51814 15.9854 9.27447 15.8491 9.09829 15.7268C8.93588 15.6141 8.88298 15.5476 8.85363 15.4977C8.82428 15.4479 8.79187 15.3693 8.77221 15.1726C8.75089 14.9592 8.75002 14.68 8.75001 14.2348L8.75001 14.1623C8.74999 13.6232 8.75111 13.2819 8.78053 13.0242C8.80775 12.7857 8.85231 12.697 8.89154 12.6426C8.93077 12.5882 9.0008 12.5179 9.21847 12.4166C9.45362 12.3072 9.77708 12.1982 10.2885 12.0277ZM25.6982 12.0233C25.6266 13.5435 25.4549 15.2236 25.0274 16.7935L26.0927 16.2016C26.4818 15.9854 26.7255 15.8491 26.9017 15.7268C27.0641 15.6141 27.117 15.5476 27.1463 15.4977C27.1757 15.4479 27.2081 15.3693 27.2277 15.1726C27.2491 14.9592 27.2499 14.68 27.25 14.2348L27.25 14.1623C27.25 13.6232 27.2488 13.2819 27.2194 13.0242C27.1922 12.7857 27.1477 12.697 27.1084 12.6426C27.0692 12.5882 26.9992 12.5179 26.7815 12.4166C26.5463 12.3072 26.2229 12.1982 25.7115 12.0277L25.6982 12.0233ZM13.748 9.08629C14.8332 8.90319 16.2608 8.75 18.0002 8.75C19.7395 8.75 21.1671 8.90319 22.2524 9.08629C23.4593 9.28992 23.7128 9.3661 23.9787 9.69358C24.2407 10.0163 24.2656 10.3216 24.2118 11.6767C24.1222 13.9354 23.8242 16.3727 22.9015 18.2264C22.446 19.1414 21.8505 19.8887 21.0746 20.409C20.3037 20.9261 19.3092 21.25 18.0002 21.25C16.6911 21.25 15.6966 20.9261 14.9257 20.409C14.1498 19.8887 13.5543 19.1414 13.0988 18.2264C12.1761 16.3727 11.8782 13.9354 11.7885 11.6767C11.7347 10.3216 11.7596 10.0163 12.0216 9.69358C12.2875 9.3661 12.541 9.28992 13.748 9.08629Z" fill="#8F01DF"/>
</svg>
