<svg width="37" height="36" viewBox="0 0 37 36" fill="none" xmlns="http://www.w3.org/2000/svg">
<path d="M7.76085 9.39912C7.56093 6.4003 7.46097 4.9009 8.35016 3.95045C9.23936 3 10.7421 3 13.7476 3H21.9209C24.9264 3 26.4291 3 27.3183 3.95045C28.2075 4.9009 28.1076 6.4003 27.9076 9.39911L27.3943 24.5987C27.1288 28.581 26.9961 30.5722 25.6986 31.7861C24.4011 33 22.4055 33 18.4143 33H17.2542C13.263 33 11.2674 33 9.9699 31.7861C8.67239 30.5722 8.53964 28.581 8.27415 24.5987L7.76085 9.39912Z" stroke="#8F01DF" stroke-width="1.5"/>
<path opacity="0.5" d="M27.5859 7H8.08594" stroke="#34EAB2" stroke-width="1.5"/>
</svg>
