<svg width="23" height="23" viewBox="0 0 23 23" fill="none" xmlns="http://www.w3.org/2000/svg">
<path d="M21.8991 13.192C20.2746 14.6904 18.1335 15.5024 15.924 15.4578C13.7144 15.4132 11.6078 14.5157 10.0451 12.953C8.48241 11.3903 7.58482 9.28362 7.54026 7.07408C7.49571 4.86454 8.30763 2.72343 9.80606 1.099C9.89987 0.992714 9.95691 0.859006 9.96871 0.717728C9.9805 0.57645 9.94642 0.435135 9.87152 0.314764C9.79663 0.194393 9.68491 0.101383 9.55296 0.0495434C9.42101 -0.00229612 9.27586 -0.0102013 9.13906 0.0270014C7.26132 0.560086 5.55551 1.57466 4.1907 2.97014C2.8259 4.36563 1.8495 6.09357 1.35828 7.98269C0.867067 9.87182 0.878097 11.8565 1.39028 13.7401C1.90246 15.6236 2.89801 17.3406 4.27824 18.7208C5.65847 20.101 7.37545 21.0966 9.259 21.6088C11.1425 22.121 13.1272 22.132 15.0164 21.6408C16.9055 21.1496 18.6334 20.1732 20.0289 18.8084C21.4244 17.4436 22.439 15.7377 22.9721 13.86C23.0099 13.7229 23.0024 13.5773 22.9507 13.4449C22.899 13.3124 22.8058 13.2003 22.6851 13.1251C22.5644 13.05 22.4226 13.0159 22.281 13.028C22.1393 13.04 22.0053 13.0975 21.8991 13.192ZM12.1991 20.682C10.0022 20.6826 7.86776 19.951 6.13314 18.6029C4.39851 17.2549 3.1626 15.3671 2.62075 13.2381C2.07889 11.1091 2.26199 8.86027 3.1411 6.84696C4.02021 4.83365 5.5452 3.17073 7.47506 2.121C6.45476 3.99375 6.06795 6.14642 6.37246 8.25723C6.67697 10.368 7.65644 12.3236 9.16445 13.8316C10.6725 15.3396 12.628 16.3191 14.7388 16.6236C16.8496 16.9281 19.0023 16.5413 20.8751 15.521C20.0225 17.0784 18.7678 18.3787 17.2419 19.2864C15.716 20.1941 13.9746 20.676 12.1991 20.682Z" fill="#8F01DF"/>
<path d="M11.9071 8.69491L13.4671 9.47491L14.2471 11.0349C14.3019 11.1442 14.386 11.236 14.49 11.3002C14.594 11.3644 14.7138 11.3983 14.836 11.3983C14.9583 11.3983 15.0781 11.3644 15.1821 11.3002C15.2861 11.236 15.3702 11.1442 15.425 11.0349L16.205 9.47491L17.765 8.69491C17.8743 8.64009 17.9661 8.55597 18.0303 8.45196C18.0945 8.34794 18.1285 8.22813 18.1285 8.10591C18.1285 7.98369 18.0945 7.86387 18.0303 7.75986C17.9661 7.65584 17.8743 7.57172 17.765 7.51691L16.205 6.73691L15.425 5.17691C15.3702 5.06767 15.2861 4.97583 15.1821 4.91165C15.0781 4.84747 14.9583 4.81348 14.836 4.81348C14.7138 4.81348 14.594 4.84747 14.49 4.91165C14.386 4.97583 14.3019 5.06767 14.2471 5.17691L13.4671 6.73691L11.9071 7.51691C11.7978 7.57172 11.706 7.65584 11.6418 7.75986C11.5776 7.86387 11.5436 7.98369 11.5436 8.10591C11.5436 8.22813 11.5776 8.34794 11.6418 8.45196C11.706 8.55597 11.7978 8.64009 11.9071 8.69491ZM14.2561 7.81591C14.3838 7.75218 14.4873 7.64864 14.5511 7.52091L14.8401 6.94291L15.1291 7.52091C15.1928 7.64864 15.2963 7.75218 15.4241 7.81591L16.002 8.10491L15.4241 8.39391C15.2967 8.45788 15.1936 8.56138 15.1301 8.68891L14.841 9.26691L14.552 8.68891C14.4883 8.56118 14.3848 8.45764 14.257 8.39391L13.679 8.10491L14.2561 7.81591Z" fill="#8F01DF"/>
<path d="M18.7841 3.55611H19.4431V4.21511C19.4396 4.30375 19.4541 4.39217 19.4856 4.47507C19.5172 4.55798 19.5651 4.63367 19.6266 4.6976C19.6881 4.76153 19.7618 4.81239 19.8434 4.84713C19.9251 4.88187 20.0129 4.89978 20.1016 4.89978C20.1903 4.89978 20.278 4.88187 20.3596 4.84713C20.4413 4.81239 20.515 4.76153 20.5765 4.6976C20.638 4.63367 20.686 4.55798 20.7175 4.47507C20.749 4.39217 20.7635 4.30375 20.7601 4.21511V3.55611H21.4191C21.5077 3.55957 21.5961 3.54509 21.679 3.51356C21.7619 3.48202 21.8376 3.43407 21.9016 3.37258C21.9655 3.3111 22.0163 3.23733 22.0511 3.15572C22.0858 3.0741 22.1037 2.98631 22.1037 2.89761C22.1037 2.80891 22.0858 2.72112 22.0511 2.63951C22.0163 2.55789 21.9655 2.48413 21.9016 2.42264C21.8376 2.36115 21.7619 2.3132 21.679 2.28167C21.5961 2.25013 21.5077 2.23566 21.4191 2.23911H20.7601V1.58011C20.7534 1.40991 20.6811 1.24888 20.5584 1.13081C20.4356 1.01273 20.2719 0.946777 20.1016 0.946777C19.9312 0.946777 19.7675 1.01273 19.6447 1.13081C19.522 1.24888 19.4497 1.40991 19.4431 1.58011V2.23911H18.7841C18.6954 2.23566 18.607 2.25013 18.5241 2.28167C18.4412 2.3132 18.3655 2.36115 18.3016 2.42264C18.2376 2.48413 18.1868 2.55789 18.152 2.63951C18.1173 2.72112 18.0994 2.80891 18.0994 2.89761C18.0994 2.98631 18.1173 3.0741 18.152 3.15572C18.1868 3.23733 18.2376 3.3111 18.3016 3.37258C18.3655 3.43407 18.4412 3.48202 18.5241 3.51356C18.607 3.54509 18.6954 3.55957 18.7841 3.55611Z" fill="#8F01DF"/>
</svg>
