<svg width="26" height="23" viewBox="0 0 26 23" fill="none" xmlns="http://www.w3.org/2000/svg">
<path d="M0.761065 17.921C1.19307 17.921 1.37707 18.086 1.75307 18.461C2.0057 18.765 2.3214 19.0105 2.67831 19.1804C3.03522 19.3503 3.4248 19.4406 3.82007 19.445C4.21533 19.4406 4.60491 19.3503 4.96182 19.1804C5.31873 19.0105 5.63444 18.765 5.88707 18.461C6.39807 17.952 6.46407 18.003 6.66507 17.938C7.23807 17.838 7.49507 18.086 7.87107 18.461C8.12086 18.7682 8.436 19.0159 8.79356 19.186C9.15112 19.3561 9.5421 19.4444 9.93807 19.4444C10.334 19.4444 10.725 19.3561 11.0826 19.186C11.4401 19.0159 11.7553 18.7682 12.0051 18.461C12.3811 18.087 12.5651 17.921 12.9971 17.921C13.4291 17.921 13.6131 18.086 13.9891 18.461C14.2389 18.7684 14.554 19.0162 14.9117 19.1864C15.2694 19.3567 15.6605 19.445 16.0566 19.445C16.4527 19.445 16.8438 19.3567 17.2014 19.1864C17.5591 19.0162 17.8743 18.7684 18.1241 18.461C18.5001 18.087 18.6841 17.921 19.1161 17.921C19.5481 17.921 19.7331 18.086 20.1081 18.461C20.3579 18.7684 20.673 19.0162 21.0307 19.1864C21.3884 19.3567 21.7795 19.445 22.1756 19.445C22.5717 19.445 22.9628 19.3567 23.3204 19.1864C23.6781 19.0162 23.9933 18.7684 24.2431 18.461C24.6191 18.087 24.8031 17.921 25.2351 17.921C25.4323 17.9138 25.619 17.8305 25.756 17.6884C25.8929 17.5464 25.9695 17.3568 25.9695 17.1595C25.9695 16.9622 25.8929 16.7726 25.756 16.6305C25.619 16.4885 25.4323 16.4051 25.2351 16.398C24.8398 16.4024 24.4502 16.4927 24.0933 16.6626C23.7364 16.8325 23.4207 17.078 23.1681 17.382C22.7921 17.756 22.6081 17.922 22.1761 17.922C21.4761 17.922 21.3071 17.375 20.6031 16.869C21.1936 15.5921 21.4531 14.1871 21.3578 12.7836C21.2625 11.38 20.8153 10.023 20.0576 8.83772C19.2998 7.65242 18.2559 6.67697 17.022 6.00128C15.788 5.3256 14.4039 4.97144 12.9971 4.97144C11.5903 4.97144 10.2061 5.3256 8.97218 6.00128C7.73826 6.67697 6.69431 7.65242 5.93656 8.83772C5.17881 10.023 4.73166 11.38 4.63633 12.7836C4.541 14.1871 4.80055 15.5921 5.39107 16.869C4.69107 17.369 4.51707 17.922 3.81907 17.922C3.38707 17.922 3.20307 17.757 2.82707 17.382C2.57444 17.078 2.25873 16.8325 1.90182 16.6626C1.54491 16.4927 1.15533 16.4024 0.760065 16.398C0.562879 16.4051 0.376152 16.4885 0.239179 16.6305C0.102205 16.7726 0.0256653 16.9622 0.0256653 17.1595C0.0256653 17.3568 0.102205 17.5464 0.239179 17.6884C0.376152 17.8305 0.562879 17.9138 0.760065 17.921H0.761065ZM6.14407 13.351C6.14476 12.318 6.37886 11.2986 6.82888 10.3688C7.27889 9.439 7.93318 8.62292 8.74288 7.98151C9.55257 7.3401 10.4967 6.88994 11.5048 6.66466C12.5129 6.43938 13.5589 6.4448 14.5646 6.68052C15.5703 6.91624 16.5098 7.37617 17.3128 8.02595C18.1158 8.67572 18.7615 9.49854 19.2019 10.4329C19.6422 11.3673 19.8658 12.3892 19.8557 13.4221C19.8457 14.455 19.6024 15.4723 19.1441 16.398C18.7445 16.3969 18.3497 16.4845 17.9881 16.6545C17.6265 16.8245 17.3072 17.0726 17.0531 17.381C16.6771 17.755 16.4931 17.921 16.0611 17.921C15.6291 17.921 15.4451 17.756 15.0691 17.381C14.8193 17.0738 14.5041 16.8261 14.1466 16.656C13.789 16.4858 13.398 16.3976 13.0021 16.3976C12.6061 16.3976 12.2151 16.4858 11.8576 16.656C11.5 16.8261 11.1849 17.0738 10.9351 17.381C10.5591 17.755 10.3751 17.921 9.94307 17.921C9.51107 17.921 9.32707 17.756 8.95107 17.381C8.69765 17.0721 8.37856 16.8236 8.01702 16.6536C7.65549 16.4835 7.26059 16.3962 6.86107 16.398C6.39034 15.4512 6.14494 14.4083 6.14407 13.351Z" fill="#8F01DF"/>
<path d="M25.2371 19.9532C24.8418 19.9576 24.4522 20.0478 24.0953 20.2177C23.7384 20.3877 23.4227 20.6331 23.1701 20.9372C22.7941 21.3112 22.6101 21.4771 22.1781 21.4771C21.7461 21.4771 21.5611 21.3122 21.1861 20.9372C20.9363 20.6298 20.6211 20.3819 20.2634 20.2117C19.9058 20.0415 19.5147 19.9531 19.1186 19.9531C18.7225 19.9531 18.3314 20.0415 17.9737 20.2117C17.6161 20.3819 17.3009 20.6298 17.0511 20.9372C16.6751 21.3112 16.4911 21.4771 16.0591 21.4771C15.6271 21.4771 15.4431 21.3122 15.0671 20.9372C14.8173 20.6299 14.5021 20.3822 14.1446 20.2121C13.787 20.042 13.396 19.9538 13.0001 19.9538C12.6041 19.9538 12.2131 20.042 11.8556 20.2121C11.498 20.3822 11.1829 20.6299 10.9331 20.9372C10.5571 21.3112 10.3731 21.4771 9.94107 21.4771C9.50907 21.4771 9.32507 21.3122 8.94907 20.9372C8.69928 20.6298 8.38409 20.3819 8.02644 20.2117C7.66878 20.0415 7.27767 19.9531 6.88157 19.9531C6.48548 19.9531 6.09436 20.0415 5.73671 20.2117C5.37906 20.3819 5.06386 20.6298 4.81407 20.9372C4.43807 21.3112 4.25407 21.4771 3.82207 21.4771C3.39007 21.4771 3.20607 21.3122 2.83007 20.9372C2.57723 20.6329 2.2612 20.3873 1.90392 20.2173C1.54665 20.0474 1.15668 19.9573 0.761073 19.9532C0.563886 19.9603 0.377159 20.0437 0.240186 20.1857C0.103212 20.3277 0.0266724 20.5173 0.0266724 20.7147C0.0266724 20.912 0.103212 21.1016 0.240186 21.2436C0.377159 21.3856 0.563886 21.469 0.761073 21.4762C1.19307 21.4762 1.37707 21.6411 1.75307 22.0161C2.0057 22.3202 2.32141 22.5657 2.67832 22.7356C3.03523 22.9055 3.42481 22.9957 3.82007 23.0002C4.21534 22.9957 4.60492 22.9055 4.96183 22.7356C5.31874 22.5657 5.63444 22.3202 5.88707 22.0161C6.26307 21.6421 6.44707 21.4762 6.87907 21.4762C7.31107 21.4762 7.49507 21.6411 7.87107 22.0161C8.12087 22.3234 8.43601 22.5711 8.79357 22.7412C9.15112 22.9113 9.54211 22.9996 9.93807 22.9996C10.334 22.9996 10.725 22.9113 11.0826 22.7412C11.4401 22.5711 11.7553 22.3234 12.0051 22.0161C12.3811 21.6421 12.5651 21.4762 12.9971 21.4762C13.4291 21.4762 13.6131 21.6411 13.9891 22.0161C14.2389 22.3235 14.5541 22.5714 14.9117 22.7416C15.2694 22.9118 15.6605 23.0002 16.0566 23.0002C16.4527 23.0002 16.8438 22.9118 17.2014 22.7416C17.5591 22.5714 17.8743 22.3235 18.1241 22.0161C18.5001 21.6421 18.6841 21.4762 19.1161 21.4762C19.5481 21.4762 19.7331 21.6411 20.1081 22.0161C20.3579 22.3235 20.6731 22.5714 21.0307 22.7416C21.3884 22.9118 21.7795 23.0002 22.1756 23.0002C22.5717 23.0002 22.9628 22.9118 23.3204 22.7416C23.6781 22.5714 23.9933 22.3235 24.2431 22.0161C24.6191 21.6421 24.8031 21.4762 25.2351 21.4762C25.4323 21.469 25.619 21.3856 25.756 21.2436C25.8929 21.1016 25.9695 20.912 25.9695 20.7147C25.9695 20.5173 25.8929 20.3277 25.756 20.1857C25.619 20.0437 25.4323 19.9603 25.2351 19.9532H25.2371Z" fill="#8F01DF"/>
<path d="M12.9991 3.44909C13.2011 3.44909 13.395 3.36881 13.5379 3.2259C13.6808 3.083 13.7611 2.88918 13.7611 2.68709V1.16409C13.7539 0.966902 13.6706 0.780173 13.5285 0.6432C13.3865 0.506226 13.1969 0.429688 12.9996 0.429688C12.8022 0.429688 12.6126 0.506226 12.4706 0.6432C12.3286 0.780173 12.2452 0.966902 12.2381 1.16409V2.68709C12.2381 2.88901 12.3182 3.08268 12.4609 3.22555C12.6036 3.36843 12.7971 3.44882 12.9991 3.44909Z" fill="#8F01DF"/>
<path d="M7.00705 4.497C7.11133 4.66539 7.27707 4.78657 7.46916 4.83485C7.66124 4.88313 7.86458 4.85472 8.03608 4.75564C8.20757 4.65656 8.33376 4.49461 8.38789 4.30409C8.44202 4.11356 8.41984 3.90945 8.32605 3.735L7.56405 2.416C7.45978 2.24761 7.29404 2.12644 7.10196 2.07816C6.90987 2.02989 6.70653 2.05829 6.53503 2.15736C6.36353 2.25644 6.23735 2.41841 6.18322 2.60893C6.12909 2.79945 6.15127 3.00355 6.24505 3.178L7.00705 4.497Z" fill="#8F01DF"/>
<path d="M2.06308 7.91817C3.34708 8.62517 3.41808 8.78217 3.76308 8.78217C3.93093 8.78242 4.09418 8.72724 4.22746 8.6252C4.36074 8.52316 4.45659 8.37998 4.50014 8.21787C4.54369 8.05576 4.53249 7.88381 4.46829 7.72872C4.40408 7.57362 4.29046 7.44406 4.14508 7.36017L2.82608 6.59818C2.65163 6.50439 2.44752 6.4822 2.257 6.53633C2.06648 6.59046 1.90452 6.71664 1.80544 6.88814C1.70637 7.05964 1.67795 7.26298 1.72623 7.45506C1.77451 7.64715 1.89569 7.8129 2.06408 7.91718L2.06308 7.91817Z" fill="#8F01DF"/>
<path d="M0.812067 14.1121H2.33507C2.53225 14.105 2.71898 14.0216 2.85595 13.8796C2.99293 13.7375 3.06947 13.5479 3.06947 13.3506C3.06947 13.1533 2.99293 12.9637 2.85595 12.8217C2.71898 12.6796 2.53225 12.5963 2.33507 12.5891H0.812067C0.614881 12.5963 0.428154 12.6796 0.291181 12.8217C0.154207 12.9637 0.0776672 13.1533 0.0776672 13.3506C0.0776672 13.5479 0.154207 13.7375 0.291181 13.8796C0.428154 14.0216 0.614881 14.105 0.812067 14.1121Z" fill="#8F01DF"/>
<path d="M22.9011 13.3511C22.9011 13.5532 22.9813 13.747 23.1242 13.8899C23.2671 14.0328 23.461 14.1131 23.6631 14.1131H25.1861C25.3833 14.1059 25.57 14.0226 25.7069 13.8806C25.8439 13.7385 25.9205 13.5489 25.9205 13.3516C25.9205 13.1543 25.8439 12.9646 25.7069 12.8226C25.57 12.6806 25.3833 12.5972 25.1861 12.5901H23.6631C23.4611 12.5901 23.2675 12.6702 23.1246 12.8129C22.9817 12.9556 22.9013 13.1492 22.9011 13.3511Z" fill="#8F01DF"/>
<path d="M22.6161 8.67917L23.9351 7.91718C24.1035 7.8129 24.2246 7.64715 24.2729 7.45506C24.3212 7.26298 24.2928 7.05964 24.1937 6.88814C24.0947 6.71664 23.9327 6.59046 23.7422 6.53633C23.5516 6.4822 23.3475 6.50439 23.1731 6.59818L21.8541 7.36017C21.6857 7.46444 21.5645 7.63018 21.5162 7.82227C21.468 8.01435 21.4964 8.21769 21.5954 8.38919C21.6945 8.56069 21.8565 8.68688 22.047 8.74101C22.2375 8.79514 22.4417 8.77296 22.6161 8.67917Z" fill="#8F01DF"/>
<path d="M17.9501 4.77606C18.125 4.87681 18.3328 4.90403 18.5278 4.85172C18.7228 4.79941 18.889 4.67185 18.9901 4.49706L19.7521 3.17806C19.8058 3.09132 19.8415 2.99467 19.8572 2.89385C19.8729 2.79303 19.8681 2.6901 19.8432 2.59115C19.8184 2.4922 19.7739 2.39925 19.7124 2.31782C19.6509 2.23638 19.5738 2.16812 19.4854 2.11708C19.3971 2.06604 19.2994 2.03327 19.1981 2.0207C19.0969 2.00813 18.9941 2.01602 18.896 2.0439C18.7978 2.07178 18.7063 2.11909 18.6268 2.18302C18.5472 2.24695 18.4814 2.3262 18.4331 2.41606L17.6711 3.73506C17.621 3.82173 17.5886 3.91742 17.5755 4.01664C17.5624 4.11586 17.569 4.21669 17.5949 4.31336C17.6208 4.41002 17.6655 4.50064 17.7265 4.58003C17.7874 4.65943 17.8634 4.72604 17.9501 4.77606Z" fill="#8F01DF"/>
</svg>
