<svg width="118" height="36" viewBox="0 0 118 36" fill="none" xmlns="http://www.w3.org/2000/svg">
<path d="M28.7891 22.6758V15.6567H29.6509V18.1752C30.0531 17.7092 30.5606 17.4761 31.1734 17.4761C31.5501 17.4761 31.8773 17.5512 32.155 17.7012C32.4327 17.848 32.6306 18.0523 32.7487 18.314C32.87 18.5758 32.9306 18.9556 32.9306 19.4536V22.6758H32.0688V19.4536C32.0688 19.0226 31.9746 18.7098 31.7863 18.5151C31.6012 18.3172 31.3378 18.2183 30.9963 18.2183C30.7409 18.2183 30.4999 18.2853 30.2733 18.4194C30.0499 18.5502 29.8903 18.729 29.7945 18.9556C29.6988 19.1822 29.6509 19.4951 29.6509 19.894V22.6758H28.7891Z" fill="black"/>
<path d="M26.8111 21.0383L27.7016 21.1484C27.5612 21.6687 27.301 22.0725 26.9212 22.3597C26.5413 22.647 26.0562 22.7907 25.4657 22.7907C24.7219 22.7907 24.1314 22.5624 23.6941 22.106C23.26 21.6463 23.043 21.0032 23.043 20.1765C23.043 19.321 23.2632 18.6571 23.7037 18.1847C24.1442 17.7123 24.7155 17.4761 25.4178 17.4761C26.0977 17.4761 26.6531 17.7075 27.084 18.1703C27.5149 18.6332 27.7303 19.2843 27.7303 20.1238C27.7303 20.1749 27.7287 20.2515 27.7256 20.3536H23.9335C23.9654 20.9122 24.1234 21.3399 24.4075 21.6368C24.6916 21.9336 25.0459 22.082 25.4704 22.082C25.7864 22.082 26.0562 21.9991 26.2796 21.8331C26.503 21.6671 26.6802 21.4022 26.8111 21.0383ZM23.9814 19.645H26.8206C26.7823 19.2173 26.6738 18.8965 26.4951 18.6826C26.2205 18.3507 25.8646 18.1847 25.4274 18.1847C25.0316 18.1847 24.698 18.3172 24.4267 18.5821C24.1586 18.847 24.0101 19.2013 23.9814 19.645Z" fill="black"/>
<path d="M21.1289 22.6758V15.6567H21.9907V22.6758H21.1289Z" fill="black"/>
<path d="M15.3711 20.1334C15.3711 19.1917 15.6328 18.4943 16.1563 18.041C16.5936 17.6644 17.1267 17.4761 17.7555 17.4761C18.4545 17.4761 19.0259 17.7059 19.4696 18.1655C19.9132 18.622 20.1351 19.254 20.1351 20.0615C20.1351 20.7159 20.0361 21.2314 19.8382 21.608C19.6435 21.9815 19.3578 22.272 18.9812 22.4794C18.6077 22.6869 18.1992 22.7907 17.7555 22.7907C17.0437 22.7907 16.4675 22.5624 16.027 22.106C15.5897 21.6495 15.3711 20.992 15.3711 20.1334ZM16.2569 20.1334C16.2569 20.7845 16.3989 21.2729 16.683 21.5985C16.9671 21.9209 17.3246 22.082 17.7555 22.082C18.1832 22.082 18.5391 21.9193 18.8232 21.5937C19.1073 21.2681 19.2493 20.7718 19.2493 20.1046C19.2493 19.4758 19.1057 19.0002 18.8184 18.6778C18.5343 18.3523 18.18 18.1895 17.7555 18.1895C17.3246 18.1895 16.9671 18.3507 16.683 18.6731C16.3989 18.9954 16.2569 19.4822 16.2569 20.1334Z" fill="black"/>
<path d="M32.0703 6.84193V5.85083H32.9321V6.84193H32.0703ZM32.0703 12.8699V7.78515H32.9321V12.8699H32.0703Z" fill="black"/>
<path d="M26.8164 11.3521L27.6687 11.218C27.7165 11.5596 27.849 11.8213 28.0661 12.0032C28.2863 12.1852 28.5927 12.2761 28.9853 12.2761C29.3811 12.2761 29.6748 12.1963 29.8663 12.0367C30.0578 11.874 30.1536 11.684 30.1536 11.467C30.1536 11.2723 30.069 11.1191 29.8998 11.0073C29.7817 10.9307 29.4881 10.8334 29.0188 10.7153C28.3868 10.5557 27.948 10.4184 27.7022 10.3035C27.4596 10.1854 27.2745 10.0242 27.1468 9.81994C27.0223 9.61246 26.96 9.38424 26.96 9.13527C26.96 8.90864 27.0111 8.69957 27.1133 8.50805C27.2186 8.31334 27.3606 8.15215 27.5394 8.02447C27.6734 7.92552 27.8554 7.84253 28.0852 7.7755C28.3182 7.70528 28.5672 7.67017 28.8321 7.67017C29.2311 7.67017 29.5806 7.72762 29.8807 7.84253C30.1839 7.95744 30.4073 8.11385 30.551 8.31175C30.6946 8.50646 30.7936 8.76819 30.8478 9.09697L30.0052 9.21188C29.9669 8.95014 29.8551 8.74585 29.67 8.59902C29.4881 8.45219 29.2295 8.37878 28.8944 8.37878C28.4986 8.37878 28.2161 8.44421 28.0469 8.57508C27.8777 8.70595 27.7931 8.85917 27.7931 9.03472C27.7931 9.14644 27.8283 9.24699 27.8985 9.33636C27.9687 9.42893 28.0788 9.50553 28.2288 9.56618C28.315 9.5981 28.5688 9.67151 28.9901 9.78643C29.5998 9.94921 30.0243 10.0833 30.2637 10.1886C30.5063 10.2908 30.6962 10.4408 30.8335 10.6387C30.9707 10.8366 31.0393 11.0824 31.0393 11.376C31.0393 11.6633 30.9548 11.9346 30.7856 12.19C30.6196 12.4421 30.3786 12.6384 30.0626 12.7789C29.7466 12.9161 29.3891 12.9848 28.9901 12.9848C28.3294 12.9848 27.8251 12.8475 27.4771 12.573C27.1324 12.2985 26.9122 11.8915 26.8164 11.3521Z" fill="black"/>
<path d="M25.0242 12.2426C24.705 12.5139 24.3969 12.7055 24.1001 12.8172C23.8064 12.9289 23.4904 12.9848 23.1521 12.9848C22.5935 12.9848 22.1642 12.8491 21.8641 12.5778C21.5641 12.3033 21.4141 11.9538 21.4141 11.5292C21.4141 11.2803 21.4699 11.0536 21.5816 10.8493C21.6965 10.6419 21.845 10.4759 22.0269 10.3514C22.212 10.2269 22.4195 10.1328 22.6493 10.0689C22.8185 10.0242 23.0739 9.98113 23.4154 9.93964C24.1113 9.85665 24.6236 9.7577 24.9523 9.64279C24.9555 9.52469 24.9571 9.44967 24.9571 9.41776C24.9571 9.06664 24.8757 8.81927 24.7129 8.67563C24.4927 8.48092 24.1655 8.38357 23.7314 8.38357C23.326 8.38357 23.026 8.45538 22.8313 8.59902C22.6398 8.73947 22.4977 8.99003 22.4052 9.35072L21.5625 9.23581C21.6391 8.87512 21.7652 8.58466 21.9407 8.36441C22.1163 8.14098 22.37 7.97021 22.702 7.85211C23.034 7.73081 23.4186 7.67017 23.8559 7.67017C24.29 7.67017 24.6427 7.72124 24.914 7.82338C25.1853 7.92552 25.3848 8.0548 25.5125 8.2112C25.6402 8.36441 25.7296 8.55912 25.7806 8.79533C25.8094 8.94216 25.8237 9.20709 25.8237 9.59012V10.7392C25.8237 11.5404 25.8413 12.0479 25.8764 12.2618C25.9147 12.4724 25.9881 12.6751 26.0966 12.8698H25.1965C25.1071 12.6911 25.0497 12.482 25.0242 12.2426ZM24.9523 10.3179C24.6395 10.4456 24.1703 10.5541 23.5447 10.6435C23.1904 10.6945 22.9398 10.752 22.793 10.8158C22.6462 10.8797 22.5328 10.9738 22.453 11.0983C22.3732 11.2196 22.3333 11.3553 22.3333 11.5053C22.3333 11.7351 22.4195 11.9266 22.5919 12.0798C22.7674 12.2331 23.0228 12.3097 23.358 12.3097C23.6899 12.3097 23.9852 12.2378 24.2437 12.0942C24.5023 11.9474 24.6922 11.7479 24.8135 11.4957C24.906 11.301 24.9523 11.0137 24.9523 10.6339V10.3179Z" fill="black"/>
<path d="M15.5561 12.8699L14 7.78516H14.8906L15.6997 10.7201L16.0013 11.8118C16.0141 11.7575 16.1019 11.408 16.2647 10.7632L17.0738 7.78516H17.9596L18.7209 10.7345L18.9746 11.7065L19.2667 10.7249L20.1381 7.78516H20.976L19.3864 12.8699H18.4911L17.6819 9.82481L17.4856 8.9582L16.4562 12.8699H15.5561Z" fill="black"/>
<path d="M12.4773 12.2426C12.1581 12.5139 11.8501 12.7055 11.5532 12.8172C11.2595 12.9289 10.9435 12.9848 10.6052 12.9848C10.0466 12.9848 9.61729 12.8491 9.31725 12.5778C9.01721 12.3033 8.86719 11.9538 8.86719 11.5292C8.86719 11.2803 8.92305 11.0536 9.03476 10.8493C9.14967 10.6419 9.2981 10.4759 9.48004 10.3514C9.66517 10.2269 9.87265 10.1328 10.1025 10.0689C10.2716 10.0242 10.527 9.98113 10.8685 9.93964C11.5644 9.85665 12.0767 9.7577 12.4055 9.64279C12.4086 9.52469 12.4102 9.44967 12.4102 9.41776C12.4102 9.06664 12.3289 8.81927 12.1661 8.67563C11.9458 8.48092 11.6186 8.38357 11.1845 8.38357C10.7792 8.38357 10.4791 8.45538 10.2844 8.59902C10.0929 8.73947 9.95085 8.99003 9.85829 9.35072L9.01561 9.23581C9.09222 8.87512 9.2183 8.58466 9.39386 8.36441C9.56942 8.14098 9.82317 7.97021 10.1551 7.85211C10.4871 7.73081 10.8717 7.67017 11.309 7.67017C11.7431 7.67017 12.0958 7.72124 12.3672 7.82338C12.6385 7.92552 12.838 8.0548 12.9656 8.2112C13.0933 8.36441 13.1827 8.55912 13.2338 8.79533C13.2625 8.94216 13.2769 9.20709 13.2769 9.59012V10.7392C13.2769 11.5404 13.2944 12.0479 13.3295 12.2618C13.3678 12.4724 13.4412 12.6751 13.5498 12.8698H12.6496C12.5603 12.6911 12.5028 12.482 12.4773 12.2426ZM12.4055 10.3179C12.0926 10.4456 11.6234 10.5541 10.9978 10.6435C10.6435 10.6945 10.3929 10.752 10.2461 10.8158C10.0993 10.8797 9.98596 10.9738 9.90617 11.0983C9.82637 11.2196 9.78647 11.3553 9.78647 11.5053C9.78647 11.7351 9.87265 11.9266 10.045 12.0798C10.2206 12.2331 10.4759 12.3097 10.8111 12.3097C11.143 12.3097 11.4383 12.2378 11.6968 12.0942C11.9554 11.9474 12.1453 11.7479 12.2666 11.4957C12.3592 11.301 12.4055 11.0137 12.4055 10.6339V10.3179Z" fill="black"/>
<path d="M6.98047 6.84193V5.85083H7.84229V6.84193H6.98047ZM6.98047 12.8699V7.78515H7.84229V12.8699H6.98047Z" fill="black"/>
<path d="M0 12.8699V5.85083H2.4179C2.96372 5.85083 3.38027 5.88435 3.66754 5.95138C4.06973 6.04394 4.41286 6.21152 4.69695 6.45411C5.06721 6.76692 5.34331 7.16751 5.52526 7.65587C5.71039 8.14105 5.80295 8.69645 5.80295 9.32207C5.80295 9.85512 5.74071 10.3275 5.61623 10.7393C5.49174 11.1511 5.33214 11.4926 5.13743 11.7639C4.94273 12.032 4.72887 12.2443 4.49585 12.4007C4.26603 12.5539 3.98674 12.6704 3.65797 12.7502C3.33239 12.83 2.95734 12.8699 2.53281 12.8699H0ZM0.928856 12.0416H2.42747C2.89031 12.0416 3.25259 11.9985 3.51433 11.9123C3.77926 11.8262 3.98993 11.7049 4.14634 11.5485C4.36658 11.3282 4.53735 11.033 4.65864 10.6627C4.78313 10.2892 4.84537 9.83757 4.84537 9.30771C4.84537 8.57356 4.72408 8.01018 4.48149 7.61757C4.24209 7.22177 3.95003 6.95684 3.6053 6.82278C3.35633 6.72702 2.95574 6.67914 2.40353 6.67914H0.928856V12.0416Z" fill="black"/>
<g clip-path="url(#clip0_5324_14547)">
<path d="M78.0547 6.31114C78.0547 6.0532 78.2421 5.8447 78.5231 5.8447C78.7931 5.8447 78.993 6.02151 78.993 6.31114V7.67676L80.5334 6.02151C80.6023 5.94495 80.7213 5.8447 80.896 5.8447C81.1338 5.8447 81.3598 6.02876 81.3598 6.2993C81.3598 6.46326 81.2589 6.59557 81.0529 6.80525L79.87 7.97899L81.3154 9.50171C81.4659 9.65441 81.5785 9.79268 81.5785 9.98226C81.5785 10.2795 81.3471 10.4177 81.0902 10.4177C80.909 10.4177 80.7899 10.3115 80.614 10.1209L78.993 8.353V9.96317C78.993 10.2107 78.8053 10.4177 78.5231 10.4177C78.2546 10.4177 78.0547 10.2417 78.0547 9.96317V6.31114Z" fill="#231916"/>
<path d="M82.0312 6.43239C82.0312 6.11593 82.1876 5.88148 82.5194 5.88148H84.0715C84.3724 5.88148 84.5169 6.09685 84.5169 6.3172C84.5169 6.5316 84.3663 6.75421 84.0715 6.75421H82.9706V7.67688H83.9968C84.3039 7.67688 84.4536 7.89044 84.4536 8.11305C84.4536 8.32745 84.2974 8.54889 83.9968 8.54889H82.9706V9.50965H84.1285C84.4292 9.50965 84.5732 9.72443 84.5732 9.94453C84.5732 10.1602 84.4227 10.3804 84.1285 10.3804H82.5126C82.2376 10.3804 82.0312 10.1916 82.0312 9.90619V6.43239Z" fill="#231916"/>
<path d="M85.5453 6.33111C85.5835 6.10364 85.8272 5.84482 86.1585 5.84482C86.4719 5.84482 86.7165 6.07216 86.7854 6.29954L87.5235 8.80127H87.5369L88.2747 6.29954C88.3434 6.07216 88.5876 5.84482 88.9004 5.84482C89.2327 5.84482 89.4766 6.10364 89.5142 6.33111L90.0957 9.85684C90.1028 9.89481 90.1028 9.93115 90.1028 9.96342C90.1028 10.2418 89.9021 10.418 89.6527 10.418C89.3333 10.418 89.2077 10.2731 89.1633 9.97623L88.7945 7.40492H88.7822L88.0305 10.0516C87.9864 10.2049 87.8681 10.418 87.5297 10.418C87.1922 10.418 87.0726 10.2049 87.0297 10.0516L86.2775 7.40492H86.2653L85.8959 9.97623C85.8518 10.2731 85.7272 10.418 85.4077 10.418C85.1575 10.418 84.957 10.2418 84.957 9.96342C84.957 9.93115 84.957 9.89481 84.9632 9.85684L85.5453 6.33111Z" fill="#231916"/>
<path d="M90.6875 6.43239C90.6875 6.11593 90.8444 5.88148 91.1759 5.88148H92.729C93.0301 5.88148 93.1734 6.09685 93.1734 6.3172C93.1734 6.5316 93.0227 6.75421 92.729 6.75421H91.6271V7.67688H92.6538C92.9595 7.67688 93.1106 7.89044 93.1106 8.11305C93.1106 8.32745 92.9542 8.54889 92.6538 8.54889H91.6271V9.50965H92.7851C93.0858 9.50965 93.2293 9.72443 93.2293 9.94453C93.2293 10.1602 93.0793 10.3804 92.7851 10.3804H91.1698C90.8944 10.3804 90.6875 10.1916 90.6875 9.90619V6.43239Z" fill="#231916"/>
<path d="M93.707 6.33822C93.707 6.02176 93.9081 5.8447 94.1769 5.8447C94.2958 5.8447 94.4897 5.93867 94.5714 6.0532L96.5557 8.72521H96.5687V6.33822C96.5687 6.02176 96.7685 5.8447 97.0373 5.8447C97.3072 5.8447 97.5076 6.02176 97.5076 6.33822V9.92625C97.5076 10.2419 97.3072 10.418 97.0373 10.418C96.9185 10.418 96.7316 10.3237 96.6431 10.2108L94.6587 7.56952H94.6463V9.92625C94.6463 10.2419 94.4465 10.418 94.1769 10.418C93.9081 10.418 93.707 10.2419 93.707 9.92625V6.33822Z" fill="#231916"/>
<path d="M98.94 6.75422H98.2577C97.9574 6.75422 97.832 6.53149 97.832 6.31708C97.832 6.09699 97.9881 5.88137 98.2577 5.88137H100.561C100.83 5.88137 100.987 6.09699 100.987 6.31708C100.987 6.53149 100.861 6.75422 100.561 6.75422H99.8791V9.92625C99.8791 10.2415 99.6784 10.4177 99.4085 10.4177C99.1402 10.4177 98.94 10.2415 98.94 9.92625V6.75422Z" fill="#231916"/>
<path d="M101.348 6.43239C101.348 6.11593 101.504 5.88148 101.836 5.88148H103.388C103.689 5.88148 103.832 6.09685 103.832 6.3172C103.832 6.5316 103.682 6.75421 103.388 6.75421H102.287V7.67688H103.314C103.62 7.67688 103.771 7.89044 103.771 8.11305C103.771 8.32745 103.613 8.54889 103.314 8.54889H102.287V9.50965H103.445C103.745 9.50965 103.889 9.72443 103.889 9.94453C103.889 10.1602 103.74 10.3804 103.445 10.3804H101.829C101.554 10.3804 101.348 10.1916 101.348 9.90619V6.43239Z" fill="#231916"/>
<path d="M105.341 7.87325H105.985C106.33 7.87325 106.568 7.66383 106.568 7.30986C106.568 6.94962 106.33 6.75409 105.985 6.75409H105.341V7.87325ZM104.402 6.37476C104.402 6.07216 104.572 5.88137 104.884 5.88137H105.985C106.95 5.88137 107.545 6.31733 107.545 7.30986C107.545 8.00519 107.025 8.40306 106.387 8.50441L107.451 9.6537C107.539 9.74767 107.576 9.84332 107.576 9.93115C107.576 10.1779 107.382 10.418 107.106 10.418C106.994 10.418 106.843 10.3739 106.744 10.2528L105.354 8.55543H105.341V9.92612C105.341 10.2415 105.141 10.418 104.872 10.418C104.602 10.418 104.402 10.2415 104.402 9.92612V6.37476Z" fill="#231916"/>
<path d="M108.039 6.33822C108.039 6.02176 108.24 5.84532 108.509 5.84532C108.779 5.84532 108.978 6.02176 108.978 6.33822V9.92625C108.978 10.2419 108.779 10.418 108.509 10.418C108.24 10.418 108.039 10.2419 108.039 9.92625V6.33822Z" fill="#231916"/>
<path d="M110.8 8.62509H111.99L111.407 6.79173H111.396L110.8 8.62509ZM110.732 6.33111C110.838 6.04085 111.082 5.80627 111.402 5.80627C111.733 5.80627 111.965 6.02888 112.072 6.33111L113.299 9.76785C113.336 9.86835 113.349 9.95785 113.349 10.0013C113.349 10.2475 113.148 10.418 112.916 10.418C112.653 10.418 112.522 10.2798 112.459 10.0891L112.271 9.4966H110.531L110.344 10.0844C110.281 10.2797 110.149 10.418 109.893 10.418C109.642 10.418 109.43 10.2283 109.43 9.97623C109.43 9.8743 109.461 9.7992 109.473 9.76785L110.732 6.33111Z" fill="#231916"/>
<path d="M113.762 6.33822C113.762 6.02176 113.962 5.84532 114.231 5.84532C114.35 5.84532 114.545 5.93867 114.626 6.0532L116.61 8.72521H116.623V6.33822C116.623 6.02176 116.824 5.84532 117.092 5.84532C117.362 5.84532 117.561 6.02176 117.561 6.33822V9.92625C117.561 10.2419 117.362 10.418 117.092 10.418C116.973 10.418 116.786 10.3237 116.698 10.2108L114.713 7.56952H114.701V9.92625C114.701 10.2419 114.501 10.418 114.231 10.418C113.962 10.418 113.762 10.2419 113.762 9.92625V6.33822Z" fill="#231916"/>
<path d="M78.0547 12.8039C78.0547 12.545 78.2421 12.3373 78.5231 12.3373C78.7931 12.3373 78.993 12.5143 78.993 12.8039V14.1687L80.5334 12.5143C80.6023 12.4381 80.7213 12.3373 80.896 12.3373C81.1338 12.3373 81.3598 12.5189 81.3598 12.7915C81.3598 12.9547 81.2589 13.0883 81.0529 13.2972L79.87 14.4718L81.3154 15.9945C81.4659 16.1462 81.5785 16.285 81.5785 16.4752C81.5785 16.771 81.3471 16.9099 81.0902 16.9099C80.909 16.9099 80.7899 16.8024 80.614 16.613L78.993 14.8444V16.4565C78.993 16.7027 78.8053 16.9099 78.5231 16.9099C78.2546 16.9099 78.0547 16.7329 78.0547 16.4565V12.8039Z" fill="#231916"/>
<path d="M82.0312 12.9235C82.0312 12.6094 82.1876 12.3742 82.5194 12.3742H84.0715C84.3724 12.3742 84.5169 12.5899 84.5169 12.8102C84.5169 13.025 84.3663 13.246 84.0715 13.246H82.9706V14.169H83.9968C84.3039 14.169 84.4536 14.3835 84.4536 14.6041C84.4536 14.8191 84.2974 15.0399 83.9968 15.0399H82.9706V16.0005H84.1285C84.4292 16.0005 84.5732 16.2155 84.5732 16.4363C84.5732 16.6513 84.4227 16.8733 84.1285 16.8733H82.5126C82.2376 16.8733 82.0312 16.6833 82.0312 16.3989V12.9235Z" fill="#231916"/>
<path d="M87.7243 12.931C87.7243 13.1762 87.5616 13.3979 87.3053 13.3979C87.0475 13.3979 86.8481 13.2085 86.4719 13.2085C86.2032 13.2085 85.9592 13.3549 85.9592 13.6191C85.9592 14.2686 88.0502 13.8524 88.0502 15.4828C88.0502 16.3858 87.3107 16.9492 86.4473 16.9492C85.9651 16.9492 84.9258 16.8334 84.9258 16.242C84.9258 15.9945 85.0885 15.7929 85.3451 15.7929C85.6398 15.7929 85.9903 16.0391 86.3972 16.0391C86.8106 16.0391 87.0356 15.8064 87.0356 15.4945C87.0356 14.7495 84.9447 15.1985 84.9447 13.7338C84.9447 12.8485 85.6644 12.2989 86.4971 12.2989C86.8481 12.2989 87.7243 12.4307 87.7243 12.931Z" fill="#231916"/>
<path d="M88.6055 12.9235C88.6055 12.6094 88.762 12.3742 89.0935 12.3742H90.6464C90.9473 12.3742 91.0901 12.5899 91.0901 12.8102C91.0901 13.025 90.9401 13.246 90.6464 13.246H89.5449V14.169H90.5716C90.8781 14.169 91.0274 14.3835 91.0274 14.6041C91.0274 14.8191 90.8712 15.0399 90.5716 15.0399H89.5449V16.0005H90.7026C91.0027 16.0005 91.1469 16.2155 91.1469 16.4363C91.1469 16.6513 90.9966 16.8733 90.7026 16.8733H89.0874C88.8119 16.8733 88.6055 16.6833 88.6055 16.3989V12.9235Z" fill="#231916"/>
<path d="M91.6602 12.8278C91.6602 12.5144 91.861 12.3375 92.1298 12.3375C92.3991 12.3375 92.5999 12.5144 92.5999 12.8278V14.1687H94.5652V12.8278C94.5652 12.5144 94.7656 12.3375 95.0343 12.3375C95.3039 12.3375 95.5039 12.5144 95.5039 12.8278V16.4179C95.5039 16.7331 95.3039 16.9099 95.0343 16.9099C94.7656 16.9099 94.5652 16.7331 94.5652 16.4179V15.0399H92.5999V16.4179C92.5999 16.7331 92.3991 16.9099 92.1298 16.9099C91.861 16.9099 91.6602 16.7331 91.6602 16.4179V12.8278Z" fill="#231916"/>
<path d="M97.3235 15.1164H98.5134L97.9311 13.2841H97.9186L97.3235 15.1164ZM97.2549 12.8229C97.3617 12.532 97.6059 12.2987 97.9249 12.2987C98.2569 12.2987 98.4882 12.519 98.5945 12.8229L99.822 16.2592C99.8596 16.3608 99.8716 16.4485 99.8716 16.4937C99.8716 16.7401 99.6714 16.9099 99.4402 16.9099C99.1772 16.9099 99.0448 16.7711 98.9828 16.5822L98.795 15.9878H97.0547L96.8664 16.5745C96.8045 16.7711 96.6732 16.9099 96.4166 16.9099C96.1659 16.9099 95.9531 16.721 95.9531 16.4683C95.9531 16.3667 95.9844 16.2914 95.9965 16.2592L97.2549 12.8229Z" fill="#231916"/>
<path d="M100.499 13.2457H99.8164C99.5153 13.2457 99.3906 13.0247 99.3906 12.8099C99.3906 12.5896 99.547 12.3741 99.8164 12.3741H102.121C102.389 12.3741 102.546 12.5896 102.546 12.8099C102.546 13.0247 102.421 13.2457 102.121 13.2457H101.438V16.4175C101.438 16.7329 101.237 16.9099 100.968 16.9099C100.7 16.9099 100.499 16.7329 100.499 16.4175V13.2457Z" fill="#231916"/>
<path d="M103.438 15.1164H104.627L104.045 13.2841H104.032L103.438 15.1164ZM103.369 12.8229C103.476 12.532 103.72 12.2987 104.039 12.2987C104.37 12.2987 104.602 12.5184 104.709 12.8229L105.936 16.2592C105.973 16.3608 105.985 16.4485 105.985 16.4937C105.985 16.7401 105.785 16.9099 105.553 16.9099C105.29 16.9099 105.159 16.7711 105.097 16.5822L104.909 15.9878H103.169L102.981 16.5745C102.918 16.7711 102.786 16.9099 102.531 16.9099C102.279 16.9099 102.066 16.721 102.066 16.4683C102.066 16.3667 102.098 16.2914 102.111 16.2592L103.369 12.8229Z" fill="#231916"/>
<path d="M106.398 12.8278C106.398 12.5144 106.598 12.3375 106.867 12.3375C106.987 12.3375 107.181 12.4304 107.262 12.5451L109.247 15.218H109.259V12.8278C109.259 12.5144 109.459 12.3375 109.729 12.3375C109.998 12.3375 110.199 12.5144 110.199 12.8278V16.4179C110.199 16.7331 109.998 16.9099 109.729 16.9099C109.61 16.9099 109.422 16.8163 109.334 16.7028L107.35 14.0615H107.337V16.4179C107.337 16.7331 107.137 16.9099 106.867 16.9099C106.598 16.9099 106.398 16.7331 106.398 16.4179V12.8278Z" fill="#231916"/>
<path d="M78.9929 20.8559H79.6383C79.9822 20.8559 80.22 20.648 80.22 20.2947C80.22 19.9343 79.9822 19.739 79.6383 19.739H78.9929V20.8559ZM78.0547 19.3583C78.0547 19.0579 78.2234 18.8661 78.5357 18.8661H79.6383C80.6023 18.8661 81.1966 19.3025 81.1966 20.2947C81.1966 20.9899 80.6774 21.3866 80.0391 21.4884L81.1029 22.6375C81.191 22.7324 81.228 22.8279 81.228 22.9153C81.228 23.1634 81.0345 23.4038 80.7585 23.4038C80.6458 23.4038 80.4961 23.3576 80.3962 23.2383L79.0059 21.5391H78.9929V22.9094C78.9929 23.2238 78.7931 23.4038 78.523 23.4038C78.2545 23.4038 78.0547 23.2238 78.0547 22.9094V19.3583Z" fill="#231916"/>
<path d="M81.6875 19.4152C81.6875 19.1001 81.8443 18.866 82.1759 18.866H83.7285C84.0281 18.866 84.1725 19.0804 84.1725 19.3024C84.1725 19.5168 84.0218 19.7388 83.7285 19.7388H82.6266V20.6615H83.653C83.9598 20.6615 84.1104 20.8739 84.1104 21.0969C84.1104 21.3119 83.9541 21.5329 83.653 21.5329H82.6266V22.4919H83.7847C84.0849 22.4919 84.2291 22.7072 84.2291 22.9283C84.2291 23.1431 84.0787 23.364 83.7847 23.364H82.1696C81.8946 23.364 81.6875 23.1745 81.6875 22.892V19.4152Z" fill="#231916"/>
<path d="M85.6809 21.0398H86.3202C86.7147 21.0398 86.9649 20.7496 86.9649 20.37C86.9649 19.9899 86.7147 19.6997 86.3202 19.6997H85.6809V21.0398ZM84.7422 19.3582C84.7422 19.062 84.9176 18.8661 85.2313 18.8661H86.3386C87.259 18.8661 87.9414 19.4727 87.9414 20.3765C87.9414 21.2995 87.2344 21.8733 86.3765 21.8733H85.6809V22.9091C85.6809 23.2238 85.4811 23.4036 85.212 23.4036C84.9428 23.4036 84.7422 23.2238 84.7422 22.9091V19.3582Z" fill="#231916"/>
<path d="M88.3438 19.3234C88.3438 19.0052 88.5437 18.8288 88.8136 18.8288C89.0824 18.8288 89.2832 19.0052 89.2832 19.3234V21.5266C89.2832 22.1072 89.6529 22.5678 90.2468 22.5678C90.8164 22.5678 91.2053 22.0824 91.2053 21.5266V19.3234C91.2053 19.0052 91.4052 18.8288 91.674 18.8288C91.9429 18.8288 92.1442 19.0052 92.1442 19.3234V21.5767C92.1442 22.6375 91.2794 23.4395 90.2468 23.4395C89.2019 23.4395 88.3438 22.6505 88.3438 21.5767V19.3234Z" fill="#231916"/>
<path d="M93.7639 22.5305H94.5025C94.8406 22.5305 95.0907 22.3346 95.0907 21.9808C95.0907 21.6857 94.8656 21.4821 94.4273 21.4821H93.7639V22.5305ZM93.7639 20.648H94.2521C94.5592 20.648 94.7591 20.4651 94.7591 20.1481C94.7591 19.8517 94.528 19.6995 94.2521 19.6995H93.7639V20.648ZM92.8242 19.3399C92.8242 19.0372 93.0314 18.8662 93.3196 18.8662H94.521C95.1729 18.8662 95.6983 19.3099 95.6983 19.9789C95.6983 20.4206 95.5164 20.7173 95.1163 20.9061V20.9185C95.6479 20.9953 96.0675 21.4436 96.0675 21.9933C96.0675 22.8837 95.4794 23.3643 94.6158 23.3643H93.3256C93.0379 23.3643 92.8242 23.181 92.8242 22.8837V19.3399Z" fill="#231916"/>
<path d="M96.5742 19.3234C96.5742 19.0053 96.7756 18.8288 97.0441 18.8288C97.3139 18.8288 97.5139 19.0053 97.5139 19.3234V22.4919H98.6282C98.9472 22.4919 99.0852 22.7323 99.0787 22.9472C99.0667 23.1568 98.9039 23.3643 98.6282 23.3643H97.0628C96.7561 23.3643 96.5742 23.1632 96.5742 22.8468V19.3234Z" fill="#231916"/>
<path d="M99.3945 19.3233C99.3945 19.0052 99.5945 18.8287 99.8638 18.8287C100.134 18.8287 100.334 19.0052 100.334 19.3233V22.9091C100.334 23.2238 100.134 23.4036 99.8638 23.4036C99.5945 23.4036 99.3945 23.2238 99.3945 22.9091V19.3233Z" fill="#231916"/>
<path d="M101.055 19.2961C101.055 19.0372 101.243 18.8289 101.524 18.8289C101.793 18.8289 101.994 19.0052 101.994 19.2961V20.6615L103.533 19.0052C103.603 18.9303 103.721 18.8289 103.897 18.8289C104.134 18.8289 104.36 19.0111 104.36 19.2825C104.36 19.4468 104.259 19.581 104.054 19.7882L102.87 20.9636L104.316 22.4874C104.467 22.6377 104.579 22.7786 104.579 22.9664C104.579 23.2644 104.347 23.4038 104.091 23.4038C103.91 23.4038 103.791 23.2962 103.615 23.1059L101.994 21.336V22.9467C101.994 23.1932 101.806 23.4038 101.524 23.4038C101.255 23.4038 101.055 23.2238 101.055 22.9467V19.2961Z" fill="#231916"/>
<path d="M78.0547 25.8132C78.0547 25.4969 78.2546 25.3217 78.5231 25.3217C78.7931 25.3217 78.993 25.4969 78.993 25.8132V29.4008C78.993 29.718 78.7931 29.8948 78.5231 29.8948C78.2546 29.8948 78.0547 29.718 78.0547 29.4008V25.8132Z" fill="#231916"/>
<path d="M79.6719 25.8132C79.6719 25.4969 79.8723 25.3217 80.1415 25.3217C80.2603 25.3217 80.454 25.4152 80.5348 25.5287L82.5205 28.2022H82.5323V25.8132C82.5323 25.4969 82.7329 25.3217 83.0019 25.3217C83.2718 25.3217 83.4713 25.4969 83.4713 25.8132V29.4008C83.4713 29.718 83.2718 29.8948 83.0019 29.8948C82.884 29.8948 82.6962 29.7998 82.6079 29.6857L80.6236 27.045H80.6105V29.4008C80.6105 29.718 80.4103 29.8948 80.1415 29.8948C79.8723 29.8948 79.6719 29.718 79.6719 29.4008V25.8132Z" fill="#231916"/>
<path d="M85.0951 28.9843H85.7278C86.5346 28.9843 86.9045 28.3852 86.9045 27.6278C86.9045 26.817 86.5295 26.2307 85.665 26.2307H85.0951V28.9843ZM84.1562 25.845C84.1562 25.555 84.357 25.3584 84.6387 25.3584H85.6771C87.0797 25.3584 87.8811 26.2679 87.8811 27.6715C87.8811 28.9977 87.0303 29.8567 85.74 29.8567H84.6506C84.4437 29.8567 84.1562 29.7433 84.1562 29.3825V25.845Z" fill="#231916"/>
<path d="M91.6435 27.6073C91.6435 26.842 91.2482 26.1532 90.4665 26.1532C89.6838 26.1532 89.289 26.842 89.289 27.6073C89.289 28.3778 89.671 29.0612 90.4665 29.0612C91.2615 29.0612 91.6435 28.3778 91.6435 27.6073ZM88.3125 27.6073C88.3125 26.2941 89.1892 25.281 90.4665 25.281C91.7244 25.281 92.6197 26.3254 92.6197 27.6073C92.6197 28.9152 91.7498 29.9326 90.4665 29.9326C89.1953 29.9326 88.3125 28.9152 88.3125 27.6073Z" fill="#231916"/>
<path d="M93.125 25.8132C93.125 25.4969 93.3251 25.3217 93.5952 25.3217C93.7134 25.3217 93.9077 25.4152 93.9894 25.5287L95.9737 28.2022H95.9858V25.8132C95.9858 25.4969 96.1859 25.3217 96.4556 25.3217C96.7251 25.3217 96.9259 25.4969 96.9259 25.8132V29.4008C96.9259 29.718 96.7251 29.8948 96.4556 29.8948C96.3365 29.8948 96.1491 29.7998 96.0616 29.6857L94.0767 27.045H94.0649V29.4008C94.0649 29.718 93.8636 29.8948 93.5952 29.8948C93.3251 29.8948 93.125 29.718 93.125 29.4008V25.8132Z" fill="#231916"/>
<path d="M97.6055 25.9088C97.6055 25.5917 97.763 25.3584 98.0943 25.3584H99.6467C99.9475 25.3584 100.091 25.5739 100.091 25.7942C100.091 26.0105 99.9413 26.2307 99.6467 26.2307H98.5455V27.1526H99.5711C99.8786 27.1526 100.028 27.3674 100.028 27.5877C100.028 27.804 99.872 28.0241 99.5711 28.0241H98.5455V28.9843H99.7027C100.003 28.9843 100.147 29.2001 100.147 29.4207C100.147 29.6366 99.997 29.8567 99.7027 29.8567H98.0879C97.8122 29.8567 97.6055 29.6675 97.6055 29.3825V25.9088Z" fill="#231916"/>
<path d="M103.294 25.9154C103.294 26.1611 103.132 26.3814 102.875 26.3814C102.619 26.3814 102.418 26.1928 102.043 26.1928C101.773 26.1928 101.529 26.3379 101.529 26.6034C101.529 27.2544 103.62 26.8373 103.62 28.4662C103.62 29.3707 102.881 29.9326 102.017 29.9326C101.535 29.9326 100.496 29.8189 100.496 29.224C100.496 28.9786 100.658 28.777 100.915 28.777C101.209 28.777 101.56 29.0219 101.967 29.0219C102.381 29.0219 102.606 28.7895 102.606 28.4807C102.606 27.7353 100.514 28.1819 100.514 26.7173C100.514 25.8316 101.234 25.2813 102.067 25.2813C102.418 25.2813 103.294 25.4154 103.294 25.9154Z" fill="#231916"/>
<path d="M104.18 25.8132C104.18 25.4969 104.38 25.3217 104.648 25.3217C104.919 25.3217 105.119 25.4969 105.119 25.8132V29.4008C105.119 29.718 104.919 29.8948 104.648 29.8948C104.38 29.8948 104.18 29.718 104.18 29.4008V25.8132Z" fill="#231916"/>
<path d="M106.937 28.0994H108.127L107.545 26.2678H107.532L106.937 28.0994ZM106.869 25.8077C106.975 25.5161 107.22 25.2812 107.538 25.2812C107.871 25.2812 108.102 25.5039 108.209 25.8077L109.435 29.2429C109.473 29.3442 109.485 29.433 109.485 29.4781C109.485 29.7226 109.285 29.8948 109.054 29.8948C108.791 29.8948 108.659 29.7553 108.597 29.5647L108.408 28.9732H106.668L106.48 29.5602C106.418 29.7553 106.286 29.8948 106.03 29.8948C105.78 29.8948 105.566 29.7041 105.566 29.4524C105.566 29.3509 105.598 29.2749 105.611 29.2429L106.869 25.8077Z" fill="#231916"/>
<path d="M70.4485 22.3623C71.4378 23.3588 71.9856 24.693 71.9856 26.1184C71.9856 27.5433 71.4399 28.878 70.4504 29.8777C69.4609 30.8778 68.1387 31.4307 66.7253 31.4307C65.3159 31.4284 63.9928 30.8787 63.0028 29.8807L62.9766 29.8552V18.6521H66.5535L70.4485 22.3623Z" fill="#D2DC00"/>
<path d="M62.237 30.2534L62.2614 30.276C62.2512 33.4293 59.706 35.9934 56.5813 36C53.7059 36 51.2855 33.8264 50.9453 30.947V18.8718L60.6927 28.6927L62.237 30.2534Z" fill="#00B1A9"/>
<path d="M61.967 18.652V28.6218L52.0742 18.652H61.967Z" fill="#D2DC00"/>
<path d="M49.8927 12.2711V23.7312H44.427C41.3025 23.7255 38.7559 21.1518 38.75 17.9979C38.7559 14.8461 41.3025 12.2756 44.427 12.2711H49.8927Z" fill="#00B1A9"/>
<path d="M70.4359 6.18148C71.4274 7.18305 71.9736 8.52532 71.9736 9.96273C71.9736 11.3751 71.4298 12.7038 70.4424 13.7007L66.5532 17.4158H62.9766V6.19822L62.9862 6.18872C63.9767 5.18702 65.301 4.63418 66.7156 4.63418C68.1254 4.63418 69.4464 5.18652 70.4359 6.18148Z" fill="#D2DC00"/>
<path d="M61.9656 7.4332V17.416H52.0898L61.9656 7.4332Z" fill="#D2DC00"/>
<path d="M62.2614 5.51956V5.7785L62.2368 5.80152L50.9453 17.0034V5.05408C51.2855 2.1713 53.7059 9.53674e-06 56.5811 9.53674e-06H56.5833C59.708 0.00607872 62.2553 2.36461 62.2614 5.51956Z" fill="#00B1A9"/>
</g>
<defs>
<clipPath id="clip0_5324_14547">
<rect width="78.8108" height="36" fill="white" transform="translate(38.75)"/>
</clipPath>
</defs>
</svg>
