<svg width="19" height="24" viewBox="0 0 19 24" fill="none" xmlns="http://www.w3.org/2000/svg">
<path d="M9.65207 16.5127C9.05675 16.9183 8.55856 17.4506 8.19324 18.0714C7.82792 18.6923 7.60452 19.3863 7.53906 20.1037C7.53906 20.3811 7.59369 20.6557 7.69983 20.9119C7.80597 21.1682 7.96154 21.401 8.15765 21.5971C8.35377 21.7932 8.58659 21.9488 8.84283 22.0549C9.09907 22.1611 9.37371 22.2157 9.65106 22.2157C9.92841 22.2157 10.203 22.1611 10.4593 22.0549C10.7155 21.9488 10.9484 21.7932 11.1445 21.5971C11.3406 21.401 11.4962 21.1682 11.6023 20.9119C11.7084 20.6557 11.7631 20.3811 11.7631 20.1037C11.7631 18.4287 10.3391 17.0707 9.65207 16.5127Z" fill="#808080"/>
<path d="M14.603 4.31967C14.5426 4.25141 14.4691 4.19594 14.3869 4.15653C14.3047 4.11711 14.2155 4.09455 14.1244 4.09017C14.0334 4.08579 13.9423 4.09968 13.8568 4.13102C13.7712 4.16237 13.6927 4.21053 13.626 4.27267L10.409 7.27267V0.988667C10.4029 0.861874 10.3649 0.738678 10.2984 0.630499C10.232 0.52232 10.1394 0.43266 10.0291 0.369831C9.91877 0.307002 9.79439 0.273037 9.66747 0.271085C9.54054 0.269134 9.41518 0.299258 9.303 0.358667C7.68327 1.40443 6.20797 2.6585 4.915 4.08867C2.19531 6.85215 0.61861 10.5402 0.5 14.4157C0.499729 16.8461 1.46359 19.1774 3.1801 20.898C4.89661 22.6187 7.22557 23.5881 9.656 23.5937C8.73248 23.5913 7.84761 23.2227 7.19543 22.5689C6.54325 21.915 6.177 21.0292 6.177 20.1057C6.177 16.9977 9.194 15.1577 9.323 15.0807C9.43323 15.0147 9.55987 14.9812 9.68831 14.984C9.81675 14.9868 9.94178 15.0259 10.049 15.0967C10.175 15.1797 13.136 17.1657 13.136 20.1057C13.1363 21.0293 12.7701 21.9152 12.1179 22.5692C11.4656 23.2231 10.5806 23.5915 9.657 23.5937C12.086 23.5855 14.4127 22.6146 16.1271 20.8938C17.8416 19.173 18.8038 16.8427 18.803 14.4137C18.697 10.6459 17.201 7.05055 14.603 4.31967Z" fill="#808080"/>
</svg>
