<svg width="48" height="48" viewBox="0 0 48 48" fill="none" xmlns="http://www.w3.org/2000/svg">
<path d="M17 22C18.6569 22 20 20.6568 20 19C20 17.3431 18.6569 16 17 16C15.3431 16 14 17.3431 14 19C14 20.6568 15.3431 22 17 22Z" fill="#DF0101"/>
<path d="M34 19C34 20.6568 32.6568 22 31 22C29.3432 22 28 20.6568 28 19C28 17.3431 29.3432 16 31 16C32.6568 16 34 17.3431 34 19Z" fill="#DF0101"/>
<path d="M13.1057 31.7888C14.0762 32.2742 15.2526 31.8962 15.7622 30.9462C16.2206 30.2264 17.2105 30 18.0001 30C18.8946 30 19.237 30.2282 19.8813 30.6578L19.8907 30.6642C20.7403 31.2306 21.8989 32 24.0001 32C26.1013 32 27.2599 31.2306 28.1095 30.6642L28.1189 30.6578C28.7633 30.2282 29.1057 30 30.0001 30C30.7897 30 31.7797 30.2264 32.2381 30.9462C32.7475 31.8962 33.9241 32.2742 34.8945 31.7888C35.8575 31.3074 36.2687 30.0572 35.7845 29.0968C35.6903 28.9116 35.5869 28.7408 35.3969 28.4874C35.1719 28.1876 34.8389 27.8098 34.3745 27.4382C33.4205 26.675 31.9859 26 30.0001 26C27.8989 26 26.7403 26.7694 25.8907 27.3358L25.8813 27.3422C25.2369 27.7718 24.8945 28 24.0001 28C23.1057 28 22.7633 27.7718 22.1189 27.3422L22.1095 27.3358C21.2599 26.7694 20.1013 26 18.0001 26C16.0143 26 14.5798 26.675 13.6257 27.4382C13.1614 27.8098 12.8282 28.1876 12.6032 28.4874C12.4118 28.7428 12.3077 28.9144 12.2134 29.1012C11.7278 30.0674 12.1386 31.3052 13.1057 31.7888Z" fill="#DF0101"/>
<path fill-rule="evenodd" clip-rule="evenodd" d="M24 46C36.1502 46 46 36.1502 46 24C46 11.8497 36.1502 2 24 2C11.8497 2 2 11.8497 2 24C2 36.1502 11.8497 46 24 46ZM24 41.9864C14.0664 41.9864 6.01366 33.9336 6.01366 24C6.01366 14.0664 14.0664 6.01366 24 6.01366C33.9336 6.01366 41.9864 14.0664 41.9864 24C41.9864 33.9336 33.9336 41.9864 24 41.9864Z" fill="#DF0101"/>
</svg>
