<svg width="48" height="48" viewBox="0 0 48 48" fill="none" xmlns="http://www.w3.org/2000/svg">
<path d="M17 22C18.6569 22 20 20.6568 20 19C20 17.3431 18.6569 16 17 16C15.3431 16 14 17.3431 14 19C14 20.6568 15.3431 22 17 22Z" fill="#8F01DF"/>
<path d="M34 19C34 20.6568 32.6568 22 31 22C29.3432 22 28 20.6568 28 19C28 17.3431 29.3432 16 31 16C32.6568 16 34 17.3431 34 19Z" fill="#8F01DF"/>
<path d="M30.2182 32.9176C30.7194 33.8886 31.9096 34.279 32.8898 33.7888C33.8776 33.2948 34.2782 32.0936 33.7842 31.1056C33.6192 30.7768 33.4092 30.4686 33.189 30.175C32.8234 29.6876 32.2716 29.0598 31.4946 28.4382C29.9156 27.175 27.4812 26 23.9954 26C20.5094 26 18.075 27.175 16.4959 28.4382C15.7191 29.0598 15.1672 29.6876 14.8016 30.175C14.5806 30.4696 14.3796 30.7778 14.2075 31.1034C13.7183 32.0784 14.1253 33.301 15.1009 33.7888C16.0811 34.279 17.2713 33.8886 17.7724 32.9176C17.8 32.8678 18.1763 32.2164 18.9947 31.5618C19.9156 30.825 21.4812 30 23.9954 30C26.5094 30 28.075 30.825 28.996 31.5618C29.8144 32.2164 30.1906 32.8678 30.2182 32.9176Z" fill="#8F01DF"/>
<path fill-rule="evenodd" clip-rule="evenodd" d="M24 46C36.1502 46 46 36.1502 46 24C46 11.8497 36.1502 2 24 2C11.8497 2 2 11.8497 2 24C2 36.1502 11.8497 46 24 46ZM24 41.9864C14.0664 41.9864 6.01366 33.9336 6.01366 24C6.01366 14.0664 14.0664 6.01366 24 6.01366C33.9336 6.01366 41.9864 14.0664 41.9864 24C41.9864 33.9336 33.9336 41.9864 24 41.9864Z" fill="#8F01DF"/>
</svg>
