<svg width="48" height="48" viewBox="0 0 48 48" fill="none" xmlns="http://www.w3.org/2000/svg">
<path d="M17 22C18.6569 22 20 20.6568 20 19C20 17.3431 18.6569 16 17 16C15.3431 16 14 17.3431 14 19C14 20.6568 15.3431 22 17 22Z" fill="#34EAB2"/>
<path d="M34 19C34 20.6568 32.6568 22 31 22C29.3432 22 28 20.6568 28 19C28 17.3431 29.3432 16 31 16C32.6568 16 34 17.3431 34 19Z" fill="#34EAB2"/>
<path d="M17.7775 27.0828C17.2764 26.1118 16.0862 25.7214 15.106 26.2116C14.1181 26.7056 13.7176 27.907 14.2116 28.8948C14.3765 29.2236 14.5865 29.5318 14.8067 29.8254C15.1723 30.313 15.7242 30.9408 16.501 31.5622C18.0801 32.8254 20.5146 34.0004 24.0004 34.0004C27.4862 34.0004 29.9208 32.8254 31.4998 31.5622C32.2766 30.9408 32.8286 30.313 33.1942 29.8254C33.4152 29.5308 33.6162 29.2226 33.7882 28.897C34.2774 27.922 33.8704 26.6994 32.8948 26.2116C31.9146 25.7214 30.7244 26.1118 30.2234 27.0828C30.1958 27.1326 29.8194 27.784 29.001 28.4388C28.0802 29.1754 26.5146 30.0004 24.0004 30.0004C21.4862 30.0004 19.9208 29.1754 18.9998 28.4388C18.1814 27.784 17.8051 27.1326 17.7775 27.0828Z" fill="#34EAB2"/>
<path fill-rule="evenodd" clip-rule="evenodd" d="M24 46C36.1502 46 46 36.1502 46 24C46 11.8497 36.1502 2 24 2C11.8497 2 2 11.8497 2 24C2 36.1502 11.8497 46 24 46ZM24 41.9864C14.0664 41.9864 6.01366 33.9336 6.01366 24C6.01366 14.0664 14.0664 6.01366 24 6.01366C33.9336 6.01366 41.9864 14.0664 41.9864 24C41.9864 33.9336 33.9336 41.9864 24 41.9864Z" fill="#34EAB2"/>
</svg>
