<svg width="48" height="48" viewBox="0 0 48 48" fill="none" xmlns="http://www.w3.org/2000/svg">
<path d="M17 22C18.6569 22 20 20.6568 20 19C20 17.3431 18.6569 16 17 16C15.3431 16 14 17.3431 14 19C14 20.6568 15.3431 22 17 22Z" fill="#DDF235"/>
<path d="M34 19C34 20.6568 32.6568 22 31 22C29.3432 22 28 20.6568 28 19C28 17.3431 29.3432 16 31 16C32.6568 16 34 17.3431 34 19Z" fill="#DDF235"/>
<path fill-rule="evenodd" clip-rule="evenodd" d="M16.4 26C15.1229 26 13.8872 27.0724 14.0333 28.5876C14.121 29.4978 14.4648 31.5768 15.9096 33.4672C17.4347 35.4626 19.9987 37 24 37C28.0012 37 30.5652 35.4626 32.0904 33.4672C33.5352 31.5768 33.879 29.4978 33.9666 28.5876C34.1128 27.0724 32.877 26 31.6 26H16.4ZM19.0877 31.0382C18.8305 30.7018 18.6332 30.3462 18.4822 30H29.5178C29.3668 30.3462 29.1694 30.7018 28.9122 31.0382C28.1962 31.9752 26.8436 33 24 33C21.1564 33 19.8037 31.9752 19.0877 31.0382Z" fill="#DDF235"/>
<path fill-rule="evenodd" clip-rule="evenodd" d="M24 46C36.1502 46 46 36.1502 46 24C46 11.8497 36.1502 2 24 2C11.8497 2 2 11.8497 2 24C2 36.1502 11.8497 46 24 46ZM24 41.9864C14.0664 41.9864 6.01366 33.9336 6.01366 24C6.01366 14.0664 14.0664 6.01366 24 6.01366C33.9336 6.01366 41.9864 14.0664 41.9864 24C41.9864 33.9336 33.9336 41.9864 24 41.9864Z" fill="#DDF235"/>
</svg>
