<svg width="48" height="48" viewBox="0 0 48 48" fill="none" xmlns="http://www.w3.org/2000/svg">
<path d="M17 22C18.6569 22 20 20.6568 20 19C20 17.3431 18.6569 16 17 16C15.3431 16 14 17.3431 14 19C14 20.6568 15.3431 22 17 22Z" fill="#34A8EA"/>
<path d="M34 19C34 20.6568 32.6568 22 31 22C29.3432 22 28 20.6568 28 19C28 17.3431 29.3432 16 31 16C32.6568 16 34 17.3431 34 19Z" fill="#34A8EA"/>
<path d="M16 28C14.8954 28 14 28.8954 14 30C14 31.1046 14.8954 32 16 32H31.9982C33.1028 32 34 31.1046 34 30C34 28.8954 33.1046 28 32 28H16Z" fill="#34A8EA"/>
<path fill-rule="evenodd" clip-rule="evenodd" d="M24 46C36.1502 46 46 36.1502 46 24C46 11.8497 36.1502 2 24 2C11.8497 2 2 11.8497 2 24C2 36.1502 11.8497 46 24 46ZM24 41.9864C14.0664 41.9864 6.01366 33.9336 6.01366 24C6.01366 14.0664 14.0664 6.01366 24 6.01366C33.9336 6.01366 41.9864 14.0664 41.9864 24C41.9864 33.9336 33.9336 41.9864 24 41.9864Z" fill="#34A8EA"/>
</svg>
