<svg width="16" height="16" viewBox="0 0 16 16" fill="none" xmlns="http://www.w3.org/2000/svg">
<path fill-rule="evenodd" clip-rule="evenodd" d="M2 1.33398L3.34 13.4873C3.42 14.154 3.98 14.6673 4.66667 14.6673H11.3333C12.02 14.6673 12.58 14.154 12.66 13.4873L14 1.33398H2ZM4.66667 13.3407L3.92667 6.66732H12.0667L11.3333 13.334L4.66667 13.3407ZM3.78 5.33398H12.22L12.5067 2.66732H3.48667L3.78 5.33398ZM8 12.6673C9.10667 12.6673 10 11.774 10 10.6673C10 9.33398 8 7.06732 8 7.06732C8 7.06732 6 9.33398 6 10.6673C6 11.774 6.89333 12.6673 8 12.6673ZM8.66667 10.6673C8.66667 10.4273 8.39333 9.88065 8 9.27398C7.60667 9.87398 7.33333 10.4207 7.33333 10.6673C7.33333 11.034 7.63333 11.334 8 11.334C8.36667 11.334 8.66667 11.034 8.66667 10.6673Z" fill="#505050"/>
</svg>
