<svg width="16" height="16" viewBox="0 0 16 16" fill="none" xmlns="http://www.w3.org/2000/svg">
<path fill-rule="evenodd" clip-rule="evenodd" d="M6.80651 4.96591C8.04172 3.7307 9.64246 3.65853 10.4077 4.42382C10.7986 4.81469 10.9729 5.40622 10.8826 6.07784C10.1483 6.0319 9.36575 6.35658 8.78147 6.94087C8.19705 7.52529 7.87194 8.30577 7.91854 9.03965C7.24978 9.13186 6.65799 8.95701 6.27162 8.56512L6.26741 8.56094C5.50029 7.80053 5.57101 6.19719 6.80588 4.96653L6.80651 4.96591ZM11.1386 3.69292C9.80916 2.36344 7.5328 2.77808 6.07592 4.2347C5.03209 5.27516 4.52254 6.74201 4.80911 7.97754L4.19099 8.59566C3.97014 8.52279 3.7349 8.49646 3.50032 8.52037C3.11988 8.55914 2.76439 8.72766 2.49356 8.99759C2.27329 9.21521 2.11823 9.49008 2.04592 9.79117C1.97348 10.0928 1.98696 10.4087 2.08485 10.7031C2.18274 10.9974 2.36112 11.2585 2.59977 11.4566C2.74465 11.577 2.90823 11.6712 3.08318 11.7361C3.12791 11.8554 3.18634 11.9696 3.25755 12.0762C3.39629 12.284 3.58002 12.4579 3.79512 12.5851C4.01022 12.7122 4.25116 12.7894 4.50011 12.8107C4.74906 12.8321 4.99963 12.7972 5.23325 12.7085C5.46686 12.6199 5.67754 12.4798 5.84967 12.2987C6.0218 12.1176 6.15096 11.9001 6.2276 11.6622C6.30423 11.4244 6.32636 11.1724 6.29236 10.9249C6.27836 10.823 6.255 10.7229 6.22273 10.6259L6.83592 10.0127C7.26971 10.1153 7.73147 10.1212 8.18746 10.0431C8.15784 10.2485 8.14243 10.4454 8.14243 10.6282C8.14243 12.2456 9.45373 13.5569 11.0711 13.5569C12.6885 13.5569 13.9998 12.2456 13.9998 10.6282C13.9998 9.82677 13.6504 8.76185 13.1126 7.89897C12.8425 7.46572 12.5197 7.07479 12.1601 6.79047C12.0575 6.70933 11.9511 6.63628 11.8414 6.57331C12.079 5.53684 11.8943 4.44859 11.1386 3.69292ZM5.83506 9.55179C5.73109 9.47433 5.63168 9.38815 5.5376 9.29294C5.43797 9.19396 5.34809 9.08966 5.26769 8.98076L4.66556 9.58289C4.49223 9.75622 4.221 9.78395 4.01618 9.64929C3.8948 9.56949 3.74963 9.53396 3.60512 9.54869C3.4606 9.56342 3.32558 9.6275 3.2228 9.73015L3.22046 9.73248L3.22045 9.73247C3.13705 9.81471 3.07834 9.91867 3.05099 10.0326C3.02363 10.1465 3.02872 10.2657 3.06569 10.3769C3.10265 10.488 3.17 10.5866 3.26012 10.6614C3.35023 10.7363 3.4595 10.7844 3.57555 10.8003C3.80446 10.8317 3.98473 11.0112 4.01708 11.2399C4.03035 11.3338 4.06456 11.4234 4.11719 11.5023C4.16982 11.5811 4.23951 11.6471 4.3211 11.6953C4.40269 11.7435 4.49408 11.7728 4.58851 11.7809C4.68294 11.789 4.77798 11.7757 4.86659 11.7421C4.95521 11.7085 5.03512 11.6554 5.10041 11.5867C5.1657 11.518 5.21469 11.4354 5.24376 11.3452C5.27283 11.255 5.28122 11.1594 5.26833 11.0655C5.25543 10.9716 5.22157 10.8819 5.16925 10.8028C5.03361 10.5979 5.061 10.3259 5.23475 10.1521L5.83506 9.55179ZM9.17607 10.6282C9.17607 9.85033 9.45615 9.01906 9.83486 8.38212C10.0238 8.06427 10.2334 7.80165 10.4376 7.62077C10.6462 7.43598 10.8278 7.35501 10.9636 7.35501C11.1479 7.35501 11.367 7.45794 11.6035 7.66781C11.8366 7.87473 12.0673 8.16882 12.2717 8.50862C12.6831 9.19219 12.9661 10.0226 12.9661 10.6282C12.9661 11.6728 12.1157 12.5232 11.0711 12.5232C10.0265 12.5232 9.17607 11.6728 9.17607 10.6282Z" fill="#505050"/>
<path d="M10.4077 4.42382L10.5845 4.24704V4.24704L10.4077 4.42382ZM6.80651 4.96591L6.98315 5.14282L6.98328 5.14268L6.80651 4.96591ZM10.8826 6.07784L10.8669 6.32735L11.0993 6.34189L11.1303 6.11117L10.8826 6.07784ZM7.91854 9.03965L7.95268 9.2873L8.18275 9.25558L8.16804 9.0238L7.91854 9.03965ZM6.27162 8.56512L6.44966 8.38959L6.44762 8.38757L6.27162 8.56512ZM6.26741 8.56094L6.44341 8.3834L6.44341 8.38339L6.26741 8.56094ZM6.80588 4.96653L6.98236 5.14361L6.98252 5.14344L6.80588 4.96653ZM6.07592 4.2347L6.25241 4.41176L6.25268 4.41149L6.07592 4.2347ZM11.1386 3.69292L10.9619 3.8697L11.1386 3.69292ZM4.80911 7.97754L4.98589 8.15432L5.084 8.05621L5.05265 7.92105L4.80911 7.97754ZM4.19099 8.59566L4.11266 8.83307L4.25889 8.88132L4.36777 8.77243L4.19099 8.59566ZM3.50032 8.52037L3.52567 8.76908H3.52567L3.50032 8.52037ZM2.49356 8.99759L2.66926 9.17544L2.67004 9.17466L2.49356 8.99759ZM2.04592 9.79117L1.80283 9.73279H1.80283L2.04592 9.79117ZM2.08485 10.7031L1.84763 10.7819L1.84763 10.7819L2.08485 10.7031ZM2.59977 11.4566L2.44006 11.649L2.44006 11.649L2.59977 11.4566ZM3.08318 11.7361L3.31727 11.6483L3.27719 11.5414L3.17012 11.5017L3.08318 11.7361ZM3.25755 12.0762L3.04963 12.215H3.04963L3.25755 12.0762ZM3.79512 12.5851L3.92233 12.3699L3.92233 12.3699L3.79512 12.5851ZM4.50011 12.8107L4.52149 12.5616L4.50011 12.8107ZM5.23325 12.7085L5.32192 12.9423H5.32193L5.23325 12.7085ZM5.84967 12.2987L6.03089 12.4709H6.03089L5.84967 12.2987ZM6.2276 11.6622L5.98964 11.5856L6.2276 11.6622ZM6.29236 10.9249L6.04468 10.9589L6.29236 10.9249ZM6.22273 10.6259L6.04596 10.4491L5.93678 10.5583L5.98551 10.7048L6.22273 10.6259ZM6.83592 10.0127L6.89346 9.76944L6.75775 9.73734L6.65914 9.83595L6.83592 10.0127ZM8.18746 10.0431L8.4349 10.0788L8.48395 9.73869L8.14525 9.79671L8.18746 10.0431ZM13.1126 7.89897L12.9004 8.03121V8.03122L13.1126 7.89897ZM12.1601 6.79047L12.3152 6.59436V6.59436L12.1601 6.79047ZM11.8414 6.57331L11.5977 6.51744L11.5563 6.69796L11.7169 6.79014L11.8414 6.57331ZM5.5376 9.29294L5.71544 9.11722L5.71379 9.11558L5.5376 9.29294ZM5.83506 9.55179L6.01184 9.72857L6.21632 9.52408L5.98442 9.35131L5.83506 9.55179ZM5.26769 8.98076L5.4688 8.83226L5.29628 8.59862L5.09091 8.80399L5.26769 8.98076ZM4.66556 9.58289L4.84233 9.75967L4.66556 9.58289ZM4.01618 9.64929L3.87884 9.85819H3.87884L4.01618 9.64929ZM3.60512 9.54869L3.57977 9.29998L3.57977 9.29998L3.60512 9.54869ZM3.2228 9.73015L3.39944 9.90705L3.39946 9.90704L3.2228 9.73015ZM3.22046 9.73248L3.04661 9.91213L3.22321 10.083L3.39711 9.90939L3.22046 9.73248ZM3.22045 9.73247L3.39431 9.55282L3.21882 9.383L3.04493 9.55445L3.22045 9.73247ZM3.05099 10.0326L2.8079 9.97418L2.8079 9.97418L3.05099 10.0326ZM3.06569 10.3769L2.82846 10.4558L2.82846 10.4558L3.06569 10.3769ZM3.26012 10.6614L3.1004 10.8538L3.1004 10.8538L3.26012 10.6614ZM3.57555 10.8003L3.54159 11.048H3.54159L3.57555 10.8003ZM4.01708 11.2399L4.26462 11.2049V11.2049L4.01708 11.2399ZM4.11719 11.5023L4.32511 11.3634L4.32511 11.3634L4.11719 11.5023ZM4.3211 11.6953L4.44831 11.4801L4.44831 11.4801L4.3211 11.6953ZM4.58851 11.7809L4.56713 12.0299H4.56713L4.58851 11.7809ZM4.86659 11.7421L4.95527 11.9758L4.95527 11.9758L4.86659 11.7421ZM5.10041 11.5867L4.91919 11.4144L4.91919 11.4144L5.10041 11.5867ZM5.24376 11.3452L5.48171 11.4219L5.48171 11.4219L5.24376 11.3452ZM5.26833 11.0655L5.02065 11.0996V11.0996L5.26833 11.0655ZM5.16925 10.8028L5.37771 10.6648L5.37771 10.6648L5.16925 10.8028ZM5.23475 10.1521L5.05798 9.97532L5.05798 9.97532L5.23475 10.1521ZM9.83486 8.38212L9.61997 8.25436L9.83486 8.38212ZM10.4376 7.62077L10.2718 7.43364L10.4376 7.62077ZM11.6035 7.66781L11.4375 7.85478L11.6035 7.66781ZM12.2717 8.50862L12.0575 8.63752L12.2717 8.50862ZM10.5845 4.24704C9.68481 3.34734 7.92118 3.49768 6.62973 4.78913L6.98328 5.14268C8.16225 3.96372 9.6001 3.96973 10.231 4.60059L10.5845 4.24704ZM11.1303 6.11117C11.2288 5.37939 11.0417 4.7042 10.5845 4.24704L10.231 4.60059C10.5555 4.92518 10.7171 5.43306 10.6348 6.0445L11.1303 6.11117ZM8.95824 7.11764C9.49961 6.57628 10.2146 6.28653 10.8669 6.32735L10.8982 5.82832C10.082 5.77726 9.23189 6.13689 8.60469 6.76409L8.95824 7.11764ZM8.16804 9.0238C8.12666 8.3723 8.41649 7.65939 8.95824 7.11764L8.60469 6.76409C7.9776 7.39118 7.61721 8.23924 7.66904 9.05549L8.16804 9.0238ZM6.09359 8.74064C6.54669 9.20021 7.22331 9.38787 7.95268 9.2873L7.88439 8.79199C7.27624 8.87584 6.76928 8.71381 6.44964 8.3896L6.09359 8.74064ZM6.0914 8.73849L6.09562 8.74267L6.44762 8.38757L6.44341 8.3834L6.0914 8.73849ZM6.62941 4.78945C5.33807 6.07639 5.18859 7.84356 6.09141 8.73849L6.44341 8.38339C5.81199 7.75749 5.80396 6.31799 6.98236 5.14361L6.62941 4.78945ZM6.62987 4.789L6.62924 4.78962L6.98252 5.14344L6.98315 5.14282L6.62987 4.789ZM6.25268 4.41149C6.94527 3.71903 7.8289 3.2788 8.68736 3.16693C9.5431 3.05541 10.3621 3.2699 10.9619 3.8697L11.3154 3.51614C10.5857 2.78646 9.60178 2.54353 8.62275 2.67112C7.64644 2.79835 6.66345 3.29375 5.89916 4.0579L6.25268 4.41149ZM5.05265 7.92105C4.78964 6.78714 5.25597 5.40498 6.25241 4.41176L5.89943 4.05763C4.80821 5.14533 4.25543 6.69687 4.56558 8.03403L5.05265 7.92105ZM4.36777 8.77243L4.98589 8.15432L4.63234 7.80076L4.01422 8.41888L4.36777 8.77243ZM3.52567 8.76908C3.72503 8.74876 3.92495 8.77113 4.11266 8.83307L4.26933 8.35825C4.01533 8.27444 3.74477 8.24416 3.47497 8.27166L3.52567 8.76908ZM2.67004 9.17466C2.90021 8.94525 3.20234 8.80203 3.52567 8.76908L3.47497 8.27166C3.03742 8.31625 2.62856 8.51007 2.31708 8.82052L2.67004 9.17466ZM2.28901 9.84956C2.35044 9.59379 2.48215 9.36029 2.66926 9.17544L2.31786 8.81975C2.06443 9.07012 1.88603 9.38637 1.80283 9.73279L2.28901 9.84956ZM2.32208 10.6242C2.23893 10.3741 2.22747 10.1058 2.28901 9.84956L1.80283 9.73279C1.71948 10.0798 1.735 10.4433 1.84763 10.7819L2.32208 10.6242ZM2.75948 11.2643C2.55676 11.096 2.40523 10.8742 2.32208 10.6242L1.84763 10.7819C1.96025 11.1206 2.16548 11.421 2.44006 11.649L2.75948 11.2643ZM3.17012 11.5017C3.02151 11.4465 2.88255 11.3665 2.75948 11.2643L2.44006 11.649C2.60675 11.7874 2.79496 11.8958 2.99624 11.9705L3.17012 11.5017ZM3.46546 11.9374C3.40494 11.8468 3.35529 11.7497 3.31727 11.6483L2.84909 11.8238C2.90054 11.9611 2.96773 12.0924 3.04963 12.215L3.46546 11.9374ZM3.92233 12.3699C3.73953 12.2618 3.58338 12.114 3.46546 11.9374L3.04963 12.215C3.20921 12.454 3.42052 12.6541 3.6679 12.8003L3.92233 12.3699ZM4.52149 12.5616C4.30992 12.5435 4.10514 12.4779 3.92233 12.3699L3.6679 12.8003C3.91529 12.9465 4.19241 13.0352 4.47873 13.0598L4.52149 12.5616ZM5.14457 12.4748C4.94602 12.5501 4.73307 12.5798 4.52149 12.5616L4.47873 13.0598C4.76505 13.0844 5.05323 13.0442 5.32192 12.9423L5.14457 12.4748ZM5.66845 12.1265C5.52216 12.2804 5.34311 12.3995 5.14457 12.4748L5.32193 12.9423C5.59061 12.8403 5.83292 12.6793 6.03089 12.4709L5.66845 12.1265ZM5.98964 11.5856C5.92452 11.7877 5.81474 11.9726 5.66845 12.1265L6.03089 12.4709C6.22886 12.2626 6.37741 12.0124 6.46555 11.7389L5.98964 11.5856ZM6.04468 10.9589C6.07358 11.1693 6.05477 11.3835 5.98964 11.5856L6.46555 11.7389C6.55368 11.4654 6.57914 11.1755 6.54003 10.8908L6.04468 10.9589ZM5.98551 10.7048C6.01293 10.7873 6.03279 10.8723 6.04468 10.9589L6.54003 10.8908C6.52393 10.7737 6.49706 10.6586 6.45996 10.547L5.98551 10.7048ZM6.65914 9.83595L6.04596 10.4491L6.39951 10.8027L7.0127 10.1895L6.65914 9.83595ZM8.14525 9.79671C7.7185 9.8698 7.29092 9.86344 6.89346 9.76944L6.77838 10.256C7.24851 10.3672 7.74445 10.3726 8.22967 10.2895L8.14525 9.79671ZM8.39243 10.6282C8.39243 10.4592 8.40671 10.2743 8.4349 10.0788L7.94002 10.0074C7.90897 10.2228 7.89243 10.4317 7.89243 10.6282H8.39243ZM11.0711 13.3069C9.5918 13.3069 8.39243 12.1075 8.39243 10.6282H7.89243C7.89243 12.3837 9.31566 13.8069 11.0711 13.8069V13.3069ZM13.7498 10.6282C13.7498 12.1075 12.5504 13.3069 11.0711 13.3069V13.8069C12.8265 13.8069 14.2498 12.3837 14.2498 10.6282H13.7498ZM12.9004 8.03122C13.4206 8.86579 13.7498 9.88533 13.7498 10.6282H14.2498C14.2498 9.76822 13.8802 8.65791 13.3247 7.76673L12.9004 8.03122ZM12.0051 6.98658C12.336 7.24822 12.6408 7.61475 12.9004 8.03121L13.3247 7.76673C13.0442 7.31669 12.7035 6.90136 12.3152 6.59436L12.0051 6.98658ZM11.7169 6.79014C11.8148 6.84633 11.9111 6.91225 12.0051 6.98658L12.3152 6.59436C12.2039 6.5064 12.0873 6.42622 11.9658 6.35648L11.7169 6.79014ZM10.9619 3.8697C11.6414 4.54922 11.8215 5.54138 11.5977 6.51744L12.085 6.62919C12.3365 5.53229 12.1472 4.34795 11.3154 3.51614L10.9619 3.8697ZM5.35977 9.46866C5.46275 9.57288 5.57169 9.66733 5.6857 9.75227L5.98442 9.35131C5.8905 9.28134 5.80061 9.20343 5.71543 9.11723L5.35977 9.46866ZM5.06657 9.12927C5.15456 9.24843 5.25278 9.36238 5.36141 9.4703L5.71379 9.11558C5.62316 9.02555 5.54162 8.93088 5.4688 8.83226L5.06657 9.12927ZM4.84233 9.75967L5.44446 9.15754L5.09091 8.80399L4.48878 9.40612L4.84233 9.75967ZM3.87884 9.85819C4.18273 10.058 4.58517 10.0168 4.84233 9.75967L4.48878 9.40612C4.3993 9.4956 4.25926 9.50992 4.15352 9.4404L3.87884 9.85819ZM3.63046 9.7974C3.71778 9.7885 3.8055 9.80997 3.87884 9.85819L4.15352 9.4404C3.98411 9.32901 3.78148 9.27942 3.57977 9.29998L3.63046 9.7974ZM3.39946 9.90704C3.46156 9.84502 3.54314 9.8063 3.63046 9.7974L3.57977 9.29998C3.37806 9.32053 3.1896 9.40998 3.04614 9.55325L3.39946 9.90704ZM3.39711 9.90939L3.39944 9.90705L3.04615 9.55324L3.04382 9.55557L3.39711 9.90939ZM3.0466 9.91212L3.04661 9.91213L3.39432 9.55283L3.39431 9.55282L3.0466 9.91212ZM3.29407 10.0909C3.31052 10.0225 3.34582 9.95994 3.39598 9.91049L3.04493 9.55445C2.92827 9.66948 2.84616 9.81488 2.8079 9.97418L3.29407 10.0909ZM3.30291 10.298C3.28069 10.2312 3.27762 10.1594 3.29407 10.0909L2.8079 9.97418C2.76964 10.1335 2.77676 10.3003 2.82846 10.4558L3.30291 10.298ZM3.41983 10.4691C3.36564 10.4241 3.32514 10.3648 3.30291 10.298L2.82846 10.4558C2.88016 10.6112 2.97436 10.7491 3.1004 10.8538L3.41983 10.4691ZM3.60951 10.5526C3.53972 10.543 3.47401 10.5141 3.41983 10.4691L3.1004 10.8538C3.22644 10.9584 3.37928 11.0257 3.54159 11.048L3.60951 10.5526ZM4.26462 11.2049C4.21662 10.8655 3.94915 10.5992 3.60951 10.5526L3.54159 11.048C3.65977 11.0642 3.75284 11.1568 3.76954 11.2749L4.26462 11.2049ZM4.32511 11.3634C4.29331 11.3158 4.27263 11.2616 4.26462 11.2049L3.76954 11.2749C3.78806 11.4059 3.83582 11.5311 3.90928 11.6411L4.32511 11.3634ZM4.44831 11.4801C4.39901 11.4509 4.35691 11.4111 4.32511 11.3634L3.90928 11.6411C3.98273 11.7511 4.08001 11.8432 4.19388 11.9105L4.44831 11.4801ZM4.60989 11.5318C4.55283 11.5269 4.49761 11.5092 4.44831 11.4801L4.19388 11.9105C4.30776 11.9778 4.43533 12.0186 4.56713 12.0299L4.60989 11.5318ZM4.77792 11.5084C4.72438 11.5287 4.66695 11.5367 4.60989 11.5318L4.56713 12.0299C4.69893 12.0413 4.83159 12.0228 4.95527 11.9758L4.77792 11.5084ZM4.91919 11.4144C4.87974 11.4559 4.83146 11.488 4.77792 11.5084L4.95527 11.9758C5.07896 11.9289 5.1905 11.8548 5.28163 11.7589L4.91919 11.4144ZM5.00581 11.2686C4.98825 11.3231 4.95864 11.3729 4.91919 11.4144L5.28163 11.7589C5.37276 11.663 5.44114 11.5478 5.48171 11.4219L5.00581 11.2686ZM5.02065 11.0996C5.02845 11.1563 5.02337 11.2141 5.00581 11.2686L5.48171 11.4219C5.52229 11.296 5.534 11.1626 5.516 11.0315L5.02065 11.0996ZM4.96079 10.9408C4.9924 10.9886 5.01286 11.0428 5.02065 11.0996L5.516 11.0315C5.498 10.9005 5.45073 10.7751 5.37771 10.6648L4.96079 10.9408ZM5.05798 9.97532C4.80017 10.2331 4.75954 10.6368 4.96079 10.9408L5.37771 10.6648C5.30769 10.559 5.32182 10.4186 5.41153 10.3289L5.05798 9.97532ZM5.65828 9.37501L5.05798 9.97532L5.41153 10.3289L6.01184 9.72857L5.65828 9.37501ZM9.61997 8.25436C9.22346 8.92124 8.92607 9.7962 8.92607 10.6282H9.42607C9.42607 9.90445 9.68884 9.11689 10.0497 8.50989L9.61997 8.25436ZM10.2718 7.43364C10.0434 7.63594 9.81839 7.92064 9.61997 8.25436L10.0497 8.50989C10.2293 8.2079 10.4234 7.96736 10.6034 7.8079L10.2718 7.43364ZM10.9636 7.10501C10.7377 7.10501 10.4983 7.23302 10.2718 7.43364L10.6034 7.8079C10.7941 7.63893 10.918 7.60501 10.9636 7.60501V7.10501ZM11.7694 7.48083C11.5133 7.25352 11.2367 7.10501 10.9636 7.10501V7.60501C11.0591 7.60501 11.2207 7.66236 11.4375 7.85478L11.7694 7.48083ZM12.486 8.37972C12.2728 8.0255 12.0269 7.70939 11.7694 7.48083L11.4375 7.85478C11.6463 8.04006 11.8617 8.31213 12.0575 8.63752L12.486 8.37972ZM13.2161 10.6282C13.2161 9.96172 12.9112 9.08638 12.486 8.37972L12.0575 8.63752C12.455 9.298 12.7161 10.0835 12.7161 10.6282H13.2161ZM11.0711 12.7732C12.2538 12.7732 13.2161 11.8109 13.2161 10.6282H12.7161C12.7161 11.5348 11.9776 12.2732 11.0711 12.2732V12.7732ZM8.92607 10.6282C8.92607 11.8109 9.8884 12.7732 11.0711 12.7732V12.2732C10.1645 12.2732 9.42607 11.5348 9.42607 10.6282H8.92607Z" fill="#505050"/>
</svg>
