<svg width="16" height="16" viewBox="0 0 16 16" fill="none" xmlns="http://www.w3.org/2000/svg">
<path fill-rule="evenodd" clip-rule="evenodd" d="M7.99967 1.83398C7.35535 1.83398 6.83301 2.35632 6.83301 3.00065C6.83301 3.64498 7.35535 4.16732 7.99967 4.16732C8.644 4.16732 9.16634 3.64498 9.16634 3.00065C9.16634 2.35632 8.644 1.83398 7.99967 1.83398ZM5.83301 3.00065C5.83301 1.80403 6.80307 0.833984 7.99967 0.833984C9.19628 0.833984 10.1663 1.80403 10.1663 3.00065C10.1663 4.19727 9.19628 5.16732 7.99967 5.16732C6.80307 5.16732 5.83301 4.19727 5.83301 3.00065ZM8.00016 6.51367C7.7627 6.51368 7.5474 6.52734 7.4261 6.5479L6.8317 6.648C5.49004 6.87395 4.50014 8.04899 4.50014 9.43343C4.50014 10.154 4.14381 10.8289 3.54714 11.2308L3.54711 11.2309L3.47965 11.2763L3.47959 11.2763C3.3098 11.3907 3.12551 11.4818 2.93156 11.5471L2.9315 11.5472L2.15976 11.8071C1.89807 11.8953 1.61446 11.7546 1.5263 11.4929C1.43814 11.2312 1.57882 10.9476 1.84051 10.8595L2.61231 10.5995L2.61237 10.5994C2.72128 10.5628 2.82506 10.5115 2.92092 10.447L2.92098 10.4469L2.98843 10.4015C3.30682 10.187 3.50014 9.82422 3.50014 9.43343C3.50014 7.56828 4.8352 5.97015 6.66563 5.66188L7.25897 5.56196L7.25922 5.56192C7.46216 5.52755 7.74222 5.51368 8.00011 5.51367C8.25793 5.51366 8.53803 5.52749 8.74109 5.56193L8.74144 5.56199L9.33463 5.66188C9.63663 5.71274 9.92565 5.79892 10.1977 5.9159C10.4513 6.02499 10.5686 6.31907 10.4595 6.57275C10.3504 6.82643 10.0563 6.94365 9.80261 6.83455C9.60316 6.74878 9.39097 6.68545 9.16857 6.648L8.57403 6.54788C8.45285 6.5273 8.23766 6.51366 8.00016 6.51367ZM11.8201 8.23741C12.09 8.17935 12.356 8.35114 12.414 8.62111C12.4705 8.88386 12.5001 9.15583 12.5001 9.43343C12.5001 9.82423 12.6934 10.187 13.0118 10.4015L13.0792 10.4469L13.0794 10.447C13.1751 10.5115 13.2789 10.5628 13.3879 10.5994L14.1598 10.8595C14.4214 10.9476 14.5621 11.2312 14.474 11.4929C14.3858 11.7546 14.1022 11.8953 13.8405 11.8071L13.0688 11.5472L13.0687 11.5471C12.8748 11.4818 12.6904 11.3907 12.5206 11.2763L12.4531 11.2309C11.8564 10.8289 11.5001 10.154 11.5001 9.43343C11.5001 9.22704 11.4781 9.02554 11.4364 8.83136C11.3783 8.56139 11.5501 8.29547 11.8201 8.23741ZM6.73366 10.966C6.89934 10.7451 6.85457 10.4317 6.63366 10.266C6.41274 10.1004 6.09934 10.1451 5.93366 10.366L5.31734 11.1878L5.31732 11.1878C5.21192 11.3284 5.18296 11.3656 5.15323 11.3967L5.15319 11.3968C5.06781 11.486 4.96366 11.5551 4.84828 11.5992L4.84794 11.5993C4.80798 11.6146 4.76268 11.6267 4.59213 11.6694L3.39643 11.9683C2.6739 12.149 2.16699 12.7981 2.16699 13.5429C2.16699 14.4394 2.89369 15.166 3.7901 15.166H4.24594C5.36948 15.166 6.46571 14.8377 7.40144 14.2255L8.34062 14.5777L8.34066 14.5777L8.35745 14.584L8.35752 14.584C8.69291 14.7098 8.8803 14.78 9.07113 14.8397L9.22032 14.3624L9.07116 14.8397C9.63533 15.016 10.2192 15.1219 10.8093 15.1549L10.8094 15.1549C10.8094 15.1549 10.8093 15.1549 10.8093 15.1549L10.8373 14.6557L10.8094 15.1549C11.0092 15.166 11.2096 15.166 11.5685 15.166H11.5686H12.2105C13.107 15.166 13.8337 14.4394 13.8337 13.5429C13.8337 12.7981 13.3268 12.1489 12.6042 11.9683L11.6218 11.7227C11.2247 11.6235 11.1204 11.5927 11.0333 11.5425L11.0332 11.5425C11.0029 11.525 10.9738 11.5057 10.946 11.4846L10.9458 11.4845C10.8658 11.4237 10.797 11.3395 10.5515 11.012L10.5515 11.012L10.067 10.366C9.9013 10.1451 9.5879 10.1004 9.36699 10.266C9.14607 10.4317 9.10131 10.7451 9.267 10.9661L9.75142 11.6119L9.75146 11.612L9.78443 11.656L9.78445 11.656C9.98071 11.9181 10.1353 12.1247 10.3411 12.2809L10.3412 12.281C10.4027 12.3277 10.4671 12.3704 10.5339 12.4089C10.7577 12.5379 11.008 12.6003 11.3256 12.6795L11.3793 12.6928L11.3793 12.6929L12.3617 12.9384C12.6391 13.0078 12.8337 13.257 12.8337 13.5429C12.8337 13.8871 12.5547 14.166 12.2105 14.166H11.5854C11.2052 14.166 11.0339 14.1659 10.8652 14.1564L10.8651 14.1564C10.3573 14.1281 9.85493 14.037 9.36952 13.8852L9.36949 13.8852C9.20818 13.8348 9.0477 13.7748 8.69176 13.6413L8.69172 13.6413L8.36389 13.5184L8.967 13.066C9.18791 12.9003 9.23268 12.5869 9.06698 12.366C8.90129 12.1451 8.58789 12.1004 8.36698 12.2661L7.10387 13.2134C6.27936 13.8318 5.27655 14.166 4.24594 14.166H3.7901C3.44597 14.166 3.16699 13.8871 3.16699 13.5429C3.16699 13.257 3.36157 13.0078 3.63899 12.9384L4.8345 12.6395L4.83459 12.6395L4.85818 12.6336C4.9942 12.5997 5.1015 12.5729 5.20476 12.5335C5.45873 12.4366 5.68798 12.2844 5.87589 12.0879L5.87593 12.0879C5.95217 12.0081 6.01839 11.9198 6.10249 11.8076L6.11729 11.7879L6.11732 11.7878L6.73366 10.966Z" fill="#505050"/>
<path d="M7.4261 6.5479L7.46761 6.79443L7.46788 6.79438L7.4261 6.5479ZM8.00016 6.51367L8.00015 6.26367L8.00016 6.51367ZM6.8317 6.648L6.79019 6.40147L6.79019 6.40147L6.8317 6.648ZM3.54714 11.2308L3.68424 11.4399L3.68681 11.4382L3.54714 11.2308ZM3.54711 11.2309L3.41001 11.0218L3.40742 11.0235L3.54711 11.2309ZM3.47965 11.2763L3.33995 11.0689L3.33707 11.0709L3.47965 11.2763ZM3.47959 11.2763L3.61926 11.4837L3.62217 11.4817L3.47959 11.2763ZM2.93156 11.5471L2.85177 11.3102L2.85033 11.3107L2.93156 11.5471ZM2.9315 11.5472L3.01131 11.7841L3.01273 11.7836L2.9315 11.5472ZM2.15976 11.8071L2.07995 11.5702H2.07995L2.15976 11.8071ZM1.5263 11.4929L1.28938 11.5727L1.5263 11.4929ZM1.84051 10.8595L1.7607 10.6225L1.84051 10.8595ZM2.61231 10.5995L2.53442 10.3619L2.5325 10.3625L2.61231 10.5995ZM2.61237 10.5994L2.69026 10.837L2.69215 10.8364L2.61237 10.5994ZM2.92092 10.447L3.06056 10.6543L3.06128 10.6538L2.92092 10.447ZM2.92098 10.4469L2.78129 10.2396L2.78061 10.24L2.92098 10.4469ZM2.98843 10.4015L2.84876 10.1941L2.84875 10.1941L2.98843 10.4015ZM6.66563 5.66188L6.62412 5.41535L6.62411 5.41535L6.66563 5.66188ZM7.25897 5.56196L7.30049 5.80849L7.30061 5.80847L7.25897 5.56196ZM7.25922 5.56192L7.30086 5.80843L7.30097 5.80841L7.25922 5.56192ZM8.00011 5.51367L8.0001 5.26367H8.0001L8.00011 5.51367ZM8.74109 5.56193L8.69928 5.80841L8.69944 5.80843L8.74109 5.56193ZM8.74144 5.56199L8.69979 5.80849L8.69992 5.80852L8.74144 5.56199ZM9.33463 5.66188L9.37615 5.41535L9.37615 5.41535L9.33463 5.66188ZM10.1977 5.9159L10.0989 6.14556L10.1977 5.9159ZM10.4595 6.57275L10.2298 6.47399L10.2298 6.47399L10.4595 6.57275ZM9.80261 6.83455L9.90137 6.60489V6.60489L9.80261 6.83455ZM9.16857 6.648L9.21009 6.40147L9.21009 6.40147L9.16857 6.648ZM8.57403 6.54788L8.53218 6.79435L8.53252 6.7944L8.57403 6.54788ZM12.414 8.62111L12.1696 8.67367L12.1696 8.67367L12.414 8.62111ZM11.8201 8.23741L11.8726 8.48182L11.8201 8.23741ZM13.0118 10.4015L12.8721 10.6088L12.8722 10.6089L13.0118 10.4015ZM13.0792 10.4469L13.22 10.2402L13.2189 10.2395L13.0792 10.4469ZM13.0794 10.447L12.9386 10.6536L12.9397 10.6543L13.0794 10.447ZM13.3879 10.5994L13.4677 10.3625L13.4677 10.3625L13.3879 10.5994ZM14.1598 10.8595L14.2396 10.6225L14.1598 10.8595ZM14.474 11.4929L14.2371 11.4131V11.4131L14.474 11.4929ZM13.8405 11.8071L13.9203 11.5702L13.8405 11.8071ZM13.0688 11.5472L12.9859 11.783L12.989 11.7841L13.0688 11.5472ZM13.0687 11.5471L13.1516 11.3112L13.1485 11.3102L13.0687 11.5471ZM12.5206 11.2763L12.6603 11.069L12.6603 11.0689L12.5206 11.2763ZM12.4531 11.2309L12.3135 11.4382L12.3135 11.4382L12.4531 11.2309ZM11.4364 8.83136L11.6808 8.77879L11.4364 8.83136ZM6.63366 10.266L6.48366 10.466H6.48366L6.63366 10.266ZM6.73366 10.966L6.93366 11.116L6.73366 10.966ZM5.93366 10.366L5.73365 10.216L5.93366 10.366ZM5.31734 11.1878L5.5167 11.3387L5.51734 11.3378L5.31734 11.1878ZM5.31732 11.1878L5.11796 11.037L5.11733 11.0378L5.31732 11.1878ZM5.15323 11.3967L4.97252 11.224L4.97198 11.2245L5.15323 11.3967ZM5.15319 11.3968L5.33384 11.5696L5.33444 11.5689L5.15319 11.3968ZM4.84828 11.5992L4.93728 11.8328L4.9374 11.8327L4.84828 11.5992ZM4.84794 11.5993L4.75894 11.3657L4.75865 11.3658L4.84794 11.5993ZM4.59213 11.6694L4.53153 11.4268L4.53149 11.4268L4.59213 11.6694ZM3.39643 11.9683L3.45706 12.2108L3.45707 12.2108L3.39643 11.9683ZM7.40144 14.2255L7.48922 13.9914C7.41464 13.9634 7.3312 13.9727 7.26456 14.0163L7.40144 14.2255ZM8.34062 14.5777L8.43016 14.3442L8.42841 14.3436L8.34062 14.5777ZM8.34066 14.5777L8.25113 14.8111L8.25289 14.8118L8.34066 14.5777ZM8.35745 14.584L8.44523 14.3499L8.44521 14.3499L8.35745 14.584ZM8.35752 14.584L8.26973 14.8181L8.26975 14.8181L8.35752 14.584ZM9.07113 14.8397L8.99655 15.0783C9.12833 15.1195 9.26855 15.046 9.30974 14.9143L9.07113 14.8397ZM9.22032 14.3624L9.45894 14.437C9.50013 14.3052 9.4267 14.165 9.29492 14.1238C9.16314 14.0826 9.02291 14.1561 8.98171 14.2878L9.22032 14.3624ZM9.07116 14.8397L8.83254 14.7651C8.79135 14.8969 8.86478 15.0371 8.99656 15.0783L9.07116 14.8397ZM10.8373 14.6557L11.0869 14.6697C11.0946 14.5318 10.9891 14.4138 10.8512 14.4061C10.7134 14.3984 10.5954 14.5039 10.5876 14.6418L10.8373 14.6557ZM11.5685 15.166V14.916H11.5685L11.5685 15.166ZM12.6042 11.9683L12.6648 11.7258L12.6042 11.9683ZM11.6218 11.7227L11.6824 11.4802L11.6824 11.4802L11.6218 11.7227ZM11.0333 11.5425L11.1582 11.326L11.1575 11.3256L11.0333 11.5425ZM11.0332 11.5425L10.9084 11.7591L10.909 11.7594L11.0332 11.5425ZM10.946 11.4846L10.7946 11.6835L10.7948 11.6836L10.946 11.4846ZM10.9458 11.4845L11.0972 11.2855L11.097 11.2853L10.9458 11.4845ZM10.5515 11.012L10.7515 10.8621L10.7511 10.8615L10.5515 11.012ZM10.5515 11.012L10.3515 11.162L10.3518 11.1625L10.5515 11.012ZM10.067 10.366L10.267 10.216H10.267L10.067 10.366ZM9.36699 10.266L9.21698 10.0661L9.21698 10.0661L9.36699 10.266ZM9.267 10.9661L9.067 11.1161H9.067L9.267 10.9661ZM9.75142 11.6119L9.55142 11.7619L9.55179 11.7624L9.75142 11.6119ZM9.75146 11.612L9.95155 11.4621L9.95109 11.4615L9.75146 11.612ZM9.78443 11.656L9.58425 11.806L9.58922 11.8122L9.78443 11.656ZM9.78445 11.656L9.98467 11.5061L9.97966 11.4998L9.78445 11.656ZM10.3411 12.2809L10.4924 12.0819L10.4922 12.0817L10.3411 12.2809ZM10.3412 12.281L10.1899 12.4799L10.19 12.4801L10.3412 12.281ZM10.5339 12.4089L10.6587 12.1923L10.6587 12.1923L10.5339 12.4089ZM11.3256 12.6795L11.3861 12.4369L11.3861 12.4369L11.3256 12.6795ZM11.3793 12.6928L11.3187 12.9355L11.3239 12.9366L11.3793 12.6928ZM11.3793 12.6929L11.4399 12.4503L11.4347 12.4491L11.3793 12.6929ZM12.3617 12.9384L12.4223 12.6959H12.4223L12.3617 12.9384ZM10.8652 14.1564L10.8499 14.406L10.8512 14.406L10.8652 14.1564ZM10.8651 14.1564L10.8804 13.9069L10.8791 13.9068L10.8651 14.1564ZM9.36952 13.8852L9.29468 14.1238L9.29492 14.1238L9.36952 13.8852ZM9.36949 13.8852L9.44433 13.6467L9.44408 13.6466L9.36949 13.8852ZM8.69176 13.6413L8.60223 13.8748L8.60399 13.8754L8.69176 13.6413ZM8.69172 13.6413L8.78126 13.4079L8.77951 13.4073L8.69172 13.6413ZM8.36389 13.5184L8.21389 13.3184C8.14083 13.3732 8.10346 13.4635 8.11642 13.5539C8.12938 13.6443 8.1906 13.7204 8.27611 13.7525L8.36389 13.5184ZM8.967 13.066L9.11701 13.266H9.11701L8.967 13.066ZM9.06698 12.366L9.26698 12.216L9.26698 12.216L9.06698 12.366ZM8.36698 12.2661L8.21698 12.0661H8.21698L8.36698 12.2661ZM7.10387 13.2134L7.25386 13.4134L7.25387 13.4134L7.10387 13.2134ZM3.63899 12.9384L3.69962 13.181L3.69963 13.181L3.63899 12.9384ZM4.8345 12.6395L4.77517 12.3967L4.77386 12.397L4.8345 12.6395ZM4.83459 12.6395L4.89392 12.8824L4.89514 12.8821L4.83459 12.6395ZM4.85818 12.6336L4.79766 12.3911L4.79764 12.3911L4.85818 12.6336ZM5.20476 12.5335L5.11564 12.2999L5.11553 12.2999L5.20476 12.5335ZM5.87589 12.0879L6.05656 12.2607L6.05664 12.2606L5.87589 12.0879ZM5.87593 12.0879L5.69524 11.9151L5.69518 11.9152L5.87593 12.0879ZM6.10249 11.8076L5.90247 11.6576L5.90246 11.6577L6.10249 11.8076ZM6.11729 11.7879L6.31732 11.9379L6.31856 11.9362L6.11729 11.7879ZM6.11732 11.7878L5.91731 11.6378L5.91606 11.6395L6.11732 11.7878ZM7.08301 3.00065C7.08301 2.49439 7.49342 2.08398 7.99967 2.08398V1.58398C7.21728 1.58398 6.58301 2.21825 6.58301 3.00065H7.08301ZM7.99967 3.91732C7.49342 3.91732 7.08301 3.50691 7.08301 3.00065H6.58301C6.58301 3.78305 7.21728 4.41732 7.99967 4.41732V3.91732ZM8.91634 3.00065C8.91634 3.50691 8.50593 3.91732 7.99967 3.91732V4.41732C8.78207 4.41732 9.41634 3.78305 9.41634 3.00065H8.91634ZM7.99967 2.08398C8.50593 2.08398 8.91634 2.49439 8.91634 3.00065H9.41634C9.41634 2.21825 8.78207 1.58398 7.99967 1.58398V2.08398ZM7.99967 0.583984C6.665 0.583984 5.58301 1.66596 5.58301 3.00065H6.08301C6.08301 1.94211 6.94114 1.08398 7.99967 1.08398V0.583984ZM10.4163 3.00065C10.4163 1.66596 9.33435 0.583984 7.99967 0.583984V1.08398C9.05821 1.08398 9.91634 1.94211 9.91634 3.00065H10.4163ZM7.99967 5.41732C9.33435 5.41732 10.4163 4.33534 10.4163 3.00065H9.91634C9.91634 4.0592 9.05821 4.91732 7.99967 4.91732V5.41732ZM5.58301 3.00065C5.58301 4.33534 6.665 5.41732 7.99967 5.41732V4.91732C6.94114 4.91732 6.08301 4.0592 6.08301 3.00065H5.58301ZM7.46788 6.79438C7.56874 6.77729 7.76779 6.76368 8.00017 6.76367L8.00015 6.26367C7.7576 6.26368 7.52606 6.27739 7.38432 6.30142L7.46788 6.79438ZM6.87322 6.89452L7.46761 6.79443L7.38458 6.30137L6.79019 6.40147L6.87322 6.89452ZM4.75014 9.43343C4.75014 8.16924 5.65368 7.09991 6.87322 6.89452L6.79019 6.40147C5.32641 6.64799 4.25014 7.92873 4.25014 9.43343H4.75014ZM3.68681 11.4382C4.35306 10.9894 4.75014 10.2364 4.75014 9.43343H4.25014C4.25014 10.0715 3.93455 10.6684 3.40746 11.0235L3.68681 11.4382ZM3.6842 11.4399L3.68423 11.4399L3.41005 11.0218L3.41002 11.0218L3.6842 11.4399ZM3.61933 11.4836L3.68679 11.4382L3.40742 11.0235L3.33997 11.069L3.61933 11.4836ZM3.62217 11.4817L3.62223 11.4817L3.33707 11.0709L3.33701 11.071L3.62217 11.4817ZM3.01135 11.7841C3.22655 11.7116 3.43097 11.6105 3.61924 11.4837L3.33994 11.069C3.18863 11.1709 3.02446 11.2521 2.85177 11.3102L3.01135 11.7841ZM3.01273 11.7836L3.01279 11.7836L2.85033 11.3107L2.85027 11.3107L3.01273 11.7836ZM2.23957 12.0441L3.01131 11.7841L2.85169 11.3102L2.07995 11.5702L2.23957 12.0441ZM1.28938 11.5727C1.42162 11.9653 1.84703 12.1763 2.23957 12.0441L2.07995 11.5702C1.9491 11.6143 1.8073 11.544 1.76322 11.4131L1.28938 11.5727ZM1.7607 10.6225C1.36816 10.7548 1.15715 11.1802 1.28938 11.5727L1.76322 11.4131C1.71914 11.2823 1.78948 11.1405 1.92032 11.0964L1.7607 10.6225ZM2.5325 10.3625L1.7607 10.6225L1.92032 11.0964L2.69212 10.8364L2.5325 10.3625ZM2.53448 10.3619L2.53443 10.3619L2.6902 10.837L2.69026 10.837L2.53448 10.3619ZM2.78127 10.2396C2.7039 10.2917 2.62025 10.333 2.53259 10.3625L2.69215 10.8364C2.82232 10.7925 2.94622 10.7313 3.06056 10.6543L2.78127 10.2396ZM2.78061 10.24L2.78055 10.2401L3.06128 10.6538L3.06134 10.6538L2.78061 10.24ZM2.84875 10.1941L2.78129 10.2396L3.06066 10.6543L3.12812 10.6088L2.84875 10.1941ZM3.25014 9.43343C3.25014 9.74175 3.09761 10.0265 2.84876 10.1941L3.1281 10.6088C3.51604 10.3475 3.75014 9.90669 3.75014 9.43343H3.25014ZM6.62411 5.41535C4.67144 5.7442 3.25014 7.44816 3.25014 9.43343H3.75014C3.75014 7.6884 4.99897 6.19609 6.70715 5.90841L6.62411 5.41535ZM7.21746 5.31543L6.62412 5.41535L6.70715 5.90841L7.30049 5.80849L7.21746 5.31543ZM7.21758 5.31541L7.21734 5.31546L7.30061 5.80847L7.30086 5.80843L7.21758 5.31541ZM8.0001 5.26367C7.73703 5.26368 7.44079 5.27761 7.21747 5.31543L7.30097 5.80841C7.48354 5.77749 7.7474 5.76368 8.00012 5.76367L8.0001 5.26367ZM8.78289 5.31545C8.55941 5.27754 8.26308 5.26366 8.0001 5.26367L8.00012 5.76367C8.25278 5.76366 8.51665 5.77743 8.69928 5.80841L8.78289 5.31545ZM8.78309 5.31548L8.78274 5.31542L8.69944 5.80843L8.69979 5.80849L8.78309 5.31548ZM9.37615 5.41535L8.78295 5.31546L8.69992 5.80852L9.29312 5.90841L9.37615 5.41535ZM10.2964 5.68623C10.0063 5.56146 9.69805 5.46957 9.37615 5.41535L9.29311 5.90841C9.57521 5.95592 9.84503 6.03639 10.0989 6.14556L10.2964 5.68623ZM10.6891 6.67152C10.8528 6.291 10.6769 5.84987 10.2964 5.68623L10.0989 6.14556C10.2257 6.20011 10.2843 6.34715 10.2298 6.47399L10.6891 6.67152ZM9.70385 7.06422C10.0844 7.22786 10.5255 7.05204 10.6891 6.67152L10.2298 6.47399C10.1753 6.60083 10.0282 6.65944 9.90137 6.60489L9.70385 7.06422ZM9.12705 6.89452C9.32955 6.92863 9.52253 6.98625 9.70385 7.06422L9.90137 6.60489C9.68378 6.51132 9.45239 6.44228 9.21009 6.40147L9.12705 6.89452ZM8.53252 6.7944L9.12706 6.89453L9.21009 6.40147L8.61555 6.30135L8.53252 6.7944ZM8.00017 6.76367C8.2326 6.76366 8.4315 6.77725 8.53218 6.79435L8.61589 6.3014C8.4742 6.27735 8.24271 6.26366 8.00015 6.26367L8.00017 6.76367ZM12.6584 8.56854C12.5713 8.16359 12.1725 7.90591 11.7675 7.993L11.8726 8.48182C12.0076 8.45279 12.1406 8.53868 12.1696 8.67367L12.6584 8.56854ZM12.7501 9.43343C12.7501 9.13802 12.7186 8.84844 12.6584 8.56854L12.1696 8.67367C12.2224 8.91928 12.2501 9.17363 12.2501 9.43343H12.7501ZM13.1515 10.1941C12.9027 10.0265 12.7501 9.74177 12.7501 9.43343H12.2501C12.2501 9.9067 12.4842 10.3475 12.8721 10.6088L13.1515 10.1941ZM13.2189 10.2395L13.1514 10.1941L12.8722 10.6089L12.9396 10.6542L13.2189 10.2395ZM13.2201 10.2403L13.22 10.2402L12.9385 10.6535L12.9386 10.6536L13.2201 10.2403ZM13.4677 10.3625C13.38 10.333 13.2963 10.2917 13.219 10.2396L12.9397 10.6543C13.054 10.7313 13.1779 10.7925 13.3081 10.8364L13.4677 10.3625ZM14.2396 10.6225L13.4677 10.3625L13.3081 10.8364L14.0799 11.0964L14.2396 10.6225ZM14.7109 11.5727C14.8431 11.1802 14.6321 10.7548 14.2396 10.6225L14.0799 11.0964C14.2108 11.1405 14.2811 11.2823 14.2371 11.4131L14.7109 11.5727ZM13.7607 12.0441C14.1532 12.1763 14.5787 11.9653 14.7109 11.5727L14.2371 11.4131C14.193 11.544 14.0512 11.6143 13.9203 11.5702L13.7607 12.0441ZM12.989 11.7841L13.7607 12.0441L13.9203 11.5702L13.1486 11.3102L12.989 11.7841ZM12.9858 11.783L12.9859 11.783L13.1517 11.3113L13.1516 11.3113L12.9858 11.783ZM12.381 11.4836C12.5693 11.6105 12.7737 11.7116 12.9889 11.7841L13.1485 11.3102C12.9758 11.2521 12.8116 11.1709 12.6603 11.069L12.381 11.4836ZM12.3135 11.4382L12.381 11.4837L12.6603 11.0689L12.5927 11.0235L12.3135 11.4382ZM11.2501 9.43343C11.2501 10.2364 11.6472 10.9894 12.3135 11.4382L12.5928 11.0235C12.0657 10.6685 11.7501 10.0715 11.7501 9.43343H11.2501ZM11.192 8.88392C11.23 9.06096 11.2501 9.24484 11.2501 9.43343H11.7501C11.7501 9.20924 11.7262 8.99012 11.6808 8.77879L11.192 8.88392ZM11.7675 7.993C11.3626 8.08008 11.1049 8.47896 11.192 8.88392L11.6808 8.77879C11.6518 8.64381 11.7377 8.51085 11.8726 8.48182L11.7675 7.993ZM6.48366 10.466C6.59411 10.5489 6.6165 10.7056 6.53366 10.816L6.93366 11.116C7.18219 10.7847 7.11503 10.3146 6.78365 10.066L6.48366 10.466ZM6.13366 10.516C6.2165 10.4056 6.3732 10.3832 6.48366 10.466L6.78365 10.066C6.45228 9.81752 5.98218 9.88468 5.73365 10.216L6.13366 10.516ZM5.51734 11.3378L6.13366 10.516L5.73365 10.216L5.11734 11.0378L5.51734 11.3378ZM5.51667 11.3387L5.51669 11.3387L5.11799 11.037L5.11796 11.037L5.51667 11.3387ZM5.33393 11.5695C5.37653 11.5249 5.41601 11.4729 5.5173 11.3379L5.11733 11.0378C5.00783 11.1838 4.9894 11.2063 4.97252 11.224L5.33393 11.5695ZM5.33444 11.5689L5.33448 11.5689L4.97198 11.2245L4.97194 11.2246L5.33444 11.5689ZM4.9374 11.8327C5.08742 11.7755 5.22284 11.6856 5.33384 11.5696L4.97253 11.2239C4.91279 11.2864 4.83991 11.3348 4.75916 11.3656L4.9374 11.8327ZM4.93694 11.8329L4.93728 11.8328L4.75928 11.3655L4.75894 11.3657L4.93694 11.8329ZM4.65272 11.9119C4.8166 11.871 4.87974 11.8548 4.93723 11.8328L4.75865 11.3658C4.73623 11.3744 4.70875 11.3825 4.53153 11.4268L4.65272 11.9119ZM3.45707 12.2108L4.65277 11.9119L4.53149 11.4268L3.33579 11.7258L3.45707 12.2108ZM2.41699 13.5429C2.41699 12.9129 2.84581 12.3637 3.45706 12.2108L3.33579 11.7258C2.50198 11.9342 1.91699 12.6834 1.91699 13.5429H2.41699ZM3.7901 14.916C3.03176 14.916 2.41699 14.3013 2.41699 13.5429H1.91699C1.91699 14.5775 2.75561 15.416 3.7901 15.416V14.916ZM4.24594 14.916H3.7901V15.416H4.24594V14.916ZM7.26456 14.0163C6.36942 14.602 5.32074 14.916 4.24594 14.916V15.416C5.41822 15.416 6.56199 15.0735 7.53832 14.4347L7.26456 14.0163ZM8.42841 14.3436L7.48922 13.9914L7.31365 14.4595L8.25284 14.8118L8.42841 14.3436ZM8.43019 14.3443L8.43015 14.3443L8.25109 14.8111L8.25113 14.8111L8.43019 14.3443ZM8.44521 14.3499L8.42843 14.3436L8.25289 14.8118L8.26968 14.8181L8.44521 14.3499ZM8.4453 14.3499L8.44523 14.3499L8.26967 14.8181L8.26973 14.8181L8.4453 14.3499ZM9.14572 14.6011C8.96299 14.5439 8.78288 14.4765 8.44528 14.3499L8.26975 14.8181C8.60294 14.943 8.79761 15.0161 8.99655 15.0783L9.14572 14.6011ZM8.98171 14.2878L8.83252 14.7651L9.30974 14.9143L9.45894 14.437L8.98171 14.2878ZM9.30977 14.9143L9.45894 14.437L8.98171 14.2879L8.83254 14.7651L9.30977 14.9143ZM10.8233 14.9053C10.2537 14.8734 9.69023 14.7713 9.14575 14.6011L8.99656 15.0783C9.58042 15.2608 10.1847 15.3704 10.7954 15.4045L10.8233 14.9053ZM10.8246 14.9053L10.8246 14.9053L10.794 15.4044L10.7941 15.4044L10.8246 14.9053ZM10.8094 14.9049C10.817 14.9049 10.823 14.9052 10.8265 14.9055C10.8297 14.9057 10.8325 14.9059 10.832 14.9059C10.832 14.9059 10.832 14.9059 10.832 14.9059C10.832 14.9059 10.832 14.9059 10.832 14.9059C10.832 14.9059 10.832 14.9059 10.832 14.9059C10.832 14.9059 10.832 14.9059 10.832 14.9059C10.8319 14.9059 10.8319 14.9059 10.8319 14.9059C10.8318 14.9059 10.8318 14.9059 10.8316 14.9059C10.8314 14.9058 10.8311 14.9058 10.8306 14.9058C10.8297 14.9057 10.8283 14.9056 10.8265 14.9055C10.823 14.9052 10.8169 14.9049 10.8093 14.9049V15.4049C10.8017 15.4049 10.7957 15.4045 10.7922 15.4043C10.789 15.4041 10.7862 15.4038 10.7867 15.4038C10.7867 15.4038 10.7867 15.4038 10.7867 15.4038C10.7867 15.4038 10.7867 15.4038 10.7867 15.4038C10.7867 15.4038 10.7867 15.4038 10.7867 15.4038C10.7867 15.4038 10.7867 15.4038 10.7867 15.4038C10.7868 15.4038 10.7868 15.4038 10.7868 15.4038C10.7869 15.4039 10.7869 15.4039 10.7871 15.4039C10.7873 15.4039 10.7876 15.4039 10.7881 15.404C10.789 15.404 10.7904 15.4042 10.7922 15.4043C10.7957 15.4045 10.8018 15.4049 10.8094 15.4049V14.9049ZM11.0589 15.1688L11.0869 14.6697L10.5876 14.6418L10.5597 15.1409L11.0589 15.1688ZM10.5876 14.6418L10.5598 15.1409L11.059 15.1688L11.0869 14.6697L10.5876 14.6418ZM11.5685 14.916C11.2072 14.916 11.0147 14.916 10.8233 14.9053L10.7954 15.4045C11.0038 15.4161 11.212 15.416 11.5685 15.416L11.5685 14.916ZM11.5686 14.916H11.5685V15.416H11.5686V14.916ZM12.2105 14.916H11.5686V15.416H12.2105V14.916ZM13.5837 13.5429C13.5837 14.3013 12.9689 14.916 12.2105 14.916V15.416C13.2451 15.416 14.0837 14.5775 14.0837 13.5429H13.5837ZM12.5436 12.2108C13.1548 12.3637 13.5837 12.9129 13.5837 13.5429H14.0837C14.0837 12.6834 13.4987 11.9342 12.6648 11.7258L12.5436 12.2108ZM11.5611 11.9652L12.5436 12.2108L12.6648 11.7258L11.6824 11.4802L11.5611 11.9652ZM10.9085 11.7591C11.0333 11.8311 11.1796 11.8699 11.5611 11.9652L11.6824 11.4802C11.2699 11.3771 11.2076 11.3544 11.1582 11.326L10.9085 11.7591ZM10.909 11.7594L10.9091 11.7595L11.1575 11.3256L11.1574 11.3255L10.909 11.7594ZM10.7948 11.6836C10.831 11.7112 10.8689 11.7364 10.9084 11.7591L11.158 11.3258C11.1369 11.3137 11.1165 11.3002 11.0972 11.2855L10.7948 11.6836ZM10.7945 11.6834L10.7946 11.6835L11.0974 11.2856L11.0972 11.2855L10.7945 11.6834ZM10.3515 11.162C10.5874 11.4767 10.68 11.5965 10.7947 11.6836L11.097 11.2853C11.0517 11.2509 11.0066 11.2023 10.7515 10.8621L10.3515 11.162ZM10.3518 11.1625L10.3519 11.1625L10.7511 10.8615L10.7511 10.8615L10.3518 11.1625ZM9.86699 10.516L10.3515 11.162L10.7515 10.862L10.267 10.216L9.86699 10.516ZM9.51699 10.466C9.62744 10.3832 9.78414 10.4056 9.86699 10.516L10.267 10.216C10.0185 9.88467 9.54835 9.81752 9.21698 10.0661L9.51699 10.466ZM9.46699 10.816C9.38415 10.7056 9.40653 10.5489 9.51699 10.466L9.21698 10.0661C8.88562 10.3146 8.81847 10.7847 9.067 11.1161L9.46699 10.816ZM9.95141 11.4619L9.46699 10.816L9.067 11.1161L9.55142 11.7619L9.95141 11.4619ZM9.95109 11.4615L9.95105 11.4614L9.55179 11.7624L9.55183 11.7625L9.95109 11.4615ZM9.98452 11.5061L9.95155 11.4621L9.55138 11.7619L9.58435 11.8059L9.98452 11.5061ZM9.97966 11.4998L9.97965 11.4998L9.58922 11.8122L9.58923 11.8122L9.97966 11.4998ZM10.4922 12.0817C10.3197 11.9507 10.1858 11.775 9.98456 11.5062L9.58433 11.8059C9.77557 12.0613 9.95101 12.2986 10.1899 12.48L10.4922 12.0817ZM10.4926 12.082L10.4924 12.0819L10.1897 12.4798L10.1899 12.4799L10.4926 12.082ZM10.6587 12.1923C10.601 12.159 10.5455 12.1222 10.4924 12.0819L10.19 12.4801C10.2599 12.5332 10.3331 12.5817 10.4091 12.6255L10.6587 12.1923ZM11.3861 12.4369C11.0603 12.3557 10.8465 12.3005 10.6587 12.1923L10.409 12.6255C10.6689 12.7753 10.9556 12.8449 11.2652 12.922L11.3861 12.4369ZM11.4398 12.4503L11.3861 12.4369L11.2651 12.922L11.3187 12.9354L11.4398 12.4503ZM11.4347 12.4491L11.4347 12.4491L11.3239 12.9366L11.3239 12.9366L11.4347 12.4491ZM12.4223 12.6959L11.4399 12.4503L11.3186 12.9354L12.301 13.181L12.4223 12.6959ZM13.0837 13.5429C13.0837 13.1423 12.811 12.7931 12.4223 12.6959L12.301 13.181C12.4672 13.2225 12.5837 13.3718 12.5837 13.5429H13.0837ZM12.2105 14.416C12.6928 14.416 13.0837 14.0252 13.0837 13.5429H12.5837C12.5837 13.749 12.4166 13.916 12.2105 13.916V14.416ZM11.5854 14.416H12.2105V13.916H11.5854V14.416ZM10.8512 14.406C11.0285 14.416 11.2079 14.416 11.5854 14.416V13.916C11.2025 13.916 11.0393 13.9158 10.8792 13.9068L10.8512 14.406ZM10.8499 14.406L10.8499 14.406L10.8805 13.9069L10.8804 13.9069L10.8499 14.406ZM9.29492 14.1238C9.80002 14.2817 10.3228 14.3765 10.8512 14.406L10.8791 13.9068C10.3918 13.8796 9.90983 13.7922 9.44411 13.6466L9.29492 14.1238ZM9.29466 14.1238L9.29468 14.1238L9.44435 13.6467L9.44433 13.6467L9.29466 14.1238ZM8.60399 13.8754C8.95739 14.0079 9.12541 14.0708 9.29491 14.1238L9.44408 13.6466C9.29095 13.5987 9.13801 13.5417 8.77953 13.4073L8.60399 13.8754ZM8.60219 13.8748L8.60223 13.8748L8.78129 13.4079L8.78125 13.4079L8.60219 13.8748ZM8.27611 13.7525L8.60394 13.8754L8.77951 13.4073L8.45168 13.2843L8.27611 13.7525ZM8.817 12.866L8.21389 13.3184L8.5139 13.7184L9.11701 13.266L8.817 12.866ZM8.86699 12.516C8.94983 12.6265 8.92745 12.7832 8.817 12.866L9.11701 13.266C9.44837 13.0175 9.51552 12.5474 9.26698 12.216L8.86699 12.516ZM8.51699 12.466C8.62744 12.3832 8.78414 12.4056 8.86699 12.516L9.26698 12.216C9.01844 11.8847 8.54834 11.8175 8.21698 12.0661L8.51699 12.466ZM7.25387 13.4134L8.51699 12.466L8.21698 12.0661L6.95386 13.0134L7.25387 13.4134ZM4.24594 14.416C5.33064 14.416 6.38608 14.0643 7.25386 13.4134L6.95387 13.0134C6.17263 13.5993 5.22246 13.916 4.24594 13.916V14.416ZM3.7901 14.416H4.24594V13.916H3.7901V14.416ZM2.91699 13.5429C2.91699 14.0252 3.3079 14.416 3.7901 14.416V13.916C3.58404 13.916 3.41699 13.749 3.41699 13.5429H2.91699ZM3.57835 12.6959C3.18966 12.7931 2.91699 13.1423 2.91699 13.5429H3.41699C3.41699 13.3718 3.53349 13.2225 3.69962 13.181L3.57835 12.6959ZM4.77386 12.397L3.57835 12.6959L3.69963 13.181L4.89514 12.8821L4.77386 12.397ZM4.77527 12.3967L4.77517 12.3967L4.89382 12.8824L4.89392 12.8824L4.77527 12.3967ZM4.79764 12.3911L4.77404 12.397L4.89514 12.8821L4.91873 12.8762L4.79764 12.3911ZM5.11553 12.2999C5.02899 12.333 4.93708 12.3563 4.79766 12.3911L4.9187 12.8762C5.05133 12.8431 5.17401 12.8128 5.29399 12.767L5.11553 12.2999ZM5.69522 11.9151C5.53295 12.0848 5.33497 12.2162 5.11564 12.2999L5.29388 12.767C5.58249 12.6569 5.84301 12.484 6.05656 12.2607L5.69522 11.9151ZM5.69518 11.9152L5.69514 11.9152L6.05664 12.2606L6.05668 12.2606L5.69518 11.9152ZM5.90246 11.6577C5.81626 11.7726 5.75919 11.8482 5.69524 11.9151L6.05662 12.2606C6.14516 12.1681 6.22051 12.067 6.30252 11.9576L5.90246 11.6577ZM5.91728 11.6379L5.90247 11.6576L6.30251 11.9576L6.31731 11.9379L5.91728 11.6379ZM5.91606 11.6395L5.91603 11.6396L6.31856 11.9362L6.31858 11.9361L5.91606 11.6395ZM6.53366 10.816L5.91732 11.6378L6.31732 11.9378L6.93366 11.116L6.53366 10.816Z" fill="#505050"/>
</svg>
