<svg width="16" height="16" viewBox="0 0 16 16" fill="none" xmlns="http://www.w3.org/2000/svg">
<path fill-rule="evenodd" clip-rule="evenodd" d="M8.00033 1.5625L11.7737 5.32917C12.8137 6.36917 13.3337 7.75583 13.3337 9.08917C13.3337 10.4225 12.8137 11.8292 11.7737 12.8692C10.7337 13.9092 9.36699 14.4358 8.00033 14.4358C6.63366 14.4358 5.26699 13.9092 4.22699 12.8692C3.18699 11.8292 2.66699 10.4225 2.66699 9.08917C2.66699 7.75583 3.18699 6.36917 4.22699 5.32917L8.00033 1.5625ZM5.17366 6.39583C4.41366 7.14917 4.00699 7.99583 4.00033 9.32917H12.0003C11.9937 7.99583 11.587 7.17583 10.827 6.42917L8.00033 3.50917L5.17366 6.39583Z" fill="#505050"/>
</svg>
