<svg width="16" height="16" viewBox="0 0 16 16" fill="none" xmlns="http://www.w3.org/2000/svg">
<path fill-rule="evenodd" clip-rule="evenodd" d="M12.667 4.66602H7.33366V9.99935H2.00033V4.66602H0.666992V11.3327H15.3337V7.33268C15.3337 5.85935 14.1403 4.66602 12.667 4.66602ZM6.66699 7.33268C6.66699 8.43935 5.77366 9.33268 4.66699 9.33268C3.56033 9.33268 2.66699 8.43935 2.66699 7.33268C2.66699 6.22602 3.56033 5.33268 4.66699 5.33268C5.77366 5.33268 6.66699 6.22602 6.66699 7.33268ZM5.33366 7.33268C5.33366 6.96602 5.03366 6.66602 4.66699 6.66602C4.30033 6.66602 4.00033 6.96602 4.00033 7.33268C4.00033 7.69935 4.30033 7.99935 4.66699 7.99935C5.03366 7.99935 5.33366 7.69935 5.33366 7.33268ZM8.66699 9.99935H14.0003V7.33268C14.0003 6.59935 13.4003 5.99935 12.667 5.99935H8.66699V9.99935Z" fill="#505050"/>
</svg>
