<svg width="16" height="16" viewBox="0 0 16 16" fill="none" xmlns="http://www.w3.org/2000/svg">
<path fill-rule="evenodd" clip-rule="evenodd" d="M8.55957 1.90625L9.82483 3.17151C10.2904 3.63705 10.5519 4.26847 10.5519 4.92685C10.5519 5.58523 10.2904 6.21664 9.82483 6.68219L9.04965 7.45736L7.78439 6.19211C7.31885 5.72656 7.05731 5.09515 7.05731 4.43677C7.05731 3.77839 7.31885 3.14697 7.78439 2.68143L8.55957 1.90625ZM8.55957 2.89584L8.27919 3.17622C7.94487 3.51054 7.75705 3.96397 7.75705 4.43677C7.75705 4.90956 7.94487 5.36299 8.27919 5.69731L9.04965 6.46778L9.33003 6.18739C9.66435 5.85308 9.85217 5.39964 9.85217 4.92685C9.85217 4.45405 9.66435 4.00062 9.33003 3.6663L8.55957 2.89584Z" fill="#505050" stroke="#505050" stroke-width="0.5" stroke-miterlimit="10"/>
<path fill-rule="evenodd" clip-rule="evenodd" d="M10.1222 8.45179C10.5495 8.77264 11.072 8.94899 11.6126 8.94899C12.271 8.94899 12.9024 8.68745 13.3679 8.2219L14.1054 7.48443L12.8402 6.21917C12.3746 5.75362 11.7432 5.49208 11.0848 5.49208C10.4264 5.49208 9.79503 5.75362 9.32948 6.21917L8.57315 6.9755L10.0858 8.48815L10.1222 8.45179ZM10.0858 7.49856L10.1047 7.47971L10.3521 7.72711C10.6864 8.06143 11.1398 8.24925 11.6126 8.24925C12.0854 8.24925 12.5388 8.06143 12.8731 7.72711L13.1158 7.48443L12.3454 6.71396C12.011 6.37965 11.5576 6.19183 11.0848 6.19183C10.612 6.19183 10.1586 6.37964 9.82427 6.71396L9.56274 6.9755L10.0858 7.49856Z" fill="#505050" stroke="#505050" stroke-width="0.5" stroke-miterlimit="10"/>
<path fill-rule="evenodd" clip-rule="evenodd" d="M6.52539 3.9375L7.79065 5.20276C8.25619 5.6683 8.51773 6.29972 8.51773 6.9581C8.51773 7.61648 8.25619 8.24789 7.79065 8.71344L7.03432 9.46976L5.76906 8.20451C5.30352 7.73896 5.04198 7.10755 5.04198 6.44917C5.04198 5.79079 5.30352 5.15937 5.76906 4.69383L6.52539 3.9375ZM6.52539 4.92709L6.26386 5.18862C5.92954 5.52294 5.74172 5.97637 5.74172 6.44917C5.74172 6.92196 5.92954 7.3754 6.26386 7.70971L7.03432 8.48018L7.29585 8.21864C7.63017 7.88433 7.81799 7.43089 7.81799 6.9581C7.81799 6.4853 7.63017 6.03187 7.29585 5.69755L6.52539 4.92709Z" fill="#505050" stroke="#505050" stroke-width="0.5" stroke-miterlimit="10"/>
<path fill-rule="evenodd" clip-rule="evenodd" d="M8.30653 9.78736C8.47244 9.95835 8.67095 10.0944 8.89032 10.1873C9.1097 10.2803 9.34548 10.3283 9.58374 10.3286C9.822 10.3289 10.0579 10.2815 10.2775 10.189C10.4971 10.0966 10.6959 9.96109 10.8623 9.79051L10.8654 9.78735L11.093 9.55976L10.2999 8.76668C9.96559 8.43236 9.51216 8.24454 9.03936 8.24454C8.56656 8.24454 8.11313 8.43236 7.77881 8.76668L7.53236 9.01313L8.30653 9.78736ZM7.80624 10.2766C8.03689 10.5138 8.31264 10.7025 8.61728 10.8316C8.92276 10.9611 9.25109 11.028 9.58288 11.0284C9.91466 11.0288 10.2432 10.9627 10.549 10.834C10.8541 10.7056 11.1304 10.5174 11.3617 10.2807L12.0826 9.55976L10.7947 8.27188C10.3292 7.80634 9.69774 7.5448 9.03936 7.5448C8.38098 7.5448 7.74957 7.80634 7.28402 8.27188L6.54277 9.01313L7.80624 10.2766Z" fill="#505050" stroke="#505050" stroke-width="0.5" stroke-miterlimit="10"/>
<path fill-rule="evenodd" clip-rule="evenodd" d="M4.49287 6.47009L4.74027 6.22269L5.75813 7.24055C5.98864 7.47106 6.1715 7.74472 6.29625 8.04591C6.421 8.34709 6.48521 8.66989 6.48521 8.99589C6.48521 9.32189 6.421 9.64469 6.29625 9.94587C6.1715 10.2471 5.98864 10.5207 5.75813 10.7512L5.0018 11.5076L3.75539 10.2611C3.28985 9.7956 3.02831 9.16419 3.02831 8.50581C3.02831 7.84743 3.28985 7.21601 3.75539 6.75047L4.26432 6.24154L4.49287 6.47009ZM4.51172 6.98373L4.25018 7.24526C3.91587 7.57958 3.72805 8.03301 3.72805 8.50581C3.72805 8.9786 3.91587 9.43204 4.25018 9.76635L5.0018 10.518L5.26333 10.2564C5.42887 10.0909 5.56018 9.89438 5.64977 9.67809C5.73936 9.46181 5.78547 9.22999 5.78547 8.99589C5.78547 8.76178 5.73936 8.52997 5.64977 8.31369C5.56018 8.0974 5.42887 7.90088 5.26333 7.73534L4.51172 6.98373Z" fill="#505050" stroke="#505050" stroke-width="0.5" stroke-miterlimit="10"/>
<path fill-rule="evenodd" clip-rule="evenodd" d="M6.26667 11.8257C6.43274 11.996 6.63123 12.1314 6.85042 12.2238C7.06962 12.3162 7.30509 12.3638 7.54297 12.3638C7.78085 12.3638 8.01632 12.3162 8.23552 12.2238C8.45471 12.1314 8.65319 11.996 8.81927 11.8257L8.82234 11.8226L9.06505 11.5799L8.27574 10.7906C7.94142 10.4563 7.48799 10.2684 7.01519 10.2684C6.54239 10.2684 6.08896 10.4563 5.75464 10.7906L5.49311 11.0521L6.26667 11.8257ZM5.76728 12.3159C5.99822 12.5523 6.27405 12.7402 6.57858 12.8686C6.88381 12.9972 7.21172 13.0635 7.54297 13.0635C7.87422 13.0635 8.20212 12.9972 8.50736 12.8686C8.81189 12.7402 9.08771 12.5523 9.31865 12.3159L10.0546 11.5799L8.77053 10.2958C8.30498 9.83024 7.67357 9.5687 7.01519 9.5687C6.35681 9.5687 5.72539 9.83024 5.25985 10.2958L4.50352 11.0521L5.76728 12.3159Z" fill="#505050" stroke="#505050" stroke-width="0.5" stroke-miterlimit="10"/>
<path fill-rule="evenodd" clip-rule="evenodd" d="M13.6501 2.39743H14V3.29311C14 3.95149 13.7385 4.5829 13.2729 5.04845C12.8074 5.51399 12.176 5.77553 11.5176 5.77553H10.2454V4.55664C10.2454 3.89826 10.5069 3.26685 10.9725 2.8013C11.438 2.33576 12.0694 2.07422 12.7278 2.07422H13.6501V2.39743ZM13.3003 2.77396H12.7278C12.255 2.77396 11.8016 2.96178 11.4673 3.2961C11.1329 3.63042 10.9451 4.08385 10.9451 4.55664V5.07579H11.5176C11.9904 5.07579 12.4438 4.88797 12.7781 4.55365C13.1124 4.21933 13.3003 3.7659 13.3003 3.29311V2.77396Z" fill="#505050" stroke="#505050" stroke-width="0.5" stroke-miterlimit="10"/>
<path fill-rule="evenodd" clip-rule="evenodd" d="M5.24489 11.2975L2.70182 13.8406L2.20703 13.3458L4.7501 10.8027L5.24489 11.2975Z" fill="#505050" stroke="#505050" stroke-width="0.5" stroke-miterlimit="10"/>
</svg>
