<svg width="16" height="16" viewBox="0 0 16 16" fill="none" xmlns="http://www.w3.org/2000/svg">
<path fill-rule="evenodd" clip-rule="evenodd" d="M9.00033 0.890625C9.00033 0.890625 9.49366 2.65729 9.49366 4.09063C9.49366 5.46396 8.59366 6.57729 7.22032 6.57729C5.84033 6.57729 4.80033 5.46396 4.80033 4.09063L4.82033 3.85062C3.47366 5.45062 2.66699 7.52396 2.66699 9.77729C2.66699 12.724 5.05366 15.1106 8.00033 15.1106C10.947 15.1106 13.3337 12.724 13.3337 9.77729C13.3337 6.18396 11.607 2.97729 9.00033 0.890625ZM7.71366 9.21729C6.80699 9.40396 6.26699 9.99063 6.26699 10.824C6.26699 11.7173 7.00699 12.4373 7.92699 12.4373C9.29366 12.4373 10.4003 11.3306 10.4003 9.96396C10.4003 9.25062 10.3003 8.55062 10.0937 7.88396C9.56699 8.59729 8.62699 9.03063 7.71366 9.21729ZM4.00033 9.77729C4.00033 11.984 5.79366 13.7773 8.00033 13.7773C10.207 13.7773 12.0003 11.984 12.0003 9.77729C12.0003 8.07063 11.5603 6.42396 10.7403 4.95729C10.387 6.69062 8.99366 7.91062 7.22033 7.91062C6.18033 7.91062 5.24699 7.49729 4.57366 6.82396C4.20033 7.75063 4.00033 8.75729 4.00033 9.77729Z" fill="#505050"/>
</svg>
