<svg width="24" height="24" viewBox="0 0 24 24" fill="none" xmlns="http://www.w3.org/2000/svg">
<path d="M11.4532 1.8749C6.09408 2.12952 1.86859 6.59144 1.88678 11.9506C1.89284 13.5814 2.2869 15.1273 2.98407 16.4853L1.91103 21.6686C1.8504 21.9475 2.10502 22.1961 2.38389 22.1294L7.46418 20.929C8.7676 21.5777 10.2347 21.9536 11.7867 21.9778C17.261 22.0627 21.826 17.7159 21.9958 12.2416C22.1776 6.3732 17.3398 1.59603 11.4532 1.8749ZM17.5156 17.4916C16.0304 18.9769 14.0479 19.7953 11.9443 19.7953C10.7136 19.7953 9.53146 19.5165 8.44023 18.9769L7.73093 18.6253L4.61486 19.3649L5.2696 16.1822L4.92404 15.4971C4.36024 14.3816 4.06924 13.1813 4.06924 11.9203C4.06924 9.81664 4.88766 7.8403 6.37295 6.34895C7.84612 4.87579 9.85883 4.04524 11.9443 4.04524C14.0479 4.04524 16.0243 4.86366 17.5156 6.34895C19.0009 7.83424 19.8194 9.81664 19.8194 11.9203C19.8194 14.0058 18.9888 16.0124 17.5156 17.4916Z" fill="#00C300"/>
<path d="M16.8243 14.1037L14.8783 13.546C14.6237 13.4732 14.3448 13.546 14.1569 13.7339L13.6779 14.2189C13.4779 14.425 13.1748 14.4917 12.908 14.3826C11.9865 14.0067 10.0466 12.285 9.55551 11.4242C9.41001 11.1756 9.43426 10.8664 9.61007 10.636L10.0284 10.0965C10.1921 9.88431 10.2284 9.60544 10.1193 9.35688L9.30089 7.50179C9.10689 7.05924 8.53702 6.92586 8.16722 7.24111C7.6216 7.70185 6.97899 8.39902 6.90018 9.17501C6.76074 10.5391 7.34879 12.2608 9.56157 14.328C12.1199 16.7166 14.169 17.0319 15.5027 16.7045C16.2605 16.5226 16.8607 15.7891 17.2426 15.1828C17.4973 14.7827 17.2911 14.2371 16.8243 14.1037Z" fill="#00C300"/>
</svg>
