<svg width="41" height="43" viewBox="0 0 41 43" fill="none" xmlns="http://www.w3.org/2000/svg">
<path d="M3.24389 23.1721C4.00933 23.1078 4.76925 23.3478 5.35889 23.8401C5.5284 23.9819 5.74238 24.0596 5.96339 24.0596C6.18441 24.0596 6.39839 23.9819 6.56789 23.8401C7.09394 23.4012 7.75731 23.1608 8.44239 23.1608C9.12748 23.1608 9.79085 23.4012 10.3169 23.8401C10.4862 23.982 10.7 24.0598 10.9209 24.0598C11.1418 24.0598 11.3556 23.982 11.5249 23.8401C12.0509 23.4012 12.7143 23.1608 13.3994 23.1608C14.0845 23.1608 14.7479 23.4012 15.2739 23.8401C15.4432 23.982 15.657 24.0598 15.8779 24.0598C16.0988 24.0598 16.3126 23.982 16.4819 23.8401C17.0079 23.4012 17.6713 23.1608 18.3564 23.1608C19.0415 23.1608 19.7049 23.4012 20.2309 23.8401C20.4002 23.982 20.614 24.0598 20.8349 24.0598C21.0558 24.0598 21.2696 23.982 21.4389 23.8401C21.9649 23.4012 22.6283 23.1608 23.3134 23.1608C23.9985 23.1608 24.6618 23.4012 25.1879 23.8401C25.3572 23.982 25.571 24.0598 25.7919 24.0598C26.0128 24.0598 26.2266 23.982 26.3959 23.8401C26.9219 23.4012 27.5853 23.1608 28.2704 23.1608C28.9555 23.1608 29.6189 23.4012 30.1449 23.8401C30.3142 23.982 30.528 24.0598 30.7489 24.0598C30.9698 24.0598 31.1836 23.982 31.3529 23.8401C31.8789 23.4012 32.5423 23.1608 33.2274 23.1608C33.9125 23.1608 34.5759 23.4012 35.1019 23.8401C35.2714 23.9819 35.4854 24.0596 35.7064 24.0596C35.9274 24.0596 36.1414 23.9819 36.3109 23.8401C36.6385 23.5667 37.0219 23.3683 37.4344 23.259C37.8468 23.1497 38.2782 23.1321 38.6982 23.2074C39.1181 23.2827 39.5165 23.4491 39.8653 23.6949C40.214 23.9407 40.5047 24.2599 40.7169 24.6301C41.079 21.9035 40.8777 19.1316 40.1255 16.486C39.3732 13.8404 38.0859 11.3773 36.3433 9.24924C34.6007 7.12116 32.44 5.37338 29.9947 4.11406C27.5494 2.85474 24.8717 2.11069 22.1273 1.92795C19.3828 1.74522 16.6301 2.1277 14.0395 3.0517C11.4488 3.97571 9.07536 5.4216 7.06603 7.29985C5.0567 9.17811 3.45424 11.4488 2.35784 13.9713C1.26144 16.4938 0.694424 19.2146 0.691895 21.9651C0.692237 22.8984 0.757058 23.8306 0.885895 24.7551C1.11272 24.3131 1.44807 23.936 1.86051 23.6591C2.27295 23.3822 2.74896 23.2146 3.24389 23.1721Z" fill="#61CCF8"/>
<path d="M37.7667 32.727C39.3503 30.2376 40.3625 27.4283 40.7307 24.501C40.5214 24.1258 40.2319 23.8013 39.8829 23.5508C39.5339 23.3002 39.1339 23.1297 38.7114 23.0514C38.289 22.9731 37.8544 22.9889 37.4388 23.0977C37.0231 23.2066 36.6366 23.4057 36.3067 23.681C36.1372 23.8228 35.9232 23.9005 35.7022 23.9005C35.4812 23.9005 35.2672 23.8228 35.0977 23.681C34.5717 23.2421 33.9083 23.0017 33.2232 23.0017C32.5381 23.0017 31.8748 23.2421 31.3487 23.681C31.1795 23.8229 30.9656 23.9007 30.7447 23.9007C30.5238 23.9007 30.31 23.8229 30.1407 23.681C29.6147 23.2421 28.9513 23.0017 28.2662 23.0017C27.5811 23.0017 26.9178 23.2421 26.3917 23.681C26.2225 23.8229 26.0086 23.9007 25.7877 23.9007C25.5668 23.9007 25.353 23.8229 25.1837 23.681C24.6577 23.2421 23.9943 23.0017 23.3092 23.0017C22.6241 23.0017 21.9608 23.2421 21.4347 23.681C21.2655 23.8229 21.0516 23.9007 20.8307 23.9007C20.6098 23.9007 20.396 23.8229 20.2267 23.681C19.7007 23.2421 19.0373 23.0017 18.3522 23.0017C17.6671 23.0017 17.0038 23.2421 16.4777 23.681C16.3085 23.8229 16.0946 23.9007 15.8737 23.9007C15.6528 23.9007 15.439 23.8229 15.2697 23.681C14.7437 23.2421 14.0803 23.0017 13.3952 23.0017C12.7101 23.0017 12.0468 23.2421 11.5207 23.681C11.3515 23.8227 11.1379 23.9003 10.9172 23.9003C10.6965 23.9003 10.4829 23.8227 10.3137 23.681C9.78768 23.2421 9.12431 23.0017 8.43922 23.0017C7.75413 23.0017 7.09076 23.2421 6.56472 23.681C6.39522 23.8228 6.18124 23.9005 5.96022 23.9005C5.73921 23.9005 5.52523 23.8228 5.35572 23.681C5.01674 23.3982 4.6181 23.1958 4.18971 23.0891C3.76132 22.9823 3.31433 22.974 2.88227 23.0648C2.45021 23.1555 2.04432 23.3429 1.69507 23.613C1.34582 23.883 1.06227 24.2287 0.865723 24.624C1.24729 27.5065 2.25373 30.2709 3.81472 32.724L37.7667 32.727Z" fill="#ADD841"/>
<path d="M28.0127 32.7069C28.2355 32.0589 28.6795 31.5101 29.2667 31.157C29.4559 31.0433 29.5991 30.8667 29.6711 30.6581C29.7431 30.4494 29.7395 30.2221 29.6607 30.0159C29.4178 29.3755 29.4072 28.6701 29.6309 28.0227C29.8546 27.3753 30.2983 26.8268 30.8847 26.4729C31.0739 26.3593 31.2171 26.1826 31.2891 25.974C31.3611 25.7654 31.3575 25.5381 31.2787 25.3319C31.0954 24.8506 31.043 24.3292 31.1267 23.8209C30.966 23.8925 30.7883 23.9176 30.614 23.8932C30.4397 23.8688 30.2757 23.796 30.1407 23.683C29.6147 23.2441 28.9513 23.0037 28.2662 23.0037C27.5812 23.0037 26.9178 23.2441 26.3917 23.683C26.2225 23.8249 26.0086 23.9027 25.7877 23.9027C25.5668 23.9027 25.353 23.8249 25.1837 23.683C24.6577 23.2441 23.9943 23.0037 23.3092 23.0037C22.6242 23.0037 21.9608 23.2441 21.4347 23.683C21.2655 23.8249 21.0516 23.9027 20.8307 23.9027C20.6098 23.9027 20.396 23.8249 20.2267 23.683C19.7007 23.2441 19.0373 23.0037 18.3522 23.0037C17.6672 23.0037 17.0038 23.2441 16.4777 23.683C16.3085 23.8249 16.0946 23.9027 15.8737 23.9027C15.6528 23.9027 15.439 23.8249 15.2697 23.683C14.7437 23.2441 14.0803 23.0037 13.3952 23.0037C12.7102 23.0037 12.0468 23.2441 11.5207 23.683C11.3515 23.8249 11.1376 23.9027 10.9167 23.9027C10.6958 23.9027 10.482 23.8249 10.3127 23.683C9.7867 23.2441 9.12334 23.0037 8.43825 23.0037C7.75316 23.0037 7.08979 23.2441 6.56375 23.683C6.39424 23.8248 6.18026 23.9025 5.95925 23.9025C5.73823 23.9025 5.52425 23.8248 5.35475 23.683C5.01577 23.4001 4.61712 23.1977 4.18874 23.091C3.76035 22.9842 3.31335 22.9759 2.88129 23.0667C2.44924 23.1574 2.04335 23.3448 1.69409 23.6149C1.34484 23.885 1.0613 24.2306 0.864746 24.6259C1.24631 27.5084 2.25276 30.2729 3.81375 32.726H28.0067L28.0127 32.7059V32.7069Z" fill="#8ECB51"/>
<path d="M3.76587 32.645C5.40589 35.2539 7.62108 37.453 10.2419 39.074L16.7919 41.664C18.1086 41.9301 19.4486 42.0641 20.7919 42.064C21.2389 42.064 21.6819 42.048 22.1209 42.02L29.0829 40.278C32.6777 38.6435 35.7141 35.9902 37.8159 32.647L3.76587 32.645Z" fill="#384051"/>
<path d="M28.0199 32.645H3.76587C5.40589 35.2539 7.62108 37.453 10.2419 39.074L16.7919 41.664C18.1086 41.9301 19.4486 42.0641 20.7919 42.064C21.2389 42.064 21.6819 42.048 22.1209 42.02L29.0829 40.278C30.8419 39.4791 32.4767 38.431 33.9369 37.166C32.8492 36.1003 31.4702 35.3807 29.9739 35.098C26.5829 34.209 28.0109 32.71 28.0109 32.71L28.0199 32.645Z" fill="#212335"/>
<path d="M12.3749 35.42C11.8881 34.5706 11.7144 33.5773 11.8839 32.613C10.8867 34.6266 10.3271 36.8286 10.2419 39.074C12.2557 40.3197 14.4749 41.1974 16.7959 41.666C17.1419 41.08 17.5659 40.337 18.0059 39.508C16.1269 38.798 13.5639 37.501 12.3749 35.42Z" fill="#8046CC"/>
<path d="M14.6199 37.765C13.7102 37.1556 12.9442 36.3554 12.3749 35.42C11.8881 34.5706 11.7144 33.5773 11.8839 32.613C10.8867 34.6266 10.3271 36.8286 10.2419 39.074C11.2673 39.7074 12.3477 40.2469 13.4699 40.686C13.3428 40.4203 13.2718 40.1313 13.2613 39.8369C13.2508 39.5426 13.3011 39.2492 13.409 38.9752C13.5169 38.7011 13.6801 38.4522 13.8884 38.244C14.0968 38.0358 14.3458 37.8727 14.6199 37.765Z" fill="#6936BA"/>
<path d="M22.5421 41.669L22.1241 42.018C24.5327 41.8622 26.8931 41.2713 29.0911 40.274C27.614 38.3575 25.9189 36.6195 24.0401 35.095C24.0925 35.1831 24.1079 35.2885 24.0831 35.388C24.068 35.4438 24.0413 35.4958 24.0045 35.5405C23.9678 35.5852 23.922 35.6215 23.8701 35.647C22.2178 36.6607 20.9136 38.1536 20.1311 39.927C20.1088 39.9736 20.0775 40.0154 20.0391 40.05C20.8188 40.4661 21.6256 40.8292 22.4541 41.137C22.5051 41.1564 22.5502 41.1889 22.5849 41.2312C22.6195 41.2734 22.6424 41.3241 22.6514 41.378C22.6604 41.4319 22.6552 41.4872 22.6362 41.5384C22.6171 41.5896 22.585 41.635 22.5431 41.67L22.5421 41.669Z" fill="#F9CFA9"/>
<path d="M22.5421 41.669L22.1241 42.018C23.2526 41.9442 24.3729 41.7753 25.4731 41.513C25.7921 40.142 23.9381 39.02 22.9221 38.551C21.6101 37.945 22.0641 37.23 22.0641 37.23L21.8861 37.241C21.18 38.0511 20.5894 38.955 20.1311 39.927C20.1088 39.9737 20.0775 40.0154 20.0391 40.05C20.8188 40.4661 21.6256 40.8292 22.4541 41.137C22.5051 41.1564 22.5502 41.1889 22.5849 41.2312C22.6195 41.2734 22.6424 41.3241 22.6514 41.378C22.6604 41.4319 22.6552 41.4872 22.6362 41.5384C22.6171 41.5897 22.585 41.635 22.5431 41.67L22.5421 41.669Z" fill="#FBBC8D"/>
<path d="M18.523 30.349C18.3931 30.4393 18.2417 30.4939 18.084 30.507C16.3298 30.7137 14.5518 30.5515 12.864 30.031C11.925 31.455 11.056 33.569 12.21 35.587C13.879 38.507 18.257 39.887 19.644 40.259C19.7608 40.2904 19.885 40.2796 19.9947 40.2286C20.1044 40.1776 20.1927 40.0896 20.244 39.98C21.0177 38.2261 22.3086 36.7502 23.944 35.75C24.0168 35.7123 24.0795 35.6578 24.1269 35.591C24.1744 35.5242 24.2051 35.447 24.2167 35.3659C24.2282 35.2848 24.2202 35.2021 24.1933 35.1247C24.1664 35.0473 24.1214 34.9775 24.062 34.921C22.3368 33.2568 20.486 31.7279 18.526 30.348L18.523 30.349Z" fill="#8954DD"/>
<path d="M22.0628 37.233L17.1628 34.085C16.6697 33.764 16.3093 33.2755 16.1482 32.7096C15.987 32.1437 16.0359 31.5386 16.2859 31.006L16.4858 30.58C15.8893 30.584 15.2932 30.5506 14.7008 30.48C14.3378 31.3644 14.2948 32.3478 14.5792 33.2606C14.8636 34.1734 15.4577 34.9583 16.2588 35.48L21.0449 38.553C21.3483 38.0858 21.689 37.644 22.0638 37.232L22.0628 37.233Z" fill="#F7F3F1"/>
<path d="M19.901 0.783006C19.3638 0.374499 18.7199 0.130043 18.0469 0.0790841C17.3739 0.0281252 16.7005 0.172838 16.1078 0.495789C15.5152 0.818741 15.0286 1.30616 14.7066 1.89932C14.3846 2.49248 14.241 3.16609 14.293 3.83901C14.393 6.33901 12.405 5.63901 10.554 6.53901C9.17602 7.21201 9.62102 8.87101 9.93902 9.67601C9.95171 9.70816 9.9736 9.73585 10.0019 9.75565C10.0303 9.77544 10.0638 9.78645 10.0984 9.7873C10.1329 9.78815 10.167 9.77881 10.1962 9.76044C10.2255 9.74207 10.2487 9.71549 10.263 9.68401C10.892 8.36201 13.613 8.67501 13.613 8.67501C13.613 8.67501 16.213 8.82301 17.395 7.21701C18.577 5.61101 17.123 3.89301 17.707 2.61701C17.8206 2.39035 17.9958 2.20031 18.2124 2.06871C18.4291 1.93711 18.6785 1.86928 18.932 1.87301C18.9742 1.61838 19.0875 1.38088 19.259 1.18799C19.4305 0.995092 19.6531 0.854686 19.901 0.783006Z" fill="#4E5D6D"/>
<path d="M20.0708 1.70511C20.4035 1.45498 20.7537 1.22906 21.1188 1.02911C20.8739 0.790302 20.5483 0.652137 20.2064 0.641962C19.8645 0.631787 19.5312 0.750343 19.2726 0.974164C19.0139 1.19798 18.8487 1.51076 18.8097 1.85057C18.7707 2.19038 18.8606 2.53246 19.0618 2.80911C19.3178 2.37615 19.6615 2.00148 20.0708 1.70911V1.70511Z" fill="#F7F3F1"/>
<path d="M19.6449 0.748047C19.4544 0.826839 19.2843 0.947782 19.1472 1.10179C19.0102 1.25579 18.9099 1.43885 18.8537 1.63721C18.7976 1.83557 18.7872 2.04406 18.8233 2.24703C18.8593 2.44999 18.9409 2.64215 19.0619 2.80905C19.3179 2.37611 19.6616 2.00144 20.0709 1.70905C20.1709 1.63805 20.2709 1.56205 20.3899 1.48205C20.2928 1.48391 20.1963 1.46641 20.1061 1.43057C20.0158 1.39473 19.9336 1.34127 19.8643 1.27331C19.7949 1.20535 19.7398 1.12425 19.7021 1.03475C19.6645 0.945254 19.645 0.849148 19.6449 0.752047V0.748047Z" fill="#CDE2FF"/>
<path d="M20.9141 11.0431C21.7321 9.78008 22.2801 8.36708 21.9141 7.80008C21.8077 7.64365 21.6904 7.49495 21.5631 7.35508C21.1631 6.89808 20.9401 6.60008 21.2351 6.25508C21.2891 6.17187 21.3633 6.10361 21.4507 6.0566C21.538 6.00959 21.6358 5.98534 21.7351 5.98608C22.0821 6.03208 22.3651 6.57308 22.4431 6.73808C22.4706 6.79609 22.5156 6.84404 22.5717 6.87524C22.6278 6.90644 22.6923 6.91932 22.7561 6.91208C22.8396 6.89874 22.9146 6.85335 22.9652 6.78557C23.0158 6.71779 23.038 6.63295 23.0271 6.54908C22.9791 6.19608 23.6881 5.98008 23.7361 5.63608C24.2231 2.12808 26.3171 2.07808 26.7081 2.10708L26.7661 1.96108C26.7661 1.96108 24.9321 -0.333922 22.5991 0.319078C21.6404 0.570718 20.7422 1.01284 19.9581 1.61908C19.3039 2.08732 18.8255 2.76116 18.5991 3.53308L18.5161 3.81608C18.2585 4.50965 18.1924 5.25978 18.3247 5.9877C18.4571 6.71563 18.7829 7.39451 19.2681 7.95308C20.7681 9.69708 20.9981 10.3801 20.9131 11.0421L20.9141 11.0431Z" fill="#4E5D6D"/>
<path d="M21.37 2.81012C20.462 2.41812 20.684 1.54012 20.95 0.974121C20.6058 1.16726 20.2747 1.38307 19.9591 1.62012C19.3049 2.08836 18.8265 2.7622 18.6 3.53412L18.517 3.81712C18.2595 4.5107 18.1934 5.26082 18.3257 5.98875C18.458 6.71667 18.7839 7.39555 19.269 7.95412C20.769 9.69812 20.9991 10.3811 20.9141 11.0431C21.7321 9.78012 22.2801 8.36712 21.9141 7.80012C21.8077 7.6437 21.6904 7.49499 21.5631 7.35512C21.1631 6.89812 20.9401 6.60012 21.2351 6.25512C21.2891 6.17191 21.3632 6.10366 21.4506 6.05665C21.538 6.00963 21.6358 5.98538 21.7351 5.98612C22.0821 6.03212 22.365 6.57312 22.443 6.73812C22.4706 6.79613 22.5155 6.84409 22.5717 6.87529C22.6278 6.90648 22.6922 6.91936 22.756 6.91212C22.8396 6.89878 22.9146 6.8534 22.9652 6.78562C23.0158 6.71783 23.038 6.633 23.027 6.54912C22.979 6.19612 23.688 5.98012 23.736 5.63612C21.347 5.40112 22.762 3.41012 21.368 2.80912L21.37 2.81012Z" fill="#384051"/>
<path d="M22.3979 14.235L20.3469 11.592C21.4269 10.162 22.1469 8.43799 21.7919 7.88099C21.4369 7.32399 20.5919 6.78099 21.1259 6.15899C21.8469 5.31999 22.4179 6.33299 22.5809 6.67499C22.5977 6.70858 22.6258 6.73516 22.6603 6.75001C22.6948 6.76486 22.7334 6.76703 22.7693 6.75613C22.8053 6.74523 22.8362 6.72197 22.8566 6.69046C22.877 6.65896 22.8856 6.62124 22.8809 6.58399C22.8299 6.21799 23.4949 5.89899 23.5459 5.53299C24.0849 1.64599 26.7659 1.96199 26.7659 1.96199C27.0087 2.08956 27.2217 2.26707 27.3909 2.48286C27.5602 2.69865 27.6819 2.94782 27.7479 3.21399C28.0909 4.22699 27.4159 6.08799 27.9069 7.25699C28.3979 8.42599 28.1699 8.78599 27.3279 8.90299C26.4859 9.01999 27.0709 11.413 26.2659 11.979C25.4609 12.545 24.4549 11.12 23.7719 12.023C23.2651 12.7289 22.8055 13.4675 22.3959 14.234L22.3979 14.235Z" fill="#F9CFA9"/>
<path d="M24.687 11.7741H24.672C22.517 11.1231 21.913 9.84706 21.772 8.93506C21.4509 9.8968 20.9687 10.797 20.3459 11.5971L22.397 14.2401C22.8065 13.4736 23.2662 12.735 23.7729 12.0291C23.8718 11.8868 24.0172 11.7835 24.184 11.7369C24.3509 11.6904 24.5287 11.7035 24.687 11.7741Z" fill="#FBBC8D"/>
<path d="M35.0388 13.0211C34.8182 13.0147 34.5974 13.0264 34.3788 13.0561C34.0294 13.1049 33.6981 13.2416 33.416 13.4534C33.1339 13.6652 32.9101 13.9452 32.7657 14.2671C32.5837 14.6671 32.3847 15.1111 32.2467 15.4131C30.6455 17.2758 28.7128 18.8257 26.5468 19.9841C26.0218 20.1841 25.3018 19.0841 24.3538 17.6171C24.3671 18.239 24.197 18.8512 23.8647 19.3771C23.4027 20.0651 22.7337 20.8341 22.0317 21.7491C22.9217 22.6871 23.5388 23.3211 23.5388 23.3211C23.5388 23.3211 25.2047 25.1211 27.0797 24.4211C28.6797 23.8211 32.1437 19.2891 33.9577 17.2401C34.2539 16.9053 34.6496 16.6743 35.0867 16.5811C35.7405 16.4557 36.325 16.0931 36.7278 15.5631C37.6348 14.5631 36.5038 12.9521 35.0338 13.0181L35.0388 13.0211Z" fill="#F9CFA9"/>
<path d="M24.8349 21.4791C23.9349 20.5791 25.3349 19.0791 25.3349 19.0791C25.0349 18.6791 24.7119 18.1791 24.3519 17.6221C24.3674 18.2441 24.1994 18.8569 23.8689 19.3841C23.4069 20.0721 22.7379 20.8411 22.0359 21.7561C22.9259 22.6941 23.5429 23.3281 23.5429 23.3281C23.5429 23.3281 25.2089 25.1281 27.0839 24.4281C27.6266 24.1667 28.119 23.812 28.5389 23.3801C26.2479 23.6581 25.6739 22.3201 24.8389 21.4801L24.8349 21.4791Z" fill="#FBBC8D"/>
<path d="M20.1269 11.536C20.2105 11.439 20.3254 11.3741 20.4516 11.3526C20.5779 11.331 20.7078 11.3542 20.8189 11.418L22.9969 12.997C23.0376 13.0221 23.0718 13.0563 23.0969 13.097C23.3809 13.663 25.3259 17.342 23.9579 19.382C22.5479 21.482 19.1999 24.327 18.9099 29.833C18.8993 30.0527 18.8093 30.2611 18.6566 30.4195C18.504 30.5778 18.299 30.6754 18.0799 30.694C16.7739 30.804 14.1799 30.894 12.5569 30.082C12.5447 30.0756 12.5355 30.0648 12.531 30.0518C12.5265 30.0388 12.5272 30.0246 12.5329 30.012C17.7749 18.525 15.3699 16.312 17.0469 14.739C18.1277 13.7268 19.1548 12.6587 20.1239 11.539L20.1269 11.536Z" fill="#F7F3F1"/>
<path d="M19.78 17.896C18.5752 18.469 17.3254 18.9419 16.043 19.31C15.3876 23.0249 14.2071 26.6276 12.537 30.01C12.5314 30.0225 12.5307 30.0367 12.5351 30.0497C12.5396 30.0628 12.5489 30.0736 12.561 30.08C14.0079 30.6445 15.5639 30.8736 17.112 30.75C14.941 28.795 16.798 25.511 17.507 22.587C17.9617 20.8943 18.7326 19.303 19.779 17.897L19.78 17.896Z" fill="#CDE2FF"/>
<path d="M21.9269 14.6739C21.8346 14.348 21.6742 14.0454 21.4561 13.7862C21.238 13.527 20.9674 13.3171 20.662 13.1705C20.3567 13.0238 20.0237 12.9437 19.6851 12.9355C19.3465 12.9273 19.01 12.9912 18.6979 13.1229C16.0689 13.8759 9.86789 17.3359 9.86789 17.3359C9.86789 17.3359 7.65789 18.3979 7.77289 20.3959C8.40562 23.6743 9.54814 26.8333 11.1589 29.7579C11.3926 30.1392 11.4977 30.5854 11.4589 31.0309C11.3863 31.6927 11.5608 32.3579 11.9489 32.8989C12.6419 34.0609 14.5109 33.4529 14.8799 32.0289C14.951 31.82 15.0049 31.6056 15.0409 31.3879C15.0974 31.0393 15.0643 30.682 14.9448 30.3497C14.8254 30.0173 14.6234 29.7208 14.3579 29.4879C14.0259 29.1959 13.6629 28.8749 13.4159 28.6549C12.8439 28.1449 11.7599 23.2349 11.6589 21.4869C11.5579 19.7389 23.4489 19.0249 21.9279 14.6709L21.9269 14.6739Z" fill="#F9CFA9"/>
<path d="M18.6979 13.1231C16.0699 13.8761 9.86789 17.3361 9.86789 17.3361C9.86789 17.3361 7.65789 18.3981 7.77289 20.3961C8.40557 23.6745 9.54809 26.8334 11.1589 29.7581C11.3926 30.1394 11.4977 30.5856 11.4589 31.0311C11.3863 31.6928 11.5608 32.3581 11.9489 32.8991C12.6419 34.0611 14.5109 33.4531 14.8799 32.0291C14.951 31.8202 15.0049 31.6058 15.0409 31.3881C15.0973 31.0395 15.0642 30.6822 14.9447 30.3499C14.8252 30.0175 14.6233 29.721 14.3579 29.4881C14.0259 29.1961 13.6629 28.8751 13.4159 28.6551C12.8439 28.1451 11.7599 23.2351 11.6589 21.4871C9.05889 18.8871 15.9779 16.6771 18.9309 15.3231C20.7729 14.4791 21.6569 14.9751 22.0619 15.4671C22.0668 15.1945 22.0217 14.9234 21.9289 14.6671C21.8366 14.3411 21.6762 14.0386 21.4581 13.7794C21.24 13.5202 20.9694 13.3103 20.664 13.1636C20.3587 13.017 20.0257 12.9369 19.6871 12.9287C19.3485 12.9205 19.012 12.9844 18.6999 13.1161L18.6979 13.1231Z" fill="#FBBC8D"/>
<path d="M17.3959 7.2239C17.5746 6.98399 17.7066 6.71261 17.7849 6.4239C15.9189 6.2039 16.7329 4.6339 15.3609 4.2149C15.0928 4.14222 14.8533 3.98927 14.6745 3.77657C14.4958 3.56386 14.3864 3.30157 14.3609 3.0249C14.3075 3.29445 14.2857 3.5693 14.2959 3.8439C14.3959 6.3439 12.4079 5.6439 10.5569 6.5439C9.17895 7.2169 9.62394 8.8759 9.94194 9.6809C9.95464 9.71305 9.97652 9.74075 10.0049 9.76054C10.0332 9.78034 10.0667 9.79135 10.1013 9.7922C10.1359 9.79305 10.1699 9.78371 10.1992 9.76534C10.2285 9.74697 10.2517 9.72039 10.2659 9.6889C10.8949 8.3669 13.6159 8.6799 13.6159 8.6799C13.6159 8.6799 16.2159 8.8279 17.3979 7.2219L17.3959 7.2239Z" fill="#384051"/>
<path d="M11.7881 12.8271C11.645 12.5456 11.4344 12.304 11.1751 12.1239C10.9158 11.9438 10.6158 11.8308 10.3021 11.7951C9.67565 11.7298 9.05581 11.612 8.44907 11.4431C7.97571 11.2283 7.56081 10.903 7.23924 10.4946C6.91767 10.0862 6.69882 9.60662 6.60107 9.09608C6.51132 8.69075 6.47036 8.27614 6.47907 7.86108C3.9095 10.4639 2.10029 13.7195 1.24707 17.2761C1.44715 17.3689 1.6541 17.4461 1.86607 17.5071C2.63508 17.7164 3.44522 17.7228 4.21744 17.5257C4.98965 17.3285 5.69756 16.9345 6.27207 16.3821C6.52377 16.089 6.8106 15.8281 7.12607 15.6051C7.30741 15.5037 7.50193 15.428 7.70407 15.3801C8.30963 15.2593 8.92165 15.1735 9.53707 15.1231C10.1563 15.0714 10.7488 14.848 11.2481 14.4781C11.4932 14.2887 11.6758 14.0301 11.7721 13.7357C11.8684 13.4413 11.8739 13.1247 11.7881 12.8271Z" fill="#93DCFC"/>
</svg>
