<svg width="30" height="30" viewBox="0 0 30 30" fill="none" xmlns="http://www.w3.org/2000/svg">
<path d="M2.5 5H7.67634V6.70648H4.20648V10.1763H2.5V5ZM22.3237 5H27.5V10.1763H25.7935V6.70648H22.3237V5ZM25.7935 23.7713V20.3015H27.5V25.4778H22.3237V23.7713H25.7935ZM4.20648 20.3015V23.7713H7.67634V25.4778H2.5V20.3015H4.20648ZM9.15529 8.12856H10.3498V22.3208H9.15529V8.12856ZM5.71388 8.12856H7.98919V22.3208H5.71388V8.12856ZM12.6251 8.12856H14.9858V22.3208H12.6251V8.12856ZM20.8163 8.12856H22.0108V22.3208H20.8163V8.12856ZM23.1769 8.12856H24.2577V22.3208H23.1769V8.12856ZM16.1803 8.12856H19.6217V22.3208H16.1803V8.12856Z" fill="#171433"/>
</svg>
