<svg width="32" height="32" viewBox="0 0 32 32" fill="none" xmlns="http://www.w3.org/2000/svg">
<path fill-rule="evenodd" clip-rule="evenodd" d="M14.7023 9.64053C14.5823 10.3986 14.5653 11.1898 14.6665 11.9992C17.2935 12.3275 19.7292 11.4121 21.4627 9.76398C23.8076 11.4594 25.3333 14.2177 25.3333 17.3325C25.3333 22.4872 21.1547 26.6659 16 26.6659C10.8453 26.6659 6.66667 22.4872 6.66667 17.3325C6.66667 12.6306 10.1435 8.74073 14.6665 8.09372V9.33252C14.6665 9.43853 14.6789 9.54166 14.7023 9.64053ZM28 17.3325C28 13.3535 26.0633 9.82677 23.0812 7.64356C23.864 6.18501 24.2255 4.47053 23.9999 2.66585C21.4377 2.34558 19.0575 3.20854 17.3332 4.78048V3.99918C17.3332 3.2628 16.7363 2.66585 15.9999 2.66585C15.2635 2.66585 14.6665 3.2628 14.6665 3.99918V5.40576C8.66667 6.06908 4 11.1558 4 17.3325C4 23.96 9.37259 29.3325 16 29.3325C22.6275 29.3325 28 23.96 28 17.3325ZM10.6667 15.9992C11.403 15.9992 12 15.4023 12 14.6659C12 13.9295 11.403 13.3325 10.6667 13.3325C9.93029 13.3325 9.33333 13.9295 9.33333 14.6659C9.33333 15.4023 9.93029 15.9992 10.6667 15.9992Z" fill="#505050"/>
</svg>
