<svg width="19" height="25" viewBox="0 0 19 25" fill="none" xmlns="http://www.w3.org/2000/svg">
<path d="M9.26682 17.0559C8.67149 17.4615 8.1733 17.9938 7.80798 18.6147C7.44266 19.2355 7.21926 19.9295 7.15381 20.6469C7.15381 20.9243 7.20844 21.1989 7.31458 21.4551C7.42071 21.7114 7.57628 21.9442 7.7724 22.1403C7.96852 22.3364 8.20134 22.492 8.45758 22.5981C8.71382 22.7043 8.98846 22.7589 9.26581 22.7589C9.54316 22.7589 9.8178 22.7043 10.074 22.5981C10.3303 22.492 10.5631 22.3364 10.7592 22.1403C10.9553 21.9442 11.1109 21.7114 11.217 21.4551C11.3232 21.1989 11.3778 20.9243 11.3778 20.6469C11.3778 18.9719 9.95382 17.6139 9.26682 17.0559Z" fill="#171433" fill-opacity="0.7"/>
<path d="M14.2177 4.86288C14.1573 4.79462 14.0839 4.73915 14.0017 4.69974C13.9195 4.66033 13.8302 4.63776 13.7392 4.63338C13.6481 4.629 13.5571 4.64289 13.4715 4.67424C13.3859 4.70558 13.3074 4.75374 13.2407 4.81588L10.0237 7.81588V1.53188C10.0176 1.40509 9.9796 1.28189 9.91319 1.17371C9.84677 1.06553 9.75411 0.975873 9.64381 0.913044C9.53351 0.850215 9.40914 0.81625 9.28221 0.814298C9.15529 0.812346 9.02993 0.842471 8.91775 0.90188C7.29801 1.94764 5.82272 3.20171 4.52975 4.63188C1.81006 7.39537 0.233356 11.0834 0.114746 14.9589C0.114475 17.3893 1.07833 19.7206 2.79485 21.4412C4.51136 23.1619 6.84032 24.1313 9.27074 24.1369C8.34723 24.1345 7.46235 23.766 6.81017 23.1121C6.15799 22.4582 5.79174 21.5724 5.79174 20.6489C5.79174 17.5409 8.80874 15.7009 8.93774 15.6239C9.04798 15.5579 9.17461 15.5244 9.30305 15.5272C9.4315 15.53 9.55653 15.5691 9.66375 15.6399C9.78975 15.7229 12.7507 17.7089 12.7507 20.6489C12.751 21.5725 12.3849 22.4585 11.7326 23.1124C11.0804 23.7663 10.1953 24.1348 9.27174 24.1369C11.7008 24.1287 14.0275 23.1578 15.7419 21.437C17.4563 19.7162 18.4186 17.3859 18.4177 14.9569C18.3117 11.1891 16.8157 7.59377 14.2177 4.86288Z" fill="#171433" fill-opacity="0.7"/>
</svg>
