<svg width="25" height="24" viewBox="0 0 25 24" fill="none" xmlns="http://www.w3.org/2000/svg">
<path d="M14.8601 4.07869L15.7869 3.15181C17.3226 1.6161 19.8125 1.6161 21.3482 3.15181C22.8839 4.68751 22.8839 7.17738 21.3482 8.71309L20.4213 9.63997M14.8601 4.07869C14.8601 4.07869 14.9759 6.04831 16.7138 7.78621C18.4517 9.52411 20.4213 9.63997 20.4213 9.63997M14.8601 4.07869L6.33882 12.5999C5.76166 13.1771 5.47308 13.4657 5.2249 13.7839C4.93213 14.1592 4.68114 14.5653 4.47634 14.9951C4.30273 15.3593 4.17368 15.7465 3.91556 16.5209L2.82181 19.8021M20.4213 9.63997L11.9001 18.1612C11.3229 18.7384 11.0344 19.0269 10.7162 19.2751C10.3408 19.5679 9.93469 19.8189 9.50498 20.0237C9.1407 20.1973 8.75352 20.3264 7.97918 20.5845L4.69792 21.6782M4.69792 21.6782L3.89584 21.9456C3.51478 22.0726 3.09466 21.9734 2.81063 21.6894C2.5266 21.4054 2.42743 20.9853 2.55445 20.6042L2.82181 19.8021M4.69792 21.6782L2.82181 19.8021" stroke="#8F01DF" stroke-width="1.5"/>
</svg>
