<svg width="24" height="22" viewBox="0 0 24 22" fill="none" xmlns="http://www.w3.org/2000/svg">
<path d="M24.0001 8.49609C24.0001 8.33709 23.9941 8.17409 23.9831 7.99609L23.9401 7.33909H22.8241L22.6241 7.71909C22.3337 8.28272 21.9144 8.76984 21.4003 9.1408C20.8862 9.51177 20.2917 9.75609 19.6653 9.85389C19.0388 9.95169 18.3982 9.90021 17.7954 9.70362C17.1927 9.50704 16.6449 9.17092 16.1965 8.72261C15.7482 8.2743 15.4121 7.72648 15.2155 7.12372C15.0189 6.52096 14.9675 5.88031 15.0653 5.25389C15.1631 4.62748 15.4074 4.033 15.7784 3.51885C16.1493 3.0047 16.6364 2.58541 17.2001 2.29509L17.5811 2.09509V0.983093L16.9241 0.940094C16.7461 0.928094 16.5831 0.923096 16.4241 0.923096C14.416 0.925478 12.4909 1.72421 11.0711 3.1441C9.65118 4.56398 8.85244 6.48907 8.85006 8.49709C8.85006 8.55909 8.85006 8.62209 8.85006 8.68409C8.67206 8.66709 8.49306 8.65709 8.31306 8.65709C7.03758 8.65727 5.80294 9.10686 4.826 9.92689C3.84907 10.7469 3.1923 11.8849 2.97106 13.1411C2.02787 13.3999 1.21059 13.9921 0.670875 14.8077C0.131161 15.6234 -0.0943348 16.6071 0.036232 17.5764C0.166799 18.5457 0.644562 19.4347 1.38086 20.0785C2.11717 20.7223 3.06201 21.0771 4.04006 21.0771H17.2171C17.8518 21.0775 18.4725 20.8903 19.0013 20.5391C19.53 20.1879 19.9432 19.6883 20.1889 19.103C20.4346 18.5178 20.502 17.8729 20.3824 17.2495C20.2629 16.6261 19.9618 16.052 19.5171 15.5991C19.4741 15.5551 19.4301 15.5131 19.3851 15.4721C20.7537 14.8901 21.921 13.9184 22.7415 12.6781C23.5621 11.4377 23.9998 9.98334 24.0001 8.49609ZM17.2171 19.6701H4.04006C3.37007 19.6722 2.72449 19.4187 2.23492 18.9613C1.74535 18.5039 1.44865 17.877 1.40529 17.2084C1.36193 16.5398 1.57519 15.8799 2.00158 15.3631C2.42797 14.8463 3.03541 14.5115 3.70006 14.4271L4.27006 14.3541L4.31206 13.7811C4.37945 12.8763 4.75119 12.0209 5.36673 11.3543C5.98228 10.6877 6.80537 10.2491 7.70198 10.11C8.59859 9.97082 9.5159 10.1393 10.3045 10.588C11.0931 11.0368 11.7066 11.7392 12.0451 12.5811L12.2541 13.1001L12.8071 13.0131C12.9807 12.9859 13.1563 12.9722 13.3321 12.9721C14.0796 12.9707 14.806 13.22 15.3952 13.6801C15.9843 14.1402 16.4022 14.7845 16.5821 15.5101L16.7121 16.0331L17.2511 16.0431C17.7252 16.0578 18.1747 16.2577 18.5033 16.5999C18.8318 16.9421 19.0132 17.3994 19.0086 17.8737C19.0041 18.3481 18.8139 18.8018 18.4788 19.1376C18.1437 19.4733 17.6904 19.6645 17.2161 19.6701H17.2171ZM17.7371 14.5231C17.3811 13.6483 16.7723 12.8995 15.9885 12.3726C15.2047 11.8456 14.2815 11.5645 13.3371 11.5651C13.2704 11.5651 13.2017 11.5651 13.1311 11.5651C12.5217 10.401 11.5114 9.49691 10.2871 9.0201C10.2721 8.8451 10.2641 8.6691 10.2641 8.4931C10.2656 7.15259 10.703 5.84894 11.5105 4.77887C12.3179 3.70881 13.4514 2.93039 14.7401 2.56109C13.9374 3.60749 13.5424 4.90995 13.6287 6.22591C13.715 7.54186 14.2766 8.78161 15.209 9.71425C16.1414 10.6469 17.381 11.2089 18.697 11.2955C20.0129 11.3821 21.3155 10.9875 22.3621 10.1851C22.0557 11.2577 21.4642 12.2271 20.6507 12.9903C19.8372 13.7534 18.832 14.2818 17.7421 14.5191L17.7371 14.5231Z" fill="#8F01DF"/>
</svg>
