<svg width="241" height="240" viewBox="0 0 241 240" fill="none" xmlns="http://www.w3.org/2000/svg">
<path d="M189.216 117.119C188.94 117.591 188.586 118.013 188.17 118.367C187.211 119.215 186.027 119.767 184.762 119.957C183.496 120.147 182.202 119.966 181.037 119.438C179.939 118.939 178.994 118.155 178.301 117.167C177.538 116.071 177.115 114.774 177.087 113.438C177.055 111.997 177.487 110.585 178.319 109.408C179.152 108.232 180.34 107.354 181.709 106.905C182.978 106.484 184.343 106.45 185.631 106.809C186.717 107.109 187.709 107.679 188.517 108.465C189.324 109.251 189.919 110.229 190.248 111.307C190.69 112.757 190.619 114.314 190.047 115.718C189.849 116.228 189.568 116.701 189.216 117.119C189.474 116.652 189.706 116.171 189.912 115.679C190.414 114.302 190.441 112.797 189.989 111.403C189.685 110.449 189.161 109.581 188.458 108.868C187.655 108.049 186.647 107.459 185.539 107.159C184.317 106.829 183.025 106.867 181.824 107.27C180.533 107.699 179.414 108.53 178.628 109.64C177.842 110.75 177.432 112.083 177.456 113.443C177.461 114.086 177.568 114.724 177.773 115.334C177.958 115.923 178.233 116.48 178.589 116.985C179.24 117.928 180.13 118.682 181.167 119.169C182.074 119.593 183.069 119.798 184.071 119.769C185.535 119.731 186.944 119.204 188.074 118.271C188.474 117.907 188.855 117.523 189.216 117.119Z" fill="#E0E0E0"/>
<path d="M193.686 124.712C193.762 124.731 193.836 124.756 193.907 124.789L194.559 125.044L197.137 126.076H197.065L200.579 121.05V121.17L198.092 118.42L198.044 118.372L198.068 118.309C198.528 117.062 198.818 115.76 198.932 114.436V114.359L198.999 114.33L202.422 112.89L202.34 113.039C202.009 111.119 201.659 109.112 201.294 106.996L201.433 107.116L197.727 106.928H197.631L197.593 106.842C197.041 105.633 196.331 104.503 195.481 103.482L195.419 103.405L195.457 103.314C195.894 102.253 196.379 101.082 196.868 99.8868L196.926 100.088L191.915 96.5508H192.135L189.38 99.0276L189.299 99.0996L189.198 99.066C187.962 98.6066 186.671 98.3129 185.358 98.1924H185.247L185.204 98.0916C184.763 97.0164 184.278 95.85 183.764 94.6644L183.971 94.7796L177.923 95.8164L178.076 95.6388C178.014 96.81 177.947 98.0724 177.879 99.3444V99.4596L177.779 99.5028C176.57 100.051 175.44 100.758 174.419 101.605L174.227 101.634H174.203H174.174H174.121L174.015 101.591L173.799 101.5L173.367 101.322L172.508 100.967L170.804 100.256L171.03 100.189L167.483 105.2V104.965L169.959 107.725L170.036 107.807L169.998 107.912C169.538 109.148 169.243 110.439 169.119 111.752V111.863L169.019 111.906L165.591 113.346L165.702 113.149C166.054 115.213 166.396 117.229 166.729 119.197L166.58 119.039L170.286 119.24H170.387L170.43 119.336C170.976 120.546 171.683 121.677 172.532 122.696L172.595 122.773L172.556 122.864C172.076 124.036 171.596 125.173 171.116 126.282L171.063 126.095L176.065 129.652H175.883L178.647 127.18L178.705 127.122L178.782 127.151C180.024 127.619 181.324 127.917 182.646 128.039H182.723L182.751 128.106C183.265 129.354 183.711 130.477 184.158 131.538L184.038 131.471L190.086 130.463L190.019 130.54C190.105 129.061 190.177 127.852 190.239 126.839V126.8H190.273C191.19 126.39 192.064 125.892 192.884 125.312L193.484 124.871C193.546 124.817 193.611 124.769 193.681 124.727C193.628 124.789 193.568 124.845 193.503 124.895C193.379 125 193.187 125.164 192.918 125.375C192.11 125.981 191.242 126.5 190.326 126.925L190.359 126.872C190.311 127.885 190.254 129.1 190.187 130.578V130.645H190.119L184.081 131.706H183.99L183.956 131.624C183.515 130.564 183.049 129.445 182.516 128.202L182.622 128.279C181.276 128.162 179.952 127.865 178.686 127.396L178.82 127.372L176.07 129.858L175.983 129.935L175.892 129.868L170.9 126.33L170.799 126.258L170.847 126.143C171.303 125.029 171.774 123.892 172.259 122.716L172.287 122.884C171.418 121.846 170.691 120.697 170.127 119.466L170.271 119.562L166.566 119.37H166.431L166.407 119.231C166.065 117.269 165.718 115.255 165.366 113.188L165.342 113.044L165.471 112.991L168.899 111.551L168.788 111.704C168.905 110.353 169.206 109.024 169.681 107.754L169.715 107.941L167.233 105.186L167.137 105.076L167.223 104.956L170.766 99.9444L170.852 99.8196L170.991 99.8772L172.695 100.588L173.555 100.943L173.987 101.12L174.203 101.212L174.308 101.255L174.366 101.279H174.39H174.414L174.222 101.308C175.264 100.441 176.416 99.7159 177.649 99.1524L177.539 99.3156C177.606 98.0436 177.673 96.7812 177.735 95.61V95.4612H177.884L183.932 94.4244L184.076 94.4004L184.134 94.5396C184.614 95.7204 185.094 96.8916 185.55 97.9668L185.396 97.8564C186.745 97.9792 188.072 98.2794 189.342 98.7492L189.159 98.7876L191.919 96.3108L192.025 96.2196L192.14 96.3012L197.137 99.8388L197.247 99.9156L197.195 100.04L195.755 103.463L195.731 103.295C196.595 104.336 197.317 105.489 197.876 106.722L197.747 106.631L201.447 106.832H201.567V106.948C201.927 109.069 202.268 111.09 202.59 112.996V113.101L202.494 113.144L199.062 114.551L199.139 114.45C199.011 115.793 198.707 117.113 198.236 118.376L198.212 118.266L200.679 121.031L200.732 121.088L200.684 121.151L197.113 126.138L197.084 126.176H197.041L194.511 125.096L193.863 124.808L193.686 124.712Z" fill="#E0E0E0"/>
<path fill-rule="evenodd" clip-rule="evenodd" d="M187.795 79.0505C186.338 80.2665 184.724 81.2804 182.995 82.0649L182.717 87.3017L174.168 88.7657L172.162 83.9177C170.276 83.7483 168.422 83.3286 166.647 82.6697L162.749 86.1737L155.683 81.1625L157.69 76.3193C156.476 74.8618 155.463 73.2472 154.68 71.5193L149.443 71.2409L147.979 62.6921L152.823 60.6905C153.004 58.8118 153.433 56.9654 154.099 55.1993L150.595 51.3065L155.583 44.2073L160.421 46.2137C161.881 45.0031 163.495 43.9911 165.221 43.2041L165.499 37.9673L174.053 36.5273L176.055 41.3753C177.941 41.5422 179.796 41.962 181.57 42.6233L185.467 39.1193L192.547 44.1305L190.527 48.9593C191.741 50.4176 192.755 52.0319 193.541 53.7593L198.778 54.0377L200.242 62.5865L195.379 64.5641C195.211 66.4498 194.791 68.3046 194.131 70.0793L197.635 73.9769L192.624 81.0569L187.781 79.0505H187.795ZM181.459 68.3321C182.524 66.8292 183.118 65.0444 183.168 63.2036C183.217 61.3627 182.719 59.5485 181.737 57.9906C180.755 56.4328 179.333 55.2012 177.651 54.4518C175.969 53.7024 174.102 53.4689 172.287 53.7808C170.473 54.0927 168.791 54.936 167.455 56.204C166.12 57.4719 165.191 59.1076 164.785 60.9039C164.38 62.7002 164.516 64.5765 165.177 66.2952C165.838 68.014 166.995 69.498 168.499 70.5593C170.515 71.979 173.01 72.5418 175.44 72.1243C177.869 71.7068 180.034 70.3431 181.459 68.3321Z" fill="#E0E0E0"/>
<path fill-rule="evenodd" clip-rule="evenodd" d="M80.4197 77.4757C81.6424 78.7825 82.6852 80.2466 83.5205 81.8293H88.4741L90.3173 89.8213L85.8533 91.9717C85.7977 93.7634 85.5006 95.5394 84.9701 97.2517L88.4885 100.741L84.1397 107.692L79.4645 106.06C78.1586 107.283 76.6943 108.326 75.1109 109.16V114.119L67.1237 115.957L64.9685 111.493C63.1768 111.437 61.4009 111.14 59.6885 110.61L56.1989 114.128L49.2485 109.78L50.8805 105.104C49.6568 103.799 48.6139 102.334 47.7797 100.751H42.8261L41.0117 92.7541L45.4757 90.5989C45.5341 88.8074 45.8311 87.0318 46.3589 85.3189L42.8405 81.8293L47.1893 74.8789L51.8645 76.5109C53.1705 75.2872 54.6347 74.2443 56.2181 73.4101V68.4565L64.2101 66.6133L66.3605 71.0773C68.152 71.1353 69.9277 71.4323 71.6405 71.9605L75.1301 68.4469L82.0805 72.7669L80.4485 77.4421L80.4197 77.4757ZM70.6421 83.9989C69.1655 83.0829 67.4506 82.6249 65.7139 82.6827C63.9773 82.7405 62.2966 83.3116 60.8842 84.3238C59.4718 85.336 58.3909 86.7439 57.7781 88.3699C57.1652 89.9959 57.0478 91.767 57.4407 93.4596C57.8335 95.1523 58.7191 96.6906 59.9855 97.8804C61.252 99.0702 62.8425 99.8581 64.5564 100.145C66.2702 100.431 68.0306 100.204 69.6152 99.4905C71.1998 98.7774 72.5376 97.6109 73.4597 96.1381C74.0742 95.1567 74.4888 94.0636 74.6797 92.9216C74.8707 91.7796 74.8342 90.6111 74.5724 89.4832C74.3106 88.3553 73.8287 87.2902 73.1542 86.3491C72.4797 85.4079 71.626 84.6093 70.6421 83.9989Z" fill="#E0E0E0"/>
<path fill-rule="evenodd" clip-rule="evenodd" d="M85.2485 43.8759C85.9221 44.5976 86.4982 45.4045 86.9621 46.2759H89.7077L90.7253 50.7015L88.2533 51.8919C88.224 52.8817 88.0626 53.8632 87.7733 54.8103L89.7173 56.7303L87.3173 60.5703L84.7301 59.6679C84.0104 60.3438 83.2032 60.9202 82.3301 61.3815V64.1271L77.9045 65.1447L76.7141 62.6775C75.7245 62.6461 74.7433 62.4847 73.7957 62.1975L71.8757 64.1415L68.0357 61.7415L68.9429 59.1495C68.2657 58.4297 67.6878 57.6225 67.2245 56.7495H64.4837L63.4277 52.3191L65.8997 51.1287C65.9287 50.1388 66.0902 49.1573 66.3797 48.2103L64.4309 46.2903L66.8309 42.4503L69.4181 43.3527C70.1397 42.6776 70.9466 42.0999 71.8181 41.6343V38.8935L76.2437 37.8711L77.4533 40.3191C78.4432 40.3485 79.4246 40.5099 80.3717 40.7991L82.2917 38.8503L86.1317 41.2503L85.2293 43.8375L85.2485 43.8759ZM79.8341 47.5191C79.0179 47.0101 78.0692 46.7544 77.1077 46.7843C76.1463 46.8142 75.2153 47.1282 74.4322 47.6869C73.6491 48.2455 73.0491 49.0236 72.708 49.923C72.3669 50.8224 72.2999 51.8027 72.5155 52.7401C72.7311 53.6776 73.2196 54.5301 73.9194 55.1901C74.6192 55.85 75.4989 56.2878 76.4473 56.4482C77.3957 56.6086 78.3704 56.4844 79.2483 56.0912C80.1262 55.698 80.8679 55.0535 81.3797 54.2391C81.7206 53.6967 81.9511 53.0923 82.0579 52.4607C82.1647 51.829 82.1458 51.1825 82.0022 50.5582C81.8586 49.9339 81.5932 49.344 81.2211 48.8225C80.8491 48.301 80.3777 47.8581 79.8341 47.5191Z" fill="#E0E0E0"/>
<path d="M46.7667 52.0512C46.8437 52.0865 46.9176 52.1282 46.9875 52.176C47.1933 52.3129 47.3819 52.474 47.5491 52.656C48.199 53.2972 48.6018 54.147 48.6867 55.056C48.751 55.6827 48.6671 56.3157 48.4419 56.904C48.1802 57.5795 47.7427 58.1727 47.1747 58.6224C46.8687 58.8665 46.5272 59.0623 46.1619 59.2032C45.7844 59.3593 45.384 59.4534 44.9763 59.4816C44.1123 59.5453 43.2502 59.3336 42.5139 58.8768C41.7799 58.4173 41.2128 57.7341 40.8963 56.928C40.7448 56.5492 40.6525 56.1493 40.6227 55.7424C40.5916 55.3517 40.6192 54.9585 40.7043 54.576C40.8595 53.8677 41.2027 53.2144 41.6979 52.6848C42.2216 52.1225 42.8967 51.7236 43.6419 51.5363C44.3871 51.3489 45.1706 51.381 45.8979 51.6288C46.1281 51.7058 46.3488 51.8089 46.5555 51.936C46.6305 51.977 46.7012 52.0252 46.7667 52.08C46.7667 52.1088 46.4595 51.9072 45.8691 51.72C45.0288 51.4686 44.1287 51.5041 43.3107 51.8208C42.7089 52.0512 42.1741 52.4283 41.755 52.9178C41.3359 53.4073 41.0457 53.9938 40.9107 54.624C40.8329 54.9849 40.8103 55.3555 40.8435 55.7232C40.8731 56.1074 40.9621 56.4847 41.1075 56.8416C41.4075 57.5962 41.9406 58.2352 42.6291 58.6656C43.3199 59.0931 44.1275 59.2929 44.9379 59.2368C45.3218 59.2114 45.6993 59.1256 46.0563 58.9824C46.4028 58.8531 46.7268 58.6701 47.0163 58.44C47.5237 58.0479 47.9248 57.535 48.183 56.9481C48.4413 56.3612 48.5484 55.7189 48.4947 55.08C48.4237 54.2063 48.0621 53.3817 47.4675 52.7376C47.0595 52.248 46.7475 52.0752 46.7667 52.0512Z" fill="#E0E0E0"/>
<path d="M51.1494 49.1186C51.1494 49.1186 51.1494 49.0754 51.1878 48.9842L51.3174 48.5858L51.8454 47.0066V47.0546L48.7158 45.1346H48.7974L47.2374 46.7186L47.2086 46.7522H47.1654C46.4034 46.5212 45.6141 46.3921 44.8182 46.3682H44.7702L44.7462 46.3202L43.7862 44.3234L43.8822 44.3714L40.3014 45.2066L40.3782 45.1106C40.3782 45.797 40.3782 46.5506 40.3782 47.333V47.3954L40.3254 47.4242C39.628 47.7975 38.9825 48.2607 38.4054 48.8018L38.3574 48.8498H38.295L36.1974 48.1202L36.327 48.077L34.407 51.197V51.053L35.9862 52.613L36.039 52.6658V52.733C35.8052 53.4896 35.6745 54.2742 35.6502 55.0658V55.1426L35.583 55.1714L33.5814 56.1314L33.6486 55.9922C33.9126 57.125 34.191 58.3442 34.479 59.5778L34.3542 59.4818H36.5766H36.6534L36.6918 59.549C37.0586 60.248 37.5188 60.894 38.0598 61.469C38.0598 61.5218 38.0598 61.3394 38.0886 61.5938V61.6226V61.6514V61.7186L38.0454 61.853L37.9542 62.117L37.767 62.6402C37.647 62.9906 37.5222 63.341 37.4022 63.6866L37.3494 63.5426L40.4694 65.4914H40.3158C40.8438 64.9586 41.367 64.4354 41.8806 63.9122L41.9334 63.8594L42.0054 63.8834C42.7621 64.1167 43.5467 64.2474 44.3382 64.2722H44.4102L44.4438 64.3394L45.4038 66.341L45.2694 66.2786L48.8502 65.453L48.7638 65.5682C48.7638 64.8146 48.7638 64.0706 48.7638 63.3458V63.2738L48.8214 63.245C49.5184 62.8729 50.1639 62.4114 50.7414 61.8722L50.7894 61.829L50.847 61.853L52.9446 62.5874L52.8246 62.6306L54.7782 59.5154V59.6354L53.2086 58.0658L53.1654 58.0274V57.9746C53.4003 57.2146 53.5342 56.427 53.5638 55.6322V55.5842H53.6118L55.6182 54.6242L55.575 54.7058C55.263 53.3186 54.9942 52.133 54.7686 51.1202L54.8214 51.1634H52.599C52.3271 50.6304 52.0057 50.1241 51.639 49.6514L51.351 49.3058L51.2598 49.1906C51.2997 49.2206 51.3367 49.2543 51.3702 49.2914C51.4374 49.3634 51.5382 49.4738 51.6678 49.6274C52.0608 50.0878 52.4021 50.59 52.6854 51.125H52.6518H54.8742H54.9174V51.173C55.1574 52.181 55.4358 53.3666 55.7622 54.749V54.8066L55.7094 54.8354L53.7126 55.7954L53.7558 55.7282C53.7327 56.5418 53.602 57.3488 53.367 58.1282V58.037L54.9462 59.6018L55.0038 59.6546L54.9606 59.717L53.0406 62.8418L52.9974 62.9138L52.9206 62.885L50.823 62.1554H50.9286C50.3371 62.7119 49.6736 63.1866 48.9558 63.5666L49.0134 63.4658C49.0134 64.1954 49.0134 64.9346 49.0134 65.693V65.7842H48.9222L45.3414 66.6146H45.2502L45.207 66.533C44.8902 65.8706 44.5686 65.2082 44.247 64.5314L44.3526 64.5986C43.5384 64.573 42.7313 64.439 41.9526 64.2002L42.0774 64.1666L40.5126 65.7458L40.4406 65.8178L40.359 65.765L37.239 63.8162L37.1526 63.7634L37.1862 63.6674C37.3062 63.3218 37.431 62.9714 37.551 62.621L37.7334 62.093L37.8294 61.8338L37.8726 61.6994L37.8966 61.6322V61.5986C37.9494 61.853 37.8966 61.6658 37.8966 61.7234C37.3412 61.1303 36.8681 60.4651 36.4902 59.7458L36.6006 59.813H34.2006V59.717C33.9174 58.4834 33.639 57.269 33.375 56.1314V56.0402L33.4614 55.997L35.4678 55.037L35.3958 55.1426C35.4236 54.3283 35.5592 53.5212 35.799 52.7426L35.8278 52.8626C35.2854 52.3154 34.743 51.7826 34.2534 51.293L34.191 51.2258L34.239 51.149L36.1926 48.0338L36.2406 47.957L36.3222 47.9858L38.4198 48.725H38.3094C38.9045 48.1733 39.5693 47.7021 40.287 47.3234L40.2342 47.4146C40.2342 46.637 40.2342 45.8786 40.2342 45.1922V45.1154H40.311L43.8486 44.1602H43.9206L43.9494 44.2274C44.2854 44.9282 44.6118 45.605 44.9094 46.2338L44.8374 46.1858C45.6521 46.2134 46.4593 46.3507 47.2374 46.5938H47.1606L48.735 45.0242L48.7686 44.9858L48.8118 45.0146L51.9174 46.9826H51.9462V47.0114C51.7014 47.6786 51.5142 48.197 51.3798 48.557L51.231 48.9602C51.2103 49.0161 51.1829 49.0692 51.1494 49.1186Z" fill="#E0E0E0"/>
<path d="M160.657 214.017L96.8789 213.724C93.1964 213.705 89.6721 212.225 87.0808 209.608C84.4895 206.992 83.0431 203.453 83.0597 199.771L83.7317 39.8924C83.7393 38.0673 84.1064 36.2617 84.812 34.5786C85.5177 32.8955 86.5482 31.3679 87.8444 30.0832C89.1407 28.7985 90.6775 27.7819 92.3668 27.0913C94.0562 26.4008 95.8651 26.0499 97.6901 26.0588L161.463 26.3516C163.288 26.3604 165.093 26.7287 166.776 27.4355C168.459 28.1424 169.985 29.1739 171.269 30.4711C172.553 31.7682 173.569 33.3057 174.258 34.9955C174.947 36.6854 175.297 38.4945 175.287 40.3196L174.61 200.203C174.591 203.885 173.11 207.409 170.494 209.999C167.877 212.59 164.339 214.035 160.657 214.017Z" fill="#455A64"/>
<path d="M161.367 31.8667L149.002 31.8139C148.599 31.8208 148.201 31.9071 147.831 32.0679C147.461 32.2287 147.126 32.4609 146.847 32.7511C146.567 33.0414 146.347 33.384 146.199 33.7594C146.052 34.1347 145.98 34.5355 145.987 34.9387V37.1803C145.997 37.5855 145.926 37.9886 145.779 38.3662C145.632 38.7439 145.411 39.0886 145.13 39.3805C144.849 39.6724 144.513 39.9057 144.141 40.0669C143.769 40.228 143.369 40.3139 142.963 40.3195L118.863 40.2091C118.048 40.1865 117.276 39.8418 116.715 39.2506C116.155 38.6594 115.851 37.8699 115.872 37.0555V34.8139C115.893 33.9994 115.59 33.21 115.029 32.6188C114.468 32.0276 113.696 31.6829 112.882 31.6603H108.533L97.7137 31.6075C95.137 31.5985 92.6618 32.6116 90.8308 34.4247C88.9997 36.2377 87.9622 38.7028 87.9457 41.2795L87.2881 197.332C87.2837 198.609 87.5309 199.875 88.0155 201.056C88.5002 202.238 89.2128 203.312 90.1127 204.219C91.0126 205.125 92.0822 205.845 93.2604 206.338C94.4386 206.83 95.7023 207.086 96.9793 207.091L160.627 207.383C161.905 207.39 163.172 207.144 164.355 206.661C165.538 206.177 166.614 205.465 167.521 204.566C168.429 203.666 169.15 202.596 169.644 201.418C170.138 200.239 170.395 198.975 170.4 197.697L171.063 41.6395C171.071 39.0581 170.055 36.5788 168.237 34.7464C166.419 32.9139 163.948 31.8781 161.367 31.8667Z" fill="#FAFAFA"/>
<path d="M142.763 73.5117H117.779C115.191 73.5117 113.094 75.6092 113.094 78.1965V103.181C113.094 105.768 115.191 107.865 117.779 107.865H142.763C145.35 107.865 147.447 105.768 147.447 103.181V78.1965C147.447 75.6092 145.35 73.5117 142.763 73.5117Z" fill="#DDF235"/>
<path d="M104.026 86.0059L104.856 87.6859L106.709 87.9547L105.365 89.2603L105.682 91.1035L104.026 90.2347L102.37 91.1035L102.687 89.2603L101.348 87.9547L103.2 87.6859L104.026 86.0059Z" fill="#DDF235"/>
<path d="M157.546 69.373L158.185 70.669L159.62 70.8802L158.583 71.8882L158.828 73.3139L157.546 72.6418L156.265 73.3139L156.509 71.8882L155.473 70.8802L156.908 70.669L157.546 69.373Z" fill="#DDF235"/>
<path d="M156.289 100.502L156.841 101.256L157.777 101.227L157.234 101.985L157.551 102.868L156.658 102.585L155.919 103.156L155.914 102.22L155.142 101.697L156.03 101.4L156.289 100.502Z" fill="#DDF235"/>
<path d="M103.393 74.8798C103.219 74.8808 103.048 74.8299 102.903 74.7338C102.758 74.6376 102.645 74.5005 102.578 74.3398C102.51 74.1791 102.493 74.0021 102.526 73.8313C102.56 73.6604 102.644 73.5035 102.767 73.3803C102.89 73.2572 103.047 73.1734 103.218 73.1397C103.389 73.106 103.566 73.1238 103.727 73.1908C103.887 73.2579 104.024 73.3712 104.121 73.5164C104.217 73.6616 104.267 73.8321 104.267 74.0062C104.265 74.2375 104.173 74.459 104.009 74.6226C103.846 74.7861 103.624 74.8786 103.393 74.8798ZM103.393 73.6078C103.314 73.6069 103.236 73.6294 103.17 73.6726C103.104 73.7158 103.052 73.7777 103.021 73.8504C102.991 73.9231 102.982 74.0034 102.997 74.081C103.012 74.1586 103.049 74.23 103.105 74.2862C103.16 74.3424 103.231 74.3808 103.309 74.3966C103.386 74.4124 103.466 74.4047 103.539 74.3747C103.613 74.3447 103.675 74.2937 103.719 74.2281C103.763 74.1624 103.787 74.0852 103.787 74.0062C103.788 73.9531 103.78 73.9002 103.761 73.8505C103.742 73.8008 103.713 73.7553 103.677 73.7169C103.64 73.6784 103.596 73.6477 103.547 73.6265C103.499 73.6053 103.446 73.594 103.393 73.5934V73.6078Z" fill="#DDF235"/>
<path d="M152.919 86.9755C152.745 86.9765 152.575 86.9257 152.43 86.8295C152.284 86.7333 152.171 86.5962 152.104 86.4355C152.037 86.2748 152.019 86.0978 152.053 85.927C152.087 85.7561 152.17 85.5992 152.293 85.476C152.417 85.3529 152.573 85.2691 152.744 85.2354C152.915 85.2017 153.092 85.2195 153.253 85.2865C153.414 85.3536 153.551 85.4669 153.647 85.6121C153.743 85.7573 153.794 85.9278 153.793 86.1019C153.792 86.3332 153.699 86.5547 153.536 86.7183C153.372 86.8818 153.151 86.9743 152.919 86.9755ZM152.919 85.7035C152.84 85.7026 152.763 85.7251 152.697 85.7683C152.631 85.8115 152.579 85.8734 152.548 85.9461C152.517 86.0188 152.508 86.0991 152.523 86.1767C152.538 86.2543 152.576 86.3257 152.631 86.3819C152.687 86.4381 152.758 86.4765 152.835 86.4923C152.912 86.5081 152.993 86.5005 153.066 86.4704C153.139 86.4404 153.201 86.3894 153.245 86.3238C153.289 86.2582 153.313 86.1809 153.313 86.1019C153.313 85.9971 153.272 85.8965 153.198 85.8219C153.124 85.7473 153.024 85.7048 152.919 85.7035Z" fill="#DDF235"/>
<path d="M141.485 68.4853C141.311 68.4853 141.141 68.4337 140.996 68.3369C140.852 68.2402 140.739 68.1027 140.673 67.9419C140.607 67.7812 140.589 67.6043 140.624 67.4338C140.658 67.2633 140.742 67.1067 140.865 66.9841C140.989 66.8614 141.146 66.7782 141.316 66.7448C141.487 66.7115 141.664 66.7295 141.824 66.7968C141.985 66.864 142.122 66.9773 142.218 67.1224C142.313 67.2675 142.364 67.4378 142.363 67.6117C142.363 67.7268 142.34 67.8408 142.296 67.9471C142.252 68.0534 142.187 68.15 142.106 68.2311C142.024 68.3123 141.927 68.3766 141.821 68.4202C141.714 68.4638 141.6 68.4859 141.485 68.4853ZM141.485 67.2133C141.406 67.2133 141.329 67.2367 141.263 67.2805C141.198 67.3242 141.147 67.3865 141.117 67.4593C141.087 67.5321 141.079 67.6122 141.094 67.6894C141.109 67.7667 141.147 67.8377 141.203 67.8934C141.259 67.9491 141.33 67.9871 141.407 68.0025C141.484 68.0178 141.564 68.0099 141.637 67.9798C141.71 67.9496 141.772 67.8986 141.816 67.8331C141.86 67.7675 141.883 67.6905 141.883 67.6117C141.885 67.5582 141.876 67.5048 141.857 67.4548C141.838 67.4048 141.809 67.3592 141.772 67.3207C141.735 67.2821 141.69 67.2515 141.641 67.2306C141.591 67.2096 141.538 67.1989 141.485 67.1989V67.2133Z" fill="#DDF235"/>
<path d="M98.6257 103.103C98.9783 103.103 99.2641 102.817 99.2641 102.465C99.2641 102.112 98.9783 101.826 98.6257 101.826C98.2731 101.826 97.9873 102.112 97.9873 102.465C97.9873 102.817 98.2731 103.103 98.6257 103.103Z" fill="#DDF235"/>
<path d="M128.597 111.547C128.597 111.673 128.56 111.796 128.49 111.901C128.419 112.006 128.32 112.088 128.203 112.136C128.086 112.185 127.958 112.197 127.834 112.173C127.71 112.148 127.597 112.087 127.507 111.998C127.418 111.909 127.357 111.795 127.333 111.671C127.308 111.547 127.321 111.419 127.369 111.302C127.417 111.186 127.499 111.086 127.604 111.016C127.709 110.946 127.832 110.908 127.959 110.908C128.043 110.908 128.126 110.924 128.204 110.956C128.282 110.987 128.352 111.034 128.412 111.094C128.471 111.153 128.518 111.224 128.55 111.302C128.582 111.379 128.598 111.463 128.597 111.547Z" fill="#DDF235"/>
<path d="M121.791 61.7944C122.143 61.7944 122.429 61.5086 122.429 61.156C122.429 60.8034 122.143 60.5176 121.791 60.5176C121.438 60.5176 121.152 60.8034 121.152 61.156C121.152 61.5086 121.438 61.7944 121.791 61.7944Z" fill="#DDF235"/>
<path d="M115.167 159.84V157.143H115.647V159.821C115.647 160.935 116.17 161.448 117.087 161.448C118.004 161.448 118.527 160.935 118.527 159.821V157.143H119.007V159.84C119.007 161.194 118.282 161.89 117.087 161.89C115.892 161.89 115.167 161.184 115.167 159.84Z" fill="#263238"/>
<path d="M124.215 158.75C124.215 159.749 123.49 160.354 122.295 160.354H121.028V161.842H120.548V157.133H122.309C123.49 157.133 124.215 157.742 124.215 158.75ZM123.735 158.75C123.735 157.997 123.255 157.565 122.295 157.565H121.028V159.917H122.281C123.221 159.917 123.721 159.49 123.721 158.75H123.735Z" fill="#263238"/>
<path d="M125.3 157.133H127.22C128.727 157.133 129.74 158.093 129.74 159.49C129.74 160.886 128.727 161.842 127.22 161.842H125.3V157.133ZM127.191 161.41C128.439 161.41 129.245 160.618 129.245 159.49C129.251 159.224 129.201 158.961 129.098 158.716C128.995 158.472 128.841 158.251 128.648 158.07C128.454 157.889 128.224 157.751 127.973 157.665C127.722 157.578 127.455 157.546 127.191 157.57H125.78V161.41H127.191Z" fill="#263238"/>
<path d="M133.724 160.584H131.103L130.537 161.842H130.019L132.174 157.133H132.654L134.804 161.842H134.281L133.724 160.584ZM133.542 160.181L132.414 157.651L131.286 160.181H133.542Z" fill="#263238"/>
<path d="M136.272 157.565H134.616V157.133H138.423V157.565H136.767V161.842H136.287L136.272 157.565Z" fill="#263238"/>
<path d="M142.541 161.41V161.842H139.22V157.133H142.445V157.565H139.7V159.24H142.133V159.662H139.7V161.41H142.541Z" fill="#263238"/>
<path d="M134.9 84.6722C135.419 85.0596 135.884 85.5149 136.282 86.0258L138.049 85.7042L139.215 88.4354L137.775 89.4866C137.86 90.1238 137.86 90.7694 137.775 91.4066L139.254 92.4242L138.145 95.1842L136.374 94.8962C135.985 95.4171 135.528 95.8836 135.015 96.2834L135.342 98.0498L132.606 99.2162L131.554 97.7762C130.918 97.8718 130.272 97.8798 129.634 97.8002L128.612 99.2738L125.857 98.1698L126.14 96.3986C125.621 96.0096 125.156 95.5527 124.757 95.0402L122.991 95.3618L121.834 92.6402L123.274 91.589C123.19 90.9518 123.19 90.3062 123.274 89.669L121.796 88.6514L122.905 85.8914L124.676 86.1794C125.063 85.6602 125.519 85.1953 126.029 84.797L125.708 83.0306L128.439 81.8642L129.495 83.3042C130.131 83.2134 130.777 83.2053 131.415 83.2802L132.437 81.8066L135.193 82.9106L134.909 84.6866L134.9 84.6722ZM131.828 87.629C131.243 87.3941 130.601 87.338 129.984 87.4678C129.367 87.5976 128.803 87.9074 128.362 88.3582C127.921 88.8089 127.624 89.3803 127.508 90.0001C127.391 90.6198 127.462 91.26 127.71 91.8398C127.958 92.4195 128.372 92.9127 128.9 93.2569C129.428 93.6012 130.047 93.781 130.677 93.7737C131.308 93.7664 131.922 93.5722 132.442 93.2158C132.962 92.8594 133.365 92.3568 133.599 91.7714C133.914 90.9896 133.907 90.1148 133.578 89.3385C133.25 88.5622 132.628 87.9475 131.847 87.629H131.828Z" fill="#FAFAFA"/>
<path d="M131.847 87.6287C132.1 87.705 132.338 87.8234 132.552 87.9791C133.154 88.3989 133.592 89.0148 133.791 89.7215C133.941 90.2463 133.956 90.8006 133.834 91.3326C133.712 91.8647 133.458 92.3574 133.095 92.7647C132.886 93.0012 132.644 93.2051 132.375 93.3695C132.096 93.5448 131.792 93.6745 131.472 93.7535C130.798 93.9295 130.085 93.8846 129.438 93.6255C128.791 93.3663 128.244 92.9065 127.877 92.3135C127.539 91.7618 127.372 91.122 127.397 90.4751C127.42 89.8915 127.599 89.3247 127.915 88.8335C128.25 88.312 128.729 87.8985 129.294 87.643C129.858 87.3875 130.485 87.3008 131.098 87.3935C131.36 87.4298 131.615 87.5093 131.851 87.6287C131.601 87.5594 131.346 87.5049 131.088 87.4655C130.383 87.3814 129.669 87.5369 129.063 87.9071C128.617 88.1759 128.247 88.5525 127.985 89.0021C127.723 89.4517 127.579 89.9599 127.565 90.4799C127.549 91.0939 127.717 91.6987 128.045 92.2175C128.479 92.9112 129.169 93.4057 129.965 93.5936C130.762 93.7814 131.6 93.6474 132.298 93.2207C132.553 93.0631 132.783 92.8672 132.979 92.6399C133.326 92.2556 133.571 91.791 133.692 91.2881C133.814 90.7853 133.808 90.26 133.675 89.7599C133.493 89.0737 133.086 88.4685 132.519 88.0415C132.302 87.8924 132.078 87.7546 131.847 87.6287Z" fill="#FAFAFA"/>
<path d="M134.899 84.6725C134.894 84.6343 134.894 84.5955 134.899 84.5573C134.899 84.4757 134.928 84.3653 134.947 84.2213C134.991 83.9141 135.058 83.4725 135.144 82.8965V82.9253L132.379 81.8357H132.437L131.419 83.3189V83.3429H131.386C130.747 83.2694 130.102 83.2791 129.466 83.3717H129.432L129.408 83.3429C129.082 82.8917 128.727 82.3829 128.352 81.9029H128.434L125.703 83.0741L125.746 82.9973L126.072 84.7637V84.8069L126.034 84.8357C125.527 85.2297 125.076 85.6917 124.695 86.2085L124.666 86.2469H124.618L122.847 85.9637L122.938 85.9157C122.587 86.7797 122.213 87.7157 121.834 88.6709L121.8 88.5701L123.279 89.5925L123.322 89.6213V89.6741C123.235 90.3111 123.235 90.957 123.322 91.5941V91.6469L123.279 91.6805L121.839 92.7317L121.867 92.6261C122.237 93.4901 122.635 94.4165 123.034 95.3573L122.933 95.3045L124.699 94.9781H124.757L124.791 95.0213C125.183 95.5263 125.642 95.9766 126.154 96.3605C126.154 96.3989 126.12 96.2741 126.192 96.4517V96.4805V96.5333V96.6485L126.159 96.8693L126.087 97.3157C126.039 97.6085 125.991 97.9061 125.947 98.1989L125.89 98.0981L128.645 99.2069L128.539 99.2405L129.557 97.7621L129.591 97.7189H129.643C130.28 97.8058 130.926 97.8058 131.563 97.7189H131.616L131.645 97.7621L132.696 99.2021L132.591 99.1733L135.327 98.0117L135.274 98.1029C135.168 97.5029 135.063 96.9125 134.957 96.3365V96.2837L134.995 96.2549C135.501 95.8609 135.953 95.4026 136.339 94.8917L136.368 94.8533H136.411L138.187 95.1413L138.101 95.1893L139.215 92.4341L139.243 92.5157L137.779 91.4789L137.751 91.4549V91.4165C137.835 90.7793 137.835 90.1337 137.751 89.4965V89.4629H137.779L139.219 88.4165V88.4789L138.067 85.7429H138.111L136.344 86.0549C136.049 85.6689 135.716 85.3135 135.351 84.9941L135.077 84.7589L134.986 84.6821L135.087 84.7445C135.149 84.7925 135.245 84.8645 135.37 84.9701C135.745 85.284 136.087 85.6345 136.392 86.0165H136.363L138.125 85.6805H138.159V85.7093L139.335 88.4405V88.4789L139.296 88.5029L137.856 89.5589L137.88 89.5013C137.977 90.1483 137.986 90.8053 137.909 91.4549L137.88 91.3973L139.359 92.4101L139.407 92.4437L139.383 92.4965C139.037 93.3701 138.672 94.2821 138.283 95.2565V95.3093H138.226L136.45 95.0309L136.527 94.9973C136.135 95.523 135.675 95.9943 135.159 96.3989L135.187 96.3221C135.293 96.8981 135.403 97.4885 135.514 98.0837V98.1509L135.456 98.1797L132.725 99.3461L132.658 99.3749L132.619 99.3173C132.274 98.8373 131.919 98.3573 131.563 97.8773L131.65 97.9157C130.998 98.0022 130.338 98.0022 129.687 97.9157L129.773 97.8773L128.755 99.3557L128.712 99.4181L128.645 99.3893L125.89 98.2805L125.823 98.2565V98.1845L125.967 97.3013L126.034 96.8549L126.072 96.6341V96.5189V96.4229C126.144 96.5957 126.072 96.4709 126.111 96.5093C125.588 96.114 125.118 95.6525 124.714 95.1365L124.8 95.1701L123.034 95.4917H122.962L122.933 95.4245L121.771 92.6885L121.743 92.6261L121.8 92.5829L123.24 91.5317L123.207 91.6181C123.118 90.9667 123.118 90.3063 123.207 89.6549L123.24 89.7365L121.767 88.7141L121.709 88.6757L121.738 88.6133C122.122 87.6533 122.496 86.7221 122.847 85.8581V85.8005H122.914L124.685 86.0885L124.608 86.1173C125.001 85.5921 125.463 85.1223 125.981 84.7205L125.952 84.7925C125.842 84.1781 125.731 83.5733 125.631 83.0261V82.9685H125.683L128.419 81.8069H128.467L128.496 81.8501L129.547 83.2901L129.49 83.2661C130.137 83.1799 130.792 83.1799 131.439 83.2661H131.391L132.418 81.7925V81.7637H132.451L135.202 82.8869H135.226C135.13 83.4581 135.053 83.8949 135 84.2021C134.971 84.3461 134.952 84.4565 134.938 84.5381C134.923 84.6197 134.899 84.6677 134.899 84.6725Z" fill="#FAFAFA"/>
<path d="M152.995 118.93H117.917V144.302H152.995V118.93Z" fill="#263238"/>
<path d="M136.978 118.93H106.397V144.302H136.978V118.93Z" fill="#455A64"/>
<path d="M106.398 118.929L100.969 113.5H114.726L119.833 118.929H106.398Z" fill="#455A64"/>
<path d="M136.974 118.929L143.218 113.5H160.35L152.996 118.929H136.974Z" fill="#455A64"/>
<path d="M136.973 118.929C136.973 118.997 130.129 119.054 121.685 119.054C113.242 119.054 106.397 118.997 106.397 118.929C106.397 118.862 113.237 118.805 121.685 118.805C130.133 118.805 136.973 118.857 136.973 118.929Z" fill="#263238"/>
<path d="M158.497 171.303H102.034C100.687 171.303 99.5957 172.394 99.5957 173.741V173.856C99.5957 175.203 100.687 176.295 102.034 176.295H158.497C159.843 176.295 160.935 175.203 160.935 173.856V173.741C160.935 172.394 159.843 171.303 158.497 171.303Z" fill="#E0E0E0"/>
<path d="M129.701 171.303H102.034C100.687 171.303 99.5957 172.394 99.5957 173.741V173.856C99.5957 175.203 100.687 176.295 102.034 176.295H129.701C131.048 176.295 132.14 175.203 132.14 173.856V173.741C132.14 172.394 131.048 171.303 129.701 171.303Z" fill="#DDF235"/>
<path d="M126.211 188.564C126.211 189.586 125.501 190.383 124.032 190.383C123.24 190.411 122.467 190.134 121.872 189.61L122.174 189.13C122.675 189.595 123.339 189.845 124.022 189.826C125.045 189.826 125.582 189.346 125.582 188.597C125.582 187.848 125.102 187.344 123.576 187.344H122.294L122.602 184.33H125.894V184.877H123.144L122.938 186.797H123.71C125.525 186.783 126.211 187.498 126.211 188.564Z" fill="#DDF235"/>
<path d="M131.031 188.564C131.031 189.586 130.32 190.383 128.851 190.383C128.059 190.411 127.286 190.134 126.691 189.61L126.994 189.13C127.495 189.595 128.158 189.845 128.842 189.826C129.864 189.826 130.402 189.346 130.402 188.597C130.402 187.848 129.922 187.344 128.395 187.344H127.114L127.421 184.33H130.714V184.877H127.963L127.757 186.797H128.53C130.344 186.783 131.031 187.498 131.031 188.564Z" fill="#DDF235"/>
<path d="M131.641 185.907C131.641 184.947 132.193 184.275 132.999 184.275C133.805 184.275 134.357 184.919 134.357 185.907C134.357 186.896 133.796 187.539 132.999 187.539C132.202 187.539 131.641 186.887 131.641 185.907ZM133.925 185.907C133.925 185.125 133.556 184.659 132.999 184.659C132.442 184.659 132.073 185.139 132.073 185.907C132.073 186.675 132.433 187.151 132.999 187.151C133.565 187.151 133.94 186.69 133.94 185.907H133.925ZM136.642 184.319H137.146L133.042 190.333H132.533L136.642 184.319ZM135.327 188.744C135.327 187.784 135.884 187.107 136.685 187.107C137.487 187.107 138.039 187.765 138.039 188.744C138.039 189.723 137.492 190.376 136.685 190.376C135.879 190.376 135.327 189.723 135.327 188.744ZM137.612 188.744C137.612 187.967 137.252 187.496 136.685 187.496C136.119 187.496 135.754 187.976 135.754 188.744C135.754 189.512 136.124 189.987 136.685 189.987C137.247 189.987 137.612 189.517 137.612 188.744Z" fill="#DDF235"/>
<path d="M233.396 213.879C233.396 213.946 182.847 214.004 120.504 214.004C58.1619 214.004 7.60352 213.946 7.60352 213.879C7.60352 213.811 58.1427 213.754 120.504 213.754C182.866 213.754 233.396 213.807 233.396 213.879Z" fill="#263238"/>
<path d="M95.7129 208.398L97.0953 213.678L112.546 213.539C112.546 213.539 110.43 211.941 102.668 212.056L101.914 208.398H95.7129Z" fill="#FFBE9D"/>
<path d="M78.8688 148.753L67.2768 149.847L62.568 151.201C60.5558 151.772 58.7146 152.828 57.2064 154.277L42.0336 168.812L39.264 146.189L31.6992 146.852L32.9664 175.969C33.5246 177.721 34.6258 179.251 36.1109 180.337C37.5959 181.422 39.3877 182.007 41.2272 182.007C43.4979 181.98 45.6734 181.091 47.3136 179.521L58.0992 169.34L57.0288 182.741L53.3136 191.069L79.8336 206.045C79.8336 206.045 82.9488 190.628 84.6336 179.962C85.9872 171.322 86.6736 152.54 86.6736 152.54L78.8688 148.753Z" fill="#DDF235"/>
<path d="M85.9924 152.271C85.9924 152.271 91.8532 154.446 93.274 159.039C94.5316 163.11 98.7268 186.015 98.7268 186.015L102.888 210.241L94.1716 210.572L84.1348 169.263L85.9924 152.271Z" fill="#DDF235"/>
<path d="M56.8279 182.146C56.7559 182.146 57.1447 177.499 57.6919 171.783C58.2391 166.066 58.7431 161.439 58.8103 161.443C58.8775 161.448 58.4887 166.09 57.9415 171.807C57.3943 177.523 56.8951 182.155 56.8279 182.146Z" fill="#263238"/>
<path d="M76.1284 170.756C76.113 170.834 76.0872 170.91 76.0516 170.982L75.7876 171.61C75.6449 171.939 75.4847 172.259 75.3076 172.57C75.106 172.945 74.8996 173.382 74.6068 173.828C74.4676 174.054 74.3188 174.308 74.17 174.538C74.0212 174.769 73.8292 175.018 73.6516 175.282C73.3012 175.801 72.8692 176.314 72.4228 176.862C70.4417 179.204 68.0219 181.136 65.2996 182.55C64.666 182.862 64.0708 183.169 63.4852 183.39C63.1924 183.505 62.9188 183.63 62.6452 183.726L61.8484 183.99C61.3684 184.172 60.8884 184.278 60.4708 184.388C60.1219 184.485 59.7678 184.562 59.41 184.618L58.738 184.734C58.6597 184.753 58.5788 184.761 58.498 184.758C58.5709 184.722 58.6485 184.698 58.7284 184.686L59.3908 184.527C59.6788 184.465 60.034 184.378 60.4324 184.254C60.8308 184.129 61.3012 184.018 61.7956 183.826L62.5732 183.543C62.8468 183.447 63.1156 183.318 63.4036 183.198C63.9844 182.967 64.57 182.66 65.194 182.348C66.5286 181.631 67.7989 180.801 68.9908 179.866C70.1693 178.915 71.266 177.867 72.2692 176.732C72.7108 176.194 73.1476 175.69 73.5028 175.177C73.6804 174.927 73.8676 174.697 74.026 174.452L74.4772 173.751C74.7748 173.314 74.9908 172.887 75.202 172.522C75.3782 172.211 75.5384 171.89 75.682 171.562L75.9892 170.953C76.0804 170.823 76.1188 170.751 76.1284 170.756Z" fill="#263238"/>
<g opacity="0.2">
<path d="M59.9046 184.498C59.4942 184.338 59.1576 184.032 58.96 183.638C58.7623 183.244 58.7175 182.791 58.8342 182.367C58.9695 181.947 59.194 181.562 59.4923 181.237C59.7905 180.912 60.1555 180.656 60.5622 180.485C61.3747 180.146 62.2211 179.895 63.087 179.736C66.814 178.819 70.2218 176.906 72.9462 174.202C73.2006 173.952 73.5558 173.679 73.8678 173.847C74.2854 174.077 74.0214 174.711 73.7142 175.075C69.9602 179.436 65.0951 182.699 59.6358 184.517" fill="black"/>
</g>
<path d="M86.3811 179.041C86.3043 178.888 86.2447 178.727 86.2035 178.561C86.1075 178.239 85.9731 177.769 85.8195 177.188C85.5027 176.031 85.0995 174.418 84.7011 172.633C84.3027 170.847 83.9715 169.215 83.7411 168.034C83.6355 167.439 83.5539 166.964 83.5059 166.628C83.4664 166.458 83.4503 166.284 83.4579 166.109C83.5242 166.263 83.5725 166.424 83.6019 166.589C83.6883 166.973 83.7939 167.434 83.9187 167.977C84.1875 169.21 84.5379 170.799 84.9267 172.556C85.3155 174.313 85.6947 175.916 85.9731 177.125C86.0979 177.673 86.1987 178.133 86.2851 178.517C86.3402 178.687 86.3724 178.863 86.3811 179.041Z" fill="#263238"/>
<path d="M33.024 149.026C32.8722 148.664 32.797 148.275 32.8032 147.883C32.7289 147.497 32.7387 147.099 32.832 146.717C32.9839 147.078 33.0591 147.467 33.0528 147.859C33.1272 148.246 33.1174 148.643 33.024 149.026Z" fill="#263238"/>
<path d="M35.2421 149.094C35.1019 148.705 35.0383 148.292 35.0549 147.879C34.9947 147.469 35.0159 147.052 35.1173 146.65C35.263 147.038 35.3267 147.451 35.3045 147.865C35.3704 148.274 35.3492 148.693 35.2421 149.094Z" fill="#263238"/>
<path d="M37.4599 148.955C37.3107 148.52 37.2424 148.061 37.2583 147.601C37.1926 147.144 37.2089 146.68 37.3063 146.229C37.4524 146.666 37.5206 147.126 37.5079 147.587C37.574 148.042 37.5577 148.505 37.4599 148.955Z" fill="#263238"/>
<path d="M41.7126 172.288C41.654 171.62 41.6814 170.947 41.7942 170.286C41.8206 169.616 41.9303 168.952 42.1206 168.309C42.1791 168.977 42.1517 169.649 42.039 170.31C42.0125 170.98 41.9028 171.645 41.7126 172.288Z" fill="#263238"/>
<path d="M95.607 208.062C95.7957 208.442 95.9098 208.854 95.943 209.277C96.0525 209.687 96.0835 210.113 96.0342 210.534C95.7239 209.748 95.5785 208.907 95.607 208.062Z" fill="#263238"/>
<path d="M98.4724 208.057C98.6517 208.399 98.7564 208.775 98.7796 209.161C98.8859 209.532 98.9072 209.922 98.842 210.303C98.6627 209.961 98.558 209.585 98.5348 209.199C98.4314 208.827 98.4101 208.437 98.4724 208.057Z" fill="#263238"/>
<path d="M101.19 207.783C101.348 208.18 101.446 208.6 101.478 209.026C101.591 209.44 101.636 209.87 101.612 210.298C101.395 209.922 101.264 209.502 101.228 209.07C101.118 208.649 101.105 208.209 101.19 207.783Z" fill="#263238"/>
<path d="M90.6965 155.093C90.6965 155.141 90.0869 155.093 89.1413 155.3C87.9091 155.55 86.7633 156.116 85.8164 156.944C84.8696 157.771 84.1545 158.831 83.7413 160.018C83.4197 160.925 83.3717 161.535 83.3237 161.525C83.2996 161.384 83.2996 161.24 83.3237 161.098C83.3676 160.712 83.4479 160.331 83.5637 159.961C83.9443 158.718 84.6648 157.608 85.6436 156.753C86.6225 155.899 87.8207 155.336 89.1029 155.127C89.485 155.062 89.8723 155.033 90.2597 155.041C90.4073 155.034 90.5549 155.051 90.6965 155.093Z" fill="#263238"/>
<path d="M94.282 164.947C93.8202 165.192 93.3384 165.398 92.842 165.562C91.9396 165.902 90.6723 166.349 89.2611 166.786C87.8499 167.222 86.554 167.582 85.6132 167.818C85.1119 167.97 84.5977 168.076 84.0771 168.134C84.5627 167.939 85.0615 167.779 85.5699 167.654L89.1843 166.56L92.7843 165.403C93.2719 165.215 93.7724 165.063 94.282 164.947Z" fill="#FAFAFA"/>
<path d="M97.9781 181.656C97.4888 181.832 96.9865 181.968 96.4757 182.064C95.5397 182.285 94.2437 182.573 92.8133 182.875C91.3829 183.178 90.0773 183.437 89.1317 183.615C88.6267 183.732 88.113 183.809 87.5957 183.845C88.0836 183.672 88.5843 183.537 89.0933 183.442C90.0533 183.221 91.3253 182.933 92.7605 182.631C94.1957 182.328 95.4965 182.064 96.4373 181.891C96.9436 181.771 97.4589 181.692 97.9781 181.656Z" fill="#FAFAFA"/>
<path d="M102.169 202.561C101.692 202.625 101.21 202.649 100.729 202.633C99.8407 202.657 98.6119 202.695 97.2631 202.772C95.9143 202.849 94.6855 202.954 93.8023 203.036C93.3251 203.101 92.8439 203.131 92.3623 203.127C92.8321 202.989 93.3145 202.899 93.8023 202.858C94.6807 202.733 95.9095 202.604 97.2679 202.522C98.6263 202.441 99.8551 202.436 100.748 202.46C101.224 202.446 101.7 202.48 102.169 202.561Z" fill="#FAFAFA"/>
<path d="M63.6966 182.909C63.3513 182.802 63.0183 182.658 62.703 182.482L60.351 181.358L57.9942 180.25C57.6599 180.12 57.3385 179.959 57.0342 179.77C57.3913 179.839 57.7381 179.953 58.0662 180.11C58.6854 180.355 59.535 180.72 60.4662 181.157C61.3974 181.594 62.2038 182.021 62.7894 182.352C63.1136 182.499 63.4183 182.686 63.6966 182.909Z" fill="#FAFAFA"/>
<path d="M83.0165 186.188C82.8205 186.136 82.6306 186.064 82.4501 185.972L80.9381 185.314C79.6661 184.757 77.8997 183.999 75.9317 183.212C73.9637 182.425 72.1589 181.772 70.8533 181.292L69.3077 180.725C69.113 180.666 68.9248 180.588 68.7461 180.49C68.9482 180.513 69.1465 180.562 69.3365 180.634C69.7109 180.74 70.2485 180.908 70.9109 181.114C72.2357 181.546 74.0501 182.189 76.0229 182.977C77.9957 183.764 79.7573 184.551 81.0101 185.151C81.6389 185.453 82.1477 185.703 82.4885 185.881C82.6753 185.963 82.8524 186.066 83.0165 186.188Z" fill="#FAFAFA"/>
<path d="M84.5 172.546C84.4097 172.55 84.3193 172.542 84.2312 172.522L83.4632 172.407L80.6504 171.951C78.2504 171.567 74.9912 171.039 71.3576 170.511C67.724 169.983 64.4264 169.551 62.036 169.22L59.2136 168.845L58.4456 168.735C58.3538 168.728 58.2635 168.708 58.1768 168.677C58.2678 168.67 58.3593 168.67 58.4504 168.677L59.2232 168.745C59.8952 168.802 60.8648 168.903 62.06 169.037C64.46 169.306 67.7528 169.724 71.3912 170.257C75.0296 170.789 78.308 171.346 80.6792 171.778C81.8648 171.994 82.82 172.177 83.4824 172.311L84.2408 172.474C84.3302 172.485 84.4175 172.51 84.5 172.546Z" fill="#FAFAFA"/>
<path d="M83.4343 158.141C83.4343 158.208 78.2311 157.488 71.8327 156.533C65.4343 155.578 60.2599 154.747 60.2695 154.68C60.2791 154.613 65.4727 155.333 71.8711 156.288C78.2695 157.243 83.4439 158.074 83.4343 158.141Z" fill="#FAFAFA"/>
<path d="M56.2272 170.742C55.946 170.239 55.699 169.718 55.488 169.182L53.8032 165.38C53.1408 163.94 52.5456 162.63 52.0752 161.598C51.8154 161.085 51.5893 160.556 51.3984 160.014C51.5015 160.131 51.5857 160.264 51.648 160.407C51.792 160.666 51.9936 161.046 52.2384 161.521C52.7184 162.481 53.3616 163.796 54.0288 165.279C54.696 166.762 55.2624 168.121 55.6512 169.119C55.848 169.599 55.9968 170.017 56.0976 170.3C56.1593 170.441 56.2029 170.59 56.2272 170.742Z" fill="#FAFAFA"/>
<path d="M45.8884 180.86C45.8212 180.86 45.1588 177.98 44.41 174.385C43.6612 170.789 43.1092 167.876 43.1764 167.861C43.2436 167.847 43.906 170.741 44.6548 174.332C45.4036 177.922 45.9556 180.845 45.8884 180.86Z" fill="#FAFAFA"/>
<path d="M41.6115 165.121C40.1332 165.566 38.6318 165.93 37.1139 166.211C35.6131 166.569 34.0941 166.846 32.5635 167.041C34.042 166.596 35.5433 166.231 37.0611 165.947C38.5622 165.591 40.0811 165.315 41.6115 165.121Z" fill="#FAFAFA"/>
<path d="M40.1098 151.984C39.7252 152.113 39.3277 152.2 38.9242 152.243C38.1898 152.368 37.1674 152.516 36.0442 152.646C34.921 152.776 33.8842 152.857 33.1354 152.9C32.7333 152.943 32.3278 152.943 31.9258 152.9C32.3172 152.799 32.7175 152.737 33.121 152.713L36.001 152.382L38.881 152.056C39.2872 151.991 39.6988 151.967 40.1098 151.984Z" fill="#FAFAFA"/>
<path d="M44.0115 129.184C44.1459 129.452 47.7507 147.98 47.7507 147.98L39.2547 148.379L35.9619 132.448L44.0115 129.184Z" fill="#455A64"/>
<path d="M47.7509 147.979L48.7253 147.571L45.0485 129.307L43.8965 129.23L47.7509 147.979Z" fill="#263238"/>
<path d="M40.5945 133.234C40.6056 133.321 40.5904 133.409 40.5508 133.488C40.5113 133.566 40.4492 133.631 40.3725 133.674C40.2958 133.717 40.208 133.737 40.1204 133.729C40.0327 133.722 39.9492 133.689 39.8806 133.634C39.8119 133.579 39.7612 133.505 39.735 133.421C39.7087 133.337 39.7081 133.247 39.7333 133.163C39.7584 133.079 39.8081 133.004 39.876 132.948C39.944 132.892 40.027 132.858 40.1145 132.85C40.2287 132.839 40.3427 132.873 40.4323 132.944C40.5219 133.016 40.5801 133.12 40.5945 133.234Z" fill="#263238"/>
<path d="M38.8423 146.237L38.7127 143.813L42.3463 142.315L40.9063 138.955C40.743 138.585 40.5046 138.252 40.2061 137.978C39.9077 137.704 39.5557 137.494 39.1724 137.363C38.789 137.232 38.3827 137.182 37.9789 137.215C37.5751 137.249 37.1827 137.366 36.8263 137.559L35.3863 138.351C34.8724 138.628 34.4226 139.01 34.0662 139.472C33.7097 139.934 33.4546 140.466 33.3175 141.034C32.9256 142.992 32.6452 144.972 32.4775 146.962" fill="#FFBE9D"/>
<path d="M29.1222 208.01C29.1222 208.01 14.1846 212.143 13.5846 212.33C12.687 212.647 12.8358 215.944 14.2374 215.891C14.8998 215.867 25.7094 216.295 27.0774 216.208C28.4454 216.122 32.5638 214.499 32.5638 214.499L29.1222 208.01Z" fill="#DDF235"/>
<path d="M22.9011 213.706C22.713 213.16 22.4934 212.624 22.2435 212.103C21.9207 211.621 21.568 211.159 21.1875 210.721C21.7179 211.013 22.158 211.445 22.4601 211.969C22.7623 212.494 22.9148 213.091 22.9011 213.697V213.706Z" fill="#263238"/>
<path d="M24.4569 213.002C24.3849 213.002 24.2313 212.31 23.8329 211.528C23.4345 210.746 22.9689 210.203 23.0217 210.15C23.4566 210.49 23.8112 210.922 24.0601 211.415C24.309 211.908 24.4461 212.45 24.4617 213.002H24.4569Z" fill="#263238"/>
<path d="M25.9399 212.613C25.87 212.077 25.7544 211.549 25.5943 211.034C25.3616 210.546 25.0886 210.079 24.7783 209.637C25.2519 209.955 25.617 210.411 25.8245 210.943C26.0321 211.475 26.0724 212.057 25.9399 212.613Z" fill="#263238"/>
<path d="M25.6517 210.682C25.5221 210.326 25.4681 209.947 25.4933 209.569C25.4942 209.158 25.5442 208.748 25.6421 208.349C25.7014 208.114 25.7767 207.883 25.8677 207.658C25.9118 207.518 25.993 207.391 26.1029 207.293C26.1776 207.236 26.2701 207.207 26.3641 207.211C26.4581 207.216 26.5475 207.253 26.6165 207.317C26.7333 207.429 26.805 207.579 26.8181 207.74C26.8275 207.871 26.8275 208.002 26.8181 208.133C26.8132 208.381 26.7826 208.627 26.7269 208.868C26.6218 209.268 26.4602 209.651 26.2469 210.005C26.0814 210.346 25.8535 210.652 25.5749 210.908C25.5413 210.884 25.7909 210.533 26.0885 209.924C26.2654 209.572 26.3977 209.199 26.4821 208.815C26.5284 208.591 26.5526 208.362 26.5541 208.133C26.5541 207.903 26.5541 207.615 26.4149 207.505C26.3882 207.48 26.3531 207.466 26.3165 207.466C26.28 207.466 26.2448 207.48 26.2181 207.505C26.1429 207.576 26.0868 207.665 26.0549 207.764C25.9662 207.98 25.8909 208.201 25.8293 208.426C25.7218 208.807 25.6558 209.198 25.6325 209.593C25.6277 210.241 25.6949 210.673 25.6517 210.682Z" fill="#263238"/>
<path d="M25.6709 210.528C25.9746 210.403 26.3033 210.351 26.6309 210.375C26.9885 210.373 27.3449 210.417 27.6917 210.504C27.9045 210.551 28.1097 210.627 28.3013 210.73C28.424 210.791 28.5232 210.891 28.5839 211.014C28.6446 211.137 28.6633 211.277 28.6373 211.412C28.6036 211.54 28.5359 211.658 28.4413 211.752C28.3468 211.845 28.2288 211.912 28.0997 211.944C27.8794 212.002 27.648 212.002 27.4277 211.944C26.7633 211.749 26.1804 211.343 25.7669 210.788C26.0444 210.946 26.3092 211.126 26.5589 211.325C26.8374 211.513 27.1482 211.648 27.4757 211.724C27.6588 211.767 27.8494 211.767 28.0325 211.724C28.1196 211.704 28.1995 211.66 28.2631 211.597C28.3267 211.535 28.3715 211.455 28.3925 211.368C28.4075 211.284 28.3939 211.197 28.3539 211.122C28.3139 211.046 28.2498 210.986 28.1717 210.951C28.0005 210.858 27.8183 210.787 27.6293 210.74C27.3015 210.648 26.9655 210.588 26.6261 210.562C26.0453 210.509 25.6757 210.567 25.6709 210.528Z" fill="#263238"/>
<path d="M20.6073 213.87C20.544 213.413 20.4445 212.962 20.3097 212.521C20.0998 212.111 19.8557 211.719 19.5801 211.35C20.015 211.587 20.3546 211.968 20.5417 212.427C20.7288 212.886 20.752 213.396 20.6073 213.87Z" fill="#263238"/>
<path d="M31.0282 214.561C30.8443 214.671 30.6497 214.763 30.4474 214.835C29.9057 215.042 29.3509 215.214 28.7866 215.348C26.9147 215.759 24.9999 215.941 23.0842 215.891C20.8474 215.867 18.8314 215.761 17.3674 215.703L15.6346 215.612C15.4216 215.611 15.2093 215.589 15.001 215.545C15.212 215.511 15.4262 215.501 15.6394 215.516H17.3722L23.0842 215.631C24.9839 215.674 26.8827 215.513 28.7482 215.151C30.1738 214.878 31.009 214.513 31.0282 214.561Z" fill="#263238"/>
<path d="M31.4697 214.897C31.4697 214.931 31.0377 214.696 30.3513 214.393C29.4724 213.972 28.4928 213.805 27.5241 213.913C26.5751 214.116 25.7176 214.621 25.0809 215.353C24.8147 215.667 24.5277 215.962 24.2217 216.236C24.4174 215.87 24.663 215.532 24.9513 215.233C25.2462 214.895 25.5779 214.591 25.9401 214.326C26.3958 213.988 26.9257 213.764 27.4857 213.673C28.4988 213.553 29.5244 213.748 30.4233 214.23C30.8047 214.397 31.1577 214.622 31.4697 214.897Z" fill="#263238"/>
<path d="M44.9765 203.885C44.9765 203.885 59.1077 213.139 59.6165 213.523C60.3749 214.094 59.5061 216.835 58.1765 216.36C57.5525 216.134 45.6965 212.837 44.4149 212.342C43.1333 211.848 39.7109 209.045 39.7109 209.045L44.9765 203.885Z" fill="#DDF235"/>
<path d="M49.1719 211.201C49.3438 210.62 49.6712 210.097 50.1187 209.688C50.5662 209.28 51.1168 209.001 51.7111 208.883C51.211 209.182 50.7301 209.512 50.2711 209.872C49.877 210.291 49.5099 210.735 49.1719 211.201Z" fill="#263238"/>
<path d="M47.9043 210.059C48.0446 209.52 48.3439 209.035 48.7635 208.667C49.1257 208.245 49.6025 207.936 50.1363 207.779C50.1747 207.846 49.5555 208.216 48.9459 208.845C48.3363 209.474 47.9667 210.093 47.9043 210.059Z" fill="#263238"/>
<path d="M46.6328 209.243C46.6742 208.674 46.8891 208.13 47.2487 207.687C47.6083 207.243 48.0953 206.92 48.644 206.762C48.2155 207.089 47.8142 207.45 47.444 207.842C47.1362 208.286 46.8649 208.755 46.6328 209.243Z" fill="#263238"/>
<path d="M47.468 207.485C47.4344 207.485 47.6264 207.082 47.7896 206.424C47.8847 206.04 47.941 205.648 47.9576 205.253C47.9718 205.021 47.9718 204.789 47.9576 204.557C47.9588 204.453 47.9323 204.35 47.8808 204.259C47.8603 204.229 47.829 204.208 47.7934 204.2C47.7577 204.192 47.7204 204.198 47.6888 204.216C47.5256 204.279 47.444 204.557 47.3672 204.773C47.2984 204.992 47.2518 205.217 47.228 205.445C47.1934 205.837 47.2063 206.232 47.2664 206.621C47.3624 207.293 47.4968 207.701 47.4584 207.711C47.268 207.384 47.1425 207.024 47.0888 206.65C47.0034 206.246 46.9727 205.833 46.9976 205.421C47.0185 205.176 47.0635 204.933 47.132 204.696C47.1704 204.576 47.2184 204.456 47.2712 204.327C47.3332 204.179 47.4455 204.058 47.588 203.986C47.6715 203.951 47.7643 203.946 47.8513 203.97C47.9384 203.994 48.0147 204.047 48.068 204.12C48.1436 204.246 48.1834 204.391 48.1832 204.538C48.2024 204.781 48.2024 205.025 48.1832 205.267C48.1578 205.677 48.0821 206.081 47.9576 206.472C47.8697 206.841 47.7026 207.187 47.468 207.485Z" fill="#263238"/>
<path d="M47.4964 207.331C47.4964 207.369 47.146 207.201 46.5796 207.062C46.2473 206.983 45.9081 206.937 45.5668 206.923C45.3723 206.912 45.1772 206.925 44.986 206.961C44.9011 206.971 44.822 207.009 44.7611 207.069C44.7003 207.129 44.6612 207.208 44.65 207.293C44.6465 207.381 44.6664 207.469 44.7077 207.547C44.749 207.626 44.8102 207.692 44.8852 207.739C45.045 207.839 45.2258 207.899 45.4132 207.917C45.7478 207.947 46.0852 207.913 46.4068 207.816C46.7068 207.702 47.0149 207.611 47.3284 207.542C47.0696 207.744 46.7747 207.893 46.4596 207.984C46.1186 208.114 45.7533 208.168 45.3892 208.142C45.1626 208.131 44.9428 208.061 44.7508 207.941C44.6379 207.871 44.5458 207.772 44.4842 207.655C44.4225 207.538 44.3936 207.406 44.4004 207.273C44.4164 207.137 44.4766 207.009 44.5719 206.909C44.6671 206.809 44.7923 206.744 44.9284 206.721C45.1422 206.684 45.3601 206.674 45.5764 206.693C45.9338 206.716 46.2868 206.784 46.6276 206.894C46.947 206.971 47.2443 207.12 47.4964 207.331Z" fill="#263238"/>
<path d="M56.3857 215.848C56.3857 215.848 56.1457 215.704 56.0401 215.296C55.9248 214.771 56.0195 214.221 56.3041 213.765C56.4477 213.519 56.6081 213.283 56.7841 213.059C56.9204 212.867 57.0819 212.695 57.2641 212.546C57.3919 212.438 57.5491 212.371 57.7153 212.354C57.8353 212.354 57.8977 212.378 57.8929 212.392C57.7022 212.448 57.5266 212.546 57.3793 212.68C57.2269 212.837 57.0902 213.009 56.9713 213.194C56.8273 213.405 56.6689 213.635 56.5297 213.885C56.278 214.297 56.17 214.782 56.2225 215.262C56.2671 215.46 56.3215 215.656 56.3857 215.848Z" fill="#263238"/>
<path d="M51.3125 212.055C51.3159 211.559 51.4909 211.081 51.8077 210.7C52.1246 210.319 52.5636 210.06 53.0501 209.967C53.0789 210.039 52.4837 210.269 51.9989 210.86C51.7357 211.237 51.506 211.637 51.3125 212.055Z" fill="#263238"/>
<path d="M41.1699 209.545C41.389 209.67 41.5977 209.813 41.7939 209.972C42.353 210.362 42.9348 210.718 43.5363 211.038C44.4295 211.51 45.3531 211.922 46.3011 212.271C47.3715 212.67 48.5715 213.049 49.8435 213.414C52.3875 214.148 54.6867 214.815 56.3475 215.334L58.3107 215.939C58.555 216.001 58.7929 216.086 59.0211 216.193C58.7724 216.158 58.5269 216.103 58.2867 216.03L56.2995 215.507C54.6243 215.051 52.3203 214.407 49.7715 213.673C48.4995 213.308 47.2947 212.919 46.2195 212.507C45.2663 212.138 44.3408 211.702 43.4499 211.201C42.8503 210.863 42.2774 210.479 41.7363 210.054C41.5306 209.904 41.3408 209.733 41.1699 209.545Z" fill="#263238"/>
<path d="M40.6465 209.761C41.0274 209.592 41.4322 209.484 41.8465 209.44C42.8508 209.252 43.8885 209.38 44.8177 209.804C45.3235 210.053 45.7628 210.418 46.0993 210.87C46.3657 211.238 46.588 211.636 46.7617 212.056C46.9464 212.428 47.0788 212.823 47.1553 213.232C46.9406 212.878 46.7483 212.51 46.5793 212.132C46.2008 211.236 45.5379 210.489 44.6929 210.006C43.805 209.604 42.8217 209.461 41.8561 209.593C41.1169 209.67 40.6561 209.761 40.6465 209.761Z" fill="#263238"/>
<path d="M78.0969 130.561L79.0185 149.228C79.057 149.981 78.9416 150.735 78.6796 151.442C78.4175 152.15 78.0141 152.796 77.4941 153.343C76.9741 153.889 76.3483 154.324 75.6547 154.621C74.9612 154.918 74.2145 155.071 73.4601 155.07C72.0338 155.07 70.6618 154.522 69.6281 153.54C68.5943 152.557 67.978 151.214 67.9065 149.79C67.8393 148.383 67.7817 147.212 67.7625 147.068C67.7625 147.068 62.9913 146.852 62.4153 142.167C62.1369 139.902 61.9353 135.193 61.8153 130.926C61.7503 128.714 62.5209 126.559 63.9736 124.89C65.4262 123.221 67.4543 122.161 69.6537 121.921L70.1049 121.873C75.0201 121.618 77.9817 125.65 78.0969 130.561Z" fill="#FFBE9D"/>
<path d="M67.7529 146.992C69.9233 146.798 71.9868 145.962 73.6809 144.592C73.6809 144.592 72.6057 148.129 67.8777 148.221L67.7529 146.992Z" fill="#EB996E"/>
<path d="M63.3124 133.848C63.3307 134.022 63.4159 134.183 63.5502 134.296C63.6845 134.409 63.8574 134.465 64.0324 134.453C64.1186 134.45 64.2034 134.431 64.2818 134.395C64.3602 134.359 64.4306 134.308 64.4888 134.244C64.547 134.181 64.5918 134.106 64.6206 134.025C64.6494 133.943 64.6616 133.857 64.6564 133.771C64.6406 133.596 64.5559 133.434 64.4211 133.32C64.2862 133.207 64.112 133.152 63.9364 133.166C63.8505 133.169 63.766 133.19 63.6879 133.226C63.6098 133.262 63.5397 133.313 63.4816 133.376C63.4235 133.44 63.3786 133.514 63.3496 133.595C63.3205 133.676 63.3079 133.762 63.3124 133.848Z" fill="#263238"/>
<path d="M63.0818 133.11C63.1778 133.187 63.6434 132.755 64.3634 132.678C65.0834 132.602 65.6546 132.904 65.7218 132.808C65.789 132.712 65.6546 132.616 65.405 132.472C65.0678 132.294 64.6851 132.22 64.3058 132.261C63.9299 132.302 63.5769 132.462 63.2978 132.717C63.0962 132.909 63.0386 133.077 63.0818 133.11Z" fill="#263238"/>
<path d="M70.3925 133.24C70.4107 133.416 70.4967 133.577 70.632 133.69C70.7674 133.803 70.9415 133.858 71.1173 133.845C71.2032 133.842 71.2877 133.822 71.3658 133.786C71.4439 133.75 71.5141 133.698 71.5721 133.635C71.6302 133.572 71.6751 133.497 71.7041 133.416C71.7332 133.335 71.7458 133.249 71.7413 133.163C71.7242 132.988 71.6393 132.827 71.5047 132.714C71.3701 132.601 71.1966 132.545 71.0213 132.559C70.9349 132.561 70.8499 132.581 70.7713 132.617C70.6926 132.652 70.6219 132.703 70.5633 132.767C70.5047 132.83 70.4594 132.905 70.4301 132.986C70.4008 133.068 70.388 133.154 70.3925 133.24Z" fill="#263238"/>
<path d="M70.1863 132.481C70.2823 132.558 70.7479 132.126 71.4679 132.049C72.1879 131.973 72.7591 132.275 72.8263 132.179C72.8935 132.083 72.7591 131.987 72.5095 131.843C72.1723 131.665 71.7896 131.592 71.4103 131.632C71.0344 131.673 70.6814 131.833 70.4023 132.088C70.2007 132.261 70.1431 132.429 70.1863 132.481Z" fill="#263238"/>
<path d="M68.1795 138.096C67.7857 138.022 67.3845 137.995 66.9843 138.015C66.7971 138.015 66.6195 138.015 66.5763 137.88C66.5403 137.691 66.562 137.495 66.6387 137.318C66.7635 136.838 66.8931 136.359 67.0275 135.855C67.5651 133.776 67.9299 132.072 67.8483 132.053C67.7667 132.034 67.2579 133.699 66.7251 135.783C66.5955 136.291 66.4755 136.781 66.3555 137.251C66.2708 137.487 66.2708 137.745 66.3555 137.981C66.3896 138.043 66.437 138.096 66.4942 138.138C66.5515 138.179 66.6172 138.208 66.6867 138.221C66.7935 138.233 66.9014 138.233 67.0083 138.221C67.4025 138.231 67.7963 138.189 68.1795 138.096Z" fill="#263238"/>
<path d="M70.34 138.366C70.22 138.366 70.3064 139.153 69.6968 139.782C69.0872 140.411 68.2568 140.42 68.2568 140.526C68.2568 140.632 68.4584 140.66 68.8088 140.632C69.2694 140.587 69.6995 140.381 70.0232 140.051C70.3279 139.733 70.4995 139.31 70.5032 138.87C70.4984 138.539 70.3928 138.352 70.34 138.366Z" fill="#263238"/>
<path d="M69.6913 129.658C69.7825 129.846 70.4929 129.658 71.3473 129.682C72.2017 129.706 72.9169 129.846 73.0081 129.658C73.0513 129.567 72.9121 129.394 72.6145 129.236C72.2207 129.043 71.7881 128.943 71.3497 128.943C70.9113 128.943 70.4787 129.043 70.0849 129.236C69.7873 129.394 69.6481 129.567 69.6913 129.658Z" fill="#263238"/>
<path d="M63.1206 130.992C63.2646 131.141 63.7398 130.916 64.3398 130.844C64.9398 130.772 65.4534 130.844 65.5494 130.647C65.5926 130.56 65.4966 130.402 65.2566 130.272C64.9403 130.115 64.5832 130.06 64.2342 130.114C63.884 130.157 63.5564 130.31 63.2982 130.551C63.1062 130.743 63.0534 130.92 63.1206 130.992Z" fill="#263238"/>
<path d="M78.0967 134.089C78.1735 134.046 81.2167 132.779 81.4567 136.009C81.6967 139.24 78.4231 138.817 78.4135 138.721C78.4039 138.625 78.0967 134.089 78.0967 134.089Z" fill="#FFBE9D"/>
<path d="M79.3113 137.415C79.3113 137.415 79.3689 137.454 79.4697 137.487C79.6068 137.533 79.7564 137.525 79.8873 137.463C80.0854 137.315 80.2405 137.117 80.3367 136.89C80.4328 136.662 80.4666 136.412 80.4345 136.167C80.4172 135.891 80.342 135.621 80.2137 135.375C80.1749 135.278 80.1132 135.191 80.0338 135.123C79.9544 135.054 79.8597 135.006 79.7577 134.982C79.6918 134.969 79.6236 134.98 79.5649 135.013C79.5062 135.045 79.4606 135.097 79.4361 135.159C79.4025 135.255 79.4361 135.318 79.4361 135.323C79.4361 135.327 79.3593 135.275 79.3785 135.14C79.3874 135.058 79.4268 134.983 79.4889 134.929C79.5294 134.892 79.5772 134.863 79.6292 134.845C79.6812 134.827 79.7364 134.819 79.7913 134.823C79.9254 134.838 80.0533 134.888 80.1627 134.967C80.272 135.046 80.359 135.152 80.4153 135.275C80.5756 135.542 80.6663 135.846 80.6793 136.158C80.7177 136.441 80.6711 136.729 80.5455 136.985C80.4199 137.241 80.2208 137.455 79.9737 137.598C79.8886 137.63 79.7972 137.643 79.7065 137.635C79.6158 137.626 79.5282 137.597 79.4505 137.55C79.3209 137.492 79.2969 137.425 79.3113 137.415Z" fill="#EB996E"/>
<path d="M79.8673 133.782C79.5633 133.798 79.2693 133.896 79.0159 134.065C78.7626 134.233 78.5593 134.467 78.4273 134.742C78.2689 135.222 78.2785 135.75 78.1201 136.23C77.9617 136.71 77.5393 137.19 77.0353 137.118C76.8635 137.082 76.7039 137.003 76.5725 136.886C76.4411 136.77 76.3425 136.621 76.2865 136.455C76.1789 136.122 76.1381 135.772 76.1665 135.423C76.1665 133.906 76.3393 132.385 76.2337 130.868C76.1856 129.338 75.6844 127.856 74.7937 126.61C74.3439 125.995 73.7363 125.513 73.035 125.215C72.3337 124.916 71.5648 124.813 70.8097 124.916C69.8209 125.103 68.9617 125.727 67.9873 125.972C67.409 126.114 66.8059 126.122 66.2238 125.997C65.6417 125.871 65.0957 125.615 64.6273 125.247C64.4145 125.113 64.195 124.99 63.9697 124.878C63.9437 124.519 64.0221 124.161 64.1953 123.846C65.9617 121.81 69.4465 120.913 72.1153 121.282C73.4715 121.461 74.7726 121.932 75.9282 122.664C77.0837 123.396 78.0659 124.371 78.8065 125.521C80.1889 127.83 80.2465 131.252 79.8865 133.782" fill="#263238"/>
<path d="M27.4229 207.841C27.4229 207.841 62.0837 185.108 63.5045 184.633C64.9253 184.158 68.3525 181.911 71.7845 182.857C75.2165 183.802 78.2885 186.879 79.8245 191.372C81.3605 195.865 81.4805 205.921 81.4805 205.921C81.4805 205.921 78.7397 213.841 73.4597 215.521C73.0041 215.662 72.541 215.777 72.0725 215.866C65.5733 217.158 58.9685 214.172 55.3349 208.633L54.5573 207.457C54.5573 207.457 31.8869 215.785 31.5173 215.67L27.4229 207.841Z" fill="#263238"/>
<path d="M15.6053 181.317C15.6053 181.317 11.3621 182.829 11.3477 187.585C11.3141 196.705 29.7461 206.733 29.7461 206.733L54.2597 190.475V188.766C54.2597 188.766 22.6997 177.414 15.6053 181.317Z" fill="#263238"/>
<path d="M70.306 201.6C70.306 201.6 70.2436 201.634 70.114 201.687L69.5476 201.912L67.3492 202.757L59.1892 205.834C55.7188 207.125 51.562 208.666 46.9012 210.36C42.2404 212.055 37.0756 213.917 31.5412 215.784L31.4404 215.818L31.3924 215.727C30.5236 214.071 29.6116 212.328 28.6852 210.552L27.3028 207.917L27.25 207.816L27.346 207.754L53.7844 190.954L61.7284 185.943L63.8836 184.599L64.4452 184.253L64.642 184.143C64.5835 184.189 64.5226 184.232 64.4596 184.272L63.9124 184.637L61.7764 186.019L53.8756 191.098L27.4756 207.946L27.5188 207.783C27.9604 208.618 28.426 209.515 28.9012 210.418L31.6084 215.592L31.4596 215.53C36.9748 213.667 42.1396 211.815 46.8196 210.135L59.122 205.656L67.3156 202.651L69.5236 201.85L70.0996 201.643L70.306 201.6Z" fill="#455A64"/>
<path d="M41.8518 198.687C41.6293 198.556 41.416 198.41 41.2134 198.25C40.8102 197.962 40.2534 197.525 39.5334 196.983C38.1318 195.898 36.2214 194.362 34.1622 192.596C32.103 190.829 30.3222 189.173 29.0118 187.949C28.3686 187.335 27.855 186.836 27.5046 186.48C27.3149 186.306 27.14 186.117 26.9814 185.914C27.189 186.06 27.3863 186.221 27.5718 186.394L29.1318 187.8C30.447 188.991 32.2758 190.623 34.3254 192.384C36.375 194.146 38.271 195.706 39.6438 196.824L41.271 198.154C41.4798 198.314 41.6741 198.493 41.8518 198.687Z" fill="#455A64"/>
<path d="M22.5313 184.718C23.3241 184.592 24.1361 184.666 24.8929 184.934C25.6741 185.123 26.3964 185.502 26.9953 186.038C26.9521 186.101 26.0353 185.534 24.8209 185.174C23.6065 184.814 22.5265 184.8 22.5313 184.718Z" fill="#455A64"/>
<path d="M24.6442 183.283C25.2256 183.491 25.7286 183.873 26.0842 184.378C26.506 184.834 26.7731 185.412 26.8474 186.029C26.7754 186.053 26.5066 185.29 25.8874 184.536C25.2682 183.782 24.6058 183.36 24.6442 183.283Z" fill="#455A64"/>
<path d="M14.2568 212.122C14.2568 212.093 14.5496 212.031 14.8856 212.314C15.2903 212.691 15.543 213.204 15.596 213.754C15.6733 214.288 15.5967 214.832 15.3752 215.324C15.1976 215.698 15.0104 215.871 14.9864 215.857C14.9624 215.842 15.0872 215.626 15.2072 215.261C15.3682 214.788 15.4174 214.284 15.3512 213.788C15.2935 213.298 15.0913 212.837 14.7704 212.463C14.6214 212.319 14.4474 212.204 14.2568 212.122Z" fill="#263238"/>
<path d="M217.877 185.951H184.393V190.554H217.877V185.951Z" fill="#263238"/>
<path d="M217.94 190.608H184.34V185.895H217.94V190.608ZM184.455 190.493H217.825V186.01H184.45L184.455 190.493Z" fill="#263238"/>
<path d="M187.498 189.018L192.317 212.797H210.154L214.81 190.549L187.498 189.018Z" fill="#263238"/>
<path d="M187.498 210.547L190.071 214.084H211.748L214.81 210.547H187.498Z" fill="#455A64"/>
<path d="M199.878 189.715C199.815 189.715 199.729 178.699 199.69 165.115C199.652 151.531 199.69 140.51 199.743 140.51C199.796 140.51 199.892 151.521 199.93 165.11C199.969 178.699 199.945 189.715 199.878 189.715Z" fill="#263238"/>
<path d="M207.337 162.148C207.319 162.237 207.29 162.322 207.25 162.403C207.169 162.59 207.073 162.825 206.948 163.118C206.881 163.272 206.809 163.444 206.732 163.632L206.506 164.256C206.43 164.481 206.343 164.736 206.252 164.971C206.161 165.206 206.089 165.504 206.002 165.792C205.604 167.137 205.291 168.506 205.066 169.891C204.804 171.589 204.631 173.301 204.548 175.017C204.424 178.141 204.512 181.27 204.812 184.382C204.922 185.577 205.028 186.542 205.11 187.209C205.143 187.526 205.172 187.78 205.191 187.982C205.204 188.071 205.204 188.162 205.191 188.251C205.16 188.166 205.139 188.077 205.129 187.987C205.095 187.785 205.052 187.536 205.004 187.224C204.894 186.561 204.759 185.596 204.63 184.401C204.279 181.283 204.167 178.143 204.294 175.008C204.38 173.281 204.561 171.56 204.836 169.852C205.074 168.461 205.404 167.087 205.825 165.739C205.921 165.456 205.998 165.177 206.094 164.923L206.367 164.208L206.612 163.588C206.694 163.401 206.78 163.233 206.852 163.08L207.193 162.384C207.231 162.3 207.28 162.221 207.337 162.148Z" fill="#263238"/>
<path d="M206.483 153.238C206.458 153.361 206.423 153.482 206.377 153.598L206.027 154.625L205.772 155.36C205.691 155.638 205.599 155.936 205.503 156.253C205.307 156.891 205.081 157.611 204.879 158.427C204.769 158.835 204.659 159.257 204.543 159.704C204.428 160.15 204.337 160.616 204.227 161.096C203.996 162.056 203.823 163.097 203.607 164.182C203.243 166.371 202.916 168.79 202.691 171.339C202.465 173.888 202.388 176.336 202.355 178.539C202.321 180.742 202.379 182.758 202.47 184.433C202.499 185.273 202.551 186.032 202.595 186.699C202.638 187.366 202.676 187.937 202.719 188.408C202.763 188.878 202.777 189.214 202.801 189.483C202.813 189.609 202.813 189.736 202.801 189.862C202.769 189.74 202.75 189.614 202.743 189.488C202.71 189.224 202.667 188.864 202.614 188.413C202.561 187.961 202.503 187.376 202.451 186.709C202.398 186.041 202.331 185.269 202.287 184.443C202.177 182.768 202.129 180.761 202.124 178.539C202.119 176.317 202.23 173.869 202.446 171.305C202.662 168.742 203.003 166.323 203.382 164.129C203.607 163.04 203.78 161.998 204.025 161.038C204.14 160.558 204.246 160.078 204.351 159.641C204.457 159.205 204.591 158.777 204.707 158.369C204.918 157.553 205.158 156.833 205.364 156.195L205.652 155.312C205.753 155.043 205.849 154.803 205.931 154.577C206.094 154.155 206.223 153.819 206.324 153.569C206.367 153.454 206.42 153.344 206.483 153.238Z" fill="#263238"/>
<path d="M197.78 191.664C197.775 191.621 197.775 191.577 197.78 191.534C197.78 191.433 197.78 191.308 197.751 191.155C197.727 190.804 197.694 190.315 197.65 189.715C197.569 188.428 197.458 186.604 197.314 184.348C197.026 179.822 196.604 173.563 195.841 166.68C195.452 163.238 195.001 159.96 194.53 157.008C194.281 155.529 194.05 154.128 193.801 152.812C193.551 151.497 193.321 150.283 193.076 149.174C192.831 148.065 192.596 147.062 192.414 146.184C192.231 145.305 192.03 144.552 191.876 143.937C191.722 143.323 191.612 142.857 191.526 142.497C191.492 142.344 191.463 142.224 191.444 142.128C191.431 142.086 191.423 142.042 191.42 141.998C191.44 142.036 191.455 142.076 191.463 142.118C191.492 142.214 191.53 142.334 191.574 142.483C191.665 142.824 191.799 143.294 191.962 143.894C192.126 144.494 192.337 145.257 192.543 146.136C192.75 147.014 193.023 148.008 193.239 149.121C193.455 150.235 193.748 151.444 193.993 152.755C194.238 154.065 194.473 155.476 194.746 156.955C195.226 159.916 195.706 163.195 196.081 166.636C196.844 173.524 197.238 179.788 197.482 184.32C197.607 186.59 197.694 188.424 197.742 189.691C197.766 190.315 197.785 190.8 197.799 191.155C197.799 191.308 197.799 191.433 197.799 191.534C197.798 191.578 197.792 191.621 197.78 191.664Z" fill="#263238"/>
<path d="M199.609 145.804C199.46 144.244 197.886 143.068 196.316 143.049C194.746 143.03 193.287 143.976 192.332 145.214C191.428 146.5 190.776 147.947 190.412 149.476C189.356 153.153 188.78 157.012 189.231 160.814C189.682 164.616 191.223 168.35 193.95 171.033C194.391 171.47 194.962 171.907 195.572 171.777C195.899 171.677 196.194 171.495 196.431 171.249C199.099 168.805 201.214 165.819 202.634 162.491C204.053 159.163 204.745 155.57 204.663 151.953C204.625 150.513 204.433 149.006 203.631 147.801C202.83 146.596 200.967 145.32 199.609 145.804Z" fill="#DDF235"/>
<path d="M187.902 133.306L185.694 137.304C185.646 137.395 185.578 137.501 185.468 137.511C185.358 137.52 185.266 137.41 185.204 137.314L179.367 128.357L180.711 127.594L187.902 133.306Z" fill="#DDF235"/>
<g opacity="0.2">
<path d="M187.902 133.306L185.694 137.304C185.646 137.395 185.578 137.501 185.468 137.511C185.358 137.52 185.266 137.41 185.204 137.314L179.367 128.357L180.711 127.594L187.902 133.306Z" fill="black"/>
</g>
<path d="M199.743 140.51L179.833 128.759C179.618 128.665 179.446 128.494 179.353 128.279C179.276 127.986 179.497 127.703 179.708 127.482C181.077 126.063 182.735 124.955 184.571 124.233C186.406 123.512 188.375 123.194 190.345 123.302C192.31 123.446 194.211 124.066 195.884 125.109C197.556 126.152 198.95 127.586 199.945 129.287C201.865 132.719 201.932 137.26 199.729 140.519" fill="#DDF235"/>
<path d="M182.703 125.011C182.788 124.988 182.875 124.977 182.962 124.977C183.135 124.977 183.39 124.939 183.716 124.943C184.641 124.928 185.565 125 186.476 125.159C189.512 125.677 192.341 127.041 194.636 129.095C196.901 131.171 198.538 133.84 199.364 136.799C199.606 137.693 199.767 138.608 199.844 139.531C199.878 139.852 199.873 140.107 199.882 140.279C199.896 140.367 199.896 140.456 199.882 140.543C199.882 140.543 199.839 140.183 199.758 139.54C199.364 136.051 197.856 132.782 195.458 130.218C193.059 127.654 189.897 125.933 186.442 125.308C185.541 125.138 184.628 125.04 183.711 125.015C183.063 125.02 182.703 125.03 182.703 125.011Z" fill="#263238"/>
<path d="M197.045 132.398C196.733 132.601 196.396 132.762 196.042 132.878C195.404 133.128 194.521 133.445 193.527 133.762C192.533 134.078 191.607 134.328 190.964 134.486C190.611 134.596 190.247 134.667 189.879 134.698C190.212 134.538 190.561 134.414 190.92 134.328L193.455 133.536L195.985 132.72C196.327 132.579 196.682 132.471 197.045 132.398Z" fill="#263238"/>
<path d="M193.911 123.979C194.186 125.446 194.225 126.948 194.026 128.428C193.927 127.692 193.886 126.949 193.906 126.206C193.849 125.464 193.85 124.72 193.911 123.979Z" fill="#263238"/>
<path d="M179.66 128.538C180.124 128.326 180.606 128.156 181.1 128.029C182.007 127.751 183.265 127.396 184.671 127.069C186.078 126.743 187.355 126.469 188.291 126.306C188.79 126.196 189.297 126.127 189.807 126.1C189.321 126.261 188.824 126.386 188.319 126.474C187.398 126.676 186.126 126.954 184.724 127.3C183.323 127.645 182.06 127.962 181.148 128.202C180.661 128.349 180.163 128.461 179.66 128.538Z" fill="#263238"/>
<path d="M190.58 142.108C188.871 140.812 187.057 140.557 184.911 140.639C182.761 140.783 180.656 141.326 178.705 142.242C175.345 143.711 172.191 145.88 170.19 148.962C168.188 152.044 167.482 156.09 168.985 159.431C169.101 159.781 169.344 160.076 169.666 160.256C170.039 160.364 170.438 160.333 170.79 160.17C174.606 158.927 178.47 157.669 181.964 155.716C185.458 153.762 188.684 151.055 190.551 147.508C191.036 146.672 191.344 145.745 191.458 144.786C191.51 144.305 191.459 143.818 191.307 143.359C191.156 142.9 190.908 142.478 190.58 142.122" fill="#DDF235"/>
<path d="M190.58 141.705C190.494 141.755 190.402 141.794 190.306 141.82L189.505 142.094L188.929 142.286C188.718 142.363 188.492 142.459 188.252 142.55C187.772 142.747 187.206 142.943 186.615 143.227L185.679 143.654C185.358 143.803 185.031 143.99 184.69 144.163C183.994 144.503 183.294 144.935 182.55 145.377C179.349 147.362 176.502 149.867 174.126 152.788C173.598 153.47 173.074 154.113 172.652 154.756C172.431 155.073 172.21 155.371 172.018 155.673L171.476 156.547C171.116 157.099 170.852 157.627 170.598 158.083C170.473 158.313 170.353 158.519 170.247 158.721L169.983 159.268L169.609 160.027C169.57 160.118 169.521 160.204 169.465 160.286C169.485 160.189 169.519 160.095 169.566 160.007L169.902 159.23C169.974 159.057 170.06 158.875 170.146 158.668C170.233 158.462 170.358 158.255 170.478 158.02C170.722 157.54 170.982 157.017 171.332 156.46L171.865 155.572C172.052 155.265 172.273 154.963 172.489 154.641C172.906 153.988 173.449 153.34 173.958 152.649C175.152 151.182 176.46 149.811 177.87 148.55C179.301 147.313 180.828 146.189 182.434 145.19C183.188 144.753 183.898 144.321 184.599 143.99C184.945 143.817 185.271 143.635 185.602 143.486L186.562 143.073C187.162 142.795 187.729 142.593 188.218 142.425C188.463 142.339 188.698 142.247 188.905 142.18L189.49 142.007L190.306 141.772C190.396 141.745 190.488 141.722 190.58 141.705Z" fill="#263238"/>
<path d="M177.216 148.947C175.856 149.474 174.467 149.923 173.055 150.291C171.665 150.738 170.251 151.11 168.821 151.405C170.185 150.883 171.576 150.435 172.988 150.061C174.377 149.615 175.788 149.243 177.216 148.947Z" fill="#263238"/>
<path d="M177.049 158.139C176.974 157.711 176.943 157.277 176.957 156.843C176.933 156.042 176.929 154.923 176.957 153.709C176.986 152.494 177.053 151.376 177.121 150.574C177.136 150.14 177.191 149.708 177.284 149.283C177.322 149.716 177.322 150.151 177.284 150.584C177.26 151.462 177.226 152.533 177.188 153.714C177.149 154.894 177.13 155.965 177.111 156.843C177.126 157.276 177.105 157.71 177.049 158.139Z" fill="#263238"/>
<path d="M184.921 154.132C184.853 154.132 184.647 151.88 184.441 149.096C184.234 146.312 184.143 144.052 184.21 144.047C184.277 144.042 184.484 146.293 184.69 149.082C184.897 151.871 184.988 154.127 184.921 154.132Z" fill="#263238"/>
<path d="M175.119 143.827C175.562 143.778 176.008 143.765 176.454 143.789C177.279 143.789 178.417 143.817 179.67 143.861C180.922 143.904 182.07 143.952 182.881 144C183.327 144.002 183.772 144.045 184.21 144.129C183.768 144.185 183.321 144.198 182.876 144.168C182.055 144.168 180.918 144.139 179.66 144.101C178.402 144.062 177.26 144.005 176.449 143.957C176.002 143.955 175.557 143.911 175.119 143.827Z" fill="#263238"/>
<path d="M194.8 172.108C194.784 172.017 194.775 171.926 194.771 171.834C194.771 171.628 194.771 171.354 194.737 171.052C194.708 170.375 194.699 169.386 194.737 168.172C194.776 166.957 194.838 165.508 194.982 163.909C195.126 162.311 195.361 160.549 195.683 158.721C196.004 156.892 196.408 155.169 196.816 153.613C197.224 152.058 197.66 150.676 198.059 149.524C198.457 148.372 198.798 147.455 199.062 146.826L199.364 146.106C199.396 146.021 199.436 145.939 199.484 145.861C199.473 145.951 199.449 146.038 199.412 146.121C199.34 146.317 199.254 146.557 199.148 146.86C198.913 147.498 198.592 148.425 198.217 149.577C197.843 150.729 197.435 152.116 197.027 153.666C196.619 155.217 196.244 156.945 195.918 158.764C195.592 160.583 195.366 162.335 195.203 163.929C195.04 165.522 194.948 166.967 194.905 168.177C194.862 169.386 194.838 170.37 194.843 171.057C194.843 171.373 194.843 171.633 194.843 171.839C194.839 171.93 194.825 172.02 194.8 172.108Z" fill="#263238"/>
<path d="M195.86 158.523C195.628 158.841 195.363 159.132 195.068 159.392C194.55 159.906 193.82 160.597 192.985 161.312C192.15 162.027 191.372 162.68 190.796 163.127C190.5 163.384 190.179 163.609 189.836 163.799C190.097 163.503 190.387 163.233 190.7 162.992L192.836 161.135L194.962 159.258C195.238 158.986 195.539 158.74 195.86 158.523Z" fill="#263238"/>
<path d="M202.153 163.597C201.84 163.23 201.557 162.838 201.308 162.426C200.761 161.634 200.089 160.645 199.34 159.546C198.591 158.446 197.9 157.491 197.334 156.704C197.033 156.326 196.764 155.925 196.527 155.504C196.879 155.841 197.201 156.209 197.487 156.603C198.039 157.304 198.779 158.293 199.556 159.411C200.334 160.529 200.996 161.566 201.476 162.325C201.738 162.728 201.965 163.154 202.153 163.597Z" fill="#263238"/>
<path d="M198.851 147.639C198.889 147.691 196.796 149.103 194.175 150.783C191.555 152.463 189.409 153.787 189.375 153.73C189.342 153.672 191.435 152.29 194.051 150.581C196.667 148.872 198.817 147.581 198.851 147.639Z" fill="#263238"/>
<path d="M204.754 154.006C203.644 153.091 202.586 152.113 201.586 151.078C200.531 150.101 199.529 149.068 198.586 147.982C199.696 148.898 200.754 149.876 201.754 150.91C202.81 151.886 203.812 152.92 204.754 154.006Z" fill="#263238"/>
<path d="M206.238 153.878L208.038 153.729C209.311 153.623 210.547 153.245 211.662 152.62C212.207 152.3 212.773 152.016 213.356 151.771C215.579 150.878 218.056 151.036 220.446 150.916C224.361 150.72 228.196 149.74 231.726 148.036C231.929 147.942 232.097 147.786 232.206 147.59C232.576 146.918 231.889 146.318 231.299 145.958C228.27 144.091 225.188 142.204 221.756 141.278C218.324 140.351 214.427 140.505 211.499 142.521C208.057 144.887 206.804 149.75 206.219 153.883" fill="#DDF235"/>
<path d="M232.259 147.359C232.153 147.325 232.051 147.278 231.956 147.22L231.102 146.774C230.363 146.385 229.302 145.814 227.958 145.166C226.393 144.396 224.763 143.768 223.086 143.289C221.038 142.703 218.894 142.53 216.779 142.78C214.657 143.014 212.652 143.873 211.019 145.247C209.745 146.433 208.726 147.865 208.023 149.457C207.533 150.527 207.097 151.621 206.718 152.735C206.588 153.11 206.478 153.412 206.401 153.638C206.371 153.747 206.327 153.852 206.271 153.95C206.293 153.84 206.32 153.731 206.353 153.623C206.425 153.393 206.516 153.086 206.631 152.707C206.976 151.575 207.389 150.466 207.87 149.385C208.559 147.751 209.583 146.28 210.875 145.065C212.532 143.65 214.575 142.764 216.74 142.521C218.889 142.267 221.067 142.45 223.143 143.059C224.827 143.545 226.461 144.188 228.025 144.979C229.364 145.641 230.425 146.241 231.145 146.654L231.975 147.134C232.076 147.201 232.171 147.276 232.259 147.359Z" fill="#263238"/>
<path d="M227.943 149.682C227.904 149.739 225.543 148.242 222.696 146.288C219.85 144.335 217.541 142.751 217.58 142.693C217.618 142.635 219.98 144.162 222.826 146.091C225.672 148.021 227.981 149.629 227.943 149.682Z" fill="#263238"/>
<path d="M225.687 142.473C225.101 142.697 224.481 142.82 223.853 142.838C223.232 142.933 222.6 142.925 221.981 142.814C222.59 142.686 223.208 142.615 223.829 142.602C224.444 142.504 225.065 142.46 225.687 142.473Z" fill="#263238"/>
<path d="M215.151 140.582C214.962 141.127 214.702 141.645 214.378 142.123C214.124 142.644 213.801 143.128 213.418 143.563C213.858 142.498 214.446 141.501 215.165 140.601L215.151 140.582Z" fill="#263238"/>
<path d="M217.254 151.07C216.859 150.903 216.481 150.697 216.126 150.456C215.444 150.043 214.528 149.438 213.548 148.728C212.569 148.017 211.705 147.34 211.081 146.851C210.738 146.6 210.417 146.321 210.121 146.016C210.503 146.212 210.863 146.446 211.196 146.716L213.702 148.536C214.662 149.246 215.579 149.865 216.231 150.312C216.592 150.536 216.934 150.79 217.254 151.07Z" fill="#263238"/>
<path d="M208.882 161.515C207.169 161.059 205.129 162.729 204.773 164.467C204.418 166.205 205.071 167.981 205.834 169.579C207.467 173.166 209.89 176.336 212.924 178.853C215.991 181.296 219.836 182.861 223.757 182.841C223.032 179.481 223.949 175.958 223.546 172.541C223.189 169.533 221.823 166.735 219.672 164.603C217.521 162.471 214.71 161.13 211.7 160.8C210.605 160.685 209.338 160.512 208.901 161.525" fill="#DDF235"/>
<path d="M223.758 182.84C223.674 182.811 223.593 182.773 223.518 182.725C223.29 182.604 223.075 182.461 222.875 182.298C222.156 181.671 221.578 180.899 221.18 180.032C220.912 179.504 220.604 178.928 220.307 178.29C220.009 177.651 219.707 176.965 219.385 176.25C219.053 175.5 218.675 174.773 218.252 174.07C217.786 173.325 217.265 172.616 216.692 171.949C215.516 170.571 214.259 169.381 213.169 168.243C212.182 167.247 211.283 166.168 210.481 165.018C209.947 164.236 209.506 163.395 209.166 162.512C209.078 162.27 209.002 162.023 208.94 161.773C208.915 161.688 208.895 161.601 208.883 161.514C208.907 161.514 209.003 161.864 209.252 162.474C209.62 163.335 210.078 164.154 210.62 164.917C211.434 166.044 212.338 167.104 213.323 168.085C214.422 169.208 215.689 170.398 216.875 171.79C217.455 172.467 217.981 173.188 218.449 173.946C218.874 174.657 219.252 175.394 219.582 176.154L220.484 178.203C220.772 178.837 221.07 179.418 221.334 179.95C221.707 180.808 222.251 181.58 222.932 182.221C223.436 182.658 223.772 182.816 223.758 182.84Z" fill="#263238"/>
<path d="M214.896 180.043C214.907 179.655 214.961 179.269 215.055 178.891C215.189 178.186 215.41 177.216 215.703 176.16C215.996 175.104 216.322 174.163 216.576 173.491C216.695 173.119 216.856 172.761 217.056 172.426C216.99 172.809 216.887 173.185 216.749 173.549C216.538 174.231 216.245 175.176 215.948 176.227C215.65 177.279 215.41 178.234 215.232 178.93C215.155 179.311 215.043 179.683 214.896 180.043Z" fill="#263238"/>
<path d="M223.436 171.782C223.026 171.728 222.621 171.636 222.227 171.508C221.487 171.312 220.47 171.028 219.347 170.793C218.223 170.558 217.177 170.337 216.423 170.198C216.013 170.143 215.609 170.053 215.214 169.929C215.629 169.92 216.044 169.954 216.452 170.03C217.211 170.131 218.257 170.304 219.395 170.563C220.532 170.822 221.555 171.11 222.275 171.345C222.676 171.451 223.065 171.597 223.436 171.782Z" fill="#263238"/>
<path d="M208.537 174.182C208.554 173.732 208.617 173.285 208.724 172.847C208.873 172.031 209.113 170.903 209.435 169.675C209.756 168.446 210.097 167.347 210.361 166.559C210.477 166.126 210.638 165.707 210.841 165.307C210.763 165.749 210.653 166.186 210.51 166.612C210.284 167.409 209.968 168.532 209.651 169.737C209.334 170.942 209.065 172.075 208.873 172.886C208.798 173.327 208.686 173.76 208.537 174.182Z" fill="#263238"/>
<path d="M219.505 164.587C219.505 164.649 217.355 164.477 214.705 164.198C213.112 164.071 211.526 163.862 209.953 163.574C211.559 163.621 213.161 163.751 214.753 163.963C216.347 164.091 217.933 164.299 219.505 164.587Z" fill="#263238"/>
<path d="M217.94 190.53C217.94 190.597 210.418 190.65 201.14 190.65C191.861 190.65 184.34 190.597 184.34 190.53C184.34 190.463 191.857 190.41 201.14 190.41C210.423 190.41 217.94 190.468 217.94 190.53Z" fill="#455A64"/>
<path d="M212.703 200.212C212.703 200.274 207.634 200.332 201.385 200.332C195.135 200.332 190.066 200.274 190.066 200.212C190.066 200.149 195.135 200.092 201.385 200.092C207.634 200.092 212.703 200.159 212.703 200.212Z" fill="#455A64"/>
<path d="M212.9 201.599C212.9 201.666 207.832 201.719 201.582 201.719C195.332 201.719 190.264 201.666 190.264 201.599C190.264 201.531 195.332 201.479 201.582 201.479C207.832 201.479 212.9 201.527 212.9 201.599Z" fill="#455A64"/>
<path d="M212.9 199.069C212.9 199.136 207.658 199.189 201.193 199.189C194.727 199.189 189.485 199.136 189.485 199.069C189.485 199.002 194.727 198.949 201.193 198.949C207.658 198.949 212.9 199.002 212.9 199.069Z" fill="#455A64"/>
</svg>
