<svg width="65" height="64" viewBox="0 0 65 64" fill="none" xmlns="http://www.w3.org/2000/svg">
<circle cx="32.5" cy="32" r="32" fill="#34EAB2" fill-opacity="0.2"/>
<path d="M32.7908 50.5935C33.2286 50.5447 33.557 50.4471 33.7759 50.3007C33.9948 50.1542 34.1042 49.9102 34.1042 49.5686C34.1042 49.3246 33.9826 49.1416 33.7394 49.0196C33.4962 48.8976 33.18 48.8366 32.7908 48.8366C30.7963 48.9342 28.5465 48.2632 26.0412 46.8235C23.536 45.3839 21.9915 43.0292 21.4077 39.7595C21.3591 39.3203 21.2496 39.0152 21.0793 38.8444C20.9091 38.6736 20.7023 38.5882 20.4591 38.5882C20.2159 38.5882 20.0091 38.6858 19.8389 38.881C19.6686 39.0763 19.6078 39.3935 19.6565 39.8327C20.3861 43.7368 22.186 46.5185 25.0561 48.1778C27.9262 49.837 30.5044 50.6423 32.7908 50.5935ZM32.4989 56.8889C26.9047 56.8889 22.2468 54.9612 18.5254 51.1059C14.8041 47.2505 12.9434 42.4436 12.9434 36.685C12.9434 32.6832 14.5608 28.2301 17.7958 23.3255C21.0307 18.4209 25.9318 13.0161 32.4989 7.11111C39.0661 13.0161 43.9671 18.4209 47.2021 23.3255C50.437 28.2301 52.0545 32.6832 52.0545 36.685C52.0545 42.4436 50.1938 47.2505 46.4724 51.1059C42.751 54.9612 38.0932 56.8889 32.4989 56.8889ZM32.4989 55.2784C37.6554 55.2784 41.9362 53.5094 45.3414 49.9712C48.7466 46.4331 50.4492 42.0044 50.4492 36.685C50.4492 33.0248 48.929 28.8889 45.8886 24.2771C42.8483 19.6654 38.385 14.6754 32.4989 9.30718C26.6128 14.6754 22.1495 19.6654 19.1092 24.2771C16.0688 28.8889 14.5487 33.0248 14.5487 36.685C14.5487 42.0044 16.2513 46.4331 19.6565 49.9712C23.0617 53.5094 27.3425 55.2784 32.4989 55.2784Z" fill="#8F01DF"/>
</svg>
