<svg width="30" height="30" viewBox="0 0 30 30" fill="none" xmlns="http://www.w3.org/2000/svg">
<path d="M2.5 12.5625V11.3125C2.5 9.04167 3.59375 7.21354 5.78125 5.82812C7.96875 4.44271 11.0417 3.75 15 3.75C18.9583 3.75 22.0312 4.44271 24.2188 5.82812C26.4062 7.21354 27.5 9.04167 27.5 11.3125V12.5625H2.5ZM4.4375 10.6875H25.5625C25.5 9.25 24.4948 8.04688 22.5469 7.07812C20.599 6.10938 18.0833 5.625 15 5.625C11.9167 5.625 9.39062 6.10938 7.42188 7.07812C5.45312 8.04688 4.45833 9.25 4.4375 10.6875ZM2.5 18.0625V16.1875C3.1875 16.1875 3.78646 15.9583 4.29688 15.5C4.80729 15.0417 5.625 14.8125 6.75 14.8125C7.875 14.8125 8.61979 15.0417 8.98438 15.5C9.34896 15.9583 9.95833 16.1875 10.8125 16.1875C11.6667 16.1875 12.2969 15.9583 12.7031 15.5C13.1094 15.0417 13.875 14.8125 15 14.8125C16.125 14.8125 16.8906 15.0417 17.2969 15.5C17.7031 15.9583 18.3333 16.1875 19.1875 16.1875C20.0417 16.1875 20.651 15.9583 21.0156 15.5C21.3802 15.0417 22.125 14.8125 23.25 14.8125C24.375 14.8125 25.1927 15.0417 25.7031 15.5C26.2135 15.9583 26.8125 16.1875 27.5 16.1875V18.0625C26.375 18.0625 25.599 17.8333 25.1719 17.375C24.7448 16.9167 24.1042 16.6875 23.25 16.6875C22.3958 16.6875 21.7865 16.9167 21.4219 17.375C21.0573 17.8333 20.3125 18.0625 19.1875 18.0625C18.0625 18.0625 17.2969 17.8333 16.8906 17.375C16.4844 16.9167 15.8542 16.6875 15 16.6875C14.1458 16.6875 13.5156 16.9167 13.1094 17.375C12.7031 17.8333 11.9375 18.0625 10.8125 18.0625C9.6875 18.0625 8.94271 17.8333 8.57812 17.375C8.21354 16.9167 7.60417 16.6875 6.75 16.6875C5.89583 16.6875 5.25521 16.9167 4.82812 17.375C4.40104 17.8333 3.625 18.0625 2.5 18.0625ZM4.375 26.25C3.875 26.25 3.4375 26.0625 3.0625 25.6875C2.6875 25.3125 2.5 24.875 2.5 24.375V20.375H27.5V24.375C27.5 24.875 27.3125 25.3125 26.9375 25.6875C26.5625 26.0625 26.125 26.25 25.625 26.25H4.375ZM4.375 24.375H25.625V22.25H4.375V24.375ZM4.375 22.25H25.625H4.375ZM4.4375 10.6875H25.5625H4.4375Z" fill="#171433"/>
</svg>
