<svg width="17" height="23" viewBox="0 0 17 23" fill="none" xmlns="http://www.w3.org/2000/svg">
<path d="M8.29794 0.689941C6.19524 0.692323 4.17935 1.52867 2.69251 3.01551C1.20568 4.50234 0.369325 6.51824 0.366943 8.62094C0.366943 14.0479 7.46694 22.0149 7.76694 22.3519C7.83391 22.4266 7.91585 22.4863 8.00742 22.5272C8.099 22.5681 8.19816 22.5892 8.29845 22.5892C8.39873 22.5892 8.49789 22.5681 8.58946 22.5272C8.68104 22.4863 8.76298 22.4266 8.82994 22.3519C9.12994 22.0149 16.2299 14.0519 16.2299 8.62094C16.2276 6.51807 15.3911 4.50202 13.904 3.01516C12.417 1.52829 10.4008 0.692059 8.29794 0.689941ZM8.29794 12.6109C7.5088 12.6109 6.73737 12.3769 6.08121 11.9385C5.42506 11.5001 4.91366 10.8769 4.61166 10.1478C4.30967 9.41877 4.23066 8.61652 4.38461 7.84253C4.53857 7.06855 4.91857 6.3576 5.47659 5.79959C6.0346 5.24157 6.74555 4.86156 7.51953 4.70761C8.29352 4.55365 9.09577 4.63267 9.82485 4.93466C10.5539 5.23666 11.1771 5.74806 11.6155 6.40422C12.0539 7.06037 12.2879 7.83179 12.2879 8.62094C12.2866 9.67875 11.8658 10.6929 11.1178 11.4408C10.3699 12.1888 9.35575 12.6096 8.29794 12.6109Z" fill="#171433" fill-opacity="0.7"/>
</svg>
