<svg width="44" height="44" viewBox="0 0 44 44" fill="none" xmlns="http://www.w3.org/2000/svg">
<rect x="0.25" y="0.25" width="43.5" height="43.5" rx="21.75" fill="#F2FFFB"/>
<rect x="0.25" y="0.25" width="43.5" height="43.5" rx="21.75" stroke="#DFF8F0" stroke-width="0.5"/>
<path d="M19.3218 28.0001L18.0207 28.6322C15.3795 29.3624 14.0588 29.7274 13.3469 28.959C12.6351 28.1906 13.0034 26.7977 13.7401 24.0117L13.9306 23.291C14.14 22.4993 14.2446 22.1035 14.192 21.7109C14.1394 21.3184 13.9354 20.9736 13.5274 20.284L13.156 19.6562C11.7205 17.2296 11.0027 16.0162 11.4821 15.0508C11.9615 14.0854 13.3206 14.0072 16.0387 13.8509L16.742 13.8105C17.5144 13.7661 17.9006 13.7438 18.2374 13.5642C18.5742 13.3845 18.8234 13.0676 19.3218 12.434L19.7756 11.8571C21.5296 9.6272 22.4066 8.51226 23.4148 8.68399C24.4229 8.85572 24.8946 10.2004 25.8379 12.8897L26.0819 13.5855C26.35 14.3497 26.484 14.7318 26.7448 15.0133C27.0055 15.2948 27.3635 15.4437 28.0795 15.7417L28.7314 16.013C31.251 17.0615 32.5108 17.5857 32.6545 18.6573C32.7771 19.5715 32.018 20.3676 30.4664 21.7109" stroke="#8F01DF" stroke-width="1.5"/>
<path d="M26.3348 20.252C25.0193 18.678 24.3615 17.8909 23.6054 18.0122C22.8493 18.1334 22.4956 19.0826 21.7881 20.9809L21.6051 21.472C21.404 22.0115 21.3035 22.2812 21.1079 22.4799C20.9124 22.6786 20.6439 22.7838 20.1069 22.9941L19.618 23.1856C17.7282 23.9257 16.7834 24.2958 16.6756 25.0522C16.5679 25.8086 17.3686 26.4503 18.97 27.7339L19.3843 28.066C19.8394 28.4308 20.0669 28.6131 20.1986 28.8628C20.3303 29.1124 20.3513 29.4011 20.3932 29.9783L20.4314 30.5039C20.579 32.5353 20.6528 33.5511 21.3423 33.8973C22.0318 34.2436 22.8804 33.6911 24.5776 32.586L25.0167 32.3001C25.499 31.9861 25.7401 31.8291 26.0171 31.7847C26.2941 31.7403 26.5756 31.8135 27.1385 31.96L27.651 32.0933C29.6319 32.6087 30.6224 32.8664 31.1563 32.324C31.6902 31.7816 31.414 30.7983 30.8615 28.8317L30.7185 28.323C30.5615 27.7641 30.483 27.4847 30.5225 27.2076C30.562 26.9306 30.715 26.6872 31.0209 26.2004L31.2995 25.7573C32.3762 24.0443 32.9145 23.1879 32.555 22.5064C32.1954 21.8249 31.1761 21.7697 29.1374 21.6594L28.61 21.6309C28.0307 21.5995 27.741 21.5838 27.4885 21.457C27.2359 21.3301 27.049 21.1065 26.6751 20.6592L26.3348 20.252Z" stroke="#34EAB2" stroke-width="1.5"/>
</svg>
