<svg width="26" height="25" viewBox="0 0 26 25" fill="none" xmlns="http://www.w3.org/2000/svg">
<path d="M18.5789 20.6903C17.2046 20.9229 15.7962 20.8541 14.4512 20.4886C13.1061 20.1231 11.8565 19.4697 10.7889 18.5735C9.72132 17.6774 8.8612 16.56 8.2681 15.2987C7.675 14.0373 7.36308 12.6621 7.35394 11.2683C7.3557 9.01413 8.15605 6.83346 9.61294 5.11333C9.66435 5.05279 9.69588 4.97789 9.70327 4.89881C9.71066 4.81973 9.69353 4.74029 9.65422 4.67128C9.61491 4.60227 9.55531 4.54702 9.48352 4.51304C9.41174 4.47906 9.33123 4.46799 9.25294 4.48133C7.61611 4.76748 6.07238 5.444 4.75259 6.45357C3.43279 7.46315 2.37583 8.77601 1.67127 10.2809C0.966709 11.7858 0.635321 13.4383 0.705187 15.0985C0.775054 16.7587 1.24412 18.3776 2.07262 19.818C2.90113 21.2583 4.06466 22.4778 5.46461 23.3729C6.86456 24.268 8.45967 24.8124 10.1148 24.96C11.7698 25.1076 13.4361 24.8541 14.9724 24.2208C16.5086 23.5876 17.8696 22.5933 18.9399 21.3223C18.9913 21.2618 19.0229 21.1869 19.0303 21.1078C19.0377 21.0287 19.0205 20.9493 18.9812 20.8803C18.9419 20.8113 18.8823 20.756 18.8105 20.722C18.7387 20.6881 18.6582 20.677 18.5799 20.6903H18.5789ZM10.9959 24.2263C8.68221 24.2398 6.44222 23.4131 4.69191 21.8999C2.9416 20.3867 1.7999 18.2896 1.47883 15.9983C1.15776 13.7069 1.67912 11.3769 2.94611 9.44082C4.2131 7.50478 6.13962 6.09432 8.36794 5.47133C7.30896 7.02745 6.69565 8.84353 6.59435 10.7231C6.49306 12.6026 6.90764 14.4741 7.79325 16.135C8.67886 17.7959 10.0018 19.1831 11.6189 20.1464C13.236 21.1097 15.0857 21.6125 16.9679 21.6003C17.1919 21.6003 17.4156 21.5933 17.6389 21.5793C15.8486 23.2819 13.4716 24.2301 11.0009 24.2273L10.9959 24.2263Z" fill="#8F01DF"/>
<path d="M12.9029 12.4962L14.4419 12.8962L15.1159 14.3292C15.1453 14.3917 15.1908 14.4452 15.2478 14.4842C15.3047 14.5232 15.371 14.5464 15.4399 14.5512H15.4659C15.5305 14.5511 15.5941 14.5349 15.6509 14.504C15.7076 14.473 15.7558 14.4284 15.7909 14.3742L16.6529 13.0432L18.2319 12.8432C18.3006 12.8347 18.3657 12.8079 18.4205 12.7657C18.4753 12.7235 18.5178 12.6673 18.5435 12.6031C18.5693 12.5388 18.5773 12.4689 18.5668 12.4005C18.5563 12.3321 18.5277 12.2678 18.4839 12.2142L17.4839 10.9882L17.7839 9.4362C17.797 9.36831 17.7917 9.29816 17.7684 9.23303C17.7452 9.16791 17.705 9.11019 17.6519 9.06589C17.5988 9.02158 17.5348 8.99231 17.4666 8.98111C17.3984 8.96991 17.3284 8.97719 17.2639 9.0022L15.7809 9.5752L14.3879 8.8092C14.3274 8.77587 14.259 8.75936 14.1899 8.7614C14.1208 8.76344 14.0535 8.78395 13.995 8.8208C13.9365 8.85765 13.889 8.90949 13.8573 8.97093C13.8256 9.03238 13.811 9.10118 13.8149 9.1702L13.9039 10.7492L12.7429 11.8302C12.6921 11.8774 12.6549 11.9373 12.6352 12.0038C12.6154 12.0702 12.6139 12.1408 12.6308 12.208C12.6477 12.2753 12.6823 12.3367 12.731 12.386C12.7798 12.4353 12.8409 12.4706 12.9079 12.4882L12.9029 12.4962ZM14.5589 11.1962C14.6006 11.1575 14.6332 11.1101 14.6544 11.0574C14.6757 11.0047 14.6851 10.948 14.6819 10.8912L14.6219 9.8282L15.5599 10.3442C15.6094 10.3714 15.6642 10.3874 15.7205 10.3912C15.7768 10.395 15.8332 10.3865 15.8859 10.3662L16.8859 9.98019L16.6859 11.0242C16.6751 11.0801 16.6768 11.1376 16.6908 11.1927C16.7048 11.2479 16.7308 11.2993 16.7669 11.3432L17.4419 12.1662L16.3809 12.2982C16.3249 12.3052 16.271 12.3244 16.2231 12.3545C16.1753 12.3846 16.1346 12.4247 16.1039 12.4722L15.5229 13.3722L15.0689 12.4062C15.0448 12.3549 15.0097 12.3095 14.9662 12.2733C14.9227 12.237 14.8717 12.2107 14.8169 12.1962L13.7839 11.9252L14.5589 11.1962Z" fill="#8F01DF"/>
<path d="M17.5409 5.97329L19.7999 6.56729L20.7899 8.66729C20.8192 8.72983 20.8647 8.78341 20.9217 8.82244C20.9786 8.86148 21.045 8.88456 21.1139 8.88929H21.1399C21.2046 8.88927 21.2682 8.87307 21.325 8.84215C21.3817 8.81123 21.4299 8.76659 21.4649 8.71229L22.7289 6.75929L25.0479 6.47129C25.1166 6.46277 25.1817 6.436 25.2365 6.39377C25.2913 6.35154 25.3338 6.29538 25.3596 6.23115C25.3853 6.16692 25.3933 6.09697 25.3828 6.02858C25.3724 5.96019 25.3437 5.89586 25.2999 5.84229L23.8249 4.04229L24.2659 1.76129C24.279 1.69339 24.2736 1.62324 24.2504 1.55811C24.2272 1.49298 24.187 1.43527 24.1339 1.39097C24.0808 1.34666 24.0168 1.31739 23.9486 1.30619C23.8803 1.29499 23.8104 1.30228 23.7459 1.32729L21.5679 2.17029L19.5229 1.04529C19.4624 1.01195 19.394 0.995444 19.3249 0.997483C19.2558 0.999522 19.1885 1.02003 19.13 1.05688C19.0715 1.09373 19.024 1.14557 18.9923 1.20702C18.9606 1.26846 18.946 1.33727 18.9499 1.40629L19.0809 3.72629L17.3769 5.31529C17.3261 5.36244 17.2889 5.42239 17.2692 5.48885C17.2494 5.55531 17.2479 5.62585 17.2648 5.69309C17.2817 5.76034 17.3163 5.82182 17.365 5.87111C17.4138 5.9204 17.4749 5.95569 17.5419 5.97329H17.5409ZM19.7409 4.17329C19.7825 4.13456 19.8151 4.08717 19.8363 4.03446C19.8576 3.98176 19.867 3.92503 19.8639 3.86829L19.7639 2.06829L21.3549 2.94329C21.4044 2.97044 21.4592 2.98648 21.5155 2.99028C21.5718 2.99408 21.6282 2.98555 21.6809 2.96529L23.3769 2.30429L23.0349 4.07729C23.0241 4.13314 23.0258 4.19069 23.0398 4.24583C23.0538 4.30096 23.0798 4.35234 23.1159 4.39629L24.2609 5.79629L22.4609 6.02029C22.4048 6.02724 22.3509 6.04643 22.3031 6.07649C22.2552 6.10656 22.2145 6.14677 22.1839 6.19429L21.2009 7.71329L20.4299 6.07729C20.4058 6.02615 20.3707 5.98093 20.3271 5.94483C20.2836 5.90872 20.2326 5.88259 20.1779 5.86829L18.4239 5.40729L19.7409 4.17329Z" fill="#8F01DF"/>
<path d="M24.2949 16.0083L24.5949 14.4542C24.608 14.3863 24.6027 14.3162 24.5794 14.2511C24.5562 14.186 24.516 14.1282 24.4629 14.0839C24.4098 14.0396 24.3458 14.0104 24.2776 13.9992C24.2094 13.988 24.1394 13.9952 24.0749 14.0202L22.5919 14.5932L21.1989 13.8282C21.1384 13.7949 21.07 13.7784 21.0009 13.7804C20.9318 13.7825 20.8645 13.803 20.806 13.8398C20.7475 13.8767 20.7 13.9285 20.6683 13.99C20.6366 14.0514 20.622 14.1202 20.6259 14.1893L20.7149 15.7673L19.5529 16.8483C19.5021 16.8954 19.4649 16.9553 19.4452 17.0218C19.4254 17.0883 19.4239 17.1588 19.4408 17.2261C19.4577 17.2933 19.4923 17.3548 19.541 17.4041C19.5898 17.4534 19.6509 17.4886 19.7179 17.5062L21.2569 17.9062L21.9319 19.3382C21.9613 19.4006 22.0069 19.454 22.0639 19.4928C22.1208 19.5317 22.1871 19.5546 22.2559 19.5593H22.2819C22.3466 19.5592 22.4102 19.543 22.4669 19.5121C22.5237 19.4812 22.5719 19.4365 22.6069 19.3822L23.4669 18.0523L25.0459 17.8573C25.1146 17.8487 25.1797 17.822 25.2345 17.7797C25.2893 17.7375 25.3318 17.6813 25.3575 17.6171C25.3833 17.5529 25.3913 17.4829 25.3808 17.4145C25.3703 17.3461 25.3417 17.2818 25.2979 17.2283L24.2949 16.0083ZM23.1949 17.3082C23.1387 17.3151 23.0846 17.3343 23.0366 17.3643C22.9886 17.3944 22.9477 17.4347 22.9169 17.4823L22.3369 18.3822L21.8819 17.4173C21.8579 17.3662 21.823 17.321 21.7796 17.2849C21.7363 17.2488 21.6855 17.2226 21.6309 17.2082L20.5969 16.9362L21.3769 16.2092C21.4186 16.1706 21.4512 16.1232 21.4724 16.0705C21.4937 16.0177 21.5031 15.961 21.4999 15.9043L21.4399 14.8422L22.3789 15.3583C22.4284 15.3854 22.4832 15.4013 22.5395 15.4051C22.5958 15.4089 22.6522 15.4004 22.7049 15.3802L23.7049 14.9942L23.5049 16.0402C23.4942 16.0961 23.4958 16.1536 23.5098 16.2088C23.5238 16.2639 23.5498 16.3153 23.5859 16.3592L24.2599 17.1813L23.1949 17.3082Z" fill="#8F01DF"/>
</svg>
