<svg width="37" height="36" viewBox="0 0 37 36" fill="none" xmlns="http://www.w3.org/2000/svg">
<path d="M22.4151 6.11799L23.8054 4.72767C26.109 2.42411 29.8438 2.42411 32.1473 4.72767C34.4509 7.03122 34.4509 10.766 32.1473 13.0696L30.757 14.4599M22.4151 6.11799C22.4151 6.11799 22.5889 9.07241 25.1957 11.6793C27.8026 14.2861 30.757 14.4599 30.757 14.4599M22.4151 6.11799L9.63324 18.8998C8.76749 19.7656 8.33462 20.1985 7.96235 20.6758C7.5232 21.2388 7.1467 21.848 6.83951 22.4925C6.5791 23.039 6.38551 23.6197 5.99834 24.7812L4.35771 29.7031M30.757 14.4599L29.1593 16.0576M14.3825 30.0355C13.836 30.2959 13.2553 30.4895 12.0938 30.8767L7.17188 32.5173M7.17188 32.5173L5.96876 32.9183C5.39717 33.1089 4.76699 32.9601 4.34095 32.5341C3.91491 32.108 3.76614 31.4778 3.95667 30.9062L4.35771 29.7031M7.17188 32.5173L4.35771 29.7031" stroke="#8F01DF" stroke-width="1.5" stroke-linecap="round" stroke-linejoin="round"/>
<circle cx="24.125" cy="25.5" r="7.5" stroke="#34EAB2" stroke-width="1.5"/>
<path d="M27.125 25.5L24.125 25.5M24.125 25.5L21.125 25.5M24.125 25.5L24.125 22.5M24.125 25.5L24.125 28.5" stroke="#8F01DF" stroke-width="1.5" stroke-linecap="round"/>
</svg>
