<svg width="37" height="36" viewBox="0 0 37 36" fill="none" xmlns="http://www.w3.org/2000/svg">
<path d="M4.875 10.5C4.875 7.67157 4.875 6.25736 5.75368 5.37868C6.63236 4.5 8.04657 4.5 10.875 4.5H19.875C22.7034 4.5 24.1176 4.5 24.9963 5.37868C25.875 6.25736 25.875 7.67157 25.875 10.5V18C25.875 22.2426 25.875 24.364 24.557 25.682C23.239 27 21.1176 27 16.875 27H13.875C9.63236 27 7.51104 27 6.19302 25.682C4.875 24.364 4.875 22.2426 4.875 18V10.5Z" stroke="#8F01DF" stroke-width="1.5"/>
<path d="M25.875 19.5H27.375C30.6887 19.5 33.375 16.8137 33.375 13.5C33.375 10.1863 30.6887 7.5 27.375 7.5H25.875" stroke="#8F01DF" stroke-width="1.5"/>
<path opacity="0.5" d="M25.875 19.5H4.875" stroke="#34EAB2" stroke-width="1.5"/>
<path opacity="0.5" d="M33.375 31.5L3.375 31.5" stroke="#34EAB2" stroke-width="1.5" stroke-linecap="round"/>
</svg>
