<svg width="24" height="24" viewBox="0 0 24 24" fill="none" xmlns="http://www.w3.org/2000/svg">
<path fill-rule="evenodd" clip-rule="evenodd" d="M11.9997 3.76491C14.7058 3.76491 14.9999 3.76491 16.0588 3.82374C17.0589 3.88257 17.5883 4.05906 17.9413 4.17672C18.4119 4.35321 18.7649 4.58854 19.1178 4.94152C19.4708 5.2945 19.7061 5.64748 19.8826 6.11812C20.0002 6.47111 20.1767 7.00058 20.2356 8.0007V12.0012V12.0014C20.2356 14.7074 20.2356 15.0015 20.1767 16.0605C20.1179 17.0606 19.9414 17.59 19.8238 17.943C19.6473 18.4137 19.412 18.7667 19.059 19.1196C18.706 19.4726 18.3531 19.7079 17.8825 19.8844C17.5295 20.0021 17 20.1786 16 20.2374H11.9997C9.29364 20.2374 8.9995 20.2374 7.94061 20.1786C6.94054 20.1198 6.41109 19.9433 6.05812 19.8256C5.5875 19.6491 5.23454 19.4138 4.88157 19.0608C4.52861 18.7078 4.2933 18.3548 4.11682 17.8842C3.99916 17.5312 3.82268 17.0017 3.76385 16.0016V12.0012C3.76385 9.29496 3.76385 9.00081 3.82268 7.94187C3.8815 6.94175 4.05799 6.41228 4.17564 6.05929C4.35213 5.58865 4.58744 5.23567 4.9404 4.88269C5.29337 4.52971 5.64633 4.29438 6.11695 4.11789C6.46992 4.00023 6.99936 3.82374 7.99943 3.76491H11.9997ZM11.9997 2C9.29364 2 8.94067 2 7.88178 2.05883C6.82288 2.11766 6.11695 2.29415 5.46985 2.52947C4.82275 2.76479 4.23447 3.11778 3.70502 3.70608C3.17557 4.29438 2.82261 4.82386 2.52847 5.47099C2.29316 6.11812 2.11668 6.82409 2.05785 7.88304C1.99902 8.94198 1.99902 9.29496 1.99902 12.0012C1.99902 14.7074 1.99902 15.0603 2.05785 16.1193C2.11668 17.1782 2.29316 17.8842 2.52847 18.5313C2.76378 19.1785 3.11675 19.7668 3.70502 20.2962C4.23447 20.8257 4.82275 21.1787 5.46985 21.4728C6.11695 21.7082 6.82288 21.8847 7.88178 21.9435C8.94067 22.0023 9.29364 22.0023 11.9997 22.0023C14.7058 22.0023 15.0587 22.0023 16.1176 21.9435C17.1765 21.8847 17.8825 21.7082 18.5296 21.4728C19.1767 21.2375 19.7649 20.8845 20.2944 20.2962C20.8238 19.7668 21.1768 19.1785 21.4709 18.5313C21.7062 17.8842 21.8827 17.1782 21.9416 16.1193C22.0004 15.0604 22.0004 14.7074 22.0004 12.0014V12.0012V12.0009C22.0004 9.29494 22.0004 8.94195 21.9416 7.88304C21.8827 6.82409 21.7062 6.11812 21.4709 5.47099C21.2356 4.82386 20.8827 4.23555 20.2944 3.70608C19.7061 3.17661 19.1767 2.82362 18.5296 2.52947C17.8825 2.29415 17.1765 2.11766 16.1176 2.05883C15.0587 2 14.7058 2 11.9997 2ZM12.0007 6.70718C9.0593 6.70718 6.7062 9.06039 6.7062 12.0019C6.7062 14.9434 9.0593 17.2966 12.0007 17.2966C14.9421 17.2966 17.2952 14.9434 17.2952 12.0019C17.2952 9.06039 14.9421 6.70718 12.0007 6.70718ZM12.0007 15.5317C10.0594 15.5317 8.47103 13.9433 8.47103 12.0019C8.47103 10.0605 10.0594 8.47209 12.0007 8.47209C13.942 8.47209 15.5303 10.0605 15.5303 12.0019C15.5303 13.9433 13.942 15.5317 12.0007 15.5317ZM18.4724 6.70455C18.4724 7.35437 17.9457 7.88116 17.2959 7.88116C16.6461 7.88116 16.1193 7.35437 16.1193 6.70455C16.1193 6.05473 16.6461 5.52794 17.2959 5.52794C17.9457 5.52794 18.4724 6.05473 18.4724 6.70455Z" fill="url(#paint0_radial_1241_8076)"/>
<defs>
<radialGradient id="paint0_radial_1241_8076" cx="0" cy="0" r="1" gradientUnits="userSpaceOnUse" gradientTransform="translate(6.13362 26.0444) rotate(-49.9464) scale(30.2836 20.0047)">
<stop offset="0.073" stop-color="#EACC7B"/>
<stop offset="0.184" stop-color="#ECAA59"/>
<stop offset="0.307" stop-color="#EF802E"/>
<stop offset="0.358" stop-color="#EF6D3A"/>
<stop offset="0.46" stop-color="#F04B50"/>
<stop offset="0.516" stop-color="#F03E58"/>
<stop offset="0.689" stop-color="#DB359E"/>
<stop offset="0.724" stop-color="#CE37A4"/>
<stop offset="0.789" stop-color="#AC3CB4"/>
<stop offset="0.877" stop-color="#7544CF"/>
<stop offset="0.98" stop-color="#2B4FF2"/>
</radialGradient>
</defs>
</svg>
