<svg width="24" height="24" viewBox="0 0 24 24" fill="none" xmlns="http://www.w3.org/2000/svg">
<path d="M6.27394 16.9344C5.2141 16.9344 4.35207 16.5514 3.70566 15.7911C3.05926 15.0308 2.63504 13.9025 2.38801 12.261C2.02426 9.84176 2.38519 7.8027 3.40426 6.51973C4.00426 5.7641 4.79176 5.32723 5.68144 5.25692C6.44316 5.19598 7.58176 5.50488 8.68144 7.31942C9.37004 8.45567 9.89363 9.96504 10.1182 11.4604C10.3896 13.2655 10.1875 14.5944 9.50035 15.5221C8.95473 16.2589 8.11566 16.7155 7.00613 16.8814C6.7637 16.9171 6.51898 16.9348 6.27394 16.9344ZM8.11004 23.2499C7.49082 23.2499 6.86316 23.0516 6.29785 22.6705C5.48213 22.1177 4.9175 21.2654 4.7266 20.2986C4.59301 19.6114 4.67316 19.0654 4.97129 18.628C5.45551 17.9179 6.32457 17.758 7.24426 17.5883C7.34129 17.5705 7.43973 17.5527 7.53957 17.5335C7.75144 17.4932 7.96801 17.4397 8.17801 17.3877C8.96457 17.1936 9.77832 16.9925 10.45 17.4697C10.8996 17.7885 11.1532 18.3304 11.2291 19.1254C11.3154 20.0427 11.1185 20.9582 10.6746 21.7035C10.1969 22.5055 9.48066 23.0357 8.65894 23.1969C8.47811 23.2322 8.29429 23.25 8.11004 23.2499ZM17.7274 12.4344C17.4826 12.4335 17.2382 12.4147 16.9961 12.3782C15.8871 12.2141 15.048 11.7571 14.5024 11.0188C13.8152 10.0911 13.6118 8.7627 13.8846 6.95707C14.1091 5.46035 14.6313 3.95238 15.3166 2.82035C16.4107 1.01238 17.5507 0.698791 18.3166 0.754103C19.2035 0.818791 19.9896 1.24957 20.5905 2.00098C21.6166 3.28395 21.9803 5.3291 21.6152 7.7591C21.3682 9.39973 20.9496 10.5224 20.2975 11.2893C19.6455 12.0561 18.7872 12.4344 17.7274 12.4344ZM15.8913 18.7499C15.7075 18.7499 15.5242 18.7321 15.3438 18.6969C14.5207 18.5357 13.8044 18.0055 13.3282 17.2035C12.8843 16.4582 12.6874 15.5427 12.7736 14.6254C12.8486 13.8285 13.1018 13.2885 13.5527 12.9693C14.2244 12.4925 15.0382 12.6932 15.8247 12.8877C16.0347 12.9393 16.2513 12.9927 16.4632 13.0335L16.758 13.0883C17.6782 13.2575 18.5472 13.4164 19.0314 14.1275C19.3296 14.5649 19.4097 15.1119 19.2761 15.7982C19.0854 16.7651 18.5208 17.6177 17.7049 18.1705C17.1363 18.5521 16.5086 18.7499 15.8913 18.7499Z" fill="#808080"/>
</svg>
