<svg width="16" height="16" viewBox="0 0 16 16" fill="none" xmlns="http://www.w3.org/2000/svg">
<path d="M13.713 9.90732L14.6663 8.95398L13.713 8.00065L11.333 10.3807L5.61967 4.66732L7.99967 2.28732L7.04634 1.33398L6.09301 2.28732L5.13967 1.33398L3.71301 2.76065L2.75967 1.80732L1.80634 2.76065L2.75967 3.71398L1.33301 5.14065L2.28634 6.09398L1.33301 7.04732L2.28634 8.00065L4.66634 5.62065L10.3797 11.334L7.99967 13.714L8.95301 14.6673L9.90634 13.714L10.8597 14.6673L12.2863 13.2407L13.2397 14.194L14.193 13.2407L13.2397 12.2873L14.6663 10.8607L13.713 9.90732Z" fill="#505050"/>
</svg>
