<?xml version="1.0" encoding="UTF-8" standalone="no"?>
<!-- Created with Inkscape (http://www.inkscape.org/) -->

<svg
   version="1.1"
   id="svg2"
   xml:space="preserve"
   width="1440"
   height="1440"
   viewBox="0 0 1440 1440"
   sodipodi:docname="FA_Livewell_Logo.ai"
   xmlns:inkscape="http://www.inkscape.org/namespaces/inkscape"
   xmlns:sodipodi="http://sodipodi.sourceforge.net/DTD/sodipodi-0.dtd"
   xmlns="http://www.w3.org/2000/svg"
   xmlns:svg="http://www.w3.org/2000/svg"><defs
     id="defs6"><clipPath
       clipPathUnits="userSpaceOnUse"
       id="clipPath16"><path
         d="M 0,1080 H 1080 V 0 H 0 Z"
         id="path14" /></clipPath></defs><sodipodi:namedview
     id="namedview4"
     pagecolor="#ffffff"
     bordercolor="#666666"
     borderopacity="1.0"
     inkscape:pageshadow="2"
     inkscape:pageopacity="0.0"
     inkscape:pagecheckerboard="0" /><g
     id="g8"
     inkscape:groupmode="layer"
     inkscape:label="FA_Livewell_Logo"
     transform="matrix(1.3333333,0,0,-1.3333333,0,1440)"><g
       id="g10"><g
         id="g12"
         clip-path="url(#clipPath16)"><g
           id="g18"
           transform="translate(281.8086,487.2236)"><path
             d="m 0,0 h -14.796 v 90.488 c 0,4.086 3.312,7.398 7.398,7.398 4.085,0 7.398,-3.312 7.398,-7.398 z"
             style="fill:#8f01df;fill-opacity:1;fill-rule:nonzero;stroke:none"
             id="path20" /></g><g
           id="g22"
           transform="translate(318.1514,487.2236)"><path
             d="m 0,0 h -14.796 v 62.032 c 0,4.087 3.312,7.399 7.398,7.399 4.086,0 7.398,-3.312 7.398,-7.399 z"
             style="fill:#8f01df;fill-opacity:1;fill-rule:nonzero;stroke:none"
             id="path24" /></g><g
           id="g26"
           transform="translate(364.2495,487.2236)"><path
             d="m 0,0 c -0.029,0 -0.059,0 -0.088,0 -2.777,0.033 -5.288,1.626 -6.459,4.097 l -26.179,55.268 c -1.679,3.546 -0.11,7.757 3.505,9.405 3.616,1.647 7.908,0.108 9.588,-3.438 L 0.201,23.459 20.846,64.423 c 1.765,3.506 6.093,4.944 9.669,3.21 3.574,-1.734 5.039,-5.98 3.272,-9.486 L 6.47,3.943 C 5.252,1.527 2.743,0 0,0"
             style="fill:#8f01df;fill-opacity:1;fill-rule:nonzero;stroke:none"
             id="path28" /></g><g
           id="g30"
           transform="translate(521.3218,487.2236)"><path
             d="m 0,0 h -0.06 c -2.787,0.023 -5.312,1.649 -6.487,4.177 l -26.179,56.341 c -1.679,3.615 -0.11,7.908 3.505,9.588 3.616,1.68 7.908,0.111 9.588,-3.504 L 0.139,24.05 20.821,66.708 c 1.74,3.589 6.058,5.087 9.644,3.347 3.588,-1.74 5.086,-6.057 3.347,-9.644 L 6.495,4.069 C 5.288,1.579 2.764,0 0,0"
             style="fill:#8f01df;fill-opacity:1;fill-rule:nonzero;stroke:none"
             id="path32" /></g><g
           id="g34"
           transform="translate(574.8179,487.2236)"><path
             d="m 0,0 c -0.03,0 -0.059,0 -0.088,0 -2.777,0.034 -5.288,1.658 -6.459,4.177 l -26.179,56.341 c -1.679,3.615 -0.11,7.908 3.505,9.588 3.615,1.68 7.907,0.111 9.588,-3.504 L 0.201,23.915 20.845,65.675 c 1.767,3.574 6.094,5.039 9.67,3.272 3.574,-1.767 5.039,-6.096 3.272,-9.67 L 6.47,4.02 C 5.252,1.556 2.743,0 0,0"
             style="fill:#8f01df;fill-opacity:1;fill-rule:nonzero;stroke:none"
             id="path36" /></g><g
           id="g38"
           transform="translate(423.8945,529.3389)"><path
             d="M 0,0 H 40.914 C 37.681,9.02 28.857,14.929 19.038,14.316 10.396,13.78 2.924,7.882 0,0 m 20.881,-43.957 c -0.235,0 -0.411,0.002 -0.521,0.004 -10.019,0.022 -19.696,4.22 -26.561,11.525 -6.98,7.426 -10.475,17.139 -9.841,27.349 1.137,18.338 15.825,33.025 34.163,34.163 17.964,1.12 33.919,-10.769 37.943,-28.259 0.874,-3.793 -0.021,-7.721 -2.454,-10.777 -2.45,-3.079 -6.111,-4.845 -10.043,-4.845 H -0.038 c 0.993,-2.751 2.548,-5.294 4.619,-7.498 4.158,-4.425 9.791,-6.861 15.859,-6.861 l 0.196,-0.003 c 0.08,-0.002 10.046,-0.17 18.557,3.613 l 6.01,-13.521 c -10.317,-4.586 -21.532,-4.89 -24.322,-4.89"
             style="fill:#8f01df;fill-opacity:1;fill-rule:nonzero;stroke:none"
             id="path40" /></g><g
           id="g42"
           transform="translate(773.1011,580.0342)"><path
             d="m 0,0 c -0.376,0 -1.538,-0.541 -2.355,-1.626 -2.446,-3.245 -2.759,-9.192 -2.759,-14.011 0,-5.368 1.243,-11.763 3.46,-18.399 4.432,9.902 7.381,22.49 3.591,31.192 C 1.108,-0.938 0.387,-0.245 0.03,-0.001 0.021,0 0.011,0 0,0 m -60.339,-0.072 c -0.328,0 -1.501,-0.557 -2.317,-1.653 -2.467,-3.311 -2.783,-9.358 -2.783,-14.256 0,-5.923 1.073,-12.785 2.979,-19.713 4.701,10.192 8.002,23.56 4.061,32.716 -0.839,1.948 -1.568,2.657 -1.929,2.906 -0.003,0 -0.007,0 -0.011,0 m -82.422,-50.667 h 40.075 c 0.318,0 0.507,0.181 0.61,0.333 0.144,0.212 0.099,0.323 0.07,0.396 -3.502,8.764 -12.211,14.253 -21.659,13.672 -8.679,-0.539 -16.18,-6.475 -19.096,-14.401 m 24.623,-44.079 c -2.18,0 -3.759,0.128 -4.569,0.213 -9.876,0.123 -19.39,4.302 -26.163,11.509 -6.972,7.418 -10.463,17.119 -9.83,27.317 1.137,18.317 15.807,32.987 34.124,34.124 15.802,0.987 30.366,-8.22 36.231,-22.895 1.861,-4.654 1.28,-9.927 -1.551,-14.106 -2.881,-4.255 -7.662,-6.795 -12.79,-6.795 h -40.111 c 0.993,-2.778 2.558,-5.347 4.648,-7.57 4.166,-4.433 9.809,-6.875 15.889,-6.875 h 0.526 l 0.521,-0.075 c 1.29,-0.167 28.9,-3.357 49.268,26.575 -5.237,12.51 -8.207,26.086 -8.207,37.415 0,7.614 0.677,16.307 5.698,23.046 4.894,6.567 14.442,10.538 22.502,4.958 2.983,-2.065 5.293,-5.069 7.065,-9.184 1.97,-4.575 7.393,-21.46 -5.306,-46.974 -1.6,-3.663 -3.296,-7.059 -5.065,-10.207 0.289,-0.564 0.583,-1.121 0.882,-1.672 6.758,-12.477 15.13,-20.237 22.49,-20.883 8.344,0.848 14.212,8.742 21.878,24.671 -6.142,12.601 -9.819,26.011 -9.819,36.589 0,7.552 0.681,16.175 5.723,22.866 4.887,6.483 14.414,10.407 22.444,4.91 2.99,-2.046 5.307,-5.026 7.086,-9.109 1.976,-4.539 7.419,-21.283 -5.307,-46.561 -1.242,-2.823 -2.465,-5.603 -3.687,-8.315 0.673,-1.159 1.371,-2.303 2.09,-3.427 8.246,-12.884 18.143,-21.157 25.878,-21.645 h 5.487 V -91.63 l -6.054,0.009 c -13.082,0.647 -25.43,10.834 -34.976,24.339 -7.573,-13.659 -16.406,-23.358 -30.159,-24.33 l -0.443,-0.031 -0.443,0.022 c -12.784,0.64 -23.947,10.435 -32.278,23.697 -10.443,-12.775 -21.942,-19.354 -31.071,-22.743 -9.343,-3.468 -17.571,-4.151 -22.601,-4.151"
             style="fill:#8f01df;fill-opacity:1;fill-rule:nonzero;stroke:none"
             id="path44" /></g><g
           id="g46"
           transform="translate(354.5591,497.957)"><path
             d="m 0,0 4.757,-10.733 h 9.486 L 19.583,0 Z"
             style="fill:#8f01df;fill-opacity:1;fill-rule:nonzero;stroke:none"
             id="path48" /></g><g
           id="g50"
           transform="translate(511.7075,497.957)"><path
             d="m 0,0 4.758,-10.733 h 9.485 l 5.34,11.234 z"
             style="fill:#8f01df;fill-opacity:1;fill-rule:nonzero;stroke:none"
             id="path52" /></g><g
           id="g54"
           transform="translate(565.2139,497.957)"><path
             d="m 0,0 4.758,-10.733 h 9.485 l 5.34,11.234 z"
             style="fill:#8f01df;fill-opacity:1;fill-rule:nonzero;stroke:none"
             id="path56" /></g><g
           id="g58"
           transform="translate(318.8403,577.0225)"><path
             d="m 0,0 c 0,-4.467 -3.621,-8.087 -8.087,-8.087 -4.467,0 -8.087,3.62 -8.087,8.087 0,4.466 3.62,8.087 8.087,8.087 C -3.621,8.087 0,4.466 0,0"
             style="fill:#8f01df;fill-opacity:1;fill-rule:nonzero;stroke:none"
             id="path60" /></g></g></g></g></svg>
