<?xml version="1.0" encoding="UTF-8" standalone="no"?>
<!-- Created with Inkscape (http://www.inkscape.org/) -->

<svg
   version="1.1"
   id="svg2"
   xml:space="preserve"
   width="1440"
   height="1440"
   viewBox="0 0 1440 1440"
   sodipodi:docname="FA_Livewell_Supergraphic.ai"
   xmlns:inkscape="http://www.inkscape.org/namespaces/inkscape"
   xmlns:sodipodi="http://sodipodi.sourceforge.net/DTD/sodipodi-0.dtd"
   xmlns="http://www.w3.org/2000/svg"
   xmlns:svg="http://www.w3.org/2000/svg"><defs
     id="defs6"><clipPath
       clipPathUnits="userSpaceOnUse"
       id="clipPath16"><path
         d="M 0,1080 H 1080 V 0 H 0 Z"
         id="path14" /></clipPath></defs><sodipodi:namedview
     id="namedview4"
     pagecolor="#ffffff"
     bordercolor="#666666"
     borderopacity="1.0"
     inkscape:pageshadow="2"
     inkscape:pageopacity="0.0"
     inkscape:pagecheckerboard="0" /><g
     id="g8"
     inkscape:groupmode="layer"
     inkscape:label="FA_Livewell_Supergraphic"
     transform="matrix(1.3333333,0,0,-1.3333333,0,1440)"><g
       id="g10"><g
         id="g12"
         clip-path="url(#clipPath16)"><g
           id="g18"
           transform="translate(776.5283,576.6147)"><path
             d="m 0,0 c -16.196,48.478 -25.282,95.197 -25.282,134.409 0,35.205 2.29,78.653 20.154,102.359 5.977,7.93 14.459,11.88 17.211,11.88 0.077,0 0.15,-0.004 0.219,-0.008 2.602,-1.782 7.873,-6.846 13.934,-20.767 C 53.918,164.296 32.379,72.334 0,0 m -444.219,-12.115 c -13.922,50.617 -21.762,100.747 -21.762,144.011 0,35.782 2.311,79.959 20.337,104.154 5.96,8.002 14.523,12.074 16.923,12.074 0.032,0 0.06,0 0.085,-0.003 2.631,-1.82 7.958,-7 14.084,-21.227 28.795,-66.894 4.677,-164.551 -29.667,-239.009 m 707.606,-301.154 c -56.509,3.565 -128.811,63.999 -189.051,158.124 -5.253,8.21 -10.349,16.566 -15.27,25.035 8.933,19.809 17.869,40.118 26.939,60.743 92.968,184.666 53.207,306.992 38.77,340.151 -12.992,29.829 -29.927,51.595 -51.766,66.545 -58.665,40.158 -128.262,11.49 -163.963,-35.871 -36.837,-48.884 -41.807,-111.876 -41.807,-167.049 0,-77.272 26.862,-175.242 71.73,-267.296 -56.005,-116.366 -98.872,-174.036 -159.826,-180.231 -53.768,4.722 -114.933,61.412 -164.304,152.557 -2.18,4.028 -4.327,8.101 -6.439,12.217 12.923,22.997 25.311,47.804 37,74.568 92.773,186.387 53.155,309.74 38.766,343.167 -12.944,30.057 -29.826,52.002 -51.617,67.093 -58.879,40.76 -128.632,11.754 -164.381,-36.22 -36.683,-49.237 -41.627,-112.741 -41.627,-168.368 0,-82.757 21.696,-181.941 59.955,-273.325 -33.083,-48.619 -73.013,-93.566 -120.826,-128.148 -16.046,-11.606 -33.009,-22.016 -50.888,-30.559 -17.408,-8.318 -36.269,-17.302 -55.92,-17.882 -2.895,-0.086 -35.39,0.19 -35.39,0.065 v -111.468 c 15.331,0 30.759,-0.904 46.017,1.036 16.052,2.042 29.696,9.12 44.656,14.674 66.691,24.754 150.694,72.822 226.983,166.143 60.865,-96.882 142.416,-168.441 235.81,-173.111 l 3.236,-0.162 3.232,0.228 c 100.471,7.096 165.002,77.949 220.325,177.738 69.737,-98.66 159.948,-173.082 255.51,-177.808 l 44.231,-0.065 v 107.479 z"
             style="fill:#34eab2;fill-opacity:1;fill-rule:nonzero;stroke:none"
             id="path20" /></g></g></g></g></svg>
