<svg width="18" height="18" viewBox="0 0 18 18" fill="none" xmlns="http://www.w3.org/2000/svg">
<path d="M15.339 5.87078C15.2652 5.91698 13.5084 6.89198 13.5084 9.05378C13.5912 11.5192 15.7254 12.3838 15.762 12.3838C15.7254 12.43 15.4398 13.5616 14.5938 14.7478C13.9224 15.7696 13.1772 16.7998 12.0456 16.7998C10.9692 16.7998 10.5828 16.1188 9.3408 16.1188C8.007 16.1188 7.6296 16.7998 6.6084 16.7998C5.4768 16.7998 4.6764 15.7144 3.9684 14.7022C3.0486 13.3774 2.2668 11.2984 2.2392 9.30218C2.2206 8.24438 2.4234 7.20458 2.9382 6.32138C3.6648 5.08838 4.962 4.25138 6.3786 4.22378C7.464 4.18718 8.43 4.96898 9.0924 4.96898C9.7272 4.96898 10.914 4.22378 12.2568 4.22378C12.8364 4.22438 14.382 4.39898 15.339 5.87078ZM9.0006 4.01258C8.8074 3.04658 9.3408 2.08058 9.8376 1.46438C10.4724 0.719179 11.475 0.213379 12.3396 0.213379C12.3948 1.17938 12.045 2.12678 11.4198 2.81678C10.8588 3.56198 9.8928 4.12298 9.0006 4.01258Z" fill="white"/>
</svg>
