<svg width="108" height="138" viewBox="0 0 108 138" fill="none" xmlns="http://www.w3.org/2000/svg">
<path d="M67.5752 103.874H39.9902V114.031H67.5752V103.874Z" fill="#59ACBE"/>
<path d="M64.8492 91.9021H42.4382C42.4382 91.9021 43.0062 106.054 40.2612 110.162H67.3112C64.5652 106.054 64.8492 91.9021 64.8492 91.9021Z" fill="#F3A77A"/>
<g style="mix-blend-mode:multiply">
<path d="M42.156 102.592C45.347 104.656 50.139 105.692 53.956 105.726C57.9062 105.688 61.8038 104.816 65.394 103.168C64.9786 99.4277 64.7959 95.6651 64.847 91.9021H42.439C42.5563 95.4679 42.4618 99.0375 42.156 102.592Z" fill="#F3D3CC"/>
</g>
<path d="M97.0841 119.968L64.5531 108.316H42.9831L10.4511 119.968C10.4511 119.968 -0.938879 123.717 0.39212 141.895H107.146C108.699 122.599 97.0841 119.968 97.0841 119.968Z" fill="#F3A77A"/>
<path d="M97.0841 119.967L70.4991 110.447L53.7841 122.102L37.4591 110.292L10.4511 119.967C10.4511 119.967 -0.938879 123.716 0.39212 141.894H107.146C108.699 122.599 97.0841 119.967 97.0841 119.967Z" fill="#003981"/>
<path d="M78.3322 64.0891C77.5602 68.8681 78.9022 73.1141 81.3232 73.5701C83.7442 74.0261 86.3322 70.5311 87.1002 65.7511C87.8682 60.9711 86.5282 56.7291 84.1002 56.2711C81.6722 55.8131 79.0992 59.3121 78.3322 64.0891Z" fill="#F3A77A"/>
<path d="M81.2442 62.7991C81.2442 62.7991 81.2811 62.5311 81.3761 62.0991C81.5103 61.5076 81.7061 60.9318 81.9602 60.3811C82.2602 59.7431 82.7531 59.0081 83.3671 58.9691C83.5255 58.9624 83.6838 58.9848 83.8342 59.0351C83.915 59.0714 83.9937 59.1122 84.0701 59.1571C84.1303 59.2012 84.1874 59.2493 84.2412 59.3011C84.5185 59.5947 84.7191 59.9523 84.8252 60.3421C84.9711 60.7821 85.0664 61.2374 85.1092 61.6991C85.1622 62.1536 85.1675 62.6124 85.1252 63.0681C85.0512 63.5481 85.0252 64.0411 84.9422 64.4551C84.8592 64.8691 84.7832 65.2831 84.7112 65.6551C84.6112 66.0251 84.5382 66.3721 84.4702 66.6811C84.4022 66.9901 84.3102 67.2481 84.2542 67.4691C84.1312 67.9041 84.0682 68.1631 84.0682 68.1631C84.0682 68.1631 84.1922 67.9441 84.3942 67.5441C84.4872 67.3441 84.6252 67.1051 84.7432 66.8111C84.8612 66.5171 85.0041 66.1891 85.1431 65.8211C85.2821 65.4531 85.3952 65.0211 85.5262 64.5771C85.6572 64.1331 85.7262 63.6771 85.8182 63.1881C85.9075 62.6475 85.9269 62.0976 85.8761 61.5521C85.8354 61.0027 85.7317 60.4598 85.5672 59.9341C85.4044 59.4052 85.1143 58.9245 84.7222 58.5341C84.6174 58.4384 84.502 58.3552 84.3782 58.2861C84.2709 58.2334 84.1599 58.1886 84.0462 58.1521C83.8079 58.0922 83.5602 58.08 83.3172 58.1161C83.0732 58.1714 82.8426 58.2744 82.6386 58.419C82.4346 58.5637 82.2611 58.7472 82.1282 58.9591C81.8771 59.3277 81.6836 59.7323 81.5542 60.1591C81.3638 60.7839 81.2543 61.4304 81.2282 62.0831C81.2158 62.3218 81.2211 62.5611 81.2442 62.7991Z" fill="#F0926A"/>
<path d="M81.2443 62.7991C81.2443 62.7991 81.0203 62.2871 82.6153 62.1681C82.6153 62.1681 84.3973 62.4991 83.3493 64.8751C83.1142 65.3876 82.9351 65.9241 82.8153 66.4751C82.6583 67.2751 82.9403 68.3551 82.5153 69.0631C81.9633 69.9781 80.5593 69.4581 80.4763 68.4111C80.6203 67.4168 81.0104 66.4742 81.6113 65.6691C81.922 65.2321 82.0568 64.6942 81.9888 64.1624C81.9208 63.6305 81.655 63.1438 81.2443 62.7991Z" fill="#F0926A"/>
<path d="M80.4752 68.3121C80.429 68.3498 80.3877 68.3932 80.3522 68.441C80.2502 68.5751 80.1711 68.7251 80.1182 68.885C80.0763 68.994 80.0487 69.108 80.0362 69.2241C80.0038 69.3531 79.9936 69.4866 80.0062 69.6191C80.0162 69.7531 80.0182 69.9011 80.0432 70.0451C80.0784 70.1811 80.1225 70.3148 80.1752 70.4451C80.2204 70.5725 80.2809 70.6941 80.3552 70.8071C80.4284 70.9039 80.5072 70.9964 80.5912 71.0841C80.7152 71.2458 80.8848 71.3667 81.0782 71.4311C81.2492 71.5102 81.4339 71.5557 81.6222 71.5651C81.5565 71.3652 81.4735 71.1715 81.3742 70.986C81.3364 70.9075 81.2915 70.8325 81.2402 70.762C81.2073 70.6721 81.1696 70.584 81.1272 70.498C81.0893 70.4113 81.0452 70.3274 80.9952 70.247C80.9522 70.1623 80.9186 70.0731 80.8952 69.9811C80.8139 69.8135 80.7492 69.6383 80.7022 69.458C80.6736 69.3723 80.6506 69.2848 80.6332 69.1961C80.6212 69.1061 80.5812 69.0181 80.5742 68.9351C80.5072 68.6041 80.4752 68.3081 80.4752 68.3121Z" fill="#F0926A"/>
<path d="M29.6011 64.0891C30.3741 68.8681 29.0321 73.1141 26.6101 73.5701C24.1881 74.0261 21.6011 70.5311 20.8321 65.7511C20.0631 60.9711 21.4041 56.7291 23.8321 56.2711C26.2601 55.8131 28.8331 59.3121 29.6011 64.0891Z" fill="#F3A77A"/>
<path d="M26.6871 62.7991C26.6871 62.7991 26.65 62.5311 26.555 62.0991C26.4203 61.5077 26.2246 60.932 25.9711 60.3811C25.6711 59.7431 25.178 59.0081 24.564 58.9691C24.406 58.9623 24.248 58.9847 24.098 59.0351C24.0166 59.0709 23.9375 59.1116 23.861 59.1571C23.8012 59.2015 23.7441 59.2496 23.6901 59.3011C23.4127 59.5947 23.2121 59.9523 23.106 60.3421C22.9603 60.7823 22.8648 61.2375 22.8211 61.6991C22.769 62.1537 22.7639 62.6124 22.806 63.0681C22.88 63.5481 22.9061 64.0411 22.9891 64.4551C23.0721 64.8691 23.148 65.2831 23.219 65.6551C23.319 66.0251 23.394 66.3721 23.461 66.6811C23.528 66.9901 23.621 67.2481 23.676 67.4691C23.801 67.9041 23.8631 68.1631 23.8631 68.1631C23.8631 68.1631 23.738 67.9441 23.537 67.5441C23.444 67.3441 23.306 67.1051 23.188 66.8111C23.07 66.5171 22.927 66.1891 22.788 65.8211C22.649 65.4531 22.537 65.0211 22.408 64.5771C22.2869 64.1193 22.1888 63.6557 22.1141 63.1881C22.0249 62.6475 22.0053 62.0976 22.056 61.5521C22.0968 61.0027 22.2005 60.4598 22.365 59.9341C22.5273 59.405 22.8175 58.9241 23.21 58.5341C23.3152 58.4381 23.4314 58.3549 23.556 58.2861C23.6627 58.2327 23.7733 58.1879 23.887 58.1521C24.1253 58.0922 24.373 58.08 24.616 58.1161C24.86 58.1714 25.0906 58.2744 25.2946 58.419C25.4986 58.5637 25.6721 58.7472 25.805 58.9591C26.0561 59.3277 26.2496 59.7323 26.379 60.1591C26.5694 60.7839 26.679 61.4304 26.7051 62.0831C26.7168 62.3218 26.7107 62.5612 26.6871 62.7991Z" fill="#F0926A"/>
<path d="M26.6881 62.7991C26.6881 62.7991 26.9121 62.2871 25.3161 62.1681C25.3161 62.1681 23.5341 62.4991 24.5821 64.8751C24.8167 65.3878 24.9957 65.9242 25.1161 66.4751C25.2751 67.2751 24.9911 68.3551 25.4161 69.0631C25.9681 69.9781 27.3721 69.4581 27.4551 68.4111C27.3116 67.4167 26.9214 66.474 26.3201 65.6691C26.0095 65.232 25.8748 64.694 25.943 64.1622C26.0112 63.6303 26.2772 63.1437 26.6881 62.7991Z" fill="#F0926A"/>
<path d="M27.456 68.3121C27.5027 68.3489 27.5439 68.3923 27.578 68.441C27.6818 68.5741 27.7613 68.7244 27.813 68.885C27.8545 68.9943 27.8827 69.1081 27.897 69.2241C27.9282 69.3533 27.9383 69.4866 27.927 69.6191C27.916 69.7531 27.913 69.9011 27.888 70.0451C27.8538 70.1811 27.8108 70.3147 27.759 70.4451C27.7125 70.5721 27.6517 70.6936 27.578 70.8071C27.5044 70.9036 27.4256 70.996 27.342 71.0841C27.2181 71.2458 27.0484 71.3667 26.855 71.4311C26.684 71.5102 26.4993 71.5557 26.311 71.5651C26.3768 71.3652 26.4597 71.1715 26.559 70.986C26.5968 70.9075 26.6417 70.8325 26.693 70.762C26.7263 70.6721 26.7643 70.5839 26.807 70.498C26.8437 70.4111 26.8872 70.3272 26.937 70.247C26.9795 70.1621 27.013 70.0729 27.037 69.9811C27.1184 69.8135 27.183 69.6383 27.23 69.458C27.2586 69.3723 27.2817 69.2848 27.299 69.1961C27.311 69.1061 27.351 69.0181 27.359 68.9351C27.426 68.6041 27.456 68.3081 27.456 68.3121Z" fill="#F0926A"/>
<path d="M54.2592 12.5461V12.5391C54.1312 12.5391 54.0062 12.5391 53.8792 12.5391C53.7522 12.5391 53.6232 12.5391 53.4952 12.5391V12.5451C34.2362 12.7151 23.4172 18.1981 26.3732 53.3041L29.6882 81.2661C30.0294 83.0068 30.764 84.6464 31.836 86.0596C32.908 87.4729 34.2889 88.6223 35.8732 89.4201L46.3342 97.1731C46.3342 97.1731 51.3062 99.3811 53.8832 99.1631C56.4562 99.3811 61.4282 97.1721 61.4282 97.1721L71.8882 89.4181C73.4721 88.62 74.8526 87.4705 75.9242 86.0572C76.9958 84.644 77.7301 83.0045 78.0712 81.2641L81.5632 53.9471C84.5182 18.8441 73.5162 12.7141 54.2592 12.5461Z" fill="#F3A77A"/>
<path d="M39.6922 55.5981C39.7042 57.4211 40.7282 58.8981 41.9792 58.8871C43.2302 58.8761 44.2392 57.3951 44.2262 55.5711C44.2132 53.7471 43.1922 52.2711 41.9412 52.2791C40.6902 52.2871 39.6822 53.7741 39.6922 55.5981Z" fill="#231208"/>
<path d="M41.058 54.5471C41.058 54.7414 41.0004 54.9313 40.8924 55.0928C40.7844 55.2544 40.6309 55.3802 40.4513 55.4545C40.2718 55.5288 40.0742 55.5481 39.8837 55.51C39.6931 55.472 39.5182 55.3783 39.3809 55.2407C39.2437 55.1032 39.1503 54.928 39.1126 54.7374C39.075 54.5468 39.0947 54.3493 39.1693 54.1699C39.244 53.9905 39.3701 53.8372 39.5319 53.7296C39.6937 53.6219 39.8837 53.5647 40.078 53.5651C40.2068 53.5652 40.3344 53.5907 40.4533 53.6401C40.5723 53.6895 40.6804 53.7619 40.7714 53.8531C40.8624 53.9443 40.9345 54.0525 40.9837 54.1716C41.0329 54.2906 41.0581 54.4182 41.058 54.5471Z" fill="white"/>
<path d="M68.2402 55.5981C68.2292 57.4211 67.2062 58.8981 65.9532 58.8871C64.7002 58.8761 63.6932 57.3951 63.7062 55.5711C63.7192 53.7471 64.7422 52.2711 65.9932 52.2791C67.2442 52.2871 68.2512 53.7741 68.2402 55.5981Z" fill="#231208"/>
<path d="M66.8721 54.5471C66.8721 54.7414 66.9297 54.9313 67.0377 55.0928C67.1457 55.2544 67.2992 55.3802 67.4787 55.4545C67.6583 55.5288 67.8558 55.5481 68.0464 55.51C68.2369 55.472 68.4119 55.3783 68.5491 55.2407C68.6864 55.1032 68.7798 54.928 68.8174 54.7374C68.8551 54.5468 68.8354 54.3493 68.7607 54.1699C68.6861 53.9905 68.5599 53.8372 68.3982 53.7296C68.2364 53.6219 68.0464 53.5647 67.8521 53.5651C67.7232 53.5652 67.5957 53.5907 67.4767 53.6401C67.3577 53.6895 67.2497 53.7619 67.1587 53.8531C67.0677 53.9443 66.9955 54.0525 66.9464 54.1716C66.8972 54.2906 66.8719 54.4182 66.8721 54.5471Z" fill="white"/>
<path d="M57.2991 73.3601C56.7663 73.8613 56.1514 74.2671 55.4811 74.5601C54.7915 74.8721 54.0567 75.0723 53.3041 75.1531C52.5218 75.2526 51.728 75.2117 50.9601 75.0321C50.5659 74.9562 50.1803 74.8409 49.8091 74.6881C49.437 74.5359 49.0747 74.3609 48.7241 74.1641L48.2241 73.9081L48.1751 73.1861C48.1249 72.4773 48.1135 71.7662 48.1411 71.0561C48.1411 70.3561 48.2261 69.6721 48.2811 68.9811C48.3361 68.2901 48.4671 67.6131 48.5811 66.9331C48.6919 66.2533 48.8381 65.5797 49.0191 64.9151C49.3567 63.5807 49.7963 62.2742 50.3341 61.0071C50.5915 60.3667 50.8922 59.7446 51.2341 59.1451C51.5621 58.5391 51.9061 57.9451 52.2891 57.3651C52.2671 58.0651 52.2041 58.7501 52.1281 59.4231C52.0521 60.0961 51.9401 60.7541 51.8811 61.4231C51.8221 62.0921 51.7281 62.7471 51.6311 63.4001C51.5341 64.0531 51.4971 64.7151 51.4061 65.3641C51.3151 66.0131 51.2301 66.6641 51.1691 67.3151C51.1081 67.9661 50.9931 68.6151 50.9561 69.2601C50.8951 69.9061 50.8151 70.5601 50.7731 71.1991C50.7311 71.8381 50.6731 72.5071 50.6401 73.0931L50.0891 72.1141C50.3351 72.2621 50.5561 72.4661 50.8151 72.5971C51.0656 72.7482 51.3251 72.8838 51.5921 73.0031C51.8645 73.1256 52.1448 73.2295 52.4311 73.3141C52.7251 73.3691 53.0191 73.4731 53.3311 73.5141C53.6431 73.5713 53.959 73.6047 54.2761 73.6141C54.6039 73.6379 54.9328 73.6426 55.2611 73.6281C55.9467 73.5954 56.6284 73.5057 57.2991 73.3601Z" fill="#E68E68"/>
<path d="M46.708 48.867C46.6184 49.2604 46.3826 49.605 46.0483 49.831C45.7141 50.0569 45.3065 50.1474 44.9081 50.084C41.84 49.5154 38.6756 49.7807 35.7451 50.852C35.3652 50.9628 34.958 50.9328 34.5985 50.7675C34.2389 50.6021 33.9512 50.3126 33.7881 49.952C33.6912 49.7677 33.6351 49.5648 33.6236 49.3569C33.612 49.1491 33.6453 48.9412 33.7212 48.7473C33.7971 48.5535 33.9138 48.3782 34.0633 48.2334C34.2129 48.0886 34.3918 47.9776 34.588 47.908C38.0355 46.6332 41.7611 46.3031 45.3791 46.952C45.5947 46.9855 45.8012 47.0626 45.9861 47.1784C46.1711 47.2943 46.3305 47.4466 46.4547 47.626C46.5789 47.8054 46.6654 48.0082 46.7087 48.2221C46.7521 48.4359 46.7515 48.6564 46.707 48.87L46.708 48.867Z" fill="#562D27"/>
<path d="M60.3531 48.867C60.4429 49.2603 60.6788 49.6047 61.013 49.8306C61.3472 50.0566 61.7547 50.1471 62.1531 50.084C65.2211 49.5155 68.3855 49.7808 71.3161 50.852C71.6959 50.9628 72.1028 50.9327 72.4622 50.7674C72.8216 50.602 73.1092 50.3125 73.2721 49.952C73.3694 49.7681 73.426 49.5655 73.438 49.3578C73.4501 49.1501 73.4172 48.9422 73.3418 48.7483C73.2664 48.5544 73.1502 48.379 73.0009 48.234C72.8517 48.089 72.6731 47.9779 72.4771 47.908C69.0296 46.6332 65.304 46.3031 61.6861 46.952C61.4704 46.9856 61.2638 47.0626 61.0788 47.1784C60.8938 47.2943 60.7343 47.4465 60.6099 47.6259C60.4855 47.8052 60.3989 48.008 60.3553 48.2219C60.3116 48.4358 60.3119 48.6563 60.3561 48.87L60.3531 48.867Z" fill="#562D27"/>
<path d="M53.7852 122.1L51.5942 110.894L39.9942 103.874L38.3032 110.939L53.7852 122.1Z" fill="#59ACBE"/>
<path d="M51.5941 110.894L46.1061 120.947L32.6931 111.834L39.9931 103.874L51.5941 110.894Z" fill="#B3DFDF"/>
<path d="M53.7852 122.1L55.9771 110.894L67.5832 103.874L69.2732 110.939L53.7852 122.1Z" fill="#59ACBE"/>
<path d="M55.9771 110.894L61.4641 120.947L74.8781 111.834L67.5781 103.874L55.9771 110.894Z" fill="#B3DFDF"/>
<path d="M54.9151 85.6891C54.0261 85.9072 53.0994 85.9216 52.2041 85.7311" stroke="#E2826C" stroke-linecap="round" stroke-linejoin="round"/>
<path d="M47.4502 80.0801L49.0272 83.1801C49.0272 83.1801 56.0622 87.1351 61.0272 80.2391C56.5021 80.4366 51.9695 80.3836 47.4502 80.0801Z" fill="white"/>
<path d="M76.8341 41.1481C76.8341 41.1481 79.3521 42.7271 78.7971 48.7741L78.5341 60.7741H80.6141C80.6141 60.7741 80.4681 56.2291 84.1001 56.2741L85.9001 29.4581C85.9001 29.4581 87.3151 18.7581 78.1111 12.5421C78.1111 12.5421 70.3991 10.5091 68.2371 4.19208C68.2371 4.19208 67.5901 7.70108 68.2371 9.80708C68.2371 9.80708 62.0301 8.05208 63.7031 0.684082C63.7031 0.684082 58.7401 2.68408 58.7031 7.70108C58.7031 7.70108 58.4791 1.73508 54.9031 0.684082C54.9031 0.684082 56.2121 5.24508 52.1921 6.99908C52.1921 6.99908 34.9521 6.29908 29.8071 14.7201C29.8071 14.7201 20.4931 19.2971 22.0181 38.7891L23.8181 56.2731C25.6161 57.309 27.0485 58.877 27.9181 60.7611H29.8041V44.8951C29.8041 44.8951 29.7041 41.1531 32.6791 41.1531C32.6791 41.1531 29.8041 27.1171 38.2841 25.0111C38.2841 25.0111 50.9781 21.6191 54.2241 27.9631C54.2241 27.9631 54.7421 22.8211 70.2771 24.8041C70.2911 24.8051 79.9991 26.1801 76.8341 41.1481Z" fill="#562D27"/>
</svg>
