<svg width="241" height="256" viewBox="0 0 241 256" fill="none" xmlns="http://www.w3.org/2000/svg">
<path d="M223.591 8.26516C222.08 6.69186 219.426 5.24367 214.893 5.13056C204.648 4.88034 207.373 12.1693 204.648 13.8917C201.923 15.6141 201.15 12.8908 198.404 14.6423C195.658 16.3939 196.905 19.8987 194.662 20.4C192.419 20.9012 189.415 18.1291 186.666 19.9175C183.917 21.7059 183.918 23.1738 182.668 23.1738C181.418 23.1738 178.92 22.1729 177.42 23.1738C175.921 24.1747 174.17 25.4266 174.17 25.4266H200.995" stroke="#263238" stroke-linecap="round" stroke-linejoin="round"/>
<path d="M226.409 12.7639C226.165 12.6448 225.909 12.5256 225.639 12.4065C225.518 11.4716 225.204 10.5722 224.717 9.76562" stroke="#263238" stroke-linecap="round" stroke-linejoin="round"/>
<path d="M204.428 25.4051H237.375C237.375 25.4051 238.124 23.1523 235.376 21.6501C232.627 20.148 231.384 21.3999 230.385 20.148C229.492 19.034 232.366 16.3338 227.713 13.4546" stroke="#263238" stroke-linecap="round" stroke-linejoin="round"/>
<path d="M41.6514 18.7242C41.1985 18.3062 40.6654 17.985 40.0845 17.7802C39.5036 17.5754 38.8872 17.4914 38.2728 17.5331C34.2988 17.438 35.3645 20.2573 34.2988 20.9359C33.233 21.6146 32.9421 20.5486 31.8712 21.2281C30.8003 21.9077 31.2725 23.2668 30.4171 23.463C29.5618 23.6592 28.3762 22.5889 27.3139 23.2659C26.2515 23.9429 26.249 24.529 25.7614 24.529C25.2738 24.529 24.3073 24.1417 23.7265 24.529C23.1457 24.9163 22.4648 25.4048 22.4648 25.4048H32.8763" stroke="#263238" stroke-linecap="round" stroke-linejoin="round"/>
<path d="M42.7463 20.5114L42.4426 20.3743C42.3994 20.0096 42.2777 19.6587 42.0859 19.3457" stroke="#263238" stroke-linecap="round" stroke-linejoin="round"/>
<path d="M34.2148 25.406H46.9999C47.0683 25.111 47.028 24.8012 46.8866 24.5336C46.7452 24.2659 46.512 24.0584 46.2301 23.9492C45.1652 23.3494 44.6776 23.8541 44.291 23.3494C43.9044 22.8447 45.0608 21.8652 43.256 20.7512" stroke="#263238" stroke-linecap="round" stroke-linejoin="round"/>
<path d="M184.951 2.20276C184.498 1.7838 183.965 1.46194 183.384 1.25696C182.803 1.05198 182.186 0.968207 181.571 1.01079C177.627 0.891674 178.663 3.71093 177.627 4.4196C176.591 5.12827 176.271 4.02627 175.2 4.71181C174.129 5.39734 174.601 6.75041 173.746 6.94665C172.89 7.14288 171.705 6.07088 170.64 6.74955C169.575 7.42823 169.545 7.99551 169.057 7.99551C168.57 7.99551 167.603 7.60819 167.023 7.99551C166.442 8.38284 165.762 8.87128 165.762 8.87128H176.173" stroke="#263238" stroke-linecap="round" stroke-linejoin="round"/>
<path d="M186.045 3.94281L185.741 3.80567C185.698 3.441 185.576 3.09007 185.385 2.7771" stroke="#263238" stroke-linecap="round" stroke-linejoin="round"/>
<path d="M177.514 8.86043H190.299C190.367 8.56544 190.327 8.25564 190.185 7.98801C190.044 7.72037 189.811 7.51287 189.529 7.40367C188.464 6.80383 187.976 7.30855 187.59 6.80383C187.203 6.2991 188.339 5.33764 186.555 4.2168" stroke="#263238" stroke-linecap="round" stroke-linejoin="round"/>
<path d="M124.678 233.284C183.491 233.284 231.169 185.52 231.169 126.6C231.169 67.6798 183.491 19.9155 124.678 19.9155C65.865 19.9155 18.1875 67.6798 18.1875 126.6C18.1875 185.52 65.865 233.284 124.678 233.284Z" stroke="#263238" stroke-linejoin="round" stroke-dasharray="2 2"/>
<path d="M204.18 254.71H227.816" stroke="#263238" stroke-miterlimit="10"/>
<path d="M12.9902 254.71H199.973" stroke="#263238" stroke-miterlimit="10"/>
<path d="M211.037 190.528C210.814 190.53 210.595 190.474 210.4 190.367C210.244 190.284 210.106 190.171 209.993 190.035C209.881 189.899 209.796 189.741 209.745 189.572C209.693 189.403 209.675 189.226 209.692 189.049C209.708 188.873 209.76 188.702 209.842 188.546L209.848 188.538L214.256 180.277C214.434 179.977 214.72 179.757 215.055 179.664C215.39 179.57 215.748 179.609 216.055 179.774C216.362 179.938 216.593 180.215 216.702 180.546C216.81 180.877 216.786 181.238 216.636 181.552L212.221 189.813C212.107 190.028 211.937 190.209 211.728 190.335C211.519 190.461 211.28 190.528 211.037 190.528Z" fill="#263238"/>
<path d="M228.106 190.527C227.862 190.528 227.622 190.461 227.412 190.335C227.202 190.209 227.031 190.028 226.916 189.812L222.502 181.551C222.351 181.237 222.328 180.877 222.436 180.545C222.544 180.214 222.776 179.937 223.083 179.773C223.39 179.609 223.748 179.569 224.083 179.663C224.418 179.757 224.704 179.976 224.882 180.276L229.29 188.537C229.459 188.851 229.497 189.22 229.395 189.562C229.293 189.905 229.06 190.192 228.746 190.362L228.738 190.367C228.544 190.474 228.327 190.53 228.106 190.527Z" fill="#263238"/>
<path d="M219.569 184.949C226.242 184.949 231.652 179.529 231.652 172.844C231.652 166.159 226.242 160.739 219.569 160.739C212.896 160.739 207.486 166.159 207.486 172.844C207.486 179.529 212.896 184.949 219.569 184.949Z" fill="#DDF235" stroke="#263238" stroke-linecap="round" stroke-linejoin="round"/>
<path d="M219.57 183.22C225.291 183.22 229.928 178.574 229.928 172.843C229.928 167.112 225.291 162.467 219.57 162.467C213.85 162.467 209.213 167.112 209.213 172.843C209.213 178.574 213.85 183.22 219.57 183.22Z" fill="white" stroke="#263238" stroke-linecap="round" stroke-linejoin="round"/>
<path d="M219.761 165.162C219.761 165.162 219.57 173.613 219.57 172.844L221.676 177.07" stroke="#263238" stroke-miterlimit="10"/>
<path d="M226.411 160.166C226.181 158.568 225.383 157.106 224.164 156.049C222.946 154.991 221.387 154.409 219.775 154.409C218.163 154.409 216.604 154.991 215.386 156.049C214.167 157.106 213.369 158.568 213.139 160.166H226.411Z" fill="white" stroke="#263238" stroke-linecap="round" stroke-linejoin="round"/>
<path d="M219.57 173.612C219.994 173.612 220.337 173.268 220.337 172.843C220.337 172.419 219.994 172.074 219.57 172.074C219.146 172.074 218.803 172.419 218.803 172.843C218.803 173.268 219.146 173.612 219.57 173.612Z" fill="#263238" stroke="#263238" stroke-miterlimit="10"/>
<path d="M240.499 111.809C240.5 115.346 239.099 118.739 236.603 121.241C234.108 123.744 230.723 125.151 227.192 125.153H227.18C226.436 125.156 225.694 125.092 224.961 124.962C221.863 124.431 219.052 122.819 217.025 120.412C214.998 118.005 213.887 114.957 213.887 111.808C213.887 108.659 214.998 105.611 217.025 103.204C219.052 100.797 221.863 99.1854 224.961 98.6544C225.694 98.529 226.436 98.4671 227.18 98.4693C228.928 98.4685 230.66 98.8128 232.276 99.4824C233.891 100.152 235.36 101.134 236.596 102.372C237.833 103.61 238.815 105.08 239.485 106.698C240.154 108.316 240.5 110.05 240.5 111.802L240.499 111.809Z" fill="#34EAB2" stroke="#263238" stroke-linecap="round" stroke-linejoin="round"/>
<path d="M225.881 98.4341C228.808 99.2346 231.39 100.978 233.23 103.395C235.07 105.812 236.064 108.768 236.06 111.808C236.061 114.962 234.946 118.014 232.914 120.422C230.881 122.831 228.063 124.44 224.959 124.964" stroke="#263238" stroke-linecap="round" stroke-linejoin="round"/>
<path d="M217.725 102.195C219.411 102.211 221.072 102.613 222.58 103.371C224.088 104.13 225.402 105.224 226.422 106.57C231.318 112.559 237.838 113.126 240.016 107.66" stroke="#263238" stroke-linecap="round" stroke-linejoin="round"/>
<path d="M213.916 112.833C213.916 112.833 232.008 121.135 240.491 111.804" stroke="#263238" stroke-linecap="round" stroke-linejoin="round"/>
<path d="M219.01 122.179C221.34 122.49 223.71 122.177 225.881 121.273C230.23 119.365 234.092 118.37 235.935 119.64C236.196 119.795 236.423 120.001 236.603 120.245C236.782 120.49 236.911 120.768 236.982 121.064" stroke="#263238" stroke-linecap="round" stroke-linejoin="round"/>
<path d="M214.512 58.9182C214.512 64.878 209.663 71.1601 204.993 71.1601C203.851 71.1601 200.894 71.1601 199.841 70.7607C194.082 68.5328 191.857 63.0125 191.857 58.2086C191.857 55.7176 192.607 52.9994 194.576 51.337C197.187 49.1322 200.067 50.5204 203.101 50.5204C205.742 50.5204 209.443 49.4355 211.43 50.9257C214.03 52.7972 214.512 55.9627 214.512 58.9182Z" fill="white" stroke="#263238" stroke-linejoin="round"/>
<path d="M211.407 54.9248C211.027 55.5925 209.873 55.6405 208.831 55.0379C207.789 54.4354 207.26 53.4094 207.641 52.7485C208.022 52.0877 209.176 52.0328 210.217 52.6354C211.259 53.2379 211.795 54.2631 211.407 54.9248Z" fill="white" stroke="#263238" stroke-linejoin="round"/>
<path d="M202.524 51.4324L202.726 50.962L205.549 44.3637L203.675 44.0715L201.801 50.7109L202.524 51.4324Z" fill="#263238" stroke="#263238" stroke-linejoin="round"/>
<path d="M202.957 46.956C202.957 46.956 201.66 44.0716 199.786 43.6423C197.912 43.213 192.73 45.6629 192.73 45.6629C194.146 46.6867 195.695 47.5107 197.335 48.112C199.352 48.6904 202.957 46.956 202.957 46.956Z" fill="#DDF235" stroke="#263238" stroke-linejoin="round"/>
<path d="M131.585 39.7125C131.169 37.3585 130.58 31.229 131.086 28.9847C131.385 27.6154 131.497 26.2119 131.419 24.8124V16.5175C131.661 15.4083 131.631 14.257 131.333 13.1618C130.828 11.3734 126.971 7.61323 126.971 7.61323V6.27301H126.727L125.666 6.20703H125.045L123.98 6.24902H123.737V7.59009C123.737 7.59009 119.882 11.3751 119.374 13.1386C119.083 14.2441 119.064 15.4041 119.32 16.5183V24.755C119.243 26.1544 119.354 27.558 119.653 28.9273C120.159 31.1921 119.568 37.3251 119.154 39.655C118.74 41.985 118.904 43.7734 120.243 44.4229C121.361 44.9834 124.407 44.614 125.382 44.4709C126.364 44.614 129.403 44.9851 130.522 44.4229C131.817 43.8257 132.008 42.0621 131.585 39.7125Z" fill="white" stroke="#263238" stroke-linejoin="round"/>
<path d="M129.949 29.4033C130.193 28.228 130.285 27.0262 130.223 25.8274V21.8281H120.513V25.8274C120.451 27.0262 120.543 28.228 120.787 29.4033C121.186 31.3399 120.716 36.5551 120.383 38.5723C120.049 40.5895 120.181 42.0856 121.257 42.6546C122.155 43.1311 124.593 42.8157 125.38 42.6966C126.165 42.8157 128.604 43.1319 129.502 42.6546C130.579 42.0548 130.692 40.5809 130.377 38.5723C130.061 36.5637 129.55 31.3399 129.949 29.4033Z" fill="#DDF235"/>
<path d="M127.35 4.33618H123.322V6.60761H127.35V4.33618Z" fill="#263238" stroke="#263238" stroke-linejoin="round"/>
<path d="M119.545 15.6782H131.289" stroke="#263238" stroke-linejoin="round"/>
<path d="M124.285 24.0823H130.782" stroke="#263238" stroke-linejoin="round"/>
<path d="M119.967 24.0823H121.918" stroke="#263238" stroke-linejoin="round"/>
<path d="M40.4079 56.2255H43.3349L46.5237 50.2656L49.7604 57.4174L50.3138 55.9453H54.3648L58.6784 46.1293L61.4566 55.2717H66.5289C67.946 53.6203 68.688 51.4936 68.6063 49.3174C68.5246 47.1413 67.6252 45.0763 66.0884 43.5363C64.4695 41.9145 62.2739 41.0034 59.9845 41.0034C57.6952 41.0034 55.4996 41.9145 53.8807 43.5363L52.9886 44.43L52.0964 43.5303C50.466 41.9693 48.2906 41.1095 46.0356 41.1348C43.7805 41.1601 41.6249 42.0686 40.0298 43.6657C38.4348 45.2629 37.527 47.422 37.5006 49.6811C37.4742 51.9403 38.3314 54.1201 39.8887 55.7542L40.4079 56.2255Z" fill="#34EAB2" stroke="#263238" stroke-linejoin="round"/>
<path d="M60.3364 56.7308L58.4204 50.4136L55.3505 57.4043H51.3526L49.8985 61.3084L46.418 53.6501L44.2403 57.7385H41.918L52.9898 68.8304L65.0726 56.7316L60.3364 56.7308Z" fill="#34EAB2" stroke="#263238" stroke-linejoin="round"/>
<path d="M12.5849 107.623C12.4215 107.112 12.1386 106.647 11.7598 106.268C11.381 105.889 10.9173 105.605 10.4071 105.441C8.7708 105.048 5.32627 105.621 4.78482 103.624C4.24338 101.627 6.77781 102.167 6.23893 100.53C5.70006 98.8938 1.70552 98.8972 0.795421 95.8046C-0.114683 92.712 1.15809 89.4454 3.51461 90.5362C5.87113 91.6271 6.96514 96.1688 7.86925 97.9863C8.77337 99.8038 8.59545 96.1688 11.135 95.8046C13.6746 95.4404 16.2159 97.4438 14.5855 99.9769C13.9783 100.803 13.5511 101.748 13.3319 102.75C13.1126 103.752 13.1061 104.789 13.3128 105.794C13.5206 106.693 13.5745 106.622 13.5745 106.622L12.5849 107.623Z" fill="#DDF235" stroke="#263238" stroke-linejoin="round"/>
<path d="M3.51987 95.2382C3.0171 94.5058 2.65776 93.6844 2.46094 92.8176" stroke="#263238" stroke-miterlimit="10"/>
<path d="M13.1795 107.194C12.7854 105.607 11.9975 104.145 10.8888 102.944C8.99076 100.817 6.53417 99.3684 4.58309 96.7873C4.42228 96.5791 4.27944 96.382 4.14258 96.1875" stroke="#263238" stroke-miterlimit="10"/>
<path d="M18.2794 104.661C18.2794 104.661 9.98242 106.324 9.98242 114.197C9.98242 122.069 32.3689 137.441 34.0292 134.55C35.6894 131.66 27.5387 114.429 25.4627 110.71C23.3868 106.991 21.1645 104.244 18.2794 104.661Z" fill="white" stroke="#263238" stroke-miterlimit="10"/>
<path d="M12.4062 119.977C12.4062 119.977 15.3093 115.615 18.0285 114.345" stroke="#263238" stroke-miterlimit="10"/>
<path d="M26.9162 115.616C24.8854 116.466 23.0372 117.701 21.4727 119.252" stroke="#263238" stroke-miterlimit="10"/>
<path d="M22.9473 129.067C23.8334 127.005 25.3607 125.284 27.3019 124.162" stroke="#263238" stroke-miterlimit="10"/>
<path d="M22.3826 111.801L20.5684 112.892" stroke="#263238" stroke-miterlimit="10"/>
<path d="M29.8176 122.887L28.5508 123.251" stroke="#263238" stroke-miterlimit="10"/>
<path d="M26.9283 185.861C34.3865 185.861 40.4327 179.804 40.4327 172.332C40.4327 164.86 34.3865 158.803 26.9283 158.803C19.47 158.803 13.4238 164.86 13.4238 172.332C13.4238 179.804 19.47 185.861 26.9283 185.861Z" fill="#8F01DF" stroke="#263238" stroke-linecap="round" stroke-linejoin="round"/>
<path d="M30.4449 162.958C30.4449 165.272 28.345 170.253 26.9285 170.253C25.512 170.253 23.4121 165.27 23.4121 162.958C23.4121 160.646 25.5137 159.978 26.9302 159.978C28.3467 159.978 30.4449 160.633 30.4449 162.958Z" fill="white" stroke="#263238" stroke-linecap="round" stroke-linejoin="round"/>
<path d="M20.5688 164.584C22.5677 165.74 26.0362 169.549 25.328 170.776C24.6197 172.003 19.0573 171.843 17.0524 170.691C15.0474 169.538 15.5178 167.371 16.2252 166.143C16.9326 164.915 18.5758 163.427 20.5688 164.584Z" fill="white" stroke="#263238" stroke-linecap="round" stroke-linejoin="round"/>
<path d="M17.0534 173.972C19.0524 172.816 24.7876 171.802 25.4779 173.029C26.1681 174.256 22.5748 178.918 20.5758 180.074C18.5768 181.23 16.9345 179.752 16.2271 178.525C15.5198 177.297 15.0553 175.129 17.0534 173.972Z" fill="white" stroke="#263238" stroke-linecap="round" stroke-linejoin="round"/>
<path d="M23.4141 181.719C23.4141 179.405 25.514 173.768 26.9304 173.768C28.3469 173.768 30.4451 179.407 30.4451 181.719C30.4451 184.03 28.3452 184.699 26.9287 184.699C25.5123 184.699 23.4141 184.031 23.4141 181.719Z" fill="white" stroke="#263238" stroke-linecap="round" stroke-linejoin="round"/>
<path d="M33.2822 180.074C31.2832 178.918 27.9935 174.556 28.7069 173.328C29.4203 172.1 34.7988 172.814 36.7977 173.972C38.7967 175.129 38.3374 177.291 37.6309 178.525C36.9243 179.759 35.2803 181.235 33.2822 180.074Z" fill="white" stroke="#263238" stroke-linecap="round" stroke-linejoin="round"/>
<path d="M36.8084 170.706C34.8034 171.862 29.4198 172.363 28.7116 171.134C28.0033 169.905 31.2879 165.77 33.2869 164.578C35.2859 163.386 36.9281 164.906 37.6355 166.133C38.3429 167.36 38.8039 169.514 36.8084 170.706Z" fill="white" stroke="#263238" stroke-linecap="round" stroke-linejoin="round"/>
<path d="M225.518 219.244C225.518 219.244 226.017 217.426 226.035 217.307C226.226 215.924 225.785 213.135 224.381 212.467C224.16 212.368 223.922 212.312 223.68 212.305C223.438 212.297 223.196 212.337 222.97 212.423C222.743 212.509 222.536 212.639 222.359 212.805C222.183 212.971 222.041 213.171 221.941 213.392C221.914 213.452 221.89 213.513 221.87 213.575C221.744 214.123 221.739 214.691 221.854 215.24C221.969 215.79 222.202 216.308 222.537 216.758C223.402 217.73 224.406 218.568 225.518 219.244Z" fill="#263238"/>
<path d="M197.853 218.642C199.11 218.973 200.409 219.118 201.708 219.07C201.708 219.07 201.11 217.282 201.066 217.169C200.467 215.912 198.567 213.831 197.026 214.04C196.786 214.08 196.557 214.167 196.351 214.295C196.144 214.424 195.965 214.592 195.824 214.79C195.683 214.988 195.581 215.212 195.527 215.449C195.472 215.686 195.464 215.932 195.503 216.172C195.515 216.235 195.528 216.297 195.545 216.359C195.74 216.885 196.048 217.362 196.447 217.756C196.846 218.15 197.326 218.452 197.853 218.642Z" fill="#263238"/>
<path d="M198.8 226.581C200.086 226.573 201.364 226.371 202.59 225.981C202.992 227.379 203.487 228.749 204.071 230.081C204.413 230.862 204.773 231.636 205.142 232.406C204.922 232.084 204.719 231.806 204.69 231.756C203.779 230.702 201.4 229.199 199.966 229.808C199.731 229.916 199.52 230.072 199.349 230.267C199.177 230.462 199.049 230.691 198.971 230.939C198.894 231.186 198.869 231.448 198.899 231.706C198.929 231.964 199.013 232.213 199.145 232.436C199.472 232.893 199.895 233.273 200.384 233.548C200.874 233.823 201.418 233.986 201.977 234.027C203.228 234.027 204.472 233.836 205.666 233.461C205.808 233.753 205.951 234.061 206.1 234.343C206.808 235.755 207.516 237.156 208.176 238.556C208.408 239.051 208.617 239.546 208.824 240.034C208.628 239.748 208.462 239.504 208.432 239.468C207.522 238.413 205.142 236.911 203.708 237.525C203.473 237.633 203.263 237.789 203.092 237.983C202.92 238.177 202.792 238.406 202.715 238.653C202.637 238.9 202.612 239.161 202.642 239.419C202.672 239.676 202.755 239.924 202.887 240.147C203.215 240.604 203.638 240.983 204.127 241.259C204.617 241.535 205.16 241.701 205.719 241.745C206.931 241.763 208.137 241.579 209.289 241.202C209.492 241.716 209.693 242.231 209.888 242.734C209.995 243.076 210.125 243.407 210.215 243.762C210.305 244.117 210.412 244.459 210.507 244.805C210.668 245.472 210.834 246.158 210.976 246.813C211.077 247.267 211.161 247.701 211.25 248.136C211.03 247.648 210.566 246.688 210.519 246.616C209.782 245.424 207.658 243.589 206.146 243.976C205.898 244.047 205.667 244.17 205.47 244.337C205.272 244.503 205.112 244.71 205 244.943C204.887 245.176 204.825 245.43 204.818 245.688C204.81 245.947 204.858 246.204 204.956 246.443C205.211 246.943 205.571 247.382 206.012 247.729C206.453 248.076 206.963 248.323 207.509 248.452C208.604 248.785 211.025 248.452 211.328 248.452C211.471 249.172 211.608 249.882 211.721 250.549C211.97 251.944 212.155 253.206 212.319 254.287H213.33C213.159 253.166 212.932 251.849 212.64 250.382C212.497 249.644 212.325 248.856 212.147 248.052C212.876 247.761 213.587 247.427 214.276 247.052C215.215 247.86 216.26 248.536 217.382 249.06C217.103 249.746 216.829 250.407 216.555 251.031C216.026 252.259 215.52 253.35 215.068 254.287H216.169C216.549 253.424 216.972 252.458 217.406 251.391C217.692 250.693 218.005 249.949 218.274 249.174C219.521 249.47 220.805 249.57 222.082 249.472C222.633 249.386 223.159 249.182 223.624 248.873C224.09 248.565 224.483 248.159 224.777 247.684C224.885 247.467 224.949 247.23 224.965 246.988C224.982 246.746 224.95 246.503 224.873 246.273C224.796 246.043 224.674 245.831 224.515 245.648C224.356 245.465 224.162 245.315 223.945 245.207C223.885 245.177 223.823 245.15 223.759 245.127C222.283 244.632 220.029 246.319 219.202 247.434C219.154 247.5 218.702 248.28 218.432 248.775C218.551 248.459 218.67 248.175 218.782 247.827C219.02 247.184 219.235 246.534 219.473 245.836C219.574 245.494 219.675 245.151 219.782 244.8C219.89 244.448 219.967 244.084 220.056 243.721C220.258 242.874 220.419 242.007 220.569 241.134C221.724 241.595 222.941 241.876 224.181 241.968C224.742 241.966 225.295 241.841 225.803 241.602C226.311 241.364 226.76 241.016 227.12 240.585C227.26 240.388 227.361 240.166 227.415 239.93C227.47 239.694 227.478 239.45 227.438 239.211C227.398 238.972 227.312 238.744 227.184 238.538C227.056 238.333 226.889 238.155 226.692 238.015C226.638 237.977 226.582 237.941 226.521 237.907C225.134 237.192 222.654 238.507 221.667 239.493C221.607 239.559 220.976 240.339 220.64 240.778C220.726 240.248 220.811 239.723 220.878 239.187C221.069 237.637 221.22 236.063 221.366 234.496C221.414 234.02 221.467 233.542 221.515 233.06C222.711 233.539 223.972 233.834 225.257 233.936C225.816 233.934 226.369 233.81 226.875 233.572C227.382 233.334 227.83 232.988 228.19 232.559C228.33 232.362 228.431 232.139 228.485 231.903C228.54 231.667 228.548 231.423 228.508 231.184C228.468 230.946 228.382 230.717 228.254 230.512C228.126 230.306 227.959 230.128 227.762 229.988C227.708 229.95 227.651 229.914 227.591 229.881C226.204 229.165 223.724 230.481 222.737 231.466C222.666 231.543 221.761 232.658 221.547 232.968C221.66 231.919 221.779 230.864 221.94 229.84C222.148 228.446 222.448 227.069 222.838 225.715C224.041 226.198 225.31 226.495 226.601 226.597C227.161 226.595 227.713 226.471 228.22 226.233C228.726 225.995 229.175 225.65 229.534 225.22C229.675 225.023 229.775 224.8 229.83 224.565C229.885 224.329 229.892 224.084 229.853 223.846C229.813 223.607 229.726 223.378 229.599 223.173C229.471 222.968 229.303 222.79 229.107 222.649C229.053 222.611 228.996 222.575 228.936 222.543C227.549 221.827 225.069 223.143 224.081 224.128C224.016 224.194 223.332 225.052 223.011 225.469L222.934 225.427C223.36 224.077 223.907 222.768 224.57 221.517C224.921 220.82 225.301 220.176 225.682 219.557C226.804 220.147 228.007 220.571 229.251 220.815C229.809 220.885 230.375 220.827 230.907 220.645C231.439 220.463 231.923 220.163 232.321 219.766C232.481 219.583 232.604 219.371 232.682 219.142C232.76 218.912 232.792 218.669 232.777 218.427C232.761 218.185 232.698 217.948 232.592 217.731C232.485 217.513 232.336 217.318 232.154 217.158C232.105 217.115 232.053 217.074 232 217.036C230.703 216.172 228.091 217.207 227.002 218.078C226.943 218.126 226.404 218.678 226.003 219.074C226.175 218.8 226.354 218.514 226.527 218.251C227.181 217.268 227.836 216.404 228.425 215.647C228.767 215.224 229.079 214.843 229.377 214.491C230.636 214.51 231.891 214.331 233.095 213.961C233.618 213.759 234.09 213.443 234.478 213.038C234.866 212.632 235.159 212.145 235.338 211.613C235.396 211.377 235.407 211.131 235.37 210.89C235.333 210.65 235.249 210.419 235.123 210.211C234.997 210.002 234.832 209.821 234.636 209.677C234.44 209.533 234.217 209.429 233.981 209.371C233.921 209.357 233.859 209.345 233.797 209.336C232.245 209.169 230.407 211.297 229.835 212.573C229.788 212.68 229.237 214.492 229.237 214.492H229.267C228.975 214.826 228.668 215.184 228.333 215.589C227.734 216.334 227.05 217.18 226.376 218.152C225.633 219.193 224.953 220.278 224.341 221.401C223.647 222.65 223.066 223.958 222.603 225.311V223.528C222.425 222.145 221.265 219.577 219.736 219.297C219.475 219.239 219.204 219.238 218.942 219.295C218.68 219.353 218.434 219.466 218.221 219.629C218.007 219.791 217.832 219.998 217.706 220.235C217.58 220.472 217.508 220.733 217.493 221.001C217.516 221.562 217.66 222.111 217.915 222.61C218.171 223.11 218.533 223.547 218.975 223.892C220.052 224.599 221.229 225.14 222.467 225.495C222.032 226.883 221.689 228.299 221.441 229.732C221.292 230.567 221.167 231.413 221.054 232.265V231.467C220.876 230.084 219.716 227.516 218.187 227.235C217.931 227.195 217.67 227.209 217.42 227.276C217.17 227.343 216.937 227.463 216.736 227.626C216.535 227.79 216.371 227.994 216.254 228.226C216.137 228.457 216.07 228.711 216.057 228.97C216.08 229.531 216.224 230.081 216.48 230.581C216.736 231.081 217.097 231.52 217.539 231.866C218.581 232.557 219.722 233.084 220.923 233.427C220.888 233.756 220.838 234.083 220.805 234.405C220.614 235.972 220.436 237.54 220.206 239.066C220.129 239.608 220.027 240.133 219.932 240.663V239.972C219.753 238.589 218.599 236.02 217.065 235.74C216.809 235.7 216.548 235.713 216.298 235.781C216.047 235.848 215.814 235.967 215.613 236.131C215.412 236.295 215.248 236.499 215.131 236.73C215.014 236.962 214.947 237.215 214.935 237.475C214.958 238.035 215.102 238.584 215.358 239.083C215.614 239.582 215.975 240.02 216.417 240.365C217.426 241.047 218.536 241.566 219.706 241.902C219.593 242.439 219.48 242.975 219.35 243.494C219.249 243.845 219.179 244.191 219.058 244.537C218.937 244.882 218.838 245.222 218.725 245.565C218.493 246.208 218.256 246.876 218.011 247.501C217.844 247.93 217.678 248.342 217.511 248.759C217.597 248.223 217.737 247.174 217.737 247.085C217.722 245.858 217.393 244.655 216.779 243.592C216.791 243.457 216.791 243.322 216.779 243.187C216.718 242.701 216.467 242.259 216.081 241.958C215.694 241.658 215.205 241.523 214.72 241.584C214.654 241.593 214.589 241.604 214.525 241.62C213.019 242.019 212.062 244.665 211.99 246.06C211.99 246.146 212.038 247.038 212.085 247.603C212.008 247.275 211.936 246.953 211.853 246.619C211.698 245.951 211.52 245.29 211.33 244.574C211.229 244.231 211.127 243.889 211.02 243.546C210.913 243.203 210.776 242.848 210.657 242.491C210.36 241.674 210.015 240.863 209.658 240.053C210.877 239.799 212.048 239.359 213.133 238.748C213.599 238.438 213.992 238.029 214.284 237.55C214.576 237.071 214.76 236.534 214.822 235.977C214.828 235.734 214.787 235.493 214.7 235.266C214.613 235.04 214.483 234.833 214.316 234.657C214.149 234.481 213.949 234.339 213.728 234.241C213.507 234.142 213.268 234.088 213.026 234.082C212.96 234.08 212.895 234.082 212.829 234.087C211.283 234.254 209.938 236.727 209.652 238.093C209.652 238.178 209.545 239.177 209.504 239.732C209.284 239.243 209.063 238.76 208.825 238.275C208.135 236.875 207.386 235.486 206.653 234.103L205.987 232.817C207.25 232.567 208.465 232.116 209.587 231.482C210.052 231.171 210.444 230.761 210.735 230.283C211.027 229.804 211.212 229.268 211.276 228.711C211.29 228.223 211.11 227.749 210.776 227.393C210.441 227.038 209.98 226.83 209.492 226.815C209.422 226.814 209.353 226.816 209.283 226.821C207.736 226.989 206.392 229.462 206.112 230.827C206.112 230.928 205.957 232.369 205.945 232.74C205.458 231.798 204.975 230.855 204.548 229.912C203.954 228.636 203.445 227.322 203.024 225.979C204.296 225.732 205.52 225.279 206.647 224.638C207.114 224.328 207.508 223.919 207.8 223.441C208.092 222.962 208.275 222.424 208.337 221.867C208.343 221.607 208.295 221.35 208.196 221.11C208.097 220.87 207.948 220.654 207.761 220.476C207.573 220.297 207.35 220.16 207.106 220.073C206.862 219.986 206.602 219.951 206.344 219.971C204.797 220.143 203.453 222.617 203.173 223.983C203.173 224.068 203.054 225.174 203.018 225.696H202.933C202.547 224.332 202.282 222.935 202.141 221.524C202.056 220.753 202.011 220.004 201.993 219.277C203.252 219.159 204.486 218.848 205.651 218.353C206.15 218.098 206.587 217.735 206.929 217.291C207.272 216.846 207.512 216.331 207.632 215.783C207.666 215.543 207.652 215.3 207.592 215.065C207.531 214.831 207.425 214.611 207.28 214.418C207.135 214.225 206.953 214.063 206.745 213.94C206.537 213.817 206.307 213.737 206.068 213.703C205.995 213.692 205.922 213.686 205.848 213.685C204.295 213.685 202.683 215.992 202.278 217.315C202.278 217.392 202.1 218.149 201.993 218.704V217.72C201.993 216.528 202.07 215.461 202.141 214.502C202.189 213.959 202.242 213.473 202.296 213.011C203.354 212.327 204.301 211.485 205.104 210.514C205.429 210.057 205.651 209.535 205.754 208.983C205.858 208.431 205.84 207.864 205.703 207.32C205.617 207.075 205.48 206.851 205.301 206.663C205.123 206.475 204.906 206.326 204.667 206.227C204.427 206.128 204.169 206.081 203.91 206.088C203.651 206.096 203.396 206.158 203.163 206.271C201.782 206.992 201.414 209.784 201.645 211.155C201.645 211.274 202.187 213.098 202.211 213.08H202.241C202.181 213.521 202.116 213.992 202.062 214.51C201.967 215.464 201.871 216.549 201.842 217.735C201.798 219.011 201.827 220.288 201.928 221.561C202.039 222.987 202.276 224.401 202.636 225.786V225.834C202.392 225.447 201.666 224.392 201.609 224.32C200.699 223.265 198.32 221.763 196.886 222.372C196.65 222.48 196.44 222.636 196.269 222.831C196.097 223.026 195.968 223.254 195.891 223.502C195.814 223.75 195.789 224.012 195.819 224.27C195.849 224.527 195.933 224.776 196.065 225C196.499 225.955 197.771 226.432 198.8 226.581Z" fill="#263238"/>
<path opacity="0.3" d="M197.853 218.642C199.11 218.973 200.409 219.118 201.708 219.07C201.708 219.07 201.11 217.282 201.066 217.169C200.467 215.912 198.567 213.831 197.026 214.04C196.786 214.08 196.557 214.167 196.351 214.295C196.144 214.424 195.965 214.592 195.824 214.79C195.683 214.988 195.581 215.212 195.527 215.449C195.472 215.686 195.464 215.932 195.503 216.172C195.515 216.235 195.528 216.297 195.545 216.359C195.74 216.885 196.048 217.362 196.447 217.756C196.846 218.15 197.326 218.452 197.853 218.642Z" fill="#263238"/>
<path opacity="0.3" d="M225.518 219.244C225.518 219.244 226.017 217.426 226.035 217.307C226.226 215.924 225.785 213.135 224.381 212.467C224.16 212.368 223.922 212.312 223.68 212.305C223.438 212.297 223.196 212.337 222.97 212.423C222.743 212.509 222.536 212.639 222.359 212.805C222.183 212.971 222.041 213.171 221.941 213.392C221.914 213.452 221.89 213.513 221.87 213.575C221.744 214.123 221.739 214.691 221.854 215.24C221.969 215.79 222.202 216.308 222.537 216.758C223.402 217.73 224.406 218.568 225.518 219.244Z" fill="#263238"/>
<path opacity="0.3" d="M198.8 226.581C200.086 226.573 201.364 226.371 202.59 225.981C202.992 227.379 203.487 228.749 204.071 230.081C204.413 230.862 204.773 231.636 205.142 232.406C204.922 232.084 204.719 231.806 204.69 231.756C203.779 230.702 201.4 229.199 199.966 229.808C199.731 229.916 199.52 230.072 199.349 230.267C199.177 230.462 199.049 230.691 198.971 230.939C198.894 231.186 198.869 231.448 198.899 231.706C198.929 231.964 199.013 232.213 199.145 232.436C199.472 232.893 199.895 233.273 200.384 233.548C200.874 233.823 201.418 233.986 201.977 234.027C203.228 234.027 204.472 233.836 205.666 233.461C205.808 233.753 205.951 234.061 206.1 234.343C206.808 235.755 207.516 237.156 208.176 238.556C208.408 239.051 208.617 239.546 208.824 240.034C208.628 239.748 208.462 239.504 208.432 239.468C207.522 238.413 205.142 236.911 203.708 237.525C203.473 237.633 203.263 237.789 203.092 237.983C202.92 238.177 202.792 238.406 202.715 238.653C202.637 238.9 202.612 239.161 202.642 239.419C202.672 239.676 202.755 239.924 202.887 240.147C203.215 240.604 203.638 240.983 204.127 241.259C204.617 241.535 205.16 241.701 205.719 241.745C206.931 241.763 208.137 241.579 209.289 241.202C209.492 241.716 209.693 242.231 209.888 242.734C209.995 243.076 210.125 243.407 210.215 243.762C210.305 244.117 210.412 244.459 210.507 244.805C210.668 245.472 210.834 246.158 210.976 246.813C211.077 247.267 211.161 247.701 211.25 248.136C211.03 247.648 210.566 246.688 210.519 246.616C209.782 245.424 207.658 243.589 206.146 243.976C205.898 244.047 205.667 244.17 205.47 244.337C205.272 244.503 205.112 244.71 205 244.943C204.887 245.176 204.825 245.43 204.818 245.688C204.81 245.947 204.858 246.204 204.956 246.443C205.211 246.943 205.571 247.382 206.012 247.729C206.453 248.076 206.963 248.323 207.509 248.452C208.604 248.785 211.025 248.452 211.328 248.452C211.471 249.172 211.608 249.882 211.721 250.549C211.97 251.944 212.155 253.206 212.319 254.287H213.33C213.159 253.166 212.932 251.849 212.64 250.382C212.497 249.644 212.325 248.856 212.147 248.052C212.876 247.761 213.587 247.427 214.276 247.052C215.215 247.86 216.26 248.536 217.382 249.06C217.103 249.746 216.829 250.407 216.555 251.031C216.026 252.259 215.52 253.35 215.068 254.287H216.169C216.549 253.424 216.972 252.458 217.406 251.391C217.692 250.693 218.005 249.949 218.274 249.174C219.521 249.47 220.805 249.57 222.082 249.472C222.633 249.386 223.159 249.182 223.624 248.873C224.09 248.565 224.483 248.159 224.777 247.684C224.885 247.467 224.949 247.23 224.965 246.988C224.982 246.746 224.95 246.503 224.873 246.273C224.796 246.043 224.674 245.831 224.515 245.648C224.356 245.465 224.162 245.315 223.945 245.207C223.885 245.177 223.823 245.15 223.759 245.127C222.283 244.632 220.029 246.319 219.202 247.434C219.154 247.5 218.702 248.28 218.432 248.775C218.551 248.459 218.67 248.175 218.782 247.827C219.02 247.184 219.235 246.534 219.473 245.836C219.574 245.494 219.675 245.151 219.782 244.8C219.89 244.448 219.967 244.084 220.056 243.721C220.258 242.874 220.419 242.007 220.569 241.134C221.724 241.595 222.941 241.876 224.181 241.968C224.742 241.966 225.295 241.841 225.803 241.602C226.311 241.364 226.76 241.016 227.12 240.585C227.26 240.388 227.361 240.166 227.415 239.93C227.47 239.694 227.478 239.45 227.438 239.211C227.398 238.972 227.312 238.744 227.184 238.538C227.056 238.333 226.889 238.155 226.692 238.015C226.638 237.977 226.582 237.941 226.521 237.907C225.134 237.192 222.654 238.507 221.667 239.493C221.607 239.559 220.976 240.339 220.64 240.778C220.726 240.248 220.811 239.723 220.878 239.187C221.069 237.637 221.22 236.063 221.366 234.496C221.414 234.02 221.467 233.542 221.515 233.06C222.711 233.539 223.972 233.834 225.257 233.936C225.816 233.934 226.369 233.81 226.875 233.572C227.382 233.334 227.83 232.988 228.19 232.559C228.33 232.362 228.431 232.139 228.485 231.903C228.54 231.667 228.548 231.423 228.508 231.184C228.468 230.946 228.382 230.717 228.254 230.512C228.126 230.306 227.959 230.128 227.762 229.988C227.708 229.95 227.651 229.914 227.591 229.881C226.204 229.165 223.724 230.481 222.737 231.466C222.666 231.543 221.761 232.658 221.547 232.968C221.66 231.919 221.779 230.864 221.94 229.84C222.148 228.446 222.448 227.069 222.838 225.715C224.041 226.198 225.31 226.495 226.601 226.597C227.161 226.595 227.713 226.471 228.22 226.233C228.726 225.995 229.175 225.65 229.534 225.22C229.675 225.023 229.775 224.8 229.83 224.565C229.885 224.329 229.892 224.084 229.853 223.846C229.813 223.607 229.726 223.378 229.599 223.173C229.471 222.968 229.303 222.79 229.107 222.649C229.053 222.611 228.996 222.575 228.936 222.543C227.549 221.827 225.069 223.143 224.081 224.128C224.016 224.194 223.332 225.052 223.011 225.469L222.934 225.427C223.36 224.077 223.907 222.768 224.57 221.517C224.921 220.82 225.301 220.176 225.682 219.557C226.804 220.147 228.007 220.571 229.251 220.815C229.809 220.885 230.375 220.827 230.907 220.645C231.439 220.463 231.923 220.163 232.321 219.766C232.481 219.583 232.604 219.371 232.682 219.142C232.76 218.912 232.792 218.669 232.777 218.427C232.761 218.185 232.698 217.948 232.592 217.731C232.485 217.513 232.336 217.318 232.154 217.158C232.105 217.115 232.053 217.074 232 217.036C230.703 216.172 228.091 217.207 227.002 218.078C226.943 218.126 226.404 218.678 226.003 219.074C226.175 218.8 226.354 218.514 226.527 218.251C227.181 217.268 227.836 216.404 228.425 215.647C228.767 215.224 229.079 214.843 229.377 214.491C230.636 214.51 231.891 214.331 233.095 213.961C233.618 213.759 234.09 213.443 234.478 213.038C234.866 212.632 235.159 212.145 235.338 211.613C235.396 211.377 235.407 211.131 235.37 210.89C235.333 210.65 235.249 210.419 235.123 210.211C234.997 210.002 234.832 209.821 234.636 209.677C234.44 209.533 234.217 209.429 233.981 209.371C233.921 209.357 233.859 209.345 233.797 209.336C232.245 209.169 230.407 211.297 229.835 212.573C229.788 212.68 229.237 214.492 229.237 214.492H229.267C228.975 214.826 228.668 215.184 228.333 215.589C227.734 216.334 227.05 217.18 226.376 218.152C225.633 219.193 224.953 220.278 224.341 221.401C223.647 222.65 223.066 223.958 222.603 225.311V223.528C222.425 222.145 221.265 219.577 219.736 219.297C219.475 219.239 219.204 219.238 218.942 219.295C218.68 219.353 218.434 219.466 218.221 219.629C218.007 219.791 217.832 219.998 217.706 220.235C217.58 220.472 217.508 220.733 217.493 221.001C217.516 221.562 217.66 222.111 217.915 222.61C218.171 223.11 218.533 223.547 218.975 223.892C220.052 224.599 221.229 225.14 222.467 225.495C222.032 226.883 221.689 228.299 221.441 229.732C221.292 230.567 221.167 231.413 221.054 232.265V231.467C220.876 230.084 219.716 227.516 218.187 227.235C217.931 227.195 217.67 227.209 217.42 227.276C217.17 227.343 216.937 227.463 216.736 227.626C216.535 227.79 216.371 227.994 216.254 228.226C216.137 228.457 216.07 228.711 216.057 228.97C216.08 229.531 216.224 230.081 216.48 230.581C216.736 231.081 217.097 231.52 217.539 231.866C218.581 232.557 219.722 233.084 220.923 233.427C220.888 233.756 220.838 234.083 220.805 234.405C220.614 235.972 220.436 237.54 220.206 239.066C220.129 239.608 220.027 240.133 219.932 240.663V239.972C219.753 238.589 218.599 236.02 217.065 235.74C216.809 235.7 216.548 235.713 216.298 235.781C216.047 235.848 215.814 235.967 215.613 236.131C215.412 236.295 215.248 236.499 215.131 236.73C215.014 236.962 214.947 237.215 214.935 237.475C214.958 238.035 215.102 238.584 215.358 239.083C215.614 239.582 215.975 240.02 216.417 240.365C217.426 241.047 218.536 241.566 219.706 241.902C219.593 242.439 219.48 242.975 219.35 243.494C219.249 243.845 219.179 244.191 219.058 244.537C218.937 244.882 218.838 245.222 218.725 245.565C218.493 246.208 218.256 246.876 218.011 247.501C217.844 247.93 217.678 248.342 217.511 248.759C217.597 248.223 217.737 247.174 217.737 247.085C217.722 245.858 217.393 244.655 216.779 243.592C216.791 243.457 216.791 243.322 216.779 243.187C216.718 242.701 216.467 242.259 216.081 241.958C215.694 241.658 215.205 241.523 214.72 241.584C214.654 241.593 214.589 241.604 214.525 241.62C213.019 242.019 212.062 244.665 211.99 246.06C211.99 246.146 212.038 247.038 212.085 247.603C212.008 247.275 211.936 246.953 211.853 246.619C211.698 245.951 211.52 245.29 211.33 244.574C211.229 244.231 211.127 243.889 211.02 243.546C210.913 243.203 210.776 242.848 210.657 242.491C210.36 241.674 210.015 240.863 209.658 240.053C210.877 239.799 212.048 239.359 213.133 238.748C213.599 238.438 213.992 238.029 214.284 237.55C214.576 237.071 214.76 236.534 214.822 235.977C214.828 235.734 214.787 235.493 214.7 235.266C214.613 235.04 214.483 234.833 214.316 234.657C214.149 234.481 213.949 234.339 213.728 234.241C213.507 234.142 213.268 234.088 213.026 234.082C212.96 234.08 212.895 234.082 212.829 234.087C211.283 234.254 209.938 236.727 209.652 238.093C209.652 238.178 209.545 239.177 209.504 239.732C209.284 239.243 209.063 238.76 208.825 238.275C208.135 236.875 207.386 235.486 206.653 234.103L205.987 232.817C207.25 232.567 208.465 232.116 209.587 231.482C210.052 231.171 210.444 230.761 210.735 230.283C211.027 229.804 211.212 229.268 211.276 228.711C211.29 228.223 211.11 227.749 210.776 227.393C210.441 227.038 209.98 226.83 209.492 226.815C209.422 226.814 209.353 226.816 209.283 226.821C207.736 226.989 206.392 229.462 206.112 230.827C206.112 230.928 205.957 232.369 205.945 232.74C205.458 231.798 204.975 230.855 204.548 229.912C203.954 228.636 203.445 227.322 203.024 225.979C204.296 225.732 205.52 225.279 206.647 224.638C207.114 224.328 207.508 223.919 207.8 223.441C208.092 222.962 208.275 222.424 208.337 221.867C208.343 221.607 208.295 221.35 208.196 221.11C208.097 220.87 207.948 220.654 207.761 220.476C207.573 220.297 207.35 220.16 207.106 220.073C206.862 219.986 206.602 219.951 206.344 219.971C204.797 220.143 203.453 222.617 203.173 223.983C203.173 224.068 203.054 225.174 203.018 225.696H202.933C202.547 224.332 202.282 222.935 202.141 221.524C202.056 220.753 202.011 220.004 201.993 219.277C203.252 219.159 204.486 218.848 205.651 218.353C206.15 218.098 206.587 217.735 206.929 217.291C207.272 216.846 207.512 216.331 207.632 215.783C207.666 215.543 207.652 215.3 207.592 215.065C207.531 214.831 207.425 214.611 207.28 214.418C207.135 214.225 206.953 214.063 206.745 213.94C206.537 213.817 206.307 213.737 206.068 213.703C205.995 213.692 205.922 213.686 205.848 213.685C204.295 213.685 202.683 215.992 202.278 217.315C202.278 217.392 202.1 218.149 201.993 218.704V217.72C201.993 216.528 202.07 215.461 202.141 214.502C202.189 213.959 202.242 213.473 202.296 213.011C203.354 212.327 204.301 211.485 205.104 210.514C205.429 210.057 205.651 209.535 205.754 208.983C205.858 208.431 205.84 207.864 205.703 207.32C205.617 207.075 205.48 206.851 205.301 206.663C205.123 206.475 204.906 206.326 204.667 206.227C204.427 206.128 204.169 206.081 203.91 206.088C203.651 206.096 203.396 206.158 203.163 206.271C201.782 206.992 201.414 209.784 201.645 211.155C201.645 211.274 202.187 213.098 202.211 213.08H202.241C202.181 213.521 202.116 213.992 202.062 214.51C201.967 215.464 201.871 216.549 201.842 217.735C201.798 219.011 201.827 220.288 201.928 221.561C202.039 222.987 202.276 224.401 202.636 225.786V225.834C202.392 225.447 201.666 224.392 201.609 224.32C200.699 223.265 198.32 221.763 196.886 222.372C196.65 222.48 196.44 222.636 196.269 222.831C196.097 223.026 195.968 223.254 195.891 223.502C195.814 223.75 195.789 224.012 195.819 224.27C195.849 224.527 195.933 224.776 196.065 225C196.499 225.955 197.771 226.432 198.8 226.581Z" fill="#263238"/>
<path d="M35.8028 219.244C35.8028 219.244 36.3023 217.426 36.3203 217.307C36.511 215.924 36.0705 213.135 34.666 212.467C34.4453 212.367 34.207 212.312 33.9649 212.305C33.7229 212.297 33.4817 212.337 33.2551 212.423C33.0286 212.509 32.8212 212.639 32.6447 212.805C32.4682 212.971 32.3261 213.171 32.2265 213.392C32.1993 213.451 32.1756 213.513 32.1556 213.575C32.0295 214.122 32.0239 214.69 32.1389 215.24C32.254 215.789 32.487 216.307 32.8219 216.758C33.687 217.73 34.6916 218.568 35.8028 219.244Z" fill="#263238"/>
<path d="M8.14026 218.642C9.39731 218.973 10.6963 219.118 11.9954 219.07C12.0014 219.07 11.3966 217.282 11.353 217.169C10.7542 215.912 8.85449 213.831 7.31313 214.04C7.07342 214.08 6.84388 214.167 6.63762 214.295C6.43137 214.424 6.25245 214.592 6.11106 214.79C5.96968 214.988 5.86861 215.212 5.81362 215.449C5.75863 215.686 5.75081 215.932 5.79059 216.172C5.80171 216.235 5.81539 216.297 5.83164 216.359C6.02743 216.885 6.33545 217.362 6.73419 217.756C7.13294 218.15 7.6128 218.452 8.14026 218.642Z" fill="#263238"/>
<path d="M9.08089 226.58C10.3688 226.572 11.6483 226.37 12.8761 225.981C13.2781 227.379 13.773 228.749 14.3576 230.081C14.6952 230.876 15.0522 231.65 15.4285 232.405C15.2087 232.083 15.006 231.805 14.9701 231.755C14.0599 230.7 11.6863 229.198 10.2527 229.807C10.017 229.915 9.80658 230.071 9.63514 230.266C9.46371 230.461 9.33509 230.69 9.25765 230.937C9.18021 231.185 9.15568 231.447 9.18565 231.705C9.21561 231.963 9.29941 232.211 9.43159 232.435C9.75721 232.891 10.1788 233.27 10.6665 233.545C11.1542 233.82 11.6962 233.984 12.2543 234.026C13.5072 234.025 14.7527 233.834 15.9486 233.46C16.0914 233.752 16.2343 234.06 16.3831 234.341C17.0913 235.754 17.7987 237.155 18.4531 238.555C18.6849 239.049 18.8996 239.545 19.1074 240.033C18.9107 239.747 18.7388 239.503 18.7088 239.467C17.7987 238.412 15.4251 236.91 13.9915 237.524C13.5467 237.728 13.2008 238.1 13.0298 238.559C12.8588 239.018 12.8768 239.526 13.0797 239.971C13.107 240.03 13.1372 240.087 13.1704 240.143C13.4966 240.599 13.9182 240.978 14.4057 241.254C14.8932 241.53 15.4349 241.696 15.9931 241.74C17.2046 241.758 18.4107 241.574 19.5625 241.198C19.7643 241.712 19.9671 242.226 20.1612 242.729C20.2682 243.072 20.399 243.403 20.4888 243.757C20.5787 244.112 20.6856 244.455 20.7805 244.8C20.9413 245.468 21.1081 246.153 21.2501 246.809C21.351 247.261 21.4349 247.697 21.5238 248.132C21.298 247.643 20.8395 246.684 20.7925 246.612C20.0552 245.42 17.9313 243.584 16.4199 243.971C16.1875 244.04 15.9708 244.153 15.7821 244.305C15.5935 244.458 15.4366 244.646 15.3205 244.859C15.2044 245.071 15.1313 245.305 15.1053 245.547C15.0794 245.788 15.1011 246.032 15.1694 246.265C15.1867 246.323 15.2069 246.38 15.2301 246.436C15.4866 246.936 15.8481 247.374 16.2897 247.721C16.7313 248.068 17.2426 248.315 17.7885 248.445C18.8833 248.779 21.304 248.445 21.6076 248.445C21.7505 249.166 21.8874 249.875 22.0003 250.542C22.244 251.937 22.4348 253.199 22.599 254.279H23.616C23.4373 253.158 23.2174 251.841 22.9258 250.375C22.7769 249.637 22.6101 248.849 22.4322 248.044C23.1611 247.753 23.8723 247.419 24.5621 247.044C25.501 247.852 26.5459 248.528 27.6679 249.052C27.3882 249.738 27.1085 250.399 26.8407 251.023C26.3113 252.251 25.8058 253.342 25.3533 254.279H26.4541C26.8348 253.415 27.2573 252.45 27.6918 251.383C27.9775 250.685 28.2906 249.941 28.56 249.166C29.8061 249.462 31.0904 249.562 32.3672 249.464C32.9183 249.378 33.4442 249.173 33.9093 248.864C34.3744 248.556 34.7677 248.15 35.0625 247.676C35.1702 247.459 35.2341 247.222 35.2507 246.98C35.2672 246.738 35.2359 246.495 35.1587 246.265C35.0815 246.035 34.9599 245.823 34.8007 245.64C34.6415 245.457 34.448 245.307 34.2311 245.199C34.1705 245.169 34.1082 245.142 34.0446 245.119C32.5691 244.624 30.3144 246.311 29.4872 247.426C29.4393 247.492 28.9877 248.272 28.7174 248.767C28.8363 248.451 28.9552 248.167 29.0681 247.819C29.3059 247.175 29.5206 246.526 29.7584 245.828C29.8593 245.486 29.9602 245.143 30.068 244.792C30.1758 244.44 30.2468 244.076 30.3417 243.713C30.5436 242.866 30.7044 241.999 30.8549 241.126C32.0093 241.587 33.2271 241.868 34.4663 241.96C35.0272 241.958 35.5808 241.833 36.0885 241.594C36.5962 241.356 37.0456 241.008 37.4053 240.577C37.5459 240.38 37.6463 240.158 37.7009 239.922C37.7555 239.686 37.7632 239.442 37.7235 239.203C37.6837 238.964 37.5974 238.736 37.4694 238.53C37.3415 238.325 37.1743 238.147 36.9776 238.007C36.9237 237.969 36.8673 237.933 36.8065 237.9C35.42 237.185 32.9395 238.5 31.9524 239.486C31.8925 239.551 31.2621 240.332 30.9259 240.771C31.0115 240.24 31.097 239.716 31.1637 239.18C31.3545 237.63 31.4965 236.057 31.6513 234.489C31.6992 234.012 31.7522 233.535 31.8001 233.053C32.9941 233.532 34.2539 233.827 35.5363 233.928C36.0967 233.927 36.6501 233.803 37.1578 233.565C37.6654 233.327 38.1151 232.981 38.4754 232.551C38.6159 232.355 38.7164 232.132 38.771 231.896C38.8256 231.66 38.8332 231.416 38.7935 231.177C38.7538 230.938 38.6675 230.71 38.5395 230.505C38.4115 230.299 38.2444 230.121 38.0477 229.981C37.9938 229.943 37.9373 229.907 37.8766 229.874C36.4901 229.158 34.0095 230.473 33.0224 231.459C32.9514 231.536 32.0465 232.651 31.8326 232.961C31.9395 231.912 32.0644 230.857 32.2252 229.832C32.4336 228.439 32.7336 227.062 33.1234 225.708C34.3262 226.191 35.5951 226.488 36.8869 226.59C37.4464 226.588 37.9988 226.464 38.5054 226.226C39.012 225.988 39.4607 225.642 39.82 225.213C39.9606 225.016 40.061 224.793 40.1156 224.557C40.1702 224.322 40.1779 224.077 40.1381 223.839C40.0984 223.6 40.0121 223.371 39.8841 223.166C39.7561 222.961 39.589 222.783 39.3923 222.642C39.3384 222.603 39.282 222.568 39.2212 222.535C37.8347 221.819 35.3541 223.135 34.3671 224.12C34.3021 224.186 33.6178 225.044 33.2962 225.461L33.2192 225.419C33.6454 224.069 34.1931 222.76 34.8555 221.509C35.2062 220.812 35.5868 220.168 35.9674 219.549C37.0899 220.139 38.2924 220.563 39.5369 220.806C40.0945 220.877 40.6607 220.819 41.1926 220.637C41.7245 220.455 42.2081 220.155 42.6067 219.758C42.7667 219.575 42.8893 219.363 42.9675 219.134C43.0457 218.904 43.078 218.661 43.0625 218.419C43.047 218.177 42.984 217.94 42.8772 217.723C42.7704 217.505 42.6218 217.31 42.4399 217.15C42.3905 217.107 42.3388 217.066 42.2851 217.027C40.9884 216.163 38.3761 217.199 37.2881 218.07C37.2282 218.118 36.6894 218.67 36.2831 219.065L36.8125 218.243C37.4669 217.259 38.1212 216.395 38.7106 215.638C39.0527 215.215 39.3649 214.834 39.6626 214.482C40.9201 214.501 42.1728 214.322 43.3749 213.952C43.8981 213.749 44.3706 213.433 44.7591 213.028C45.1476 212.622 45.4427 212.136 45.6236 211.604C45.74 211.127 45.6623 210.622 45.4078 210.202C45.1533 209.782 44.7426 209.48 44.2661 209.363C44.2034 209.348 44.1404 209.336 44.0771 209.327C42.5306 209.16 40.6924 211.288 40.1211 212.564C40.0732 212.671 39.5223 214.483 39.5223 214.483C39.2306 214.817 38.9236 215.175 38.5883 215.58C37.9895 216.325 37.3052 217.171 36.6209 218.143C35.8824 219.186 35.205 220.27 34.592 221.392C33.8986 222.641 33.3172 223.95 32.8548 225.302V223.519C32.676 222.136 31.5161 219.568 29.9876 219.288C29.7318 219.247 29.4704 219.261 29.2202 219.328C28.9701 219.396 28.7369 219.515 28.536 219.679C28.335 219.842 28.1707 220.047 28.0539 220.278C27.937 220.51 27.8702 220.763 27.8578 221.022C27.8799 221.583 28.0239 222.132 28.2798 222.632C28.5357 223.131 28.8972 223.568 29.3393 223.913C30.416 224.621 31.5935 225.161 32.8317 225.516C32.3933 226.903 32.0504 228.319 31.8053 229.754C31.6564 230.588 31.5315 231.434 31.4186 232.287V231.488C31.2399 230.105 30.086 227.537 28.5515 227.256C28.0683 227.182 27.5752 227.302 27.1806 227.591C26.786 227.881 26.5223 228.315 26.4473 228.799C26.4371 228.862 26.4306 228.926 26.4276 228.99C26.4489 229.552 26.5925 230.102 26.8484 230.602C27.1043 231.103 27.4663 231.541 27.9091 231.886C28.9512 232.577 30.093 233.104 31.2946 233.448C31.2587 233.776 31.2091 234.103 31.1757 234.425C30.985 235.993 30.8071 237.56 30.577 239.086C30.4914 239.629 30.3982 240.153 30.3032 240.684V239.992C30.1245 238.609 28.9646 236.041 27.4361 235.761C27.2002 235.704 26.9554 235.694 26.7158 235.733C26.4763 235.771 26.2466 235.856 26.04 235.984C25.8334 236.111 25.6539 236.278 25.5118 236.475C25.3698 236.672 25.2679 236.895 25.2121 237.132C25.1878 237.233 25.1724 237.337 25.1659 237.442C25.1889 238.002 25.3333 238.551 25.5891 239.05C25.8449 239.549 26.206 239.987 26.6474 240.332C27.6569 241.014 28.767 241.533 29.9371 241.869C29.8242 242.406 29.7113 242.942 29.5805 243.461C29.4795 243.812 29.4094 244.158 29.2888 244.504C29.1682 244.849 29.063 245.189 28.956 245.532C28.7242 246.175 28.4865 246.843 28.2418 247.469C28.075 247.897 27.9091 248.309 27.7423 248.727C27.8278 248.19 27.9681 247.141 27.9681 247.052C27.9533 245.825 27.6234 244.622 27.0101 243.559C27.022 243.424 27.022 243.289 27.0101 243.154C26.9749 242.895 26.8853 242.647 26.7473 242.426C26.6094 242.204 26.4261 242.015 26.2097 241.87C25.9932 241.724 25.7485 241.627 25.4916 241.583C25.2347 241.54 24.9716 241.551 24.7194 241.617C23.208 242.016 22.2569 244.662 22.185 246.057C22.185 246.143 22.2329 247.035 22.28 247.6C22.203 247.272 22.1311 246.95 22.0482 246.616C21.8933 245.948 21.7154 245.287 21.5247 244.571C21.4237 244.229 21.3228 243.886 21.215 243.543C21.1073 243.2 20.9713 242.846 20.8524 242.488C20.5547 241.672 20.21 240.86 19.8473 240.05C21.0658 239.798 22.2379 239.357 23.3218 238.745C23.7881 238.434 24.1813 238.025 24.474 237.547C24.7668 237.068 24.9521 236.531 25.0171 235.974C25.0234 235.731 24.9819 235.49 24.895 235.263C24.8081 235.037 24.6775 234.83 24.5107 234.654C24.3439 234.478 24.1442 234.337 23.9228 234.238C23.7015 234.139 23.463 234.085 23.2209 234.079C23.1552 234.077 23.0896 234.079 23.0241 234.084C21.4716 234.251 20.127 236.725 19.8473 238.09C19.8473 238.175 19.7404 239.174 19.6985 239.729C19.4787 239.24 19.258 238.757 19.0202 238.272C18.3239 236.872 17.5806 235.483 16.8484 234.1L16.1761 232.814C17.4414 232.565 18.6586 232.115 19.7815 231.479C20.2467 231.168 20.6387 230.758 20.9304 230.28C21.2221 229.801 21.4065 229.265 21.4708 228.708C21.4851 228.22 21.3052 227.746 20.9708 227.39C20.6364 227.035 20.1747 226.827 19.6874 226.813C19.6175 226.811 19.5475 226.813 19.4778 226.819C17.9313 226.986 16.5867 229.459 16.307 230.824C16.307 230.925 16.1522 232.366 16.1402 232.737C15.6526 231.795 15.1702 230.852 14.7365 229.909C14.1474 228.632 13.6405 227.318 13.2191 225.976C14.4914 225.729 15.7151 225.276 16.8424 224.635C17.3084 224.326 17.702 223.92 17.9961 223.444C18.2901 222.968 18.4775 222.434 18.5455 221.878C18.5517 221.619 18.5036 221.361 18.4043 221.122C18.305 220.882 18.1567 220.666 17.9689 220.488C17.7811 220.309 17.558 220.172 17.3141 220.085C17.0701 219.998 16.8107 219.963 16.5525 219.983C15.006 220.154 13.6613 222.629 13.3816 223.994C13.3816 224.08 13.2627 225.186 13.2268 225.708H13.1413C12.7522 224.344 12.4874 222.948 12.3501 221.536C12.2645 220.764 12.2192 220.016 12.2012 219.289C13.4608 219.171 14.6947 218.859 15.8596 218.365C16.3589 218.11 16.7955 217.747 17.138 217.302C17.4806 216.858 17.7205 216.343 17.8406 215.794C17.8743 215.555 17.8606 215.311 17.8002 215.077C17.7398 214.843 17.6339 214.623 17.4886 214.43C17.3433 214.237 17.1615 214.074 16.9534 213.951C16.7454 213.829 16.5153 213.748 16.2762 213.715C16.2031 213.704 16.1294 213.698 16.0555 213.697C14.497 213.697 12.8907 216.003 12.4861 217.327C12.4861 217.404 12.3073 218.161 12.2004 218.716V217.732C12.2004 216.54 12.2714 215.473 12.3492 214.513C12.3971 213.971 12.4442 213.485 12.504 213.023C13.5602 212.337 14.5069 211.495 15.3122 210.526C15.637 210.069 15.8588 209.546 15.9622 208.995C16.0655 208.443 16.0481 207.876 15.9109 207.331C15.7458 206.868 15.4039 206.49 14.9604 206.28C14.5169 206.069 14.0081 206.044 13.5459 206.209C13.4862 206.231 13.4277 206.255 13.3705 206.283C11.99 207.004 11.6213 209.796 11.8531 211.167C11.8531 211.286 12.3946 213.11 12.4185 213.092H12.4484C12.3834 213.533 12.3236 214.003 12.2697 214.522C12.1747 215.476 12.0789 216.56 12.0498 217.746C12.0058 219.022 12.0343 220.3 12.1354 221.573C12.2442 222.99 12.4792 224.396 12.8376 225.771V225.819C12.5939 225.432 11.8677 224.377 11.8026 224.305C10.8925 223.25 8.51892 221.748 7.08534 222.357C6.84959 222.465 6.63917 222.621 6.46774 222.816C6.29631 223.011 6.1677 223.24 6.09026 223.487C6.01282 223.735 5.98828 223.997 6.01825 224.255C6.04822 224.513 6.13201 224.761 6.26419 224.985C6.59076 225.439 7.01166 225.817 7.49791 226.092C7.98416 226.367 8.52421 226.534 9.08089 226.58Z" fill="#263238"/>
<path opacity="0.3" d="M8.14026 218.642C9.39731 218.973 10.6963 219.118 11.9954 219.07C12.0014 219.07 11.3966 217.282 11.353 217.169C10.7542 215.912 8.85449 213.831 7.31313 214.04C7.07342 214.08 6.84388 214.167 6.63762 214.295C6.43137 214.424 6.25245 214.592 6.11106 214.79C5.96968 214.988 5.86861 215.212 5.81362 215.449C5.75863 215.686 5.75081 215.932 5.79059 216.172C5.80171 216.235 5.81539 216.297 5.83164 216.359C6.02743 216.885 6.33545 217.362 6.73419 217.756C7.13294 218.15 7.6128 218.452 8.14026 218.642Z" fill="#263238"/>
<path opacity="0.3" d="M35.8028 219.244C35.8028 219.244 36.3023 217.426 36.3203 217.307C36.511 215.924 36.0705 213.135 34.666 212.467C34.4453 212.367 34.207 212.312 33.9649 212.305C33.7229 212.297 33.4817 212.337 33.2551 212.423C33.0286 212.509 32.8212 212.639 32.6447 212.805C32.4682 212.971 32.3261 213.171 32.2265 213.392C32.1993 213.451 32.1756 213.513 32.1556 213.575C32.0295 214.122 32.0239 214.69 32.1389 215.24C32.254 215.789 32.487 216.307 32.8219 216.758C33.687 217.73 34.6916 218.568 35.8028 219.244Z" fill="#263238"/>
<path opacity="0.3" d="M9.08089 226.58C10.3688 226.572 11.6483 226.37 12.8761 225.981C13.2781 227.379 13.773 228.749 14.3576 230.081C14.6952 230.876 15.0522 231.65 15.4285 232.405C15.2087 232.083 15.006 231.805 14.9701 231.755C14.0599 230.7 11.6863 229.198 10.2527 229.807C10.017 229.915 9.80658 230.071 9.63514 230.266C9.46371 230.461 9.33509 230.69 9.25765 230.937C9.18021 231.185 9.15568 231.447 9.18565 231.705C9.21561 231.963 9.29941 232.211 9.43159 232.435C9.75721 232.891 10.1788 233.27 10.6665 233.545C11.1542 233.82 11.6962 233.984 12.2543 234.026C13.5072 234.025 14.7527 233.834 15.9486 233.46C16.0914 233.752 16.2343 234.06 16.3831 234.341C17.0913 235.754 17.7987 237.155 18.4531 238.555C18.6849 239.049 18.8996 239.545 19.1074 240.033C18.9107 239.747 18.7388 239.503 18.7088 239.467C17.7987 238.412 15.4251 236.91 13.9915 237.524C13.5467 237.728 13.2008 238.1 13.0298 238.559C12.8588 239.018 12.8768 239.526 13.0797 239.971C13.107 240.03 13.1372 240.087 13.1704 240.143C13.4966 240.599 13.9182 240.978 14.4057 241.254C14.8932 241.53 15.4349 241.696 15.9931 241.74C17.2046 241.758 18.4107 241.574 19.5625 241.198C19.7643 241.712 19.9671 242.226 20.1612 242.729C20.2682 243.072 20.399 243.403 20.4888 243.757C20.5787 244.112 20.6856 244.455 20.7805 244.8C20.9413 245.468 21.1081 246.153 21.2501 246.809C21.351 247.261 21.4349 247.697 21.5238 248.132C21.298 247.643 20.8395 246.684 20.7925 246.612C20.0552 245.42 17.9313 243.584 16.4199 243.971C16.1875 244.04 15.9708 244.153 15.7821 244.305C15.5935 244.458 15.4366 244.646 15.3205 244.859C15.2044 245.071 15.1313 245.305 15.1053 245.547C15.0794 245.788 15.1011 246.032 15.1694 246.265C15.1867 246.323 15.2069 246.38 15.2301 246.436C15.4866 246.936 15.8481 247.374 16.2897 247.721C16.7313 248.068 17.2426 248.315 17.7885 248.445C18.8833 248.779 21.304 248.445 21.6076 248.445C21.7505 249.166 21.8874 249.875 22.0003 250.542C22.244 251.937 22.4348 253.199 22.599 254.279H23.616C23.4373 253.158 23.2174 251.841 22.9258 250.375C22.7769 249.637 22.6101 248.849 22.4322 248.044C23.1611 247.753 23.8723 247.419 24.5621 247.044C25.501 247.852 26.5459 248.528 27.6679 249.052C27.3882 249.738 27.1085 250.399 26.8407 251.023C26.3113 252.251 25.8058 253.342 25.3533 254.279H26.4541C26.8348 253.415 27.2573 252.45 27.6918 251.383C27.9775 250.685 28.2906 249.941 28.56 249.166C29.8061 249.462 31.0904 249.562 32.3672 249.464C32.9183 249.378 33.4442 249.173 33.9093 248.864C34.3744 248.556 34.7677 248.15 35.0625 247.676C35.1702 247.459 35.2341 247.222 35.2507 246.98C35.2672 246.738 35.2359 246.495 35.1587 246.265C35.0815 246.035 34.9599 245.823 34.8007 245.64C34.6415 245.457 34.448 245.307 34.2311 245.199C34.1705 245.169 34.1082 245.142 34.0446 245.119C32.5691 244.624 30.3144 246.311 29.4872 247.426C29.4393 247.492 28.9877 248.272 28.7174 248.767C28.8363 248.451 28.9552 248.167 29.0681 247.819C29.3059 247.175 29.5206 246.526 29.7584 245.828C29.8593 245.486 29.9602 245.143 30.068 244.792C30.1758 244.44 30.2468 244.076 30.3417 243.713C30.5436 242.866 30.7044 241.999 30.8549 241.126C32.0093 241.587 33.2271 241.868 34.4663 241.96C35.0272 241.958 35.5808 241.833 36.0885 241.594C36.5962 241.356 37.0456 241.008 37.4053 240.577C37.5459 240.38 37.6463 240.158 37.7009 239.922C37.7555 239.686 37.7632 239.442 37.7235 239.203C37.6837 238.964 37.5974 238.736 37.4694 238.53C37.3415 238.325 37.1743 238.147 36.9776 238.007C36.9237 237.969 36.8673 237.933 36.8065 237.9C35.42 237.185 32.9395 238.5 31.9524 239.486C31.8925 239.551 31.2621 240.332 30.9259 240.771C31.0115 240.24 31.097 239.716 31.1637 239.18C31.3545 237.63 31.4965 236.057 31.6513 234.489C31.6992 234.012 31.7522 233.535 31.8001 233.053C32.9941 233.532 34.2539 233.827 35.5363 233.928C36.0967 233.927 36.6501 233.803 37.1578 233.565C37.6654 233.327 38.1151 232.981 38.4754 232.551C38.6159 232.355 38.7164 232.132 38.771 231.896C38.8256 231.66 38.8332 231.416 38.7935 231.177C38.7538 230.938 38.6675 230.71 38.5395 230.505C38.4115 230.299 38.2444 230.121 38.0477 229.981C37.9938 229.943 37.9373 229.907 37.8766 229.874C36.4901 229.158 34.0095 230.473 33.0224 231.459C32.9514 231.536 32.0465 232.651 31.8326 232.961C31.9395 231.912 32.0644 230.857 32.2252 229.832C32.4336 228.439 32.7336 227.062 33.1234 225.708C34.3262 226.191 35.5951 226.488 36.8869 226.59C37.4464 226.588 37.9988 226.464 38.5054 226.226C39.012 225.988 39.4607 225.642 39.82 225.213C39.9606 225.016 40.061 224.793 40.1156 224.557C40.1702 224.322 40.1779 224.077 40.1381 223.839C40.0984 223.6 40.0121 223.371 39.8841 223.166C39.7561 222.961 39.589 222.783 39.3923 222.642C39.3384 222.603 39.282 222.568 39.2212 222.535C37.8347 221.819 35.3541 223.135 34.3671 224.12C34.3021 224.186 33.6178 225.044 33.2962 225.461L33.2192 225.419C33.6454 224.069 34.1931 222.76 34.8555 221.509C35.2062 220.812 35.5868 220.168 35.9674 219.549C37.0899 220.139 38.2924 220.563 39.5369 220.806C40.0945 220.877 40.6607 220.819 41.1926 220.637C41.7245 220.455 42.2081 220.155 42.6067 219.758C42.7667 219.575 42.8893 219.363 42.9675 219.134C43.0457 218.904 43.078 218.661 43.0625 218.419C43.047 218.177 42.984 217.94 42.8772 217.723C42.7704 217.505 42.6218 217.31 42.4399 217.15C42.3905 217.107 42.3388 217.066 42.2851 217.027C40.9884 216.163 38.3761 217.199 37.2881 218.07C37.2282 218.118 36.6894 218.67 36.2831 219.065L36.8125 218.243C37.4669 217.259 38.1212 216.395 38.7106 215.638C39.0527 215.215 39.3649 214.834 39.6626 214.482C40.9201 214.501 42.1728 214.322 43.3749 213.952C43.8981 213.749 44.3706 213.433 44.7591 213.028C45.1476 212.622 45.4427 212.136 45.6236 211.604C45.74 211.127 45.6623 210.622 45.4078 210.202C45.1533 209.782 44.7426 209.48 44.2661 209.363C44.2034 209.348 44.1404 209.336 44.0771 209.327C42.5306 209.16 40.6924 211.288 40.1211 212.564C40.0732 212.671 39.5223 214.483 39.5223 214.483C39.2306 214.817 38.9236 215.175 38.5883 215.58C37.9895 216.325 37.3052 217.171 36.6209 218.143C35.8824 219.186 35.205 220.27 34.592 221.392C33.8986 222.641 33.3172 223.95 32.8548 225.302V223.519C32.676 222.136 31.5161 219.568 29.9876 219.288C29.7318 219.247 29.4704 219.261 29.2202 219.328C28.9701 219.396 28.7369 219.515 28.536 219.679C28.335 219.842 28.1707 220.047 28.0539 220.278C27.937 220.51 27.8702 220.763 27.8578 221.022C27.8799 221.583 28.0239 222.132 28.2798 222.632C28.5357 223.131 28.8972 223.568 29.3393 223.913C30.416 224.621 31.5935 225.161 32.8317 225.516C32.3933 226.903 32.0504 228.319 31.8053 229.754C31.6564 230.588 31.5315 231.434 31.4186 232.287V231.488C31.2399 230.105 30.086 227.537 28.5515 227.256C28.0683 227.182 27.5752 227.302 27.1806 227.591C26.786 227.881 26.5223 228.315 26.4473 228.799C26.4371 228.862 26.4306 228.926 26.4276 228.99C26.4489 229.552 26.5925 230.102 26.8484 230.602C27.1043 231.103 27.4663 231.541 27.9091 231.886C28.9512 232.577 30.093 233.104 31.2946 233.448C31.2587 233.776 31.2091 234.103 31.1757 234.425C30.985 235.993 30.8071 237.56 30.577 239.086C30.4914 239.629 30.3982 240.153 30.3032 240.684V239.992C30.1245 238.609 28.9646 236.041 27.4361 235.761C27.2002 235.704 26.9554 235.694 26.7158 235.733C26.4763 235.771 26.2466 235.856 26.04 235.984C25.8334 236.111 25.6539 236.278 25.5118 236.475C25.3698 236.672 25.2679 236.895 25.2121 237.132C25.1878 237.233 25.1724 237.337 25.1659 237.442C25.1889 238.002 25.3333 238.551 25.5891 239.05C25.8449 239.549 26.206 239.987 26.6474 240.332C27.6569 241.014 28.767 241.533 29.9371 241.869C29.8242 242.406 29.7113 242.942 29.5805 243.461C29.4795 243.812 29.4094 244.158 29.2888 244.504C29.1682 244.849 29.063 245.189 28.956 245.532C28.7242 246.175 28.4865 246.843 28.2418 247.469C28.075 247.897 27.9091 248.309 27.7423 248.727C27.8278 248.19 27.9681 247.141 27.9681 247.052C27.9533 245.825 27.6234 244.622 27.0101 243.559C27.022 243.424 27.022 243.289 27.0101 243.154C26.9749 242.895 26.8853 242.647 26.7473 242.426C26.6094 242.204 26.4261 242.015 26.2097 241.87C25.9932 241.724 25.7485 241.627 25.4916 241.583C25.2347 241.54 24.9716 241.551 24.7194 241.617C23.208 242.016 22.2569 244.662 22.185 246.057C22.185 246.143 22.2329 247.035 22.28 247.6C22.203 247.272 22.1311 246.95 22.0482 246.616C21.8933 245.948 21.7154 245.287 21.5247 244.571C21.4237 244.229 21.3228 243.886 21.215 243.543C21.1073 243.2 20.9713 242.846 20.8524 242.488C20.5547 241.672 20.21 240.86 19.8473 240.05C21.0658 239.798 22.2379 239.357 23.3218 238.745C23.7881 238.434 24.1813 238.025 24.474 237.547C24.7668 237.068 24.9521 236.531 25.0171 235.974C25.0234 235.731 24.9819 235.49 24.895 235.263C24.8081 235.037 24.6775 234.83 24.5107 234.654C24.3439 234.478 24.1442 234.337 23.9228 234.238C23.7015 234.139 23.463 234.085 23.2209 234.079C23.1552 234.077 23.0896 234.079 23.0241 234.084C21.4716 234.251 20.127 236.725 19.8473 238.09C19.8473 238.175 19.7404 239.174 19.6985 239.729C19.4787 239.24 19.258 238.757 19.0202 238.272C18.3239 236.872 17.5806 235.483 16.8484 234.1L16.1761 232.814C17.4414 232.565 18.6586 232.115 19.7815 231.479C20.2467 231.168 20.6387 230.758 20.9304 230.28C21.2221 229.801 21.4065 229.265 21.4708 228.708C21.4851 228.22 21.3052 227.746 20.9708 227.39C20.6364 227.035 20.1747 226.827 19.6874 226.813C19.6175 226.811 19.5475 226.813 19.4778 226.819C17.9313 226.986 16.5867 229.459 16.307 230.824C16.307 230.925 16.1522 232.366 16.1402 232.737C15.6526 231.795 15.1702 230.852 14.7365 229.909C14.1474 228.632 13.6405 227.318 13.2191 225.976C14.4914 225.729 15.7151 225.276 16.8424 224.635C17.3084 224.326 17.702 223.92 17.9961 223.444C18.2901 222.968 18.4775 222.434 18.5455 221.878C18.5517 221.619 18.5036 221.361 18.4043 221.122C18.305 220.882 18.1567 220.666 17.9689 220.488C17.7811 220.309 17.558 220.172 17.3141 220.085C17.0701 219.998 16.8107 219.963 16.5525 219.983C15.006 220.154 13.6613 222.629 13.3816 223.994C13.3816 224.08 13.2627 225.186 13.2268 225.708H13.1413C12.7522 224.344 12.4874 222.948 12.3501 221.536C12.2645 220.764 12.2192 220.016 12.2012 219.289C13.4608 219.171 14.6947 218.859 15.8596 218.365C16.3589 218.11 16.7955 217.747 17.138 217.302C17.4806 216.858 17.7205 216.343 17.8406 215.794C17.8743 215.555 17.8606 215.311 17.8002 215.077C17.7398 214.843 17.6339 214.623 17.4886 214.43C17.3433 214.237 17.1615 214.074 16.9534 213.951C16.7454 213.829 16.5153 213.748 16.2762 213.715C16.2031 213.704 16.1294 213.698 16.0555 213.697C14.497 213.697 12.8907 216.003 12.4861 217.327C12.4861 217.404 12.3073 218.161 12.2004 218.716V217.732C12.2004 216.54 12.2714 215.473 12.3492 214.513C12.3971 213.971 12.4442 213.485 12.504 213.023C13.5602 212.337 14.5069 211.495 15.3122 210.526C15.637 210.069 15.8588 209.546 15.9622 208.995C16.0655 208.443 16.0481 207.876 15.9109 207.331C15.7458 206.868 15.4039 206.49 14.9604 206.28C14.5169 206.069 14.0081 206.044 13.5459 206.209C13.4862 206.231 13.4277 206.255 13.3705 206.283C11.99 207.004 11.6213 209.796 11.8531 211.167C11.8531 211.286 12.3946 213.11 12.4185 213.092H12.4484C12.3834 213.533 12.3236 214.003 12.2697 214.522C12.1747 215.476 12.0789 216.56 12.0498 217.746C12.0058 219.022 12.0343 220.3 12.1354 221.573C12.2442 222.99 12.4792 224.396 12.8376 225.771V225.819C12.5939 225.432 11.8677 224.377 11.8026 224.305C10.8925 223.25 8.51892 221.748 7.08534 222.357C6.84959 222.465 6.63917 222.621 6.46774 222.816C6.29631 223.011 6.1677 223.24 6.09026 223.487C6.01282 223.735 5.98828 223.997 6.01825 224.255C6.04822 224.513 6.13201 224.761 6.26419 224.985C6.59076 225.439 7.01166 225.817 7.49791 226.092C7.98416 226.367 8.52421 226.534 9.08089 226.58Z" fill="#263238"/>
<path d="M168.918 245.651L173.083 253.262C174.605 253.606 176.2 253.393 177.58 252.662C179.906 251.416 182.387 249.551 184.095 248.931C185.802 248.312 190.919 245.045 192.316 242.56C193.714 240.075 194.172 238.388 191.847 238.984C189.862 239.531 187.843 239.945 185.803 240.224C183.582 240.392 181.352 240.392 179.131 240.224L168.918 245.651Z" fill="white" stroke="#263238" stroke-miterlimit="10"/>
<path d="M115.453 243.267C116.675 245.118 118.258 246.703 120.105 247.927C122.902 249.641 127.554 250.729 127.244 252.278C126.935 253.827 123.675 255.073 120.426 254.609C116.056 253.792 111.752 252.651 107.55 251.194C105.688 250.413 104.605 250.258 104.605 249.018C104.605 247.778 108.02 239.078 108.02 239.078L115.453 243.267Z" fill="white" stroke="#263238" stroke-miterlimit="10"/>
<path d="M133.246 105.145C133.246 105.145 127.505 111.641 125.328 115.872C123.151 120.104 114.227 133.985 115.47 136.077C116.713 138.168 123.114 144.856 126.387 147.103C129.659 149.349 132.514 151.769 132.514 151.769L134.989 149.898C134.989 149.898 130.48 143.533 127.85 139.211C125.221 134.89 123.638 132.655 123.638 132.655C123.638 132.655 130.909 123.715 132.758 121.385C134.608 119.055 135.257 108.869 135.341 107.957C135.424 107.045 134.709 103.953 133.246 105.145Z" fill="white" stroke="#263238" stroke-miterlimit="10"/>
<path d="M153.155 73.616C153.155 73.616 155.184 75.8037 155.356 78.1217C155.528 80.4396 154.915 82.6753 156.382 83.6582C157.849 84.6411 159.577 84.8502 158.697 85.5117C157.817 86.1732 156.193 87.4072 156.193 87.4072C156.193 87.4072 155.472 94.4699 154.723 94.8392C153.974 95.2086 147.804 95.9772 147.804 95.9772C147.804 95.9772 145.597 99.7202 146.067 101.866C146.536 104.012 150.32 111.056 152.658 115.405C154.996 119.754 155.127 121.449 154.198 125.728C153.269 130.006 150.343 148.197 150.498 151.147C150.652 154.098 152.823 158.448 152.823 158.448C152.823 158.448 165.234 192.629 166.625 196.509C168.017 200.389 167.559 209.562 168.487 212.976C169.416 216.391 175.465 228.359 176.4 230.535C177.334 232.71 180.855 237.418 180.855 237.418L181.625 238.973C181.625 238.973 179.453 240.839 176.973 242.698C174.981 244.171 172.773 245.325 170.428 246.119C169.345 246.429 167.948 246.891 167.948 246.891C167.948 246.891 163.189 238.451 161.32 233.945C159.452 229.439 156.359 224.468 155.74 217.948C155.121 211.428 153.105 205.516 151.397 200.39C149.69 195.264 144.11 186.251 144.11 186.251C144.11 186.251 139.612 204.273 136.043 208.625C132.473 212.976 127.363 224.622 124.103 230.528C120.843 236.434 119.296 237.829 118.987 240.624C118.812 242.266 118.449 243.881 117.904 245.44C117.904 245.44 112.472 244.355 109.682 242.489C107.836 241.214 106.123 239.756 104.566 238.139C104.566 238.139 112.301 221.515 116.043 214.215C119.785 206.916 124.259 190.756 124.413 189.666C124.568 188.576 126.124 179.415 126.739 177.395C127.354 175.374 127.518 175.219 127.363 174.138C127.209 173.058 123.021 166.527 124.722 160.156C126.423 153.785 131.052 147.533 131.052 147.533C131.052 147.533 133.765 137.997 133.741 135.494C133.717 132.991 131.112 127.275 130.391 121.721C129.671 116.166 130.017 108.198 132.521 104.27C135.026 100.341 139.066 94.1374 139.291 92.7132C139.517 91.289 140.285 89.3635 138.375 84.5245C136.466 79.6855 140.969 75.4532 144.106 73.6597C147.244 71.8662 153.155 73.616 153.155 73.616Z" fill="white" stroke="#263238" stroke-miterlimit="10"/>
<path d="M153.617 83.9396C153.91 83.9396 154.147 83.3471 154.147 82.6162C154.147 81.8852 153.91 81.2927 153.617 81.2927C153.325 81.2927 153.088 81.8852 153.088 82.6162C153.088 83.3471 153.325 83.9396 153.617 83.9396Z" fill="#263238"/>
<path d="M152.211 80.4158C152.331 80.2557 152.484 80.1228 152.659 80.0258C152.834 79.9288 153.028 79.8699 153.227 79.853C153.426 79.8361 153.627 79.8615 153.816 79.9276C154.005 79.9938 154.177 80.0991 154.323 80.2367" stroke="#263238" stroke-miterlimit="10"/>
<path d="M155.727 89.7558C155.195 89.8278 154.655 89.7301 154.182 89.4765C153.708 89.2229 153.327 88.8264 153.092 88.3433" stroke="#263238" stroke-miterlimit="10"/>
<path d="M149.26 166.21L144.607 184.388" stroke="#263238" stroke-miterlimit="10"/>
<path d="M160.736 208.468C160.736 208.468 159.782 221.21 159.184 225.538" stroke="#263238" stroke-miterlimit="10"/>
<path d="M162.597 215.774C162.597 215.774 161.199 225.871 161.199 226.8" stroke="#263238" stroke-miterlimit="10"/>
<path d="M144.751 84.0517C144.751 84.0517 142.134 80.1956 140.159 82.9909C138.184 85.7861 139.957 88.6114 141.069 88.9987C141.339 89.1167 141.63 89.1776 141.924 89.1776C142.219 89.1776 142.51 89.1167 142.78 88.9987C142.119 90.974 141.156 92.8341 139.924 94.5121C137.943 97.1523 132.69 99.7213 128.43 98.9467C124.17 98.172 116.145 90.5069 117.686 84.0046C119.226 77.5023 120.857 74.2718 122.713 74.1287C124.569 73.9856 125.688 76.4055 127.845 76.2444C130.002 76.0833 132.652 67.6324 140.302 65.9751C147.953 64.3178 154.449 68.0428 155.264 70.6299C156.08 73.2169 154.943 74.7062 154.17 74.7602C153.396 74.8142 150.32 73.1749 148.541 74.3969C146.762 75.6188 147.943 76.9359 148.185 78.0088C148.427 79.0816 146.62 79.9934 146.703 81.0783C146.786 82.1631 147.031 83.3919 146.411 83.4622C145.832 83.5741 145.272 83.7728 144.751 84.0517Z" fill="#263238" stroke="#263238" stroke-miterlimit="10"/>
<path d="M152.639 115.401C152.04 114.287 151.342 113.017 150.634 111.652C150.401 111.769 150.149 111.841 149.89 111.866C147.879 112.015 143.346 105.34 138.801 102.718C138.07 102.213 137.217 101.913 136.331 101.849C135.445 101.785 134.558 101.96 133.762 102.355C133.555 102.689 133.346 103.01 133.164 103.326C134.085 102.929 135.089 102.765 136.089 102.848C137.088 102.931 138.052 103.259 138.895 103.803C143.161 106.612 146.289 110.851 147.718 115.761C148.623 119.587 144.262 125.833 138.462 127.353C134.797 128.313 132.389 126.871 130.835 124.058C131.834 128.826 133.756 133.349 133.809 135.489C133.809 137.98 131.12 147.528 131.12 147.528C131.12 147.528 130.882 147.945 130.521 148.661C137.845 150.818 147.09 151.855 150.671 151.14C151.064 145.585 153.443 129.409 154.241 125.72C155.126 121.445 155.018 119.746 152.639 115.401Z" fill="#263238" stroke="#263238" stroke-miterlimit="10"/>
<path d="M136.921 104.417C136.921 104.417 141.133 104.572 143.239 107.838C145.345 111.104 154.917 124.89 156.256 126.195C157.595 127.499 159.481 129.849 159.481 129.849C159.481 129.849 174.384 121.108 177.031 119.051C178.983 117.379 180.722 115.472 182.207 113.372C182.207 113.372 182.492 110.857 182.587 110.07C182.682 109.283 185.003 109.11 185.003 109.11C185.003 109.11 186.567 107.126 187.817 107.191C189.067 107.256 189.357 109.098 189.357 109.098C189.357 109.098 190.969 111.942 191.067 113.336C191.166 114.73 188.283 117.746 187.081 118.306C185.944 118.749 184.77 119.096 183.574 119.343C183.574 119.343 173.991 130.484 170.813 133.842C167.96 136.713 164.746 139.202 161.253 141.244C160.063 141.804 155.203 139.359 154.4 138.949C153.597 138.539 133.203 119.335 133.203 119.335" fill="white"/>
<path d="M136.921 104.417C136.921 104.417 141.133 104.572 143.239 107.838C145.345 111.104 154.917 124.89 156.256 126.195C157.595 127.499 159.481 129.849 159.481 129.849C159.481 129.849 174.384 121.108 177.031 119.051C178.983 117.379 180.722 115.472 182.207 113.372C182.207 113.372 182.492 110.857 182.587 110.07C182.682 109.283 185.003 109.11 185.003 109.11C185.003 109.11 186.567 107.126 187.817 107.191C189.067 107.256 189.357 109.098 189.357 109.098C189.357 109.098 190.969 111.942 191.067 113.336C191.166 114.73 188.283 117.746 187.081 118.306C185.944 118.749 184.77 119.096 183.574 119.343C183.574 119.343 173.991 130.484 170.813 133.842C167.96 136.713 164.746 139.202 161.253 141.244C160.063 141.804 155.203 139.359 154.4 138.949C153.597 138.539 133.203 119.335 133.203 119.335" stroke="#263238" stroke-miterlimit="10"/>
<path d="M104.451 111.056C104.451 111.056 109.687 119.341 112.048 122.893C113.997 125.639 116.141 128.24 118.464 130.676C118.464 130.676 122.681 126.951 126.061 123.571C129.44 120.192 131.124 114.435 131.124 114.435C131.124 114.435 129.095 110.859 129.095 110.21C129.095 109.56 130.957 107.503 131.474 106.997C131.66 106.843 131.878 106.733 132.111 106.674C132.345 106.614 132.589 106.608 132.825 106.654C133.064 106.41 133.355 106.222 133.676 106.104C133.998 105.987 134.341 105.942 134.681 105.975C136.032 105.975 139.239 109.193 139.577 111.559C139.916 113.925 137.554 116.464 136.537 117.986C135.52 119.508 130.969 127.969 129.107 132.027C127.245 136.086 121.007 143.025 118.996 143.353C116.986 143.682 107.175 135.403 105.995 133.883C104.815 132.363 105.995 120.013 105.15 117.982C104.305 115.95 104.451 111.056 104.451 111.056Z" fill="white" stroke="#263238" stroke-miterlimit="10"/>
<path d="M132.836 106.657C132.836 106.657 137.054 109.869 135.37 110.549C134.936 110.736 134.444 110.743 134.005 110.568C133.565 110.393 133.212 110.05 133.025 109.615C133.013 109.587 133.002 109.558 132.991 109.529C132.991 109.529 134.68 111.562 134.008 113.254" stroke="#263238" stroke-miterlimit="10"/>
<path d="M134.352 110.883C134.352 110.883 136.731 113.267 137.921 113.423" stroke="#263238" stroke-miterlimit="10"/>
<path d="M81.3388 171.442C81.3388 171.442 75.7644 192.898 73.9083 195.282C72.0522 197.666 63.1042 205.599 61.4149 210.182C59.7256 214.766 51.5449 232.831 50.5339 235.709C49.5228 238.587 48.6777 239.428 48.6777 239.428L55.7695 243.32C55.7695 243.32 63.271 229.463 67.3229 224.391C71.3747 219.319 76.6095 211.366 80.3244 207.643C84.0392 203.921 95.0126 188.53 95.0126 188.53L81.3388 171.442Z" fill="white" stroke="#263238" stroke-miterlimit="10"/>
<path d="M95.0171 188.524L81.3314 171.442C81.3314 171.442 76.4054 190.43 74.2695 194.686C77.1384 198.097 80.994 200.532 85.3037 201.653C89.7798 195.866 95.0171 188.524 95.0171 188.524Z" fill="#263238" stroke="#263238" stroke-miterlimit="10"/>
<path d="M55.7689 243.314C55.7689 243.314 57.5062 240.245 59.5471 236.162C56.775 235.343 54.1359 234.127 51.712 232.55C51.1132 234.264 50.7539 235.065 50.5221 235.703C49.5051 238.581 48.666 239.422 48.666 239.422L55.7689 243.314Z" fill="white" stroke="#263238" stroke-miterlimit="10"/>
<path d="M58.8026 246.02C58.8026 246.02 58.1303 245.687 57.9575 242.974C57.7847 240.262 57.452 238.409 56.4401 240.102L55.4291 241.794L48.8428 237.902C48.2184 238.417 47.7968 239.138 47.653 239.935C47.653 240.954 42.9297 245.513 43.9407 246.867C44.9518 248.22 48.4981 248.22 52.0435 250.592C55.589 252.964 56.2673 254.167 60.6579 254.311C65.0484 254.454 65.8875 252.958 65.8875 252.112C65.8875 251.266 62.3181 249.913 61.1643 248.726C60.3291 247.867 59.5407 246.964 58.8026 246.02Z" fill="white" stroke="#263238" stroke-miterlimit="10"/>
<path d="M65.8951 252.11C65.8951 251.896 65.6753 251.657 65.2964 251.389C64.4342 251.943 62.5182 252.742 58.9488 252.277C53.7131 251.603 53.7131 250.078 50.8459 247.545C48.9694 246.086 46.7621 245.115 44.4205 244.717C43.879 245.617 43.5873 246.415 43.9209 246.859C44.932 248.212 48.4783 248.212 52.0238 250.584C55.5692 252.956 56.2475 254.16 60.6381 254.303C65.0287 254.446 65.8951 252.955 65.8951 252.11Z" fill="white" stroke="#263238" stroke-miterlimit="10"/>
<path d="M79.3094 159.093C79.3094 159.093 77.4532 165.177 80.8328 173.808C84.2123 182.439 98.0495 197.487 102.44 201.224L106.831 204.949C106.831 204.949 107.509 215.081 112.405 222.031L129.116 245.716L134.691 241.485C134.691 241.485 130.133 236.073 128.783 230.828C127.434 225.583 120.169 209.855 118.991 204.606C117.813 199.358 113.417 190.231 112.911 189.385C112.406 188.539 103.262 171.304 103.262 171.304L104.637 162.96L79.3094 159.093Z" fill="white" stroke="#263238" stroke-miterlimit="10"/>
<path d="M101.827 200.669C103.147 198.881 106.949 194.823 115.034 193.822C113.999 191.497 113.118 189.721 112.911 189.366C112.405 188.519 103.261 171.295 103.261 171.295L104.636 162.951L79.3094 159.069C79.3094 159.069 77.4532 165.153 80.8328 173.784C84.0626 182.068 96.8887 196.218 101.827 200.669Z" fill="#263238" stroke="#263238" stroke-miterlimit="10"/>
<path d="M123.828 238.192C126.803 242.43 129.117 245.696 129.117 245.696L134.691 241.465C132.874 239.23 131.318 236.794 130.051 234.206C128.205 235.863 126.104 237.209 123.828 238.192Z" fill="white" stroke="#263238" stroke-miterlimit="10"/>
<path d="M134.352 236.728C134.352 236.728 131.823 234.344 132.157 237.407C132.49 240.471 133.507 241.466 133.507 241.466C133.507 241.466 126.588 244.678 127.263 246.203C127.664 247.108 128.176 247.959 128.787 248.736C128.787 248.736 133.01 255.335 134.86 254.66C136.709 253.986 139.928 249.755 142.796 248.405C145.663 247.054 149.211 242.481 150.059 239.775C150.908 237.069 150.392 236.056 148.37 237.236C146.348 238.416 143.641 239.948 140.601 239.948C138.728 239.921 136.906 239.332 135.371 238.256L134.352 236.728Z" fill="white" stroke="#263238" stroke-miterlimit="10"/>
<path d="M149.587 236.758C149.572 236.805 149.56 236.853 149.551 236.901C148.534 241.467 142.794 244.679 140.092 247.218C137.586 249.366 134.938 251.343 132.168 253.136C133.167 254.165 134.173 254.924 134.857 254.662C136.719 253.982 139.926 249.757 142.793 248.406C145.66 247.056 149.208 242.482 150.057 239.776C150.693 237.735 150.557 236.656 149.587 236.758Z" fill="white" stroke="#263238" stroke-miterlimit="10"/>
<path d="M110.144 71.0508C111.068 72.755 111.685 74.6093 111.965 76.5282C112.357 79.5086 112.226 81.231 113.398 82.6672C114.57 84.1034 115.617 85.0151 115.355 85.7958C115.094 86.5764 113.267 87.4942 113.267 87.4942C113.267 87.4942 111.709 93.8894 110.292 94.9322C108.876 95.9751 104.034 94.6752 104.034 94.6752C102.866 96.452 102.276 98.5474 102.344 100.674C102.475 104.196 105.319 109.679 107.033 114.769C108.746 119.859 108.99 124.168 107.294 130.956C105.599 137.745 104.951 152.364 105.082 156.281C105.212 160.197 105.206 162.279 105.206 162.279C105.206 162.279 107.164 164.496 98.1745 164.496C91.8748 164.338 85.6537 163.056 79.8031 160.711C79.2894 160.526 78.8643 160.154 78.6133 159.668C78.6133 159.668 80.6952 136.823 80.0469 135C79.3985 133.176 78.7442 124.803 78.7442 124.803C78.7442 124.803 79.0008 110.57 83.0398 105.218C87.0788 99.8655 91.7738 97.5296 93.4632 94.7874C94.4805 93.0111 94.8506 90.936 94.5102 88.9167C91.4826 86.4189 89.2238 83.1125 87.9957 79.3809C85.9078 73.1169 91.7739 66.3284 96.0686 64.7611C100.363 63.1938 109.228 65.2855 110.531 66.8528C111.834 68.4201 110.144 71.0508 110.144 71.0508Z" fill="white" stroke="#263238" stroke-miterlimit="10"/>
<path d="M110.532 66.8745C109.229 65.3072 100.371 63.2155 96.0694 64.7828C91.7678 66.3501 85.9086 73.1266 87.9965 79.4027C89.2246 83.1342 91.4834 86.4406 94.511 88.9384C94.511 88.9384 94.5469 89.1235 94.582 89.4389C95.6795 89.1076 96.7448 88.6774 97.7648 88.1535C97.2454 87.7665 96.7653 87.3294 96.3312 86.8484C95.9445 86.324 94.8976 82.6761 96.9855 82.0145C99.0735 81.353 99.591 82.8012 99.9605 83.5818C100.33 84.3625 101.394 83.5818 101.787 83.1885C102.179 82.7952 101.918 79.7968 101.918 79.7968C102.898 79.0486 103.813 78.2194 104.655 77.3178C105.844 76.0127 101.395 73.0083 101.395 73.0083C101.395 73.0083 104.655 72.8772 106.351 72.615C107.687 72.306 108.964 71.7785 110.129 71.0537C110.129 71.0537 111.835 68.4418 110.532 66.8745Z" fill="#263238" stroke="#263238" stroke-miterlimit="10"/>
<path d="M104.012 94.6772L100.762 93.1099L102.975 96.6327L104.012 94.6772Z" fill="#263238" stroke="#263238" stroke-miterlimit="10"/>
<path d="M111.448 81.8464C111.502 82.5681 111.341 83.1638 111.091 83.1878C110.842 83.2118 110.592 82.6392 110.538 81.9184C110.484 81.1975 110.639 80.6009 110.889 80.5829C111.138 80.5649 111.388 81.1315 111.448 81.8464Z" fill="#263238"/>
<path d="M109.359 79.4026C109.359 79.4026 110.275 77.966 111.186 78.7529" stroke="#263238" stroke-miterlimit="10"/>
<path d="M111.834 89.3259C111.834 89.3259 109.883 88.5391 109.883 88.0205" stroke="#263238" stroke-miterlimit="10"/>
<path d="M105.196 162.288C105.196 162.288 105.196 160.202 105.065 156.289C104.935 152.377 105.583 137.753 107.278 130.965C108.974 124.176 108.712 119.867 107.016 114.778C106.463 113.109 105.779 111.398 105.106 109.722C102.067 110.353 98.616 105.735 96.534 102.26C95.8493 101.055 94.8299 100.076 93.5998 99.4412C92.3698 98.8063 90.9822 98.5432 89.6056 98.6839H89.5697C89.142 99.0472 88.6955 99.4225 88.2311 99.8279C89.8227 100.214 91.2999 100.974 92.541 102.045C93.7821 103.115 94.7517 104.465 95.3699 105.985C97.9043 112.076 93.6865 119.695 88.6177 122.077C84.9294 123.805 80.8835 122.208 78.9624 121.22C78.7913 123.39 78.7656 124.862 78.7656 124.862C78.7656 124.862 79.414 133.206 80.0684 135.041C80.7227 136.877 78.6348 159.709 78.6348 159.709C78.8871 160.195 79.3133 160.567 79.828 160.75C85.6787 163.095 91.8998 164.377 98.1994 164.535C107.189 164.535 105.196 162.288 105.196 162.288Z" fill="#DDF235" stroke="#263238" stroke-miterlimit="10"/>
<path d="M90.2865 101.412C90.2865 101.412 83.5342 101.07 80.6611 104.625C77.7879 108.18 63.9499 129.488 63.2733 131.182C62.5967 132.877 64.2844 135.408 64.2844 135.408C64.2844 135.408 85.3921 154.355 86.0644 154.521C86.7367 154.688 90.6277 159.259 91.8056 159.599C92.9834 159.94 96.8744 158.92 97.38 158.407C97.8855 157.895 100.247 155.701 99.2361 154.832C98.2251 153.962 97.5467 153.479 97.5467 152.972C97.5467 152.466 98.0523 150.588 96.1961 150.266C94.34 149.944 88.5988 149.923 88.5988 149.923C88.5988 149.923 85.7317 146.544 82.0126 141.299C79.8765 138.308 77.904 135.204 76.1037 131.999L91.6371 116.944" fill="white"/>
<path d="M90.2865 101.412C90.2865 101.412 83.5342 101.07 80.6611 104.625C77.7879 108.18 63.9499 129.488 63.2733 131.182C62.5967 132.877 64.2844 135.408 64.2844 135.408C64.2844 135.408 85.3921 154.355 86.0644 154.521C86.7367 154.688 90.6277 159.259 91.8056 159.599C92.9834 159.94 96.8744 158.92 97.38 158.407C97.8855 157.895 100.247 155.701 99.2361 154.832C98.2251 153.962 97.5467 153.479 97.5467 152.972C97.5467 152.466 98.0523 150.588 96.1961 150.266C94.34 149.944 88.5988 149.923 88.5988 149.923C88.5988 149.923 85.7317 146.544 82.0126 141.299C79.8765 138.308 77.904 135.204 76.1037 131.999L91.6371 116.944" stroke="#263238" stroke-miterlimit="10"/>
</svg>
