<svg width="121" height="120" viewBox="0 0 121 120" fill="none" xmlns="http://www.w3.org/2000/svg">
<circle cx="60.5" cy="60" r="60" fill="#DFF8F0"/>
<path fill-rule="evenodd" clip-rule="evenodd" d="M28.0162 57.2018C25.8753 51.3538 23.8237 45.4794 21.8757 39.6132C19.0157 30.9989 23.1006 21.6511 31.3818 17.875C34.2907 16.5465 37.2665 15.3176 40.2258 14.2207C43.1874 13.1259 46.2487 12.1184 49.3177 11.2307C58.0602 8.70387 67.2494 13.134 70.6944 21.5353C72.8457 26.7901 74.9356 32.1079 76.9529 37.4582L66.0024 41.5146C64.0321 36.2862 61.9887 31.0943 59.8883 25.9634C58.7122 23.0912 55.5618 21.584 52.5596 22.4493C49.7628 23.2598 46.9779 24.1718 44.2823 25.1712C42.5254 25.8232 40.7643 26.524 39.0173 27.2695L33.856 30.4098C32.7043 31.9515 32.3143 33.999 32.9582 35.9368C33.4102 37.2979 33.8677 38.6593 34.3308 40.0207C36.2152 45.5606 38.1906 51.0994 40.2484 56.6107L28.0162 57.2018Z" fill="white"/>
<path d="M42.0173 26.2695C43.7643 25.524 45.5254 24.8232 47.2823 24.1712C49.9779 23.1718 52.7628 22.2598 55.5596 21.4493C58.5618 20.584 61.7122 22.0912 62.8883 24.9634C64.9887 30.0943 67.0321 35.2862 69.0024 40.5146L79.9529 36.4582C77.9356 31.1079 75.8457 25.7901 73.6944 20.5353C70.2494 12.134 61.0602 7.70386 52.3177 10.2307C49.2487 11.1184 46.1874 12.1259 43.2258 13.2207C40.2665 14.3176 37.2907 15.5465 34.3818 16.875C26.1006 20.6511 22.0157 29.9989 24.8757 38.6132C26.8237 44.4794 28.8753 50.3538 31.0162 56.2018L43.2484 55.6107C40.685 48.7451 38.2493 41.8368 35.9582 34.9368C35.3143 32.999 35.7043 30.9515 36.856 29.4098" stroke="#8F01DF" stroke-width="2" stroke-miterlimit="10" stroke-linecap="round" stroke-linejoin="round"/>
<path d="M74.8154 113.549C74.8398 113.547 74.8662 113.547 74.8906 113.545C80.4826 113.224 84.9534 108.776 85.3068 103.186C86.0015 92.1948 86.0035 81.1651 85.3088 70.1923C84.9554 64.6023 80.4846 60.1539 74.8928 59.835C67.119 59.3922 59.3172 59.1667 51.5903 59.1667C43.8614 59.1667 36.0594 59.3922 28.286 59.835C22.6937 60.1539 18.2232 64.6023 17.8695 70.1923C17.1748 81.1651 17.1771 92.1948 17.8717 103.186C18.225 108.776 22.696 113.224 28.2878 113.545C36.0675 113.99 43.8614 114.213 51.5903 114.213C57.2819 114.213 63.01 114.092 68.7422 113.85" fill="#34EAB2"/>
<path d="M78.5517 109.812C78.5761 109.81 78.6025 109.81 78.6269 109.808C84.2189 109.487 88.6897 105.039 89.0431 99.4489C89.7378 88.458 89.7398 77.4283 89.0452 66.4555C88.6917 60.8655 84.2209 56.4171 78.6291 56.0982C70.8553 55.6554 63.0535 55.4299 55.3266 55.4299C47.5977 55.4299 39.7957 55.6554 32.0223 56.0982C26.4301 56.4171 21.9595 60.8655 21.6058 66.4555C20.9112 77.4283 20.9134 88.458 21.6081 99.4489C21.9613 105.039 26.4323 109.487 32.0241 109.808C39.8038 110.253 47.5977 110.477 55.3266 110.477C61.0182 110.477 66.7463 110.355 72.4785 110.113" stroke="#8F01DF" stroke-width="2" stroke-miterlimit="10" stroke-linecap="round" stroke-linejoin="round"/>
<path d="M85.4902 38.615L90.7672 33.338" stroke="#34EAB2" stroke-width="2" stroke-miterlimit="10" stroke-linecap="round" stroke-linejoin="round"/>
<path d="M90.7672 56.834L85.4902 51.5572" stroke="#34EAB2" stroke-width="2" stroke-miterlimit="10" stroke-linecap="round" stroke-linejoin="round"/>
<path d="M87.5195 45.0861H100.914" stroke="#34EAB2" stroke-width="2" stroke-miterlimit="10" stroke-linecap="round" stroke-linejoin="round"/>
<path d="M56.1822 98.1719L55.4751 98.879C55.6626 99.0666 55.9169 99.1719 56.1822 99.1719C56.4474 99.1719 56.7017 99.0666 56.8893 98.879L56.1822 98.1719ZM39.025 81.0147L38.3178 81.7218H38.3178L39.025 81.0147ZM39.025 76.9994L38.3178 76.2923H38.3178L39.025 76.9994ZM45.0257 70.9987L45.7328 71.7058V71.7058L45.0257 70.9987ZM48.9591 70.92L48.2809 71.6548V71.6548L48.9591 70.92ZM54.1777 75.7371L54.8559 75.0023L54.1777 75.7371ZM58.1111 75.6585L58.8182 76.3656L58.1111 75.6585ZM62.9029 70.8666L63.6101 71.5738V71.5738L62.9029 70.8666ZM66.6842 70.6572L66.0595 71.4381V71.4381L66.6842 70.6572ZM67.6242 72.6898C68.0555 73.0348 68.6848 72.9649 69.0298 72.5337C69.3748 72.1024 69.3049 71.4731 68.8736 71.1281L67.6242 72.6898ZM72.3355 82.0185L73.0426 82.7256V82.7256L72.3355 82.0185ZM70.1276 76.189L69.2956 75.6343L69.2955 75.6343L70.1276 76.189ZM70.0723 76.272L70.9043 76.8267L70.9043 76.8267L70.0723 76.272ZM70.4327 81.4639L71.1801 80.7995L70.4327 81.4639ZM73.18 86.0597C73.5469 86.4725 74.179 86.5097 74.5918 86.1428C75.0045 85.7758 75.0417 85.1438 74.6748 84.731L73.18 86.0597ZM72.3192 75.9793L71.6121 76.6864L71.6121 76.6864L72.3192 75.9793ZM56.8893 97.4648L39.7321 80.3076L38.3178 81.7218L55.4751 98.879L56.8893 97.4648ZM39.7321 77.7065L45.7328 71.7058L44.3186 70.2916L38.3178 76.2923L39.7321 77.7065ZM48.2809 71.6548L53.4994 76.4719L54.8559 75.0023L49.6374 70.1852L48.2809 71.6548ZM58.8182 76.3656L63.6101 71.5738L62.1958 70.1595L57.404 74.9514L58.8182 76.3656ZM66.0595 71.4381L67.6242 72.6898L68.8736 71.1281L67.3089 69.8764L66.0595 71.4381ZM56.8893 98.879L72.2963 83.472L70.8821 82.0578L55.4751 97.4648L56.8893 98.879ZM72.2963 83.472L73.0426 82.7256L71.6284 81.3114L70.8821 82.0578L72.2963 83.472ZM69.2955 75.6343L69.2402 75.7173L70.9043 76.8267L70.9597 76.7437L69.2955 75.6343ZM69.6853 82.1282L70.8418 83.4292L72.3366 82.1005L71.1801 80.7995L69.6853 82.1282ZM70.8418 83.4292L73.18 86.0597L74.6748 84.731L72.3366 82.1005L70.8418 83.4292ZM69.2402 75.7173C67.9138 77.707 68.0967 80.341 69.6853 82.1282L71.1801 80.7995C70.1957 79.692 70.0823 78.0597 70.9043 76.8267L69.2402 75.7173ZM73.0264 75.2722C71.9533 74.1991 70.1477 74.3561 69.2956 75.6343L70.9597 76.7437C71.1014 76.5311 71.4183 76.4925 71.6121 76.6864L73.0264 75.2722ZM63.6101 71.5738C64.2727 70.9111 65.3277 70.8526 66.0595 71.4381L67.3089 69.8764C65.7813 68.6543 63.5791 68.7762 62.1958 70.1595L63.6101 71.5738ZM53.4994 76.4719C55.0136 77.8696 57.3611 77.8227 58.8182 76.3656L57.404 74.9514C56.7059 75.6494 55.5813 75.6719 54.8559 75.0023L53.4994 76.4719ZM45.7328 71.7058C46.4308 71.0077 47.5555 70.9852 48.2809 71.6548L49.6374 70.1852C48.1232 68.7875 45.7757 68.8344 44.3186 70.2916L45.7328 71.7058ZM73.0426 82.7256C75.1013 80.667 75.0751 77.3209 73.0264 75.2722L71.6121 76.6864C72.8898 77.964 72.8961 80.0437 71.6284 81.3114L73.0426 82.7256ZM39.7321 80.3076C39.0138 79.5893 39.0138 78.4248 39.7321 77.7065L38.3178 76.2923C36.8185 77.7916 36.8185 80.2225 38.3178 81.7218L39.7321 80.3076Z" fill="white"/>
</svg>
