<svg width="130" height="157" viewBox="0 0 130 157" fill="none" xmlns="http://www.w3.org/2000/svg">
<mask id="mask0_538_7096" style="mask-type:alpha" maskUnits="userSpaceOnUse" x="0" y="0" width="130" height="157">
<path d="M100 0H30C13.4315 0 0 13.4315 0 30V127C0 143.569 13.4315 157 30 157H100C116.569 157 130 143.569 130 127V30C130 13.4315 116.569 0 100 0Z" fill="#7FE4F0"/>
</mask>
<g mask="url(#mask0_538_7096)">
<path d="M104.177 57.1189H28.7092V140.797H104.177V57.1189Z" fill="#2F1A1F"/>
<path d="M85.7272 57.1189H47.1602V140.797H85.7272V57.1189Z" fill="#1C0B10"/>
<path d="M42.8552 52.2699H28.7092V143.023H42.8552V52.2699Z" fill="#2F1A1F"/>
<path d="M75.0872 106.434H54.4082C54.4082 106.434 54.9312 122.27 52.3992 126.868H77.3552C74.8242 122.27 75.0872 106.434 75.0872 106.434Z" fill="#F3A77A"/>
<g style="mix-blend-mode:multiply">
<path d="M54.2942 116.165C58.1452 117.983 62.0272 119.718 66.4402 119.299C69.5611 118.979 72.5939 118.074 75.3802 116.632C75.0032 111.438 75.0852 106.432 75.0852 106.432H54.4082C54.4082 106.432 54.5622 111.145 54.2942 116.165Z" fill="#F3D3CC"/>
</g>
<path d="M103.213 135.844L74.4131 124.599H55.3131L26.5131 135.844C26.5131 135.844 16.4271 139.459 17.6061 157H112.122C113.496 138.381 103.213 135.844 103.213 135.844Z" fill="#F3A77A"/>
<path d="M90.8592 76.3329C90.0072 81.5899 91.4842 86.2619 94.1512 86.7619C96.8182 87.2619 99.6632 83.4189 100.509 78.1619C101.355 72.9049 99.8812 68.2329 97.2092 67.7289C94.5372 67.2249 91.7042 71.0729 90.8592 76.3329Z" fill="#F3A77A"/>
<path d="M94.0652 74.9119C94.0652 74.9119 94.1052 74.6179 94.2112 74.1359C94.3582 73.4849 94.5731 72.8511 94.8522 72.2449C95.1862 71.5449 95.7252 70.7369 96.4022 70.6929C96.5762 70.6848 96.7502 70.7092 96.9152 70.765C96.9442 70.786 97.1232 70.8569 97.1752 70.8999C97.2414 70.9483 97.3045 71.0008 97.3642 71.0569C97.6702 71.3799 97.8915 71.7736 98.0082 72.2029C98.168 72.6873 98.2727 73.1881 98.3202 73.6959C98.3782 74.1957 98.3842 74.7 98.3382 75.2009C98.2572 75.7309 98.2312 76.2699 98.1382 76.7289C98.0452 77.1879 97.9652 77.6389 97.8852 78.0469C97.7762 78.4579 97.6942 78.8399 97.6192 79.1769C97.5442 79.5139 97.4432 79.8049 97.3812 80.0439C97.2452 80.5239 97.1762 80.8079 97.1762 80.8079C97.1762 80.8079 97.3122 80.5669 97.5352 80.1269C97.6352 79.9039 97.7902 79.6469 97.9182 79.3209C98.0462 78.9949 98.2062 78.6369 98.3602 78.2339C98.5142 77.8309 98.6372 77.3559 98.7802 76.8649C98.9232 76.3739 98.9962 75.8649 99.1012 75.3359C99.1999 74.7412 99.2221 74.1363 99.1672 73.5359C99.121 72.932 99.0066 72.3352 98.8262 71.7569C98.6485 71.1745 98.3293 70.6451 97.8972 70.2159C97.7816 70.1102 97.6541 70.0182 97.5172 69.9419C97.3995 69.882 97.2771 69.8319 97.1512 69.7919C96.8896 69.727 96.6177 69.7144 96.3512 69.7549C96.0826 69.8155 95.8285 69.9287 95.6039 70.088C95.3792 70.2473 95.1883 70.4495 95.0422 70.6829C94.7653 71.0873 94.5521 71.5318 94.4102 72.0009C94.2 72.6882 94.0794 73.3998 94.0512 74.1179C94.0367 74.3826 94.0414 74.6479 94.0652 74.9119Z" fill="#F0926A"/>
<path d="M94.0643 74.912C94.0643 74.912 93.8193 74.349 95.5743 74.22C95.5743 74.22 97.5353 74.581 96.3823 77.198C96.1235 77.7623 95.927 78.3531 95.7963 78.96C95.6203 79.838 95.9343 81.028 95.4633 81.81C94.8553 82.81 93.3113 82.241 93.2183 81.092C93.375 79.9978 93.8053 78.9607 94.4693 78.077C94.4693 78.077 95.7273 76.165 94.0643 74.912Z" fill="#F0926A"/>
<path d="M93.2182 80.9769C93.1686 81.02 93.1234 81.0679 93.0832 81.1199C92.9705 81.268 92.8836 81.434 92.8262 81.6109C92.7798 81.7308 92.7489 81.8562 92.7342 81.9839C92.6999 82.1259 92.6891 82.2725 92.7022 82.4179C92.7142 82.5669 92.7172 82.7299 92.7432 82.8869C92.7813 83.0359 92.829 83.1822 92.8862 83.3249C92.9386 83.4649 93.0057 83.599 93.0862 83.7249C93.1672 83.8297 93.254 83.9298 93.3462 84.0249C93.4823 84.2022 93.6682 84.3349 93.8802 84.4059C94.0687 84.4939 94.2724 84.5445 94.4802 84.5549C94.4085 84.3347 94.3167 84.1214 94.2062 83.9179C94.1645 83.8318 94.1153 83.7495 94.0592 83.6719C94.0162 83.5769 93.9852 83.4719 93.9352 83.3799C93.8942 83.2844 93.8454 83.1924 93.7892 83.1049C93.7409 83.011 93.703 82.9121 93.6762 82.8099C93.5864 82.6268 93.5151 82.4352 93.4632 82.2379C93.4316 82.1423 93.4062 82.0448 93.3872 81.9459C93.3752 81.8459 93.3292 81.7519 93.3222 81.6599C93.2532 81.3019 93.2182 80.9769 93.2182 80.9769Z" fill="#F0926A"/>
<path d="M40.107 76.3329C40.957 81.5899 39.482 86.2619 36.815 86.7619C34.148 87.2619 31.303 83.4189 30.458 78.1619C29.613 72.9049 31.086 68.2329 33.758 67.7289C36.43 67.2249 39.261 71.0729 40.107 76.3329Z" fill="#F3A77A"/>
<path d="M36.899 74.912C36.899 74.912 36.859 74.618 36.754 74.136C36.6056 73.4851 36.3901 72.8514 36.111 72.245C35.777 71.545 35.238 70.737 34.561 70.693C34.387 70.6849 34.213 70.7093 34.048 70.765C34.021 70.786 33.842 70.857 33.788 70.9C33.7221 70.9487 33.659 71.0011 33.599 71.057C33.2943 71.3807 33.0735 71.7742 32.956 72.203C32.7956 72.6873 32.6902 73.1881 32.642 73.696C32.5847 74.1958 32.5793 74.7001 32.626 75.201C32.709 75.731 32.733 76.27 32.826 76.729C32.919 77.188 33.001 77.639 33.079 78.047C33.188 78.458 33.27 78.84 33.345 79.177C33.42 79.514 33.521 79.805 33.583 80.044C33.721 80.524 33.789 80.808 33.789 80.808C33.789 80.808 33.65 80.567 33.428 80.127C33.328 79.904 33.175 79.647 33.044 79.321C32.913 78.995 32.758 78.637 32.604 78.234C32.45 77.831 32.327 77.356 32.186 76.865C32.045 76.374 31.97 75.865 31.864 75.336C31.7649 74.7413 31.7431 74.1363 31.799 73.536C31.8435 72.9319 31.9576 72.3349 32.139 71.757C32.3171 71.1744 32.6366 70.6451 33.069 70.216C33.1842 70.1106 33.311 70.0187 33.447 69.942C33.5643 69.8821 33.6864 69.8319 33.812 69.792C34.0737 69.7273 34.3455 69.7147 34.612 69.755C34.8807 69.8154 35.1348 69.9285 35.3595 70.0878C35.5842 70.2471 35.7751 70.4494 35.921 70.683C36.1982 71.0873 36.4117 71.5319 36.554 72.001C36.764 72.6883 36.8843 73.3999 36.912 74.118C36.9278 74.3826 36.9234 74.648 36.899 74.912Z" fill="#F0926A"/>
<path d="M36.8999 74.912C36.8999 74.912 37.1459 74.349 35.3899 74.22C35.3899 74.22 33.4289 74.581 34.5819 77.198C34.8413 77.762 35.0378 78.3529 35.1679 78.96C35.3439 79.838 35.0299 81.028 35.5009 81.81C36.1089 82.81 37.6549 82.241 37.7439 81.092C37.5882 79.998 37.159 78.961 36.4959 78.077C36.4959 78.077 35.2359 76.165 36.8999 74.912Z" fill="#F0926A"/>
<path d="M37.7439 80.9771C37.7949 81.019 37.8406 81.067 37.8799 81.1201C37.9926 81.2681 38.0795 81.4341 38.1369 81.6111C38.1834 81.7311 38.215 81.8563 38.2309 81.984C38.2639 82.1262 38.274 82.2727 38.2609 82.418C38.2551 82.5749 38.2414 82.7315 38.2199 82.8871C38.1819 83.036 38.1341 83.1823 38.0769 83.325C38.0245 83.465 37.9574 83.5991 37.8769 83.725C37.796 83.8301 37.7088 83.9303 37.6159 84.0251C37.4799 84.2024 37.2939 84.3351 37.0819 84.406C36.8934 84.4939 36.6897 84.5445 36.4819 84.5551C36.5551 84.3354 36.6468 84.1222 36.7559 83.918C36.7977 83.8319 36.8469 83.7496 36.9029 83.672C36.9459 83.577 36.9769 83.472 37.0279 83.38C37.0689 83.2845 37.1177 83.1925 37.1739 83.105C37.221 83.0108 37.2582 82.9119 37.2849 82.81C37.3746 82.6269 37.446 82.4353 37.4979 82.238C37.5292 82.1423 37.5549 82.0448 37.5749 81.946C37.5869 81.846 37.6299 81.752 37.6379 81.66C37.7109 81.302 37.7449 80.9771 37.7439 80.9771Z" fill="#F0926A"/>
<path d="M91.6921 33.6259C91.6921 33.6259 82.6201 23.6869 64.7661 23.1399C46.9251 24.0739 37.8861 34.3559 37.8861 34.3589C33.0311 49.9979 36.1381 68.3339 38.2031 84.1999C39.7281 95.9169 47.6031 104.116 57.5401 109.822C60.0322 111.297 62.8364 112.166 65.7261 112.357C68.6108 112.105 71.3955 111.177 73.8541 109.647C83.5041 103.105 90.8901 95.0209 92.7311 83.1129C94.2363 72.508 94.7718 61.788 94.3311 51.0859C94.1291 45.3639 93.5191 39.0929 91.6921 33.6259Z" fill="#F3A77A"/>
<path d="M57.0041 65.6289C52.7086 64.4034 48.1202 64.7139 44.0291 66.5069C45.3291 59.4659 57.5201 62.3559 57.5201 62.3559C57.5201 62.3559 58.3251 62.5459 58.2371 63.8069C58.2371 63.8069 57.9151 65.9699 57.0041 65.6289Z" fill="#2F1A1F"/>
<path d="M71.875 65.6289C71.875 65.6289 79.129 63.4809 85.726 66.5069C84.426 59.4659 71.3569 62.3559 71.3569 62.3559C71.3569 62.3559 70.5569 62.5459 70.6409 63.8069C70.6419 63.8069 70.964 65.9699 71.875 65.6289Z" fill="#2F1A1F"/>
<path d="M48.9083 72.1799C48.9223 74.2219 50.0673 75.8699 51.4663 75.8609C52.8653 75.8519 53.9943 74.1899 53.9803 72.1509C53.9663 70.1119 52.8233 68.4599 51.4233 68.4669C50.0233 68.4739 48.8973 70.1379 48.9083 72.1799Z" fill="#231208"/>
<path d="M50.4341 71.0049C50.4341 71.2225 50.3696 71.4351 50.2488 71.616C50.1279 71.7969 49.9561 71.9379 49.7551 72.0212C49.5541 72.1044 49.3329 72.1262 49.1195 72.0838C48.9061 72.0413 48.7101 71.9366 48.5563 71.7827C48.4025 71.6289 48.2977 71.4329 48.2553 71.2195C48.2128 71.0061 48.2346 70.785 48.3179 70.584C48.4011 70.383 48.5421 70.2112 48.723 70.0903C48.9039 69.9694 49.1166 69.9049 49.3341 69.9049C49.4786 69.9049 49.6216 69.9334 49.7551 69.9886C49.8885 70.0439 50.0098 70.1249 50.1119 70.2271C50.2141 70.3292 50.2951 70.4505 50.3504 70.584C50.4057 70.7174 50.4341 70.8605 50.4341 71.0049Z" fill="white"/>
<path d="M80.849 72.1799C80.835 74.2219 79.69 75.8699 78.289 75.8609C76.888 75.8519 75.762 74.1899 75.775 72.1509C75.788 70.1119 76.932 68.4599 78.333 68.4669C79.734 68.4739 80.86 70.1379 80.849 72.1799Z" fill="#231208"/>
<path d="M79.3169 71.0049C79.3169 71.2225 79.3814 71.4351 79.5023 71.616C79.6231 71.7969 79.7949 71.9379 79.9959 72.0212C80.1969 72.1044 80.4181 72.1262 80.6315 72.0838C80.8449 72.0413 81.0409 71.9366 81.1947 71.7827C81.3485 71.6289 81.4533 71.4329 81.4958 71.2195C81.5382 71.0061 81.5164 70.785 81.4332 70.584C81.3499 70.383 81.2089 70.2112 81.028 70.0903C80.8471 69.9694 80.6344 69.9049 80.4169 69.9049C80.2724 69.9049 80.1294 69.9334 79.9959 69.9886C79.8625 70.0439 79.7412 70.1249 79.6391 70.2271C79.5369 70.3292 79.4559 70.4505 79.4006 70.584C79.3453 70.7174 79.3169 70.8605 79.3169 71.0049Z" fill="white"/>
<path d="M58.5271 95.207C58.5411 97.18 61.3361 98.78 64.7861 98.78C68.2361 98.78 71.0341 97.18 71.0461 95.207H58.5271Z" fill="white"/>
<path d="M70.7153 95.758C71.4329 95.6235 72.1227 95.3685 72.7553 95.004C72.7553 95.004 71.7343 94.575 70.3003 94.141C66.6103 92.585 66.8623 94.601 64.9003 94.595C63.9163 94.625 62.9353 93.553 62.0143 93.683C61.1658 93.7778 60.3251 93.9321 59.4983 94.145C58.6511 94.3442 57.8272 94.6321 57.0403 95.004C57.7326 95.4077 58.4846 95.699 59.2683 95.867C60.6068 95.8289 61.9462 95.8957 63.2743 96.067C64.1867 96.298 65.1392 96.3226 66.0623 96.139C67.5923 95.823 69.1554 95.6967 70.7163 95.763" fill="#ED656B"/>
<path d="M71.5212 95.001C70.5868 95.9455 69.4664 96.6855 68.2309 97.174C66.9954 97.6626 65.6719 97.889 64.3442 97.839C62.0304 97.6947 59.8568 96.6809 58.2592 95.001H57.0012C57.0452 95.101 57.0752 95.195 57.1252 95.301C57.4277 95.9456 57.7836 96.5637 58.1892 97.149C58.4192 97.459 58.6542 97.778 58.8982 98.1C59.177 98.4156 59.476 98.713 59.7932 98.99L60.2712 99.433L60.8352 99.809C61.2119 100.099 61.6299 100.33 62.0752 100.496C62.5418 100.683 63.0214 100.836 63.5102 100.954L64.1252 101.035L64.4352 101.076L64.5892 101.098L64.6662 101.108L64.8742 101.122L66.3342 100.939C66.7989 100.819 67.255 100.667 67.6992 100.485C68.1325 100.317 68.5399 100.089 68.9092 99.807L69.4732 99.434L69.9522 98.988C70.2685 98.7113 70.5664 98.4143 70.8442 98.099C71.0892 97.776 71.3262 97.456 71.5542 97.147C71.9618 96.5616 72.3178 95.942 72.6182 95.295C72.6692 95.195 72.6992 95.105 72.7432 95.005L71.5212 95.001Z" fill="#ED656B"/>
<path d="M64.7872 99.72C69.9152 99.377 70.8642 96.397 70.8642 96.397C70.1115 97.2516 69.1712 97.9206 68.117 98.3515C67.0628 98.7824 65.9231 98.9636 64.7872 98.881C64.6836 98.8961 64.59 98.9513 64.5266 99.0347C64.4632 99.1181 64.4351 99.223 64.4482 99.327C64.4482 99.327 64.5262 99.741 64.7872 99.72Z" fill="white"/>
<path d="M104.176 60.946C104.176 60.946 105.742 20.8619 74.5322 15.1709C74.5322 15.1709 52.3992 11.6359 44.0962 25.3639L52.3962 46.381C52.3962 46.381 52.2472 53.891 86.9352 61.291C86.9352 61.291 94.0352 63.106 94.4752 76.356C95.6368 70.1746 99.1047 64.6659 104.176 60.946Z" fill="#2F1A1F"/>
<path d="M61.2742 86.1149C61.2742 86.1149 61.3212 86.1079 61.4102 86.0879C61.4992 86.0679 61.6262 86.0219 61.7722 85.9999C62.0722 85.9339 62.4722 85.8599 62.9052 85.7839C63.3362 85.7249 63.8002 85.6619 64.2522 85.6399C64.7082 85.6009 65.1582 85.5999 65.5942 85.6009C66.0292 85.6189 66.4572 85.6479 66.8832 85.6879C67.1002 85.7219 67.3122 85.7329 67.5242 85.7619C67.7362 85.7909 67.9562 85.8279 68.1632 85.8469C68.3702 85.8659 68.5832 85.9249 68.7732 85.9469C68.9449 85.9611 69.1158 85.9842 69.2852 86.0159C69.4312 86.0299 69.5712 86.0719 69.6582 86.0879C69.7452 86.1039 69.7972 86.1149 69.7972 86.1149C69.7972 86.1149 69.7852 86.1619 69.7612 86.2469C69.7314 86.3708 69.6919 86.4922 69.6432 86.6099C69.4883 87.0175 69.2557 87.3911 68.9582 87.7099C68.7721 87.9237 68.5578 88.1111 68.3212 88.2669C68.0667 88.4537 67.789 88.6067 67.4952 88.7219C67.1882 88.8591 66.8644 88.9549 66.5322 89.0069C66.1954 89.0781 65.851 89.1063 65.5072 89.0909C65.1672 89.0838 64.829 89.0405 64.4982 88.9619C64.1812 88.8902 63.8725 88.7857 63.5772 88.6499C63.0516 88.4123 62.5763 88.0763 62.1772 87.6599C61.8801 87.3507 61.6355 86.995 61.4532 86.6069C61.3975 86.4908 61.352 86.3699 61.3172 86.2459C61.2882 86.1619 61.2742 86.1149 61.2742 86.1149Z" fill="#F39172"/>
<path d="M95.1461 157C95.0681 148.725 95.6021 140.416 102.266 135.475L77.3541 125.748L64.4471 137.637L52.9281 125.528L27.1641 135.587C32.0451 138.352 33.4641 145.416 33.8511 150.55C34.0203 152.696 34.0717 154.849 34.0051 157H95.1461Z" fill="#4C4291"/>
<path d="M57.0012 45.091C57.0012 45.091 37.6742 49.1909 37.7482 76.4449C37.7482 76.4449 36.9242 67.6829 31.7732 68.868C31.7732 68.868 17.3382 32.641 51.1362 22.434L57.0012 45.091Z" fill="#2F1A1F"/>
<path d="M48.906 39.2529L50.617 49.0529L53.002 47.7939L48.906 39.2529Z" fill="#F3A77A"/>
</g>
</svg>
