<?xml version="1.0" encoding="UTF-8"?>
<svg id="Layer_2" data-name="Layer 2" xmlns="http://www.w3.org/2000/svg" viewBox="0 0 545.98 109.57">
  <defs>
    <style>
      .cls-1 {
        fill: #ddf235;
      }
    </style>
  </defs>
  <g id="Layer_1-2" data-name="Layer 1">
    <g>
      <g>
        <path class="cls-1" d="M14.8,107.56H0V17.07c0-4.09,3.31-7.4,7.4-7.4h0c4.09,0,7.4,3.31,7.4,7.4V107.56Z"/>
        <path class="cls-1" d="M51.14,107.56h-14.8V45.53c0-4.09,3.31-7.4,7.4-7.4h0c4.09,0,7.4,3.31,7.4,7.4v62.03Z"/>
        <path class="cls-1" d="M97.24,107.56s-.06,0-.09,0c-2.78-.03-5.29-1.63-6.46-4.1l-26.18-55.27c-1.68-3.55-.11-7.76,3.5-9.41,3.62-1.65,7.91-.11,9.59,3.44l19.83,41.87,20.64-40.96c1.77-3.51,6.09-4.94,9.67-3.21,3.57,1.73,5.04,5.98,3.27,9.49l-27.32,54.2c-1.22,2.42-3.73,3.94-6.47,3.94Z"/>
        <path class="cls-1" d="M254.31,107.56h-.06c-2.79-.02-5.31-1.65-6.49-4.18l-26.18-56.34c-1.68-3.62-.11-7.91,3.5-9.59,3.62-1.68,7.91-.11,9.59,3.5l19.77,42.55,20.68-42.66c1.74-3.59,6.06-5.09,9.64-3.35,3.59,1.74,5.09,6.06,3.35,9.64l-27.32,56.34c-1.21,2.49-3.73,4.07-6.49,4.07Z"/>
        <path class="cls-1" d="M307.81,107.56s-.06,0-.09,0c-2.78-.03-5.29-1.66-6.46-4.18l-26.18-56.34c-1.68-3.62-.11-7.91,3.5-9.59,3.61-1.68,7.91-.11,9.59,3.5l19.83,42.69,20.64-41.76c1.77-3.57,6.09-5.04,9.67-3.27,3.57,1.77,5.04,6.1,3.27,9.67l-27.32,55.26c-1.22,2.46-3.73,4.02-6.47,4.02Z"/>
        <path class="cls-1" d="M177.76,109.4c-.24,0-.41,0-.52,0-10.02-.02-19.7-4.22-26.56-11.52-6.98-7.43-10.48-17.14-9.84-27.35,1.14-18.34,15.82-33.03,34.16-34.16,17.96-1.12,33.92,10.77,37.94,28.26,.87,3.79-.02,7.72-2.45,10.78-2.45,3.08-6.11,4.84-10.04,4.84h-43.6c.99,2.75,2.55,5.29,4.62,7.5,4.16,4.42,9.79,6.86,15.86,6.86h.2c.08,0,10.05,.17,18.56-3.61l6.01,13.52c-10.32,4.59-21.53,4.89-24.32,4.89Zm-20.88-43.96h40.91c-3.23-9.02-12.06-14.93-21.88-14.32-8.64,.54-16.11,6.43-19.04,14.32Z"/>
        <path class="cls-1" d="M387.95,109.57c-2.18,0-3.76-.13-4.57-.21-9.88-.12-19.39-4.3-26.16-11.51-6.97-7.42-10.46-17.12-9.83-27.32,1.14-18.32,15.81-32.99,34.12-34.12,15.8-.99,30.37,8.22,36.23,22.9,1.86,4.65,1.28,9.93-1.55,14.11-2.88,4.25-7.66,6.8-12.79,6.8h-40.11c.99,2.78,2.56,5.35,4.65,7.57,4.17,4.43,9.81,6.87,15.89,6.87h.53l.52,.08c1.29,.17,28.9,3.36,49.27-26.58-5.24-12.51-8.21-26.09-8.21-37.41,0-7.61,.68-16.31,5.7-23.05,4.89-6.57,14.44-10.54,22.5-4.96,2.98,2.07,5.29,5.07,7.07,9.18,1.97,4.58,7.39,21.46-5.31,46.97-1.6,3.66-3.3,7.06-5.06,10.21,.29,.56,.58,1.12,.88,1.67,6.76,12.48,15.13,20.24,22.49,20.88,8.34-.85,14.21-8.74,21.88-24.67-6.14-12.6-9.82-26.01-9.82-36.59,0-7.55,.68-16.17,5.72-22.87,4.89-6.48,14.41-10.41,22.44-4.91,2.99,2.05,5.31,5.03,7.09,9.11,1.98,4.54,7.42,21.28-5.31,46.56-1.24,2.82-2.46,5.6-3.69,8.31,.67,1.16,1.37,2.3,2.09,3.43,8.25,12.88,18.14,21.16,25.88,21.64h5.49v14.71h-6.05c-13.08-.66-25.43-10.84-34.98-24.35-7.57,13.66-16.41,23.36-30.16,24.33l-.44,.03-.44-.02c-12.78-.64-23.95-10.43-32.28-23.7-10.44,12.77-21.94,19.35-31.07,22.74-9.34,3.47-17.57,4.15-22.6,4.15Zm-24.62-44.08h40.08c.32,0,.51-.18,.61-.33,.14-.21,.1-.32,.07-.4-3.5-8.76-12.21-14.25-21.66-13.67-8.68,.54-16.18,6.48-19.1,14.4ZM445.75,14.82c-.33,0-1.5,.56-2.32,1.65-2.47,3.31-2.78,9.36-2.78,14.26,0,5.92,1.07,12.78,2.98,19.71,4.7-10.19,8-23.56,4.06-32.72-.84-1.95-1.57-2.66-1.93-2.91,0,0,0,0-.01,0Zm60.34-.07c-.38,0-1.54,.54-2.36,1.63-2.45,3.25-2.76,9.19-2.76,14.01,0,5.37,1.24,11.76,3.46,18.4,4.43-9.9,7.38-22.49,3.59-31.19-.83-1.91-1.55-2.6-1.91-2.84,0,0-.02,0-.03,0Z"/>
        <polygon class="cls-1" points="87.55 96.83 92.3 107.56 101.79 107.56 107.13 96.83 87.55 96.83"/>
        <polygon class="cls-1" points="244.7 96.83 249.45 107.56 258.94 107.56 264.28 96.33 244.7 96.83"/>
        <polygon class="cls-1" points="298.2 96.83 302.96 107.56 312.44 107.56 317.78 96.33 298.2 96.83"/>
      </g>
      <circle class="cls-1" cx="43.74" cy="17.76" r="8.09"/>
    </g>
  </g>
</svg>