<svg width="283" height="298" viewBox="0 0 283 298" fill="none" xmlns="http://www.w3.org/2000/svg">
<path d="M262.234 9.59198C260.467 7.75598 257.365 6.06598 252.065 5.93398C240.088 5.64198 243.274 14.148 240.088 16.158C236.902 18.168 235.998 14.99 232.788 17.034C229.578 19.078 231.035 23.168 228.413 23.753C225.791 24.338 222.279 21.103 219.065 23.19C215.851 25.277 215.852 26.99 214.391 26.99C212.93 26.99 210.009 25.822 208.256 26.99C206.503 28.158 204.456 29.619 204.456 29.619H235.817" stroke="#263238" stroke-linecap="round" stroke-linejoin="round"/>
<path d="M265.53 14.842C265.245 14.703 264.946 14.564 264.63 14.425C264.488 13.3343 264.121 12.2851 263.552 11.344" stroke="#263238" stroke-linecap="round" stroke-linejoin="round"/>
<path d="M239.831 29.5949H278.349C278.349 29.5949 279.225 26.9659 276.012 25.2129C272.799 23.4599 271.345 24.9209 270.177 23.4599C269.134 22.1599 272.493 19.0089 267.054 15.6489" stroke="#263238" stroke-linecap="round" stroke-linejoin="round"/>
<path d="M49.5301 21.7979C49.0006 21.3101 48.3773 20.9353 47.6982 20.6963C47.019 20.4573 46.2984 20.3592 45.5801 20.4079C40.9341 20.2969 42.1801 23.5869 40.9341 24.3789C39.6881 25.1709 39.3481 23.9269 38.0961 24.7199C36.8441 25.5129 37.3961 27.0989 36.3961 27.3279C35.3961 27.5569 34.0101 26.3079 32.7681 27.0979C31.5261 27.8879 31.5231 28.5719 30.9531 28.5719C30.3831 28.5719 29.2531 28.1199 28.5741 28.5719C27.8951 29.0239 27.0991 29.5939 27.0991 29.5939H39.2711" stroke="#263238" stroke-linecap="round" stroke-linejoin="round"/>
<path d="M50.8101 23.8839L50.4551 23.7239C50.4045 23.2985 50.2623 22.889 50.0381 22.5239" stroke="#263238" stroke-linecap="round" stroke-linejoin="round"/>
<path d="M40.8361 29.595H55.7831C55.863 29.2507 55.8159 28.8892 55.6506 28.5769C55.4852 28.2645 55.2127 28.0224 54.8831 27.895C53.6381 27.195 53.0681 27.784 52.6161 27.195C52.1641 26.606 53.5161 25.463 51.4061 24.163" stroke="#263238" stroke-linecap="round" stroke-linejoin="round"/>
<path d="M217.06 2.51797C216.531 2.02905 215.908 1.65345 215.228 1.41425C214.549 1.17504 213.828 1.07728 213.109 1.12697C208.498 0.987967 209.709 4.27797 208.498 5.10497C207.287 5.93197 206.912 4.64597 205.66 5.44597C204.408 6.24597 204.96 7.82497 203.96 8.05397C202.96 8.28297 201.574 7.03197 200.329 7.82397C199.084 8.61597 199.049 9.27797 198.479 9.27797C197.909 9.27797 196.779 8.82597 196.1 9.27797C195.421 9.72997 194.626 10.3 194.626 10.3H206.798" stroke="#263238" stroke-linecap="round" stroke-linejoin="round"/>
<path d="M218.34 4.54897L217.985 4.38897C217.934 3.96351 217.792 3.5541 217.568 3.18896" stroke="#263238" stroke-linecap="round" stroke-linejoin="round"/>
<path d="M208.366 10.2869H223.313C223.393 9.94267 223.346 9.58115 223.181 9.26883C223.015 8.9565 222.743 8.71435 222.413 8.58692C221.168 7.88692 220.598 8.47592 220.146 7.88692C219.694 7.29792 221.022 6.17592 218.936 4.86792" stroke="#263238" stroke-linecap="round" stroke-linejoin="round"/>
<path d="M146.597 272.185C215.355 272.185 271.095 216.445 271.095 147.687C271.095 78.9286 215.355 23.189 146.597 23.189C77.8387 23.189 22.0991 78.9286 22.0991 147.687C22.0991 216.445 77.8387 272.185 146.597 272.185Z" stroke="#263238" stroke-linejoin="round" stroke-dasharray="2 2"/>
<path d="M239.539 297.188H267.172" stroke="#263238" stroke-miterlimit="10"/>
<path d="M16.0201 297.188H234.621" stroke="#263238" stroke-miterlimit="10"/>
<path d="M247.558 222.289C247.298 222.291 247.042 222.226 246.814 222.101C246.632 222.004 246.47 221.873 246.339 221.714C246.207 221.554 246.108 221.371 246.048 221.174C245.987 220.976 245.966 220.769 245.986 220.563C246.005 220.358 246.065 220.158 246.162 219.976L246.168 219.966L251.322 210.326C251.529 209.976 251.864 209.72 252.256 209.61C252.647 209.501 253.066 209.547 253.425 209.739C253.784 209.931 254.055 210.254 254.181 210.64C254.308 211.027 254.28 211.447 254.104 211.814L248.943 221.454C248.81 221.706 248.61 221.916 248.366 222.063C248.122 222.211 247.843 222.288 247.558 222.289Z" fill="#263238"/>
<path d="M267.512 222.288C267.226 222.289 266.946 222.211 266.7 222.064C266.455 221.917 266.255 221.706 266.121 221.453L260.96 211.813C260.784 211.446 260.757 211.026 260.883 210.639C261.01 210.253 261.28 209.93 261.639 209.738C261.998 209.546 262.417 209.5 262.808 209.609C263.2 209.719 263.535 209.975 263.742 210.325L268.896 219.965C269.094 220.332 269.138 220.762 269.019 221.162C268.9 221.561 268.627 221.897 268.26 222.095L268.25 222.101C268.024 222.226 267.77 222.291 267.512 222.288Z" fill="#263238"/>
<path d="M257.532 215.778C265.334 215.778 271.658 209.454 271.658 201.652C271.658 193.85 265.334 187.526 257.532 187.526C249.73 187.526 243.406 193.85 243.406 201.652C243.406 209.454 249.73 215.778 257.532 215.778Z" fill="#34EAB2" stroke="#263238" stroke-linecap="round" stroke-linejoin="round"/>
<path d="M257.532 213.761C264.22 213.761 269.641 208.34 269.641 201.652C269.641 194.964 264.22 189.543 257.532 189.543C250.844 189.543 245.423 194.964 245.423 201.652C245.423 208.34 250.844 213.761 257.532 213.761Z" fill="white" stroke="#263238" stroke-linecap="round" stroke-linejoin="round"/>
<path d="M257.755 192.687C257.755 192.687 257.532 202.549 257.532 201.652L259.994 206.583" stroke="#263238" stroke-miterlimit="10"/>
<path d="M265.53 186.858C265.261 184.992 264.328 183.286 262.903 182.053C261.478 180.819 259.656 180.14 257.772 180.14C255.887 180.14 254.065 180.819 252.64 182.053C251.215 183.286 250.282 184.992 250.013 186.858H265.53Z" fill="white" stroke="#263238" stroke-linecap="round" stroke-linejoin="round"/>
<path d="M257.532 202.549C258.027 202.549 258.429 202.147 258.429 201.652C258.429 201.157 258.027 200.755 257.532 200.755C257.037 200.755 256.635 201.157 256.635 201.652C256.635 202.147 257.037 202.549 257.532 202.549Z" fill="#263238" stroke="#263238" stroke-miterlimit="10"/>
<path d="M282 130.425C282.002 134.553 280.364 138.512 277.446 141.432C274.529 144.353 270.571 145.995 266.443 145.997H266.429C265.559 146 264.691 145.926 263.835 145.774C260.213 145.154 256.926 143.274 254.557 140.464C252.188 137.655 250.888 134.099 250.888 130.424C250.888 126.749 252.188 123.193 254.557 120.383C256.926 117.574 260.213 115.694 263.835 115.074C264.692 114.928 265.56 114.855 266.429 114.858C268.473 114.857 270.498 115.259 272.386 116.04C274.275 116.822 275.992 117.967 277.438 119.412C278.884 120.857 280.031 122.572 280.815 124.461C281.598 126.349 282.001 128.373 282.002 130.417L282 130.425Z" fill="#34EAB2" stroke="#263238" stroke-linecap="round" stroke-linejoin="round"/>
<path d="M264.911 114.817C268.333 115.751 271.352 117.786 273.503 120.606C275.653 123.427 276.816 126.877 276.811 130.424C276.812 134.104 275.509 137.666 273.133 140.477C270.757 143.287 267.462 145.165 263.833 145.777" stroke="#263238" stroke-linecap="round" stroke-linejoin="round"/>
<path d="M255.375 119.206C257.347 119.224 259.289 119.694 261.051 120.579C262.814 121.464 264.35 122.74 265.543 124.311C271.267 131.301 278.89 131.962 281.436 125.584" stroke="#263238" stroke-linecap="round" stroke-linejoin="round"/>
<path d="M250.924 131.62C250.924 131.62 272.075 141.309 281.993 130.42" stroke="#263238" stroke-linecap="round" stroke-linejoin="round"/>
<path d="M256.878 142.527C259.602 142.89 262.374 142.525 264.911 141.47C269.995 139.244 274.511 138.083 276.665 139.564C276.97 139.745 277.236 139.985 277.446 140.271C277.656 140.556 277.807 140.881 277.889 141.226" stroke="#263238" stroke-linecap="round" stroke-linejoin="round"/>
<path d="M251.619 68.7039C251.619 75.6589 245.951 82.9899 240.491 82.9899C239.156 82.9899 235.699 82.9899 234.468 82.5239C227.735 79.9239 225.134 73.4819 225.134 67.8759C225.134 64.9689 226.01 61.7969 228.312 59.8569C231.365 57.2839 234.732 58.9039 238.279 58.9039C241.367 58.9039 245.693 57.6379 248.016 59.3769C251.056 61.5609 251.619 65.2549 251.619 68.7039Z" fill="white" stroke="#263238" stroke-linejoin="round"/>
<path d="M247.988 64.044C247.543 64.823 246.194 64.879 244.976 64.176C243.758 63.473 243.14 62.276 243.585 61.505C244.03 60.734 245.379 60.67 246.597 61.373C247.815 62.076 248.441 63.272 247.988 64.044Z" fill="white" stroke="#263238" stroke-linejoin="round"/>
<path d="M237.605 59.969L237.841 59.42L241.141 51.72L238.95 51.379L236.759 59.127L237.605 59.969Z" fill="#263238" stroke="#263238" stroke-linejoin="round"/>
<path d="M238.112 54.745C238.112 54.745 236.596 51.379 234.405 50.878C232.214 50.377 226.156 53.236 226.156 53.236C227.811 54.4307 229.622 55.3924 231.539 56.094C233.897 56.769 238.112 54.745 238.112 54.745Z" fill="#34EAB2" stroke="#263238" stroke-linejoin="round"/>
<path d="M154.671 46.2919C154.184 43.5449 153.496 36.3919 154.087 33.7729C154.436 32.175 154.567 30.537 154.476 28.9039V19.2239C154.759 17.9296 154.725 16.5861 154.376 15.3079C153.785 13.2209 149.276 8.83289 149.276 8.83289V7.26889H148.991L147.751 7.19189H147.025L145.78 7.24089H145.495V8.80589C145.495 8.80589 140.988 13.2229 140.395 15.2809C140.054 16.5709 140.032 17.9246 140.332 19.2249V28.8369C140.241 30.47 140.372 32.108 140.721 33.7059C141.312 36.3489 140.621 43.5059 140.137 46.2249C139.653 48.9439 139.845 51.0309 141.41 51.7889C142.718 52.4429 146.279 52.0119 147.419 51.8449C148.567 52.0119 152.119 52.4449 153.428 51.7889C154.942 51.0919 155.165 49.0339 154.671 46.2919Z" fill="white" stroke="#263238" stroke-linejoin="round"/>
<path d="M152.758 34.2609C153.043 32.8894 153.151 31.4869 153.078 30.0879V25.4209H141.727V30.0879C141.654 31.4869 141.762 32.8894 142.047 34.2609C142.513 36.5209 141.964 42.6069 141.574 44.9609C141.184 47.3149 141.338 49.0609 142.596 49.7249C143.646 50.2809 146.496 49.9129 147.416 49.7739C148.334 49.9129 151.186 50.2819 152.236 49.7249C153.495 49.0249 153.627 47.3049 153.258 44.9609C152.889 42.6169 152.292 36.5209 152.758 34.2609Z" fill="#34EAB2"/>
<path d="M149.719 5.00793H145.01V7.65793H149.719V5.00793Z" fill="#263238" stroke="#263238" stroke-linejoin="round"/>
<path d="M140.594 18.2439H154.324" stroke="#263238" stroke-linejoin="round"/>
<path d="M146.137 28.0509H153.732" stroke="#263238" stroke-linejoin="round"/>
<path d="M141.088 28.0509H143.369" stroke="#263238" stroke-linejoin="round"/>
<path d="M48.0771 65.561H51.4991L55.2271 58.606L59.0111 66.952L59.6581 65.234H64.3941L69.4371 53.779L72.6851 64.448H78.6151C80.2718 62.5209 81.1392 60.039 81.0437 57.4995C80.9482 54.96 79.8968 52.5502 78.1001 50.753C76.2075 48.8605 73.6406 47.7972 70.9641 47.7972C68.2876 47.7972 65.7207 48.8605 63.8281 50.753L62.7851 51.796L61.7421 50.746C59.836 48.9244 57.2928 47.921 54.6564 47.9506C52.02 47.9801 49.4999 49.0402 47.6351 50.9041C45.7703 52.768 44.709 55.2876 44.6782 57.9239C44.6473 60.5603 45.6494 63.104 47.4701 65.011L48.0771 65.561Z" fill="#34EAB2" stroke="#263238" stroke-linejoin="round"/>
<path d="M71.3761 66.1511L69.1361 58.7791L65.5471 66.9371H60.8731L59.1731 71.4931L55.1041 62.5561L52.5581 67.3271H49.8431L62.7871 80.2711L76.9131 66.1521L71.3761 66.1511Z" fill="#34EAB2" stroke="#263238" stroke-linejoin="round"/>
<path d="M15.5471 125.541C15.3561 124.945 15.0254 124.402 14.5825 123.96C14.1397 123.517 13.5975 123.186 13.0011 122.995C11.0881 122.536 7.06108 123.204 6.42808 120.874C5.79508 118.544 8.75808 119.174 8.12808 117.264C7.49808 115.354 2.82808 115.358 1.76408 111.749C0.700077 108.14 2.18808 104.328 4.94308 105.601C7.69808 106.874 8.97708 112.174 10.0341 114.295C11.0911 116.416 10.8831 112.174 13.8521 111.749C16.8211 111.324 19.7921 113.662 17.8861 116.618C17.1761 117.582 16.6768 118.684 16.4204 119.854C16.1641 121.023 16.1565 122.233 16.3981 123.406C16.6411 124.456 16.7041 124.373 16.7041 124.373L15.5471 125.541Z" fill="#34EAB2" stroke="#263238" stroke-linejoin="round"/>
<path d="M4.94907 111.088C4.36129 110.234 3.94117 109.275 3.71107 108.264" stroke="#263238" stroke-miterlimit="10"/>
<path d="M16.2421 125.04C15.7814 123.188 14.8602 121.482 13.5641 120.081C11.3451 117.598 8.47308 115.908 6.19208 112.896C6.00408 112.653 5.83708 112.423 5.67708 112.196" stroke="#263238" stroke-miterlimit="10"/>
<path d="M22.2031 122.085C22.2031 122.085 12.5031 124.026 12.5031 133.213C12.5031 142.4 38.6751 160.338 40.6161 156.965C42.5571 153.592 33.0281 133.484 30.6011 129.144C28.1741 124.804 25.5761 121.598 22.2031 122.085Z" fill="white" stroke="#263238" stroke-miterlimit="10"/>
<path d="M15.3381 139.959C15.3381 139.959 18.7321 134.868 21.9111 133.386" stroke="#263238" stroke-miterlimit="10"/>
<path d="M32.3021 134.868C29.9279 135.861 27.7672 137.301 25.9381 139.111" stroke="#263238" stroke-miterlimit="10"/>
<path d="M27.6631 150.566C28.699 148.159 30.4847 146.152 32.7541 144.842" stroke="#263238" stroke-miterlimit="10"/>
<path d="M27.0011 130.417L24.8801 131.69" stroke="#263238" stroke-miterlimit="10"/>
<path d="M35.6951 143.353L34.2141 143.777" stroke="#263238" stroke-miterlimit="10"/>
<path d="M32.3161 216.842C41.0355 216.842 48.1041 209.773 48.1041 201.054C48.1041 192.335 41.0355 185.266 32.3161 185.266C23.5966 185.266 16.5281 192.335 16.5281 201.054C16.5281 209.773 23.5966 216.842 32.3161 216.842Z" fill="#34EAB2" stroke="#263238" stroke-linecap="round" stroke-linejoin="round"/>
<path d="M36.4261 190.114C36.4261 192.814 33.9711 198.627 32.3151 198.627C30.6591 198.627 28.2041 192.812 28.2041 190.114C28.2041 187.416 30.6611 186.636 32.3171 186.636C33.9731 186.636 36.4261 187.401 36.4261 190.114Z" fill="white" stroke="#263238" stroke-linecap="round" stroke-linejoin="round"/>
<path d="M24.8811 192.013C27.2181 193.362 31.2731 197.807 30.4451 199.239C29.6171 200.671 23.1141 200.484 20.7701 199.139C18.4261 197.794 18.9761 195.265 19.8031 193.832C20.6301 192.399 22.5511 190.663 24.8811 192.013Z" fill="white" stroke="#263238" stroke-linecap="round" stroke-linejoin="round"/>
<path d="M20.7701 202.967C23.1071 201.618 29.8121 200.435 30.6191 201.867C31.4261 203.299 27.2251 208.739 24.8881 210.088C22.5511 211.437 20.6311 209.712 19.8041 208.28C18.9771 206.848 18.4341 204.317 20.7701 202.967Z" fill="white" stroke="#263238" stroke-linecap="round" stroke-linejoin="round"/>
<path d="M28.2061 212.008C28.2061 209.308 30.6611 202.73 32.3171 202.73C33.9731 202.73 36.4261 209.31 36.4261 212.008C36.4261 214.706 33.9711 215.486 32.3151 215.486C30.6591 215.486 28.2061 214.707 28.2061 212.008Z" fill="white" stroke="#263238" stroke-linecap="round" stroke-linejoin="round"/>
<path d="M39.7451 210.089C37.4081 208.74 33.5621 203.649 34.3961 202.216C35.2301 200.783 41.5181 201.616 43.8551 202.967C46.1921 204.318 45.6551 206.841 44.8291 208.281C44.0031 209.721 42.0811 211.443 39.7451 210.089Z" fill="white" stroke="#263238" stroke-linecap="round" stroke-linejoin="round"/>
<path d="M43.8661 199.156C41.5221 200.505 35.2281 201.09 34.4001 199.656C33.5721 198.222 37.4121 193.396 39.7491 192.005C42.0861 190.614 44.0061 192.388 44.8331 193.82C45.6601 195.252 46.1991 197.765 43.8661 199.156Z" fill="white" stroke="#263238" stroke-linecap="round" stroke-linejoin="round"/>
<path d="M264.486 255.798C264.486 255.798 265.07 253.677 265.091 253.538C265.314 251.924 264.799 248.669 263.157 247.89C262.899 247.773 262.62 247.709 262.337 247.7C262.054 247.691 261.772 247.738 261.507 247.838C261.243 247.938 261 248.09 260.794 248.284C260.587 248.478 260.421 248.711 260.305 248.969C260.273 249.039 260.246 249.11 260.222 249.183C260.075 249.821 260.068 250.484 260.203 251.126C260.337 251.767 260.61 252.371 261.001 252.897C262.013 254.031 263.187 255.009 264.486 255.798Z" fill="#263238"/>
<path d="M232.145 255.096C233.615 255.483 235.133 255.651 236.652 255.596C236.652 255.596 235.952 253.509 235.901 253.377C235.201 251.91 232.98 249.482 231.178 249.726C230.898 249.772 230.629 249.874 230.388 250.024C230.147 250.174 229.938 250.37 229.773 250.601C229.607 250.832 229.489 251.094 229.425 251.37C229.361 251.647 229.352 251.934 229.398 252.214C229.411 252.288 229.427 252.36 229.446 252.432C229.675 253.046 230.035 253.602 230.501 254.062C230.967 254.522 231.528 254.875 232.145 255.096Z" fill="#263238"/>
<path d="M233.251 264.36C234.755 264.351 236.248 264.115 237.681 263.66C238.151 265.292 238.73 266.89 239.413 268.445C239.813 269.356 240.234 270.26 240.665 271.158C240.408 270.782 240.171 270.458 240.136 270.4C239.072 269.169 236.29 267.416 234.614 268.126C234.338 268.252 234.092 268.435 233.892 268.662C233.692 268.889 233.541 269.156 233.451 269.446C233.36 269.735 233.331 270.04 233.367 270.341C233.402 270.642 233.5 270.932 233.654 271.193C234.036 271.726 234.531 272.169 235.103 272.49C235.675 272.811 236.311 273.002 236.965 273.05C238.428 273.049 239.881 272.826 241.277 272.389C241.444 272.73 241.611 273.089 241.785 273.418C242.613 275.066 243.44 276.701 244.212 278.335C244.483 278.912 244.727 279.49 244.97 280.06C244.74 279.726 244.546 279.441 244.511 279.399C243.447 278.168 240.665 276.415 238.989 277.132C238.714 277.257 238.468 277.44 238.268 277.666C238.068 277.893 237.918 278.159 237.827 278.448C237.736 278.737 237.708 279.041 237.742 279.341C237.777 279.642 237.875 279.932 238.029 280.192C238.412 280.725 238.907 281.167 239.479 281.489C240.051 281.811 240.686 282.005 241.34 282.056C242.756 282.077 244.167 281.863 245.513 281.423C245.75 282.023 245.986 282.623 246.213 283.21C246.338 283.61 246.491 283.996 246.596 284.41C246.701 284.824 246.826 285.224 246.937 285.627C247.125 286.406 247.32 287.206 247.486 287.971C247.604 288.5 247.702 289.007 247.806 289.515C247.549 288.945 247.006 287.825 246.951 287.741C246.089 286.35 243.606 284.208 241.839 284.66C241.549 284.743 241.279 284.886 241.048 285.081C240.817 285.275 240.63 285.516 240.498 285.788C240.367 286.06 240.295 286.356 240.286 286.658C240.277 286.96 240.333 287.26 240.448 287.539C240.746 288.123 241.167 288.635 241.682 289.04C242.197 289.444 242.794 289.732 243.432 289.883C244.712 290.272 247.543 289.883 247.897 289.883C248.064 290.724 248.224 291.552 248.356 292.331C248.648 293.958 248.864 295.431 249.056 296.692H250.238C250.038 295.384 249.772 293.847 249.431 292.136C249.264 291.274 249.062 290.355 248.854 289.417C249.706 289.077 250.538 288.687 251.344 288.249C252.442 289.192 253.663 289.981 254.975 290.593C254.648 291.393 254.328 292.165 254.008 292.893C253.389 294.326 252.798 295.599 252.269 296.693H253.556C254.001 295.685 254.495 294.558 255.003 293.313C255.337 292.499 255.703 291.63 256.018 290.726C257.475 291.071 258.976 291.188 260.469 291.074C261.114 290.974 261.729 290.735 262.273 290.375C262.817 290.015 263.276 289.541 263.62 288.987C263.746 288.733 263.821 288.457 263.84 288.175C263.859 287.893 263.823 287.609 263.733 287.341C263.642 287.072 263.5 286.824 263.314 286.611C263.128 286.398 262.902 286.223 262.648 286.097C262.577 286.061 262.504 286.03 262.43 286.003C260.705 285.426 258.069 287.394 257.102 288.695C257.046 288.772 256.518 289.683 256.202 290.26C256.341 289.891 256.48 289.56 256.612 289.154C256.89 288.403 257.141 287.645 257.419 286.831C257.537 286.431 257.655 286.031 257.781 285.621C257.907 285.211 257.997 284.786 258.101 284.362C258.337 283.374 258.525 282.362 258.701 281.343C260.051 281.881 261.474 282.209 262.923 282.317C263.579 282.315 264.226 282.169 264.82 281.89C265.413 281.611 265.938 281.206 266.359 280.703C266.523 280.473 266.641 280.213 266.705 279.938C266.769 279.663 266.777 279.378 266.731 279.099C266.685 278.821 266.584 278.554 266.434 278.314C266.284 278.075 266.089 277.867 265.859 277.703C265.796 277.659 265.73 277.617 265.659 277.578C264.038 276.743 261.138 278.278 259.984 279.428C259.914 279.505 259.177 280.416 258.784 280.928C258.884 280.309 258.984 279.697 259.062 279.071C259.285 277.263 259.462 275.426 259.632 273.597C259.688 273.041 259.75 272.484 259.806 271.921C261.204 272.48 262.68 272.825 264.181 272.943C264.835 272.941 265.481 272.796 266.073 272.518C266.665 272.241 267.19 271.837 267.61 271.336C267.774 271.106 267.892 270.846 267.956 270.571C268.02 270.296 268.028 270.011 267.982 269.732C267.936 269.454 267.835 269.187 267.685 268.947C267.535 268.708 267.34 268.5 267.11 268.336C267.047 268.291 266.98 268.25 266.91 268.211C265.289 267.376 262.389 268.911 261.235 270.061C261.152 270.151 260.094 271.452 259.844 271.814C259.976 270.59 260.115 269.359 260.303 268.163C260.547 266.537 260.897 264.929 261.353 263.35C262.759 263.913 264.243 264.26 265.753 264.379C266.407 264.377 267.053 264.232 267.645 263.954C268.237 263.677 268.762 263.273 269.182 262.772C269.346 262.542 269.464 262.282 269.528 262.007C269.591 261.732 269.6 261.447 269.554 261.168C269.508 260.89 269.407 260.623 269.257 260.383C269.107 260.144 268.912 259.936 268.682 259.772C268.619 259.727 268.553 259.686 268.482 259.648C266.861 258.813 263.961 260.348 262.807 261.498C262.73 261.575 261.931 262.576 261.555 263.063L261.465 263.014C261.963 261.438 262.604 259.911 263.378 258.451C263.788 257.637 264.233 256.886 264.678 256.163C265.99 256.852 267.396 257.347 268.851 257.631C269.503 257.713 270.165 257.645 270.787 257.433C271.409 257.221 271.974 256.87 272.44 256.407C272.627 256.194 272.77 255.947 272.862 255.679C272.953 255.411 272.991 255.128 272.973 254.845C272.955 254.562 272.881 254.286 272.756 254.032C272.631 253.778 272.458 253.551 272.245 253.364C272.187 253.313 272.127 253.265 272.064 253.221C270.548 252.213 267.494 253.421 266.222 254.438C266.152 254.494 265.522 255.138 265.054 255.6C265.254 255.28 265.464 254.946 265.666 254.64C266.431 253.492 267.196 252.484 267.885 251.601C268.285 251.107 268.65 250.662 268.998 250.252C270.47 250.274 271.937 250.065 273.345 249.633C273.957 249.397 274.509 249.029 274.962 248.555C275.415 248.082 275.758 247.514 275.967 246.893C276.035 246.617 276.047 246.331 276.004 246.05C275.961 245.769 275.863 245.499 275.716 245.256C275.569 245.014 275.375 244.802 275.146 244.634C274.917 244.466 274.657 244.345 274.381 244.277C274.31 244.26 274.238 244.246 274.166 244.236C272.351 244.041 270.202 246.524 269.534 248.013C269.478 248.138 268.834 250.253 268.834 250.253H268.869C268.528 250.642 268.169 251.06 267.777 251.533C267.077 252.402 266.277 253.39 265.489 254.524C264.62 255.739 263.826 257.005 263.11 258.315C262.299 259.773 261.619 261.3 261.079 262.878V260.798C260.87 259.184 259.514 256.187 257.727 255.86C257.421 255.792 257.104 255.791 256.799 255.858C256.493 255.925 256.205 256.058 255.955 256.247C255.706 256.436 255.5 256.678 255.354 256.954C255.207 257.231 255.122 257.536 255.105 257.849C255.131 258.503 255.299 259.144 255.598 259.727C255.898 260.309 256.32 260.82 256.837 261.222C258.096 262.048 259.472 262.679 260.92 263.093C260.411 264.713 260.01 266.365 259.72 268.038C259.546 269.012 259.4 269.999 259.268 270.994V270.062C259.059 268.448 257.703 265.451 255.916 265.124C255.617 265.077 255.311 265.093 255.019 265.171C254.727 265.25 254.454 265.389 254.219 265.58C253.984 265.771 253.792 266.009 253.656 266.28C253.519 266.55 253.441 266.846 253.426 267.148C253.453 267.803 253.622 268.445 253.921 269.028C254.22 269.612 254.642 270.124 255.158 270.528C256.376 271.334 257.711 271.949 259.115 272.35C259.073 272.733 259.015 273.115 258.976 273.491C258.753 275.32 258.545 277.149 258.276 278.93C258.186 279.563 258.067 280.175 257.956 280.794V279.987C257.747 278.373 256.398 275.376 254.604 275.049C254.305 275.001 253.999 275.017 253.707 275.096C253.414 275.174 253.142 275.314 252.907 275.505C252.672 275.696 252.48 275.934 252.343 276.204C252.207 276.475 252.129 276.77 252.114 277.073C252.141 277.727 252.31 278.368 252.609 278.95C252.908 279.533 253.33 280.043 253.846 280.446C255.026 281.242 256.324 281.847 257.692 282.24C257.56 282.866 257.428 283.492 257.275 284.097C257.157 284.507 257.075 284.911 256.934 285.314C256.793 285.717 256.677 286.114 256.545 286.514C256.274 287.265 255.996 288.044 255.71 288.774C255.515 289.274 255.321 289.755 255.126 290.242C255.226 289.616 255.39 288.392 255.39 288.288C255.373 286.856 254.987 285.452 254.27 284.212C254.284 284.055 254.284 283.896 254.27 283.739C254.199 283.172 253.905 282.656 253.453 282.305C253.002 281.955 252.429 281.798 251.862 281.869C251.785 281.878 251.709 281.892 251.634 281.91C249.874 282.376 248.755 285.464 248.671 287.092C248.671 287.192 248.727 288.233 248.782 288.892C248.692 288.51 248.608 288.134 248.511 287.744C248.33 286.965 248.122 286.193 247.899 285.358C247.781 284.958 247.662 284.558 247.537 284.158C247.412 283.758 247.252 283.344 247.113 282.927C246.765 281.974 246.362 281.027 245.945 280.082C247.369 279.786 248.739 279.272 250.007 278.559C250.552 278.197 251.012 277.719 251.353 277.161C251.694 276.602 251.909 275.975 251.982 275.325C251.989 275.042 251.941 274.76 251.839 274.496C251.738 274.231 251.585 273.99 251.39 273.784C251.195 273.579 250.961 273.414 250.703 273.299C250.444 273.184 250.165 273.121 249.882 273.114C249.805 273.112 249.729 273.114 249.652 273.12C247.844 273.315 246.272 276.201 245.938 277.794C245.938 277.894 245.813 279.06 245.764 279.707C245.507 279.137 245.249 278.573 244.971 278.007C244.164 276.373 243.288 274.752 242.432 273.138L241.653 271.638C243.13 271.346 244.55 270.82 245.861 270.08C246.405 269.716 246.863 269.239 247.204 268.68C247.545 268.122 247.761 267.496 247.836 266.846C247.853 266.276 247.642 265.723 247.251 265.308C246.861 264.893 246.321 264.651 245.751 264.634C245.669 264.632 245.588 264.634 245.506 264.641C243.698 264.836 242.126 267.722 241.799 269.315C241.799 269.433 241.618 271.115 241.604 271.548C241.034 270.448 240.47 269.348 239.97 268.248C239.276 266.759 238.681 265.226 238.189 263.658C239.676 263.369 241.107 262.841 242.425 262.093C242.971 261.731 243.431 261.254 243.772 260.695C244.113 260.137 244.328 259.51 244.4 258.859C244.408 258.556 244.351 258.255 244.235 257.976C244.119 257.696 243.946 257.444 243.726 257.235C243.507 257.027 243.246 256.867 242.961 256.766C242.675 256.664 242.372 256.624 242.07 256.647C240.262 256.847 238.69 259.735 238.363 261.328C238.363 261.428 238.224 262.719 238.182 263.328H238.082C237.631 261.735 237.321 260.106 237.157 258.459C237.057 257.559 237.004 256.685 236.983 255.837C238.456 255.699 239.898 255.336 241.26 254.759C241.844 254.461 242.354 254.038 242.755 253.519C243.155 253 243.436 252.399 243.576 251.759C243.615 251.48 243.599 251.195 243.529 250.922C243.458 250.649 243.335 250.392 243.165 250.167C242.995 249.941 242.783 249.752 242.539 249.608C242.296 249.465 242.027 249.371 241.748 249.332C241.663 249.319 241.576 249.312 241.49 249.311C239.675 249.311 237.79 252.003 237.317 253.547C237.317 253.637 237.108 254.521 236.983 255.168V254.02C236.983 252.629 237.073 251.384 237.157 250.264C237.213 249.631 237.275 249.064 237.338 248.525C238.574 247.726 239.681 246.744 240.621 245.611C241.001 245.077 241.26 244.468 241.381 243.824C241.502 243.18 241.481 242.518 241.321 241.883C241.22 241.597 241.06 241.336 240.851 241.116C240.642 240.897 240.39 240.723 240.109 240.608C239.829 240.492 239.528 240.437 239.225 240.446C238.922 240.455 238.624 240.527 238.351 240.659C236.737 241.501 236.306 244.759 236.577 246.359C236.577 246.498 237.21 248.626 237.238 248.605H237.273C237.203 249.12 237.127 249.669 237.064 250.274C236.953 251.387 236.841 252.653 236.807 254.037C236.756 255.526 236.789 257.017 236.907 258.502C237.038 260.167 237.315 261.817 237.735 263.433V263.489C237.45 263.037 236.601 261.806 236.535 261.722C235.471 260.491 232.689 258.738 231.013 259.448C230.737 259.574 230.491 259.757 230.291 259.984C230.091 260.211 229.94 260.478 229.85 260.768C229.759 261.057 229.73 261.362 229.766 261.663C229.801 261.964 229.898 262.254 230.053 262.515C230.56 263.63 232.048 264.186 233.251 264.36Z" fill="#263238"/>
<path opacity="0.3" d="M232.145 255.096C233.615 255.483 235.133 255.651 236.652 255.596C236.652 255.596 235.952 253.509 235.901 253.377C235.201 251.91 232.98 249.482 231.178 249.726C230.898 249.772 230.629 249.874 230.388 250.024C230.147 250.174 229.938 250.37 229.773 250.601C229.607 250.832 229.489 251.094 229.425 251.37C229.361 251.647 229.352 251.934 229.398 252.214C229.411 252.288 229.427 252.36 229.446 252.432C229.675 253.046 230.035 253.602 230.501 254.062C230.967 254.522 231.528 254.875 232.145 255.096Z" fill="#263238"/>
<path opacity="0.3" d="M264.486 255.798C264.486 255.798 265.07 253.677 265.091 253.538C265.314 251.924 264.799 248.669 263.157 247.89C262.899 247.773 262.62 247.709 262.337 247.7C262.054 247.691 261.772 247.738 261.507 247.838C261.243 247.938 261 248.09 260.794 248.284C260.587 248.478 260.421 248.711 260.305 248.969C260.273 249.039 260.246 249.11 260.222 249.183C260.075 249.821 260.068 250.484 260.203 251.126C260.337 251.767 260.61 252.371 261.001 252.897C262.013 254.031 263.187 255.009 264.486 255.798Z" fill="#263238"/>
<path opacity="0.3" d="M233.251 264.36C234.755 264.351 236.248 264.115 237.681 263.66C238.151 265.292 238.73 266.89 239.413 268.445C239.813 269.356 240.234 270.26 240.665 271.158C240.408 270.782 240.171 270.458 240.136 270.4C239.072 269.169 236.29 267.416 234.614 268.126C234.338 268.252 234.092 268.435 233.892 268.662C233.692 268.889 233.541 269.156 233.451 269.446C233.36 269.735 233.331 270.04 233.367 270.341C233.402 270.642 233.5 270.932 233.654 271.193C234.036 271.726 234.531 272.169 235.103 272.49C235.675 272.811 236.311 273.002 236.965 273.05C238.428 273.049 239.881 272.826 241.277 272.389C241.444 272.73 241.611 273.089 241.785 273.418C242.613 275.066 243.44 276.701 244.212 278.335C244.483 278.912 244.727 279.49 244.97 280.06C244.74 279.726 244.546 279.441 244.511 279.399C243.447 278.168 240.665 276.415 238.989 277.132C238.714 277.257 238.468 277.44 238.268 277.666C238.068 277.893 237.918 278.159 237.827 278.448C237.736 278.737 237.708 279.041 237.742 279.341C237.777 279.642 237.875 279.932 238.029 280.192C238.412 280.725 238.907 281.167 239.479 281.489C240.051 281.811 240.686 282.005 241.34 282.056C242.756 282.077 244.167 281.863 245.513 281.423C245.75 282.023 245.986 282.623 246.213 283.21C246.338 283.61 246.491 283.996 246.596 284.41C246.701 284.824 246.826 285.224 246.937 285.627C247.125 286.406 247.32 287.206 247.486 287.971C247.604 288.5 247.702 289.007 247.806 289.515C247.549 288.945 247.006 287.825 246.951 287.741C246.089 286.35 243.606 284.208 241.839 284.66C241.549 284.743 241.279 284.886 241.048 285.081C240.817 285.275 240.63 285.516 240.498 285.788C240.367 286.06 240.295 286.356 240.286 286.658C240.277 286.96 240.333 287.26 240.448 287.539C240.746 288.123 241.167 288.635 241.682 289.04C242.197 289.444 242.794 289.732 243.432 289.883C244.712 290.272 247.543 289.883 247.897 289.883C248.064 290.724 248.224 291.552 248.356 292.331C248.648 293.958 248.864 295.431 249.056 296.692H250.238C250.038 295.384 249.772 293.847 249.431 292.136C249.264 291.274 249.062 290.355 248.854 289.417C249.706 289.077 250.538 288.687 251.344 288.249C252.442 289.192 253.663 289.981 254.975 290.593C254.648 291.393 254.328 292.165 254.008 292.893C253.389 294.326 252.798 295.599 252.269 296.693H253.556C254.001 295.685 254.495 294.558 255.003 293.313C255.337 292.499 255.703 291.63 256.018 290.726C257.475 291.071 258.976 291.188 260.469 291.074C261.114 290.974 261.729 290.735 262.273 290.375C262.817 290.015 263.276 289.541 263.62 288.987C263.746 288.733 263.821 288.457 263.84 288.175C263.859 287.893 263.823 287.609 263.733 287.341C263.642 287.072 263.5 286.824 263.314 286.611C263.128 286.398 262.902 286.223 262.648 286.097C262.577 286.061 262.504 286.03 262.43 286.003C260.705 285.426 258.069 287.394 257.102 288.695C257.046 288.772 256.518 289.683 256.202 290.26C256.341 289.891 256.48 289.56 256.612 289.154C256.89 288.403 257.141 287.645 257.419 286.831C257.537 286.431 257.655 286.031 257.781 285.621C257.907 285.211 257.997 284.786 258.101 284.362C258.337 283.374 258.525 282.362 258.701 281.343C260.051 281.881 261.474 282.209 262.923 282.317C263.579 282.315 264.226 282.169 264.82 281.89C265.413 281.611 265.938 281.206 266.359 280.703C266.523 280.473 266.641 280.213 266.705 279.938C266.769 279.663 266.777 279.378 266.731 279.099C266.685 278.821 266.584 278.554 266.434 278.314C266.284 278.075 266.089 277.867 265.859 277.703C265.796 277.659 265.73 277.617 265.659 277.578C264.038 276.743 261.138 278.278 259.984 279.428C259.914 279.505 259.177 280.416 258.784 280.928C258.884 280.309 258.984 279.697 259.062 279.071C259.285 277.263 259.462 275.426 259.632 273.597C259.688 273.041 259.75 272.484 259.806 271.921C261.204 272.48 262.68 272.825 264.181 272.943C264.835 272.941 265.481 272.796 266.073 272.518C266.665 272.241 267.19 271.837 267.61 271.336C267.774 271.106 267.892 270.846 267.956 270.571C268.02 270.296 268.028 270.011 267.982 269.732C267.936 269.454 267.835 269.187 267.685 268.947C267.535 268.708 267.34 268.5 267.11 268.336C267.047 268.291 266.98 268.25 266.91 268.211C265.289 267.376 262.389 268.911 261.235 270.061C261.152 270.151 260.094 271.452 259.844 271.814C259.976 270.59 260.115 269.359 260.303 268.163C260.547 266.537 260.897 264.929 261.353 263.35C262.759 263.913 264.243 264.26 265.753 264.379C266.407 264.377 267.053 264.232 267.645 263.954C268.237 263.677 268.762 263.273 269.182 262.772C269.346 262.542 269.464 262.282 269.528 262.007C269.591 261.732 269.6 261.447 269.554 261.168C269.508 260.89 269.407 260.623 269.257 260.383C269.107 260.144 268.912 259.936 268.682 259.772C268.619 259.727 268.553 259.686 268.482 259.648C266.861 258.813 263.961 260.348 262.807 261.498C262.73 261.575 261.931 262.576 261.555 263.063L261.465 263.014C261.963 261.438 262.604 259.911 263.378 258.451C263.788 257.637 264.233 256.886 264.678 256.163C265.99 256.852 267.396 257.347 268.851 257.631C269.503 257.713 270.165 257.645 270.787 257.433C271.409 257.221 271.974 256.87 272.44 256.407C272.627 256.194 272.77 255.947 272.862 255.679C272.953 255.411 272.991 255.128 272.973 254.845C272.955 254.562 272.881 254.286 272.756 254.032C272.631 253.778 272.458 253.551 272.245 253.364C272.187 253.313 272.127 253.265 272.064 253.221C270.548 252.213 267.494 253.421 266.222 254.438C266.152 254.494 265.522 255.138 265.054 255.6C265.254 255.28 265.464 254.946 265.666 254.64C266.431 253.492 267.196 252.484 267.885 251.601C268.285 251.107 268.65 250.662 268.998 250.252C270.47 250.274 271.937 250.065 273.345 249.633C273.957 249.397 274.509 249.029 274.962 248.555C275.415 248.082 275.758 247.514 275.967 246.893C276.035 246.617 276.047 246.331 276.004 246.05C275.961 245.769 275.863 245.499 275.716 245.256C275.569 245.014 275.375 244.802 275.146 244.634C274.917 244.466 274.657 244.345 274.381 244.277C274.31 244.26 274.238 244.246 274.166 244.236C272.351 244.041 270.202 246.524 269.534 248.013C269.478 248.138 268.834 250.253 268.834 250.253H268.869C268.528 250.642 268.169 251.06 267.777 251.533C267.077 252.402 266.277 253.39 265.489 254.524C264.62 255.739 263.826 257.005 263.11 258.315C262.299 259.773 261.619 261.3 261.079 262.878V260.798C260.87 259.184 259.514 256.187 257.727 255.86C257.421 255.792 257.104 255.791 256.799 255.858C256.493 255.925 256.205 256.058 255.955 256.247C255.706 256.436 255.5 256.678 255.354 256.954C255.207 257.231 255.122 257.536 255.105 257.849C255.131 258.503 255.299 259.144 255.598 259.727C255.898 260.309 256.32 260.82 256.837 261.222C258.096 262.048 259.472 262.679 260.92 263.093C260.411 264.713 260.01 266.365 259.72 268.038C259.546 269.012 259.4 269.999 259.268 270.994V270.062C259.059 268.448 257.703 265.451 255.916 265.124C255.617 265.077 255.311 265.093 255.019 265.171C254.727 265.25 254.454 265.389 254.219 265.58C253.984 265.771 253.792 266.009 253.656 266.28C253.519 266.55 253.441 266.846 253.426 267.148C253.453 267.803 253.622 268.445 253.921 269.028C254.22 269.612 254.642 270.124 255.158 270.528C256.376 271.334 257.711 271.949 259.115 272.35C259.073 272.733 259.015 273.115 258.976 273.491C258.753 275.32 258.545 277.149 258.276 278.93C258.186 279.563 258.067 280.175 257.956 280.794V279.987C257.747 278.373 256.398 275.376 254.604 275.049C254.305 275.001 253.999 275.017 253.707 275.096C253.414 275.174 253.142 275.314 252.907 275.505C252.672 275.696 252.48 275.934 252.343 276.204C252.207 276.475 252.129 276.77 252.114 277.073C252.141 277.727 252.31 278.368 252.609 278.95C252.908 279.533 253.33 280.043 253.846 280.446C255.026 281.242 256.324 281.847 257.692 282.24C257.56 282.866 257.428 283.492 257.275 284.097C257.157 284.507 257.075 284.911 256.934 285.314C256.793 285.717 256.677 286.114 256.545 286.514C256.274 287.265 255.996 288.044 255.71 288.774C255.515 289.274 255.321 289.755 255.126 290.242C255.226 289.616 255.39 288.392 255.39 288.288C255.373 286.856 254.987 285.452 254.27 284.212C254.284 284.055 254.284 283.896 254.27 283.739C254.199 283.172 253.905 282.656 253.453 282.305C253.002 281.955 252.429 281.798 251.862 281.869C251.785 281.878 251.709 281.892 251.634 281.91C249.874 282.376 248.755 285.464 248.671 287.092C248.671 287.192 248.727 288.233 248.782 288.892C248.692 288.51 248.608 288.134 248.511 287.744C248.33 286.965 248.122 286.193 247.899 285.358C247.781 284.958 247.662 284.558 247.537 284.158C247.412 283.758 247.252 283.344 247.113 282.927C246.765 281.974 246.362 281.027 245.945 280.082C247.369 279.786 248.739 279.272 250.007 278.559C250.552 278.197 251.012 277.719 251.353 277.161C251.694 276.602 251.909 275.975 251.982 275.325C251.989 275.042 251.941 274.76 251.839 274.496C251.738 274.231 251.585 273.99 251.39 273.784C251.195 273.579 250.961 273.414 250.703 273.299C250.444 273.184 250.165 273.121 249.882 273.114C249.805 273.112 249.729 273.114 249.652 273.12C247.844 273.315 246.272 276.201 245.938 277.794C245.938 277.894 245.813 279.06 245.764 279.707C245.507 279.137 245.249 278.573 244.971 278.007C244.164 276.373 243.288 274.752 242.432 273.138L241.653 271.638C243.13 271.346 244.55 270.82 245.861 270.08C246.405 269.716 246.863 269.239 247.204 268.68C247.545 268.122 247.761 267.496 247.836 266.846C247.853 266.276 247.642 265.723 247.251 265.308C246.861 264.893 246.321 264.651 245.751 264.634C245.669 264.632 245.588 264.634 245.506 264.641C243.698 264.836 242.126 267.722 241.799 269.315C241.799 269.433 241.618 271.115 241.604 271.548C241.034 270.448 240.47 269.348 239.97 268.248C239.276 266.759 238.681 265.226 238.189 263.658C239.676 263.369 241.107 262.841 242.425 262.093C242.971 261.731 243.431 261.254 243.772 260.695C244.113 260.137 244.328 259.51 244.4 258.859C244.408 258.556 244.351 258.255 244.235 257.976C244.119 257.696 243.946 257.444 243.726 257.235C243.507 257.027 243.246 256.867 242.961 256.766C242.675 256.664 242.372 256.624 242.07 256.647C240.262 256.847 238.69 259.735 238.363 261.328C238.363 261.428 238.224 262.719 238.182 263.328H238.082C237.631 261.735 237.321 260.106 237.157 258.459C237.057 257.559 237.004 256.685 236.983 255.837C238.456 255.699 239.898 255.336 241.26 254.759C241.844 254.461 242.354 254.038 242.755 253.519C243.155 253 243.436 252.399 243.576 251.759C243.615 251.48 243.599 251.195 243.529 250.922C243.458 250.649 243.335 250.392 243.165 250.167C242.995 249.941 242.783 249.752 242.539 249.608C242.296 249.465 242.027 249.371 241.748 249.332C241.663 249.319 241.576 249.312 241.49 249.311C239.675 249.311 237.79 252.003 237.317 253.547C237.317 253.637 237.108 254.521 236.983 255.168V254.02C236.983 252.629 237.073 251.384 237.157 250.264C237.213 249.631 237.275 249.064 237.338 248.525C238.574 247.726 239.681 246.744 240.621 245.611C241.001 245.077 241.26 244.468 241.381 243.824C241.502 243.18 241.481 242.518 241.321 241.883C241.22 241.597 241.06 241.336 240.851 241.116C240.642 240.897 240.39 240.723 240.109 240.608C239.829 240.492 239.528 240.437 239.225 240.446C238.922 240.455 238.624 240.527 238.351 240.659C236.737 241.501 236.306 244.759 236.577 246.359C236.577 246.498 237.21 248.626 237.238 248.605H237.273C237.203 249.12 237.127 249.669 237.064 250.274C236.953 251.387 236.841 252.653 236.807 254.037C236.756 255.526 236.789 257.017 236.907 258.502C237.038 260.167 237.315 261.817 237.735 263.433V263.489C237.45 263.037 236.601 261.806 236.535 261.722C235.471 260.491 232.689 258.738 231.013 259.448C230.737 259.574 230.491 259.757 230.291 259.984C230.091 260.211 229.94 260.478 229.85 260.768C229.759 261.057 229.73 261.362 229.766 261.663C229.801 261.964 229.898 262.254 230.053 262.515C230.56 263.63 232.048 264.186 233.251 264.36Z" fill="#263238"/>
<path d="M42.6921 255.798C42.6921 255.798 43.2761 253.677 43.2971 253.538C43.5201 251.924 43.0051 248.669 41.3631 247.89C41.105 247.773 40.8264 247.709 40.5434 247.7C40.2604 247.691 39.9784 247.738 39.7136 247.839C39.4487 247.939 39.2062 248.09 38.9999 248.284C38.7936 248.478 38.6275 248.711 38.5111 248.969C38.4792 249.039 38.4515 249.11 38.4281 249.183C38.2808 249.821 38.2741 250.484 38.4086 251.126C38.5432 251.767 38.8156 252.371 39.2071 252.897C40.2185 254.031 41.393 255.009 42.6921 255.798Z" fill="#263238"/>
<path d="M10.3511 255.096C11.8207 255.483 13.3393 255.652 14.8581 255.596C14.8651 255.596 14.1581 253.509 14.1071 253.377C13.4071 251.91 11.1861 249.482 9.38408 249.726C9.10383 249.772 8.83547 249.874 8.59434 250.024C8.35321 250.174 8.14403 250.37 7.97874 250.601C7.81345 250.832 7.69529 251.094 7.631 251.37C7.56672 251.647 7.55757 251.934 7.60408 252.214C7.61708 252.288 7.63307 252.36 7.65207 252.432C7.88096 253.046 8.24107 253.602 8.70724 254.062C9.17342 254.522 9.73442 254.875 10.3511 255.096Z" fill="#263238"/>
<path d="M11.4501 264.36C12.9558 264.351 14.4516 264.115 15.8871 263.66C16.357 265.292 16.9356 266.89 17.6191 268.445C18.0137 269.372 18.4311 270.276 18.8711 271.157C18.6141 270.781 18.3771 270.457 18.3351 270.399C17.2711 269.168 14.4961 267.415 12.8201 268.125C12.5445 268.251 12.2985 268.434 12.098 268.661C11.8976 268.888 11.7473 269.155 11.6567 269.445C11.5662 269.734 11.5375 270.039 11.5725 270.34C11.6076 270.641 11.7055 270.931 11.8601 271.192C12.2407 271.724 12.7336 272.166 13.3038 272.487C13.874 272.808 14.5076 273 15.1601 273.049C16.6248 273.048 18.0809 272.825 19.4791 272.388C19.6461 272.729 19.8131 273.088 19.9871 273.417C20.8151 275.065 21.6421 276.7 22.4071 278.334C22.6781 278.911 22.9291 279.489 23.1721 280.059C22.9421 279.725 22.7411 279.44 22.7061 279.398C21.6421 278.167 18.8671 276.414 17.1911 277.131C16.6711 277.368 16.2666 277.803 16.0667 278.338C15.8668 278.874 15.8878 279.467 16.1251 279.987C16.1569 280.055 16.1923 280.122 16.2311 280.187C16.6125 280.719 17.1053 281.161 17.6753 281.483C18.2452 281.805 18.8785 281.999 19.5311 282.051C20.9475 282.071 22.3575 281.858 23.7041 281.418C23.9401 282.018 24.1771 282.618 24.4041 283.205C24.5291 283.605 24.6821 283.991 24.7871 284.405C24.8921 284.819 25.0171 285.219 25.1281 285.622C25.3161 286.401 25.5111 287.201 25.6771 287.966C25.7951 288.494 25.8931 289.002 25.9971 289.51C25.7331 288.94 25.1971 287.82 25.1421 287.736C24.2801 286.345 21.7971 284.203 20.0301 284.655C19.7584 284.735 19.505 284.867 19.2845 285.045C19.0639 285.222 18.8805 285.442 18.7448 285.69C18.609 285.939 18.5235 286.211 18.4932 286.493C18.4629 286.775 18.4883 287.059 18.5681 287.331C18.5883 287.399 18.612 287.466 18.6391 287.531C18.9389 288.114 19.3615 288.626 19.8778 289.031C20.3941 289.435 20.9919 289.723 21.6301 289.875C22.9101 290.265 25.7401 289.875 26.0951 289.875C26.2621 290.717 26.4221 291.544 26.5541 292.323C26.8391 293.951 27.0621 295.423 27.2541 296.684H28.4431C28.2341 295.376 27.9771 293.839 27.6361 292.128C27.4621 291.266 27.2671 290.347 27.0591 289.408C27.9112 289.068 28.7426 288.678 29.5491 288.24C30.6467 289.183 31.8684 289.972 33.1801 290.584C32.8531 291.384 32.5261 292.156 32.2131 292.884C31.5941 294.317 31.0031 295.59 30.4741 296.684H31.7611C32.2061 295.675 32.7001 294.549 33.2081 293.304C33.5421 292.49 33.9081 291.621 34.2231 290.717C35.6799 291.062 37.1813 291.179 38.6741 291.065C39.3183 290.964 39.9332 290.725 40.4769 290.365C41.0206 290.005 41.4804 289.532 41.8251 288.978C41.951 288.724 42.0258 288.449 42.0451 288.166C42.0644 287.884 42.0279 287.6 41.9376 287.332C41.8474 287.063 41.7051 286.815 41.519 286.602C41.333 286.389 41.1067 286.214 40.8531 286.088C40.7823 286.053 40.7095 286.021 40.6351 285.994C38.9101 285.417 36.2741 287.385 35.3071 288.686C35.2511 288.763 34.7231 289.674 34.4071 290.251C34.5461 289.882 34.6851 289.551 34.8171 289.145C35.0951 288.394 35.3461 287.636 35.6241 286.822C35.7421 286.422 35.8601 286.022 35.9861 285.612C36.1121 285.202 36.1951 284.777 36.3061 284.353C36.5421 283.365 36.7301 282.353 36.9061 281.334C38.2556 281.872 39.6793 282.2 41.1281 282.308C41.7838 282.306 42.4311 282.16 43.0246 281.881C43.6181 281.602 44.1435 281.197 44.5641 280.694C44.7284 280.464 44.8459 280.204 44.9097 279.929C44.9735 279.654 44.9825 279.369 44.936 279.09C44.8896 278.812 44.7887 278.545 44.6391 278.305C44.4894 278.066 44.294 277.858 44.0641 277.694C44.0011 277.65 43.9351 277.608 43.8641 277.57C42.2431 276.735 39.3431 278.27 38.1891 279.42C38.1191 279.496 37.3821 280.408 36.9891 280.92C37.0891 280.301 37.1891 279.689 37.2671 279.063C37.4901 277.255 37.6561 275.419 37.8371 273.589C37.8931 273.033 37.9551 272.476 38.0111 271.913C39.407 272.473 40.8798 272.817 42.3791 272.935C43.0343 272.933 43.6812 272.789 44.2747 272.511C44.8682 272.234 45.3939 271.83 45.8151 271.328C45.9794 271.098 46.0969 270.838 46.1607 270.563C46.2245 270.288 46.2335 270.003 46.187 269.724C46.1406 269.446 46.0397 269.179 45.8901 268.939C45.7404 268.7 45.5451 268.492 45.3151 268.328C45.2521 268.284 45.1861 268.242 45.1151 268.203C43.4941 267.368 40.5941 268.903 39.4401 270.053C39.3571 270.143 38.2991 271.444 38.0491 271.806C38.1741 270.582 38.3201 269.351 38.5081 268.155C38.7517 266.529 39.1024 264.921 39.5581 263.342C40.9643 263.905 42.4478 264.252 43.9581 264.371C44.6122 264.369 45.2579 264.224 45.8502 263.947C46.4425 263.669 46.967 263.265 47.3871 262.764C47.5514 262.534 47.6689 262.274 47.7327 261.999C47.7965 261.724 47.8055 261.439 47.759 261.16C47.7126 260.882 47.6117 260.615 47.4621 260.375C47.3124 260.136 47.1171 259.928 46.8871 259.764C46.8241 259.719 46.7581 259.678 46.6871 259.639C45.0661 258.804 42.1661 260.339 41.0121 261.489C40.9361 261.566 40.1361 262.567 39.7601 263.054L39.6701 263.005C40.1684 261.429 40.8087 259.902 41.5831 258.442C41.9931 257.628 42.4381 256.877 42.8831 256.154C44.1954 256.843 45.6011 257.338 47.0561 257.622C47.708 257.704 48.37 257.636 48.9918 257.424C49.6137 257.212 50.1791 256.861 50.6451 256.398C50.8321 256.185 50.9754 255.938 51.0668 255.67C51.1582 255.402 51.196 255.119 51.1779 254.836C51.1597 254.554 51.0862 254.277 50.9613 254.023C50.8364 253.769 50.6627 253.542 50.4501 253.355C50.3923 253.304 50.3318 253.257 50.2691 253.212C48.7531 252.203 45.6991 253.412 44.4271 254.429C44.3571 254.485 43.7271 255.129 43.2521 255.59L43.8711 254.63C44.6361 253.482 45.4011 252.474 46.0901 251.591C46.4901 251.097 46.8551 250.652 47.2031 250.242C48.6732 250.264 50.1377 250.055 51.5431 249.623C52.1548 249.386 52.7072 249.018 53.1614 248.545C53.6156 248.071 53.9606 247.504 54.1721 246.883C54.3081 246.326 54.2174 245.737 53.9198 245.247C53.6222 244.757 53.1421 244.405 52.5851 244.268C52.5117 244.251 52.4381 244.237 52.3641 244.226C50.5561 244.031 48.4071 246.514 47.7391 248.003C47.6831 248.128 47.0391 250.243 47.0391 250.243C46.6981 250.633 46.3391 251.05 45.9471 251.523C45.2471 252.392 44.4471 253.38 43.6471 254.514C42.7837 255.731 41.9917 256.996 41.2751 258.305C40.4644 259.763 39.7847 261.29 39.2441 262.868V260.788C39.0351 259.174 37.6791 256.177 35.8921 255.85C35.593 255.802 35.2873 255.818 34.9949 255.897C34.7025 255.975 34.4299 256.115 34.1949 256.306C33.96 256.497 33.7679 256.735 33.6313 257.005C33.4947 257.276 33.4166 257.572 33.4021 257.874C33.4279 258.528 33.5963 259.169 33.8955 259.752C34.1946 260.334 34.6173 260.845 35.1341 261.247C36.3929 262.073 37.7695 262.704 39.2171 263.118C38.7046 264.737 38.3036 266.389 38.0171 268.063C37.8431 269.037 37.6971 270.024 37.5651 271.019V270.087C37.3561 268.473 36.0071 265.476 34.2131 265.149C33.6482 265.062 33.0717 265.202 32.6104 265.54C32.1491 265.877 31.8407 266.384 31.7531 266.949C31.7412 267.023 31.7335 267.097 31.7301 267.172C31.7549 267.828 31.9228 268.47 32.222 269.054C32.5212 269.638 32.9444 270.149 33.4621 270.552C34.6804 271.358 36.0153 271.973 37.4201 272.374C37.3781 272.757 37.3201 273.139 37.2811 273.515C37.0581 275.344 36.8501 277.173 36.5811 278.954C36.4811 279.587 36.3721 280.199 36.2611 280.818V280.011C36.0521 278.397 34.6961 275.4 32.9091 275.073C32.6333 275.007 32.3471 274.996 32.067 275.04C31.787 275.085 31.5184 275.185 31.2769 275.333C31.0354 275.482 30.8255 275.677 30.6594 275.907C30.4934 276.137 30.3743 276.397 30.3091 276.673C30.2807 276.792 30.2626 276.913 30.2551 277.035C30.2819 277.689 30.4507 278.33 30.7497 278.912C31.0488 279.495 31.471 280.005 31.9871 280.408C33.1672 281.204 34.4651 281.809 35.8331 282.202C35.7011 282.828 35.5691 283.454 35.4161 284.059C35.2981 284.469 35.2161 284.873 35.0751 285.276C34.9341 285.679 34.8111 286.076 34.6861 286.476C34.4151 287.227 34.1371 288.006 33.8511 288.736C33.6561 289.236 33.4621 289.717 33.2671 290.204C33.3671 289.578 33.5311 288.354 33.5311 288.25C33.5138 286.818 33.1281 285.414 32.4111 284.174C32.425 284.017 32.425 283.858 32.4111 283.701C32.3699 283.399 32.2652 283.11 32.1039 282.851C31.9426 282.593 31.7283 282.372 31.4753 282.202C31.2222 282.033 30.9361 281.919 30.6358 281.868C30.3355 281.817 30.0278 281.83 29.7331 281.907C27.9661 282.373 26.8541 285.461 26.7701 287.089C26.7701 287.189 26.8261 288.23 26.8811 288.889C26.7911 288.507 26.7071 288.131 26.6101 287.741C26.4291 286.962 26.2211 286.19 25.9981 285.355C25.8801 284.955 25.7621 284.555 25.6361 284.155C25.5101 283.755 25.3511 283.341 25.2121 282.924C24.8641 281.971 24.4611 281.024 24.0371 280.079C25.4616 279.784 26.8319 279.27 28.0991 278.556C28.6442 278.193 29.1039 277.716 29.4461 277.157C29.7884 276.599 30.0051 275.973 30.0811 275.322C30.0884 275.039 30.0399 274.757 29.9383 274.493C29.8367 274.229 29.6841 273.987 29.489 273.782C29.294 273.576 29.0605 273.411 28.8018 273.296C28.543 273.181 28.2642 273.118 27.9811 273.111C27.9044 273.109 27.8276 273.111 27.7511 273.117C25.9361 273.312 24.3641 276.198 24.0371 277.791C24.0371 277.891 23.9121 279.057 23.8631 279.704C23.6061 279.134 23.3481 278.57 23.0701 278.004C22.2561 276.37 21.3871 274.749 20.5311 273.135L19.7451 271.635C21.2243 271.344 22.6474 270.818 23.9601 270.077C24.5039 269.713 24.9623 269.236 25.3033 268.677C25.6443 268.119 25.8599 267.493 25.9351 266.843C25.9518 266.273 25.7415 265.72 25.3505 265.305C24.9595 264.891 24.4198 264.648 23.8501 264.631C23.7683 264.629 23.6865 264.631 23.6051 264.638C21.7971 264.833 20.2251 267.719 19.8981 269.312C19.8981 269.43 19.7171 271.112 19.7031 271.545C19.1331 270.445 18.5691 269.345 18.0621 268.245C17.3733 266.754 16.7807 265.221 16.2881 263.655C17.7755 263.366 19.2062 262.838 20.5241 262.09C21.0689 261.73 21.529 261.256 21.8728 260.7C22.2165 260.145 22.4357 259.521 22.5151 258.873C22.5224 258.57 22.4662 258.27 22.3501 257.99C22.234 257.71 22.0605 257.458 21.841 257.25C21.6215 257.041 21.3607 256.881 21.0755 256.78C20.7902 256.679 20.4869 256.638 20.1851 256.661C18.3771 256.861 16.8051 259.749 16.4781 261.342C16.4781 261.442 16.3391 262.733 16.2971 263.342H16.1971C15.7422 261.75 15.4326 260.121 15.2721 258.473C15.1721 257.573 15.1191 256.699 15.0981 255.851C16.5706 255.713 18.0132 255.35 19.3751 254.773C19.9588 254.475 20.4692 254.052 20.8697 253.533C21.2701 253.014 21.5507 252.413 21.6911 251.773C21.7305 251.494 21.7144 251.209 21.6438 250.936C21.5732 250.663 21.4494 250.406 21.2795 250.18C21.1097 249.955 20.8971 249.765 20.6538 249.622C20.4106 249.479 20.1416 249.385 19.8621 249.346C19.7766 249.333 19.6904 249.326 19.6041 249.325C17.7821 249.325 15.9041 252.017 15.4311 253.561C15.4311 253.651 15.2221 254.535 15.0971 255.182V254.034C15.0971 252.643 15.1801 251.398 15.2711 250.278C15.3271 249.645 15.3821 249.078 15.4521 248.539C16.6868 247.738 17.7936 246.756 18.7351 245.625C19.1148 245.091 19.3741 244.482 19.495 243.838C19.6158 243.194 19.5954 242.532 19.4351 241.897C19.242 241.357 18.8423 240.915 18.3238 240.67C17.8053 240.424 17.2105 240.394 16.6701 240.587C16.6003 240.612 16.5319 240.641 16.4651 240.673C14.8511 241.515 14.4201 244.773 14.6911 246.373C14.6911 246.512 15.3241 248.64 15.3521 248.619H15.3871C15.3111 249.134 15.2411 249.683 15.1781 250.288C15.0671 251.401 14.9551 252.667 14.9211 254.051C14.8695 255.54 14.9029 257.031 15.0211 258.516C15.1483 260.171 15.4231 261.81 15.8421 263.416V263.472C15.5571 263.02 14.7081 261.789 14.6321 261.705C13.5681 260.474 10.7931 258.721 9.11707 259.431C8.84147 259.557 8.59546 259.74 8.39504 259.967C8.19462 260.194 8.04426 260.461 7.95373 260.751C7.86319 261.04 7.83451 261.345 7.86954 261.646C7.90458 261.947 8.00254 262.237 8.15707 262.498C8.53886 263.028 9.03094 263.469 9.59941 263.79C10.1679 264.112 10.7993 264.306 11.4501 264.36Z" fill="#263238"/>
<path opacity="0.3" d="M10.3511 255.096C11.8207 255.483 13.3393 255.652 14.8581 255.596C14.8651 255.596 14.1581 253.509 14.1071 253.377C13.4071 251.91 11.1861 249.482 9.38408 249.726C9.10383 249.772 8.83547 249.874 8.59434 250.024C8.35321 250.174 8.14403 250.37 7.97874 250.601C7.81345 250.832 7.69529 251.094 7.631 251.37C7.56672 251.647 7.55757 251.934 7.60408 252.214C7.61708 252.288 7.63307 252.36 7.65207 252.432C7.88096 253.046 8.24107 253.602 8.70724 254.062C9.17342 254.522 9.73442 254.875 10.3511 255.096Z" fill="#263238"/>
<path opacity="0.3" d="M42.6921 255.798C42.6921 255.798 43.2761 253.677 43.2971 253.538C43.5201 251.924 43.0051 248.669 41.3631 247.89C41.105 247.773 40.8264 247.709 40.5434 247.7C40.2604 247.691 39.9784 247.738 39.7136 247.839C39.4487 247.939 39.2062 248.09 38.9999 248.284C38.7936 248.478 38.6275 248.711 38.5111 248.969C38.4792 249.039 38.4515 249.11 38.4281 249.183C38.2808 249.821 38.2741 250.484 38.4086 251.126C38.5432 251.767 38.8156 252.371 39.2071 252.897C40.2185 254.031 41.393 255.009 42.6921 255.798Z" fill="#263238"/>
<path opacity="0.3" d="M11.4501 264.36C12.9558 264.351 14.4516 264.115 15.8871 263.66C16.357 265.292 16.9356 266.89 17.6191 268.445C18.0137 269.372 18.4311 270.276 18.8711 271.157C18.6141 270.781 18.3771 270.457 18.3351 270.399C17.2711 269.168 14.4961 267.415 12.8201 268.125C12.5445 268.251 12.2985 268.434 12.098 268.661C11.8976 268.888 11.7473 269.155 11.6567 269.445C11.5662 269.734 11.5375 270.039 11.5725 270.34C11.6076 270.641 11.7055 270.931 11.8601 271.192C12.2407 271.724 12.7336 272.166 13.3038 272.487C13.874 272.808 14.5076 273 15.1601 273.049C16.6248 273.048 18.0809 272.825 19.4791 272.388C19.6461 272.729 19.8131 273.088 19.9871 273.417C20.8151 275.065 21.6421 276.7 22.4071 278.334C22.6781 278.911 22.9291 279.489 23.1721 280.059C22.9421 279.725 22.7411 279.44 22.7061 279.398C21.6421 278.167 18.8671 276.414 17.1911 277.131C16.6711 277.368 16.2666 277.803 16.0667 278.338C15.8668 278.874 15.8878 279.467 16.1251 279.987C16.1569 280.055 16.1923 280.122 16.2311 280.187C16.6125 280.719 17.1053 281.161 17.6753 281.483C18.2452 281.805 18.8785 281.999 19.5311 282.051C20.9475 282.071 22.3575 281.858 23.7041 281.418C23.9401 282.018 24.1771 282.618 24.4041 283.205C24.5291 283.605 24.6821 283.991 24.7871 284.405C24.8921 284.819 25.0171 285.219 25.1281 285.622C25.3161 286.401 25.5111 287.201 25.6771 287.966C25.7951 288.494 25.8931 289.002 25.9971 289.51C25.7331 288.94 25.1971 287.82 25.1421 287.736C24.2801 286.345 21.7971 284.203 20.0301 284.655C19.7584 284.735 19.505 284.867 19.2845 285.045C19.0639 285.222 18.8805 285.442 18.7448 285.69C18.609 285.939 18.5235 286.211 18.4932 286.493C18.4629 286.775 18.4883 287.059 18.5681 287.331C18.5883 287.399 18.612 287.466 18.6391 287.531C18.9389 288.114 19.3615 288.626 19.8778 289.031C20.3941 289.435 20.9919 289.723 21.6301 289.875C22.9101 290.265 25.7401 289.875 26.0951 289.875C26.2621 290.717 26.4221 291.544 26.5541 292.323C26.8391 293.951 27.0621 295.423 27.2541 296.684H28.4431C28.2341 295.376 27.9771 293.839 27.6361 292.128C27.4621 291.266 27.2671 290.347 27.0591 289.408C27.9112 289.068 28.7426 288.678 29.5491 288.24C30.6467 289.183 31.8684 289.972 33.1801 290.584C32.8531 291.384 32.5261 292.156 32.2131 292.884C31.5941 294.317 31.0031 295.59 30.4741 296.684H31.7611C32.2061 295.675 32.7001 294.549 33.2081 293.304C33.5421 292.49 33.9081 291.621 34.2231 290.717C35.6799 291.062 37.1813 291.179 38.6741 291.065C39.3183 290.964 39.9332 290.725 40.4769 290.365C41.0206 290.005 41.4804 289.532 41.8251 288.978C41.951 288.724 42.0258 288.449 42.0451 288.166C42.0644 287.884 42.0279 287.6 41.9376 287.332C41.8474 287.063 41.7051 286.815 41.519 286.602C41.333 286.389 41.1067 286.214 40.8531 286.088C40.7823 286.053 40.7095 286.021 40.6351 285.994C38.9101 285.417 36.2741 287.385 35.3071 288.686C35.2511 288.763 34.7231 289.674 34.4071 290.251C34.5461 289.882 34.6851 289.551 34.8171 289.145C35.0951 288.394 35.3461 287.636 35.6241 286.822C35.7421 286.422 35.8601 286.022 35.9861 285.612C36.1121 285.202 36.1951 284.777 36.3061 284.353C36.5421 283.365 36.7301 282.353 36.9061 281.334C38.2556 281.872 39.6793 282.2 41.1281 282.308C41.7838 282.306 42.4311 282.16 43.0246 281.881C43.6181 281.602 44.1435 281.197 44.5641 280.694C44.7284 280.464 44.8459 280.204 44.9097 279.929C44.9735 279.654 44.9825 279.369 44.936 279.09C44.8896 278.812 44.7887 278.545 44.6391 278.305C44.4894 278.066 44.294 277.858 44.0641 277.694C44.0011 277.65 43.9351 277.608 43.8641 277.57C42.2431 276.735 39.3431 278.27 38.1891 279.42C38.1191 279.496 37.3821 280.408 36.9891 280.92C37.0891 280.301 37.1891 279.689 37.2671 279.063C37.4901 277.255 37.6561 275.419 37.8371 273.589C37.8931 273.033 37.9551 272.476 38.0111 271.913C39.407 272.473 40.8798 272.817 42.3791 272.935C43.0343 272.933 43.6812 272.789 44.2747 272.511C44.8682 272.234 45.3939 271.83 45.8151 271.328C45.9794 271.098 46.0969 270.838 46.1607 270.563C46.2245 270.288 46.2335 270.003 46.187 269.724C46.1406 269.446 46.0397 269.179 45.8901 268.939C45.7404 268.7 45.5451 268.492 45.3151 268.328C45.2521 268.284 45.1861 268.242 45.1151 268.203C43.4941 267.368 40.5941 268.903 39.4401 270.053C39.3571 270.143 38.2991 271.444 38.0491 271.806C38.1741 270.582 38.3201 269.351 38.5081 268.155C38.7517 266.529 39.1024 264.921 39.5581 263.342C40.9643 263.905 42.4478 264.252 43.9581 264.371C44.6122 264.369 45.2579 264.224 45.8502 263.947C46.4425 263.669 46.967 263.265 47.3871 262.764C47.5514 262.534 47.6689 262.274 47.7327 261.999C47.7965 261.724 47.8055 261.439 47.759 261.16C47.7126 260.882 47.6117 260.615 47.4621 260.375C47.3124 260.136 47.1171 259.928 46.8871 259.764C46.8241 259.719 46.7581 259.678 46.6871 259.639C45.0661 258.804 42.1661 260.339 41.0121 261.489C40.9361 261.566 40.1361 262.567 39.7601 263.054L39.6701 263.005C40.1684 261.429 40.8087 259.902 41.5831 258.442C41.9931 257.628 42.4381 256.877 42.8831 256.154C44.1954 256.843 45.6011 257.338 47.0561 257.622C47.708 257.704 48.37 257.636 48.9918 257.424C49.6137 257.212 50.1791 256.861 50.6451 256.398C50.8321 256.185 50.9754 255.938 51.0668 255.67C51.1582 255.402 51.196 255.119 51.1779 254.836C51.1597 254.554 51.0862 254.277 50.9613 254.023C50.8364 253.769 50.6627 253.542 50.4501 253.355C50.3923 253.304 50.3318 253.257 50.2691 253.212C48.7531 252.203 45.6991 253.412 44.4271 254.429C44.3571 254.485 43.7271 255.129 43.2521 255.59L43.8711 254.63C44.6361 253.482 45.4011 252.474 46.0901 251.591C46.4901 251.097 46.8551 250.652 47.2031 250.242C48.6732 250.264 50.1377 250.055 51.5431 249.623C52.1548 249.386 52.7072 249.018 53.1614 248.545C53.6156 248.071 53.9606 247.504 54.1721 246.883C54.3081 246.326 54.2174 245.737 53.9198 245.247C53.6222 244.757 53.1421 244.405 52.5851 244.268C52.5117 244.251 52.4381 244.237 52.3641 244.226C50.5561 244.031 48.4071 246.514 47.7391 248.003C47.6831 248.128 47.0391 250.243 47.0391 250.243C46.6981 250.633 46.3391 251.05 45.9471 251.523C45.2471 252.392 44.4471 253.38 43.6471 254.514C42.7837 255.731 41.9917 256.996 41.2751 258.305C40.4644 259.763 39.7847 261.29 39.2441 262.868V260.788C39.0351 259.174 37.6791 256.177 35.8921 255.85C35.593 255.802 35.2873 255.818 34.9949 255.897C34.7025 255.975 34.4299 256.115 34.1949 256.306C33.96 256.497 33.7679 256.735 33.6313 257.005C33.4947 257.276 33.4166 257.572 33.4021 257.874C33.4279 258.528 33.5963 259.169 33.8955 259.752C34.1946 260.334 34.6173 260.845 35.1341 261.247C36.3929 262.073 37.7695 262.704 39.2171 263.118C38.7046 264.737 38.3036 266.389 38.0171 268.063C37.8431 269.037 37.6971 270.024 37.5651 271.019V270.087C37.3561 268.473 36.0071 265.476 34.2131 265.149C33.6482 265.062 33.0717 265.202 32.6104 265.54C32.1491 265.877 31.8407 266.384 31.7531 266.949C31.7412 267.023 31.7335 267.097 31.7301 267.172C31.7549 267.828 31.9228 268.47 32.222 269.054C32.5212 269.638 32.9444 270.149 33.4621 270.552C34.6804 271.358 36.0153 271.973 37.4201 272.374C37.3781 272.757 37.3201 273.139 37.2811 273.515C37.0581 275.344 36.8501 277.173 36.5811 278.954C36.4811 279.587 36.3721 280.199 36.2611 280.818V280.011C36.0521 278.397 34.6961 275.4 32.9091 275.073C32.6333 275.007 32.3471 274.996 32.067 275.04C31.787 275.085 31.5184 275.185 31.2769 275.333C31.0354 275.482 30.8255 275.677 30.6594 275.907C30.4934 276.137 30.3743 276.397 30.3091 276.673C30.2807 276.792 30.2626 276.913 30.2551 277.035C30.2819 277.689 30.4507 278.33 30.7497 278.912C31.0488 279.495 31.471 280.005 31.9871 280.408C33.1672 281.204 34.4651 281.809 35.8331 282.202C35.7011 282.828 35.5691 283.454 35.4161 284.059C35.2981 284.469 35.2161 284.873 35.0751 285.276C34.9341 285.679 34.8111 286.076 34.6861 286.476C34.4151 287.227 34.1371 288.006 33.8511 288.736C33.6561 289.236 33.4621 289.717 33.2671 290.204C33.3671 289.578 33.5311 288.354 33.5311 288.25C33.5138 286.818 33.1281 285.414 32.4111 284.174C32.425 284.017 32.425 283.858 32.4111 283.701C32.3699 283.399 32.2652 283.11 32.1039 282.851C31.9426 282.593 31.7283 282.372 31.4753 282.202C31.2222 282.033 30.9361 281.919 30.6358 281.868C30.3355 281.817 30.0278 281.83 29.7331 281.907C27.9661 282.373 26.8541 285.461 26.7701 287.089C26.7701 287.189 26.8261 288.23 26.8811 288.889C26.7911 288.507 26.7071 288.131 26.6101 287.741C26.4291 286.962 26.2211 286.19 25.9981 285.355C25.8801 284.955 25.7621 284.555 25.6361 284.155C25.5101 283.755 25.3511 283.341 25.2121 282.924C24.8641 281.971 24.4611 281.024 24.0371 280.079C25.4616 279.784 26.8319 279.27 28.0991 278.556C28.6442 278.193 29.1039 277.716 29.4461 277.157C29.7884 276.599 30.0051 275.973 30.0811 275.322C30.0884 275.039 30.0399 274.757 29.9383 274.493C29.8367 274.229 29.6841 273.987 29.489 273.782C29.294 273.576 29.0605 273.411 28.8018 273.296C28.543 273.181 28.2642 273.118 27.9811 273.111C27.9044 273.109 27.8276 273.111 27.7511 273.117C25.9361 273.312 24.3641 276.198 24.0371 277.791C24.0371 277.891 23.9121 279.057 23.8631 279.704C23.6061 279.134 23.3481 278.57 23.0701 278.004C22.2561 276.37 21.3871 274.749 20.5311 273.135L19.7451 271.635C21.2243 271.344 22.6474 270.818 23.9601 270.077C24.5039 269.713 24.9623 269.236 25.3033 268.677C25.6443 268.119 25.8599 267.493 25.9351 266.843C25.9518 266.273 25.7415 265.72 25.3505 265.305C24.9595 264.891 24.4198 264.648 23.8501 264.631C23.7683 264.629 23.6865 264.631 23.6051 264.638C21.7971 264.833 20.2251 267.719 19.8981 269.312C19.8981 269.43 19.7171 271.112 19.7031 271.545C19.1331 270.445 18.5691 269.345 18.0621 268.245C17.3733 266.754 16.7807 265.221 16.2881 263.655C17.7755 263.366 19.2062 262.838 20.5241 262.09C21.0689 261.73 21.529 261.256 21.8728 260.7C22.2165 260.145 22.4357 259.521 22.5151 258.873C22.5224 258.57 22.4662 258.27 22.3501 257.99C22.234 257.71 22.0605 257.458 21.841 257.25C21.6215 257.041 21.3607 256.881 21.0755 256.78C20.7902 256.679 20.4869 256.638 20.1851 256.661C18.3771 256.861 16.8051 259.749 16.4781 261.342C16.4781 261.442 16.3391 262.733 16.2971 263.342H16.1971C15.7422 261.75 15.4326 260.121 15.2721 258.473C15.1721 257.573 15.1191 256.699 15.0981 255.851C16.5706 255.713 18.0132 255.35 19.3751 254.773C19.9588 254.475 20.4692 254.052 20.8697 253.533C21.2701 253.014 21.5507 252.413 21.6911 251.773C21.7305 251.494 21.7144 251.209 21.6438 250.936C21.5732 250.663 21.4494 250.406 21.2795 250.18C21.1097 249.955 20.8971 249.765 20.6538 249.622C20.4106 249.479 20.1416 249.385 19.8621 249.346C19.7766 249.333 19.6904 249.326 19.6041 249.325C17.7821 249.325 15.9041 252.017 15.4311 253.561C15.4311 253.651 15.2221 254.535 15.0971 255.182V254.034C15.0971 252.643 15.1801 251.398 15.2711 250.278C15.3271 249.645 15.3821 249.078 15.4521 248.539C16.6868 247.738 17.7936 246.756 18.7351 245.625C19.1148 245.091 19.3741 244.482 19.495 243.838C19.6158 243.194 19.5954 242.532 19.4351 241.897C19.242 241.357 18.8423 240.915 18.3238 240.67C17.8053 240.424 17.2105 240.394 16.6701 240.587C16.6003 240.612 16.5319 240.641 16.4651 240.673C14.8511 241.515 14.4201 244.773 14.6911 246.373C14.6911 246.512 15.3241 248.64 15.3521 248.619H15.3871C15.3111 249.134 15.2411 249.683 15.1781 250.288C15.0671 251.401 14.9551 252.667 14.9211 254.051C14.8695 255.54 14.9029 257.031 15.0211 258.516C15.1483 260.171 15.4231 261.81 15.8421 263.416V263.472C15.5571 263.02 14.7081 261.789 14.6321 261.705C13.5681 260.474 10.7931 258.721 9.11707 259.431C8.84147 259.557 8.59546 259.74 8.39504 259.967C8.19462 260.194 8.04426 260.461 7.95373 260.751C7.86319 261.04 7.83451 261.345 7.86954 261.646C7.90458 261.947 8.00254 262.237 8.15707 262.498C8.53886 263.028 9.03094 263.469 9.59941 263.79C10.1679 264.112 10.7993 264.306 11.4501 264.36Z" fill="#263238"/>
<path d="M198.315 286.617L203.184 295.499C204.964 295.9 206.829 295.652 208.442 294.799C211.161 293.345 214.062 291.168 216.058 290.445C218.054 289.722 224.036 285.91 225.67 283.01C227.304 280.11 227.84 278.141 225.121 278.837C222.8 279.475 220.44 279.958 218.055 280.284C215.459 280.48 212.851 280.48 210.255 280.284L198.315 286.617Z" fill="white" stroke="#263238" stroke-miterlimit="10"/>
<path d="M135.809 283.834C137.238 285.994 139.088 287.844 141.248 289.273C144.517 291.273 149.956 292.542 149.594 294.35C149.232 296.158 145.421 297.612 141.623 297.07C136.514 296.117 131.482 294.785 126.57 293.085C124.393 292.174 123.127 291.993 123.127 290.546C123.127 289.099 127.119 278.946 127.119 278.946L135.809 283.834Z" fill="white" stroke="#263238" stroke-miterlimit="10"/>
<path d="M156.612 122.648C156.612 122.648 149.9 130.229 147.355 135.167C144.81 140.105 134.377 156.304 135.83 158.745C137.283 161.186 144.767 168.99 148.593 171.612C152.419 174.234 155.757 177.058 155.757 177.058L158.65 174.874C158.65 174.874 153.378 167.446 150.304 162.403C147.23 157.36 145.38 154.752 145.38 154.752C145.38 154.752 153.88 144.319 156.042 141.6C158.204 138.881 158.963 126.994 159.061 125.93C159.159 124.866 158.323 121.257 156.612 122.648Z" fill="white" stroke="#263238" stroke-miterlimit="10"/>
<path d="M179.888 85.8549C179.888 85.8549 182.26 88.4079 182.461 91.1129C182.662 93.8179 181.946 96.4269 183.661 97.5739C185.376 98.7209 187.396 98.9649 186.367 99.7369C185.338 100.509 183.439 101.949 183.439 101.949C183.439 101.949 182.597 110.191 181.721 110.622C180.845 111.053 173.632 111.95 173.632 111.95C173.632 111.95 171.052 116.318 171.601 118.822C172.15 121.326 176.574 129.547 179.307 134.622C182.04 139.697 182.193 141.675 181.107 146.668C180.021 151.661 176.6 172.889 176.781 176.332C176.962 179.775 179.5 184.852 179.5 184.852C179.5 184.852 194.009 224.74 195.636 229.268C197.263 233.796 196.728 244.5 197.813 248.485C198.898 252.47 205.971 266.436 207.063 268.975C208.155 271.514 212.272 277.008 212.272 277.008L213.172 278.823C213.172 278.823 210.633 281 207.733 283.17C205.405 284.889 202.824 286.235 200.082 287.162C198.816 287.524 197.182 288.062 197.182 288.062C197.182 288.062 191.618 278.213 189.434 272.955C187.25 267.697 183.634 261.896 182.91 254.287C182.186 246.678 179.829 239.779 177.833 233.797C175.837 227.815 169.313 217.297 169.313 217.297C169.313 217.297 164.055 238.329 159.882 243.407C155.709 248.485 149.734 262.075 145.923 268.967C142.112 275.859 140.303 277.487 139.942 280.749C139.737 282.665 139.313 284.55 138.676 286.369C138.676 286.369 132.326 285.103 129.064 282.926C126.906 281.437 124.902 279.737 123.083 277.849C123.083 277.849 132.125 258.449 136.5 249.931C140.875 241.413 146.105 222.555 146.286 221.283C146.467 220.011 148.286 209.32 149.005 206.962C149.724 204.604 149.916 204.423 149.735 203.162C149.554 201.901 144.658 194.28 146.647 186.845C148.636 179.41 154.047 172.114 154.047 172.114C154.047 172.114 157.219 160.986 157.191 158.065C157.163 155.144 154.117 148.474 153.275 141.992C152.433 135.51 152.837 126.211 155.765 121.627C158.693 117.043 163.416 109.803 163.68 108.141C163.944 106.479 164.841 104.232 162.609 98.5849C160.377 92.9379 165.641 87.9989 169.309 85.9059C172.977 83.8129 179.888 85.8549 179.888 85.8549Z" fill="white" stroke="#263238" stroke-miterlimit="10"/>
<path d="M180.427 97.902C180.769 97.902 181.046 97.2107 181.046 96.358C181.046 95.5052 180.769 94.814 180.427 94.814C180.085 94.814 179.808 95.5052 179.808 96.358C179.808 97.2107 180.085 97.902 180.427 97.902Z" fill="#263238"/>
<path d="M178.785 93.7909C178.926 93.604 179.104 93.449 179.309 93.3358C179.514 93.2226 179.74 93.1539 179.973 93.1342C180.206 93.1145 180.44 93.1442 180.661 93.2213C180.882 93.2985 181.084 93.4213 181.254 93.5819" stroke="#263238" stroke-miterlimit="10"/>
<path d="M182.895 104.69C182.273 104.774 181.641 104.66 181.088 104.364C180.535 104.068 180.089 103.606 179.814 103.042" stroke="#263238" stroke-miterlimit="10"/>
<path d="M175.335 193.911L169.896 215.124" stroke="#263238" stroke-miterlimit="10"/>
<path d="M188.752 243.224C188.752 243.224 187.637 258.094 186.937 263.144" stroke="#263238" stroke-miterlimit="10"/>
<path d="M190.928 251.751C190.928 251.751 189.294 263.533 189.294 264.618" stroke="#263238" stroke-miterlimit="10"/>
<path d="M170.063 98.0339C170.063 98.0339 167.003 93.5339 164.694 96.7959C162.385 100.058 164.458 103.355 165.758 103.807C166.073 103.945 166.414 104.016 166.758 104.016C167.102 104.016 167.443 103.945 167.758 103.807C166.986 106.112 165.86 108.283 164.419 110.241C162.103 113.322 155.962 116.32 150.982 115.416C146.002 114.512 136.62 105.567 138.421 97.9789C140.222 90.3909 142.128 86.6209 144.298 86.4539C146.468 86.2869 147.776 89.1109 150.298 88.9229C152.82 88.7349 155.918 78.8729 164.862 76.9389C173.806 75.0049 181.401 79.3519 182.354 82.3709C183.307 85.3899 181.978 87.1279 181.074 87.1909C180.17 87.2539 176.574 85.3409 174.494 86.7669C172.414 88.1929 173.794 89.7299 174.077 90.9819C174.36 92.2339 172.248 93.2979 172.345 94.5639C172.442 95.8299 172.728 97.2639 172.004 97.3459C171.326 97.4765 170.672 97.7084 170.063 98.0339Z" fill="#263238" stroke="#263238" stroke-miterlimit="10"/>
<path d="M179.285 134.618C178.585 133.318 177.769 131.836 176.941 130.243C176.669 130.379 176.375 130.464 176.072 130.493C173.721 130.667 168.421 122.877 163.108 119.817C162.253 119.228 161.256 118.878 160.22 118.803C159.185 118.729 158.148 118.932 157.217 119.393C156.974 119.783 156.73 120.158 156.517 120.527C157.594 120.063 158.768 119.872 159.936 119.968C161.105 120.065 162.231 120.448 163.217 121.083C168.205 124.361 171.862 129.308 173.533 135.038C174.59 139.503 169.492 146.792 162.711 148.566C158.427 149.686 155.611 148.003 153.794 144.72C154.962 150.284 157.209 155.563 157.272 158.06C157.272 160.967 154.128 172.109 154.128 172.109C154.128 172.109 153.85 172.596 153.428 173.431C161.99 175.949 172.798 177.159 176.985 176.324C177.444 169.842 180.226 150.965 181.158 146.66C182.193 141.671 182.067 139.688 179.285 134.618Z" fill="#263238" stroke="#263238" stroke-miterlimit="10"/>
<path d="M160.91 121.8C160.91 121.8 165.834 121.981 168.296 125.792C170.758 129.603 181.949 145.692 183.514 147.214C185.079 148.736 187.284 151.478 187.284 151.478C187.284 151.478 204.707 141.278 207.802 138.878C210.085 136.927 212.117 134.7 213.853 132.25C213.853 132.25 214.187 129.315 214.298 128.397C214.409 127.479 217.122 127.277 217.122 127.277C217.122 127.277 218.951 124.961 220.412 125.037C221.873 125.113 222.212 127.263 222.212 127.263C222.212 127.263 224.097 130.581 224.212 132.208C224.327 133.835 220.957 137.355 219.552 138.008C218.222 138.526 216.85 138.93 215.452 139.218C215.452 139.218 204.248 152.22 200.533 156.138C197.197 159.489 193.44 162.393 189.356 164.776C187.965 165.43 182.283 162.576 181.344 162.098C180.405 161.62 156.563 139.209 156.563 139.209" fill="white"/>
<path d="M160.91 121.8C160.91 121.8 165.834 121.981 168.296 125.792C170.758 129.603 181.949 145.692 183.514 147.214C185.079 148.736 187.284 151.478 187.284 151.478C187.284 151.478 204.707 141.278 207.802 138.878C210.085 136.927 212.117 134.7 213.853 132.25C213.853 132.25 214.187 129.315 214.298 128.397C214.409 127.479 217.122 127.277 217.122 127.277C217.122 127.277 218.951 124.961 220.412 125.037C221.873 125.113 222.212 127.263 222.212 127.263C222.212 127.263 224.097 130.581 224.212 132.208C224.327 133.835 220.957 137.355 219.552 138.008C218.222 138.526 216.85 138.93 215.452 139.218C215.452 139.218 204.248 152.22 200.533 156.138C197.197 159.489 193.44 162.393 189.356 164.776C187.965 165.43 182.283 162.576 181.344 162.098C180.405 161.62 156.563 139.209 156.563 139.209" stroke="#263238" stroke-miterlimit="10"/>
<path d="M122.95 129.548C122.95 129.548 129.071 139.216 131.832 143.361C134.11 146.565 136.616 149.601 139.332 152.444C139.332 152.444 144.263 148.097 148.214 144.153C152.165 140.209 154.133 133.491 154.133 133.491C154.133 133.491 151.761 129.318 151.761 128.56C151.761 127.802 153.938 125.402 154.543 124.811C154.76 124.632 155.015 124.503 155.288 124.434C155.561 124.365 155.846 124.357 156.122 124.411C156.402 124.126 156.742 123.906 157.117 123.769C157.493 123.632 157.894 123.58 158.292 123.618C159.871 123.618 163.62 127.374 164.016 130.135C164.412 132.896 161.651 135.859 160.462 137.635C159.273 139.411 153.952 149.285 151.775 154.021C149.598 158.757 142.306 166.855 139.955 167.238C137.604 167.621 126.135 157.96 124.755 156.186C123.375 154.412 124.755 140.001 123.767 137.63C122.779 135.259 122.95 129.548 122.95 129.548Z" fill="white" stroke="#263238" stroke-miterlimit="10"/>
<path d="M156.132 124.414C156.132 124.414 161.063 128.163 159.095 128.956C158.587 129.175 158.013 129.183 157.498 128.979C156.984 128.774 156.572 128.374 156.353 127.866C156.339 127.833 156.326 127.8 156.313 127.766C156.313 127.766 158.288 130.138 157.502 132.113" stroke="#263238" stroke-miterlimit="10"/>
<path d="M157.906 129.346C157.906 129.346 160.688 132.128 162.079 132.309" stroke="#263238" stroke-miterlimit="10"/>
<path d="M95.9281 200.017C95.9281 200.017 89.4111 225.056 87.2411 227.838C85.0711 230.62 74.6101 239.877 72.6351 245.226C70.6601 250.575 61.0961 271.656 59.9141 275.015C58.7321 278.374 57.7441 279.355 57.7441 279.355L66.0351 283.897C66.0351 283.897 74.8051 267.726 79.5421 261.807C84.2791 255.888 90.3991 246.607 94.7421 242.263C99.0851 237.919 111.914 219.958 111.914 219.958L95.9281 200.017Z" fill="white" stroke="#263238" stroke-miterlimit="10"/>
<path d="M111.919 219.951L95.9191 200.017C95.9191 200.017 90.1601 222.176 87.6631 227.142C91.017 231.123 95.5247 233.964 100.563 235.273C105.796 228.519 111.919 219.951 111.919 219.951Z" fill="#263238" stroke="#263238" stroke-miterlimit="10"/>
<path d="M66.0351 283.89C66.0351 283.89 68.0661 280.308 70.4521 275.544C67.2113 274.588 64.126 273.169 61.2921 271.329C60.5921 273.329 60.1721 274.264 59.9011 275.008C58.7121 278.367 57.7311 279.348 57.7311 279.348L66.0351 283.89Z" fill="white" stroke="#263238" stroke-miterlimit="10"/>
<path d="M69.5821 287.048C69.5821 287.048 68.7961 286.659 68.5941 283.494C68.3921 280.329 68.0031 278.166 66.8201 280.142L65.6381 282.117L57.9381 277.575C57.2081 278.176 56.7152 279.017 56.5471 279.947C56.5471 281.136 51.0251 286.457 52.2071 288.036C53.3891 289.615 57.5351 289.615 61.6801 292.383C65.8251 295.151 66.6181 296.556 71.7511 296.723C76.8841 296.89 77.8651 295.144 77.8651 294.157C77.8651 293.17 73.6921 291.591 72.3431 290.206C71.3666 289.204 70.445 288.149 69.5821 287.048Z" fill="white" stroke="#263238" stroke-miterlimit="10"/>
<path d="M77.8731 294.155C77.8731 293.905 77.6161 293.626 77.1731 293.313C76.1651 293.96 73.9251 294.892 69.7521 294.349C63.6311 293.563 63.6311 291.783 60.2791 288.827C58.0852 287.125 55.5047 285.991 52.7671 285.527C52.1341 286.577 51.7931 287.509 52.1831 288.027C53.3651 289.606 57.5111 289.606 61.6561 292.374C65.8011 295.142 66.5941 296.547 71.7271 296.714C76.8601 296.881 77.8731 295.141 77.8731 294.155Z" fill="white" stroke="#263238" stroke-miterlimit="10"/>
<path d="M93.5571 185.606C93.5571 185.606 91.3871 192.706 95.3381 202.778C99.2891 212.85 115.466 230.411 120.599 234.772L125.732 239.119C125.732 239.119 126.525 250.943 132.249 259.053L151.786 286.693L158.303 281.755C158.303 281.755 152.975 275.44 151.397 269.319C149.819 263.198 141.326 244.844 139.949 238.719C138.572 232.594 133.432 221.943 132.841 220.956C132.25 219.969 121.56 199.856 121.56 199.856L123.167 190.119L93.5571 185.606Z" fill="white" stroke="#263238" stroke-miterlimit="10"/>
<path d="M119.882 234.125C121.426 232.038 125.87 227.302 135.323 226.134C134.113 223.421 133.083 221.349 132.84 220.934C132.249 219.946 121.559 199.846 121.559 199.846L123.166 190.109L93.5571 185.578C93.5571 185.578 91.3871 192.678 95.3381 202.75C99.1141 212.418 114.109 228.93 119.882 234.125Z" fill="#263238" stroke="#263238" stroke-miterlimit="10"/>
<path d="M145.602 277.912C149.08 282.857 151.785 286.669 151.785 286.669L158.302 281.731C156.178 279.122 154.358 276.28 152.877 273.26C150.719 275.193 148.262 276.764 145.602 277.912Z" fill="white" stroke="#263238" stroke-miterlimit="10"/>
<path d="M157.906 276.204C157.906 276.204 154.95 273.422 155.34 276.997C155.73 280.572 156.919 281.733 156.919 281.733C156.919 281.733 148.83 285.482 149.619 287.262C150.088 288.317 150.686 289.31 151.4 290.218C151.4 290.218 156.338 297.918 158.5 297.131C160.662 296.344 164.426 291.407 167.778 289.831C171.13 288.255 175.278 282.918 176.27 279.76C177.262 276.602 176.659 275.42 174.295 276.797C171.931 278.174 168.766 279.962 165.212 279.962C163.022 279.931 160.892 279.243 159.098 277.987L157.906 276.204Z" fill="white" stroke="#263238" stroke-miterlimit="10"/>
<path d="M175.719 276.239C175.701 276.294 175.687 276.349 175.677 276.406C174.488 281.734 167.777 285.483 164.618 288.445C161.688 290.952 158.593 293.259 155.354 295.352C156.522 296.552 157.698 297.438 158.498 297.132C160.675 296.339 164.424 291.408 167.776 289.832C171.128 288.256 175.276 282.919 176.268 279.761C177.012 277.379 176.853 276.12 175.719 276.239Z" fill="white" stroke="#263238" stroke-miterlimit="10"/>
<path d="M129.605 82.863C130.685 84.8518 131.406 87.0157 131.733 89.255C132.192 92.733 132.039 94.743 133.409 96.419C134.779 98.095 136.003 99.159 135.697 100.07C135.391 100.981 133.256 102.052 133.256 102.052C133.256 102.052 131.434 109.515 129.778 110.732C128.122 111.949 122.461 110.432 122.461 110.432C121.096 112.506 120.406 114.951 120.486 117.432C120.639 121.543 123.964 127.941 125.967 133.881C127.97 139.821 128.255 144.849 126.273 152.771C124.291 160.693 123.533 177.754 123.686 182.324C123.839 186.894 123.832 189.324 123.832 189.324C123.832 189.324 126.12 191.911 115.611 191.911C108.246 191.727 100.973 190.231 94.1331 187.494C93.5325 187.278 93.0356 186.844 92.7421 186.277C92.7421 186.277 95.1761 159.618 94.4181 157.49C93.6601 155.362 92.8951 145.59 92.8951 145.59C92.8951 145.59 93.1951 128.981 97.9171 122.735C102.639 116.489 108.128 113.763 110.103 110.563C111.292 108.49 111.725 106.069 111.327 103.712C107.788 100.797 105.147 96.9387 103.711 92.584C101.27 85.274 108.128 77.352 113.149 75.523C118.17 73.694 128.534 76.135 130.057 77.964C131.58 79.793 129.605 82.863 129.605 82.863Z" fill="white" stroke="#263238" stroke-miterlimit="10"/>
<path d="M130.057 77.989C128.534 76.16 118.178 73.719 113.149 75.548C108.12 77.377 101.27 85.285 103.711 92.609C105.147 96.9637 107.788 100.822 111.327 103.737C111.327 103.737 111.369 103.953 111.41 104.321C112.693 103.934 113.939 103.432 115.131 102.821C114.524 102.369 113.963 101.859 113.455 101.298C113.003 100.686 111.779 96.429 114.22 95.657C116.661 94.885 117.266 96.575 117.698 97.486C118.13 98.397 119.374 97.486 119.833 97.027C120.292 96.568 119.986 93.0691 119.986 93.0691C121.132 92.1959 122.202 91.2282 123.186 90.176C124.577 88.653 119.375 85.147 119.375 85.147C119.375 85.147 123.186 84.994 125.169 84.688C126.731 84.3274 128.224 83.7118 129.586 82.866C129.586 82.866 131.58 79.818 130.057 77.989Z" fill="#263238" stroke="#263238" stroke-miterlimit="10"/>
<path d="M122.437 110.434L118.637 108.605L121.224 112.716L122.437 110.434Z" fill="#263238" stroke="#263238" stroke-miterlimit="10"/>
<path d="M131.129 95.46C131.192 96.302 131.004 96.997 130.712 97.025C130.42 97.053 130.128 96.385 130.065 95.544C130.002 94.703 130.183 94.007 130.475 93.986C130.767 93.965 131.059 94.626 131.129 95.46Z" fill="#263238"/>
<path d="M128.687 92.609C128.687 92.609 129.758 90.933 130.822 91.851" stroke="#263238" stroke-miterlimit="10"/>
<path d="M131.58 104.189C131.58 104.189 129.299 103.271 129.299 102.666" stroke="#263238" stroke-miterlimit="10"/>
<path d="M123.819 189.334C123.819 189.334 123.819 186.9 123.666 182.334C123.513 177.768 124.271 160.703 126.253 152.781C128.235 144.859 127.929 139.83 125.947 133.891C125.3 131.944 124.5 129.947 123.714 127.991C120.16 128.728 116.126 123.338 113.692 119.283C112.892 117.877 111.7 116.735 110.262 115.994C108.824 115.253 107.201 114.946 105.592 115.11H105.55C105.05 115.534 104.528 115.972 103.985 116.445C105.846 116.896 107.573 117.783 109.024 119.032C110.475 120.281 111.608 121.857 112.331 123.63C115.294 130.738 110.363 139.63 104.437 142.409C100.125 144.426 95.3951 142.562 93.1491 141.409C92.9491 143.941 92.9191 145.659 92.9191 145.659C92.9191 145.659 93.6771 155.396 94.4421 157.538C95.2071 159.68 92.7661 186.325 92.7661 186.325C93.061 186.892 93.5594 187.326 94.1611 187.54C101.001 190.277 108.274 191.772 115.639 191.956C126.149 191.956 123.819 189.334 123.819 189.334Z" fill="#34EAB2" stroke="#263238" stroke-miterlimit="10"/>
<path d="M106.389 118.294C106.389 118.294 98.4951 117.894 95.1361 122.043C91.7771 126.192 75.5991 151.058 74.8081 153.035C74.0171 155.012 75.9901 157.966 75.9901 157.966C75.9901 157.966 100.667 180.077 101.453 180.271C102.239 180.465 106.788 185.8 108.165 186.197C109.542 186.594 114.091 185.404 114.682 184.806C115.273 184.208 118.034 181.648 116.852 180.633C115.67 179.618 114.877 179.054 114.877 178.463C114.877 177.872 115.468 175.681 113.298 175.305C111.128 174.929 104.416 174.905 104.416 174.905C104.416 174.905 101.064 170.961 96.7161 164.841C94.2188 161.351 91.9127 157.728 89.8081 153.988L107.968 136.419" fill="white"/>
<path d="M106.389 118.294C106.389 118.294 98.4951 117.894 95.1361 122.043C91.7771 126.192 75.5991 151.058 74.8081 153.035C74.0171 155.012 75.9901 157.966 75.9901 157.966C75.9901 157.966 100.667 180.077 101.453 180.271C102.239 180.465 106.788 185.8 108.165 186.197C109.542 186.594 114.091 185.404 114.682 184.806C115.273 184.208 118.034 181.648 116.852 180.633C115.67 179.618 114.877 179.054 114.877 178.463C114.877 177.872 115.468 175.681 113.298 175.305C111.128 174.929 104.416 174.905 104.416 174.905C104.416 174.905 101.064 170.961 96.7161 164.841C94.2188 161.351 91.9127 157.728 89.8081 153.988L107.968 136.419" stroke="#263238" stroke-miterlimit="10"/>
</svg>
